<svg xmlns="http://www.w3.org/2000/svg" xmlns:xlink="http://www.w3.org/1999/xlink" width="178" height="91" viewBox="0 0 178 91">
  <defs>
    <clipPath id="clip-path">
      <path id="패스_2465" data-name="패스 2465" d="M7.927,0H98.091a7.964,7.964,0,0,1,7.927,8V83a7.964,7.964,0,0,1-7.927,8H7.927A7.964,7.964,0,0,1,0,83V8.337C0,3.919,3.549,0,7.927,0Z" transform="translate(213.982 220)" fill="#fff" stroke="#77f" stroke-width="3"/>
    </clipPath>
    <linearGradient id="linear-gradient" x1="0.5" y1="1" x2="0.5" gradientUnits="objectBoundingBox">
      <stop offset="0" stop-color="#77f"/>
      <stop offset="0.284" stop-color="#77f"/>
      <stop offset="1" stop-color="#8797ff"/>
    </linearGradient>
    <linearGradient id="linear-gradient-2" x1="0.5" y1="0.904" x2="0.5" y2="-0.135" xlink:href="#linear-gradient"/>
    <linearGradient id="linear-gradient-12" x1="0.5" y1="0.904" x2="0.5" y2="-0.135" xlink:href="#linear-gradient"/>
    <linearGradient id="linear-gradient-18" x1="0.5" y1="0.904" x2="0.5" y2="-0.135" xlink:href="#linear-gradient"/>
    <clipPath id="clip-path-2">
      <rect id="사각형_2821" data-name="사각형 2821" width="117" height="91" rx="8" transform="translate(221.406 273)" fill="#fff"/>
    </clipPath>
  </defs>
  <g id="그룹_1888" data-name="그룹 1888" transform="translate(-206 -188)">
    <text id="View_" data-name="View " transform="translate(331 229)" fill="#fff" font-size="9" font-family="Helvetica" opacity="0.55"><tspan x="-9.675" y="7">View </tspan></text>
    <g id="그룹_1887" data-name="그룹 1887">
      <g id="사각형_2816" data-name="사각형 2816" transform="translate(211 188)" fill="#77f" stroke="#77f" stroke-width="3">
        <rect width="173" height="91" rx="8" stroke="none"/>
        <rect x="1.5" y="1.5" width="170" height="88" rx="6.5" fill="none"/>
      </g>
      <text id="View_2" data-name="View " transform="translate(351.5 236)" fill="#fff" font-size="11" font-family="Helvetica" opacity="0.55"><tspan x="-13.353" y="0">View </tspan></text>
      <g id="사각형_2820" data-name="사각형 2820" transform="translate(211 188)" fill="#fff" stroke="#77f" stroke-width="3">
        <rect width="112" height="91" rx="8" stroke="none"/>
        <rect x="1.5" y="1.5" width="109" height="88" rx="6.5" fill="none"/>
      </g>
    </g>
    <g id="마스크_그룹_144" data-name="마스크 그룹 144" transform="translate(0 -32)" clip-path="url(#clip-path)">
      <g id="그룹_1867" data-name="그룹 1867" transform="translate(209.059 280.825)">
        <g id="그룹_1856" data-name="그룹 1856" transform="translate(9.606 12.626)" opacity="0.7">
          <path id="패스_2443" data-name="패스 2443" d="M1.953,672.1a.012.012,0,0,1,0,0c0,.176-.009.35-.019.469a8.613,8.613,0,0,1-.618,2.5c-1.247,3.074-4.028,5.559-5.917,7.1,0,0-.081.072-.1.1a.2.2,0,0,1-.1.031c-.261,0-.472-.58-.472-1.294a2.835,2.835,0,0,1,.125-.877l.111-.242.248-.542a9.641,9.641,0,0,1-1.559.126c-4.59,0-8.311-3.207-8.311-7.163q0-.222.016-.441c.26-3.69,3.761-6.626,8.081-6.72l.214,0,.214,0,.1,0C-1.672,665.294,1.829,668.335,1.953,672.1Z" transform="translate(14.665 -665.147)" fill="url(#linear-gradient)"/>
          <path id="패스_2444" data-name="패스 2444" d="M107.834,717.394a6.3,6.3,0,0,1-.641,2.763,8.613,8.613,0,0,0,.618-2.5c.01-.119.016-.293.019-.469C107.833,717.259,107.834,717.326,107.834,717.394Z" transform="translate(-91.212 -710.23)" fill="url(#linear-gradient-2)"/>
        </g>
        <g id="그룹_1857" data-name="그룹 1857" transform="translate(33.343 11.823)" opacity="0.7">
          <path id="패스_2445" data-name="패스 2445" d="M182.953,666.1a.012.012,0,0,1,0,0c0,.176-.009.35-.019.469a8.614,8.614,0,0,1-.618,2.5c-1.247,3.074-4.028,5.559-5.917,7.1,0,0-.081.072-.1.1a.2.2,0,0,1-.1.031c-.261,0-.472-.58-.472-1.294a2.835,2.835,0,0,1,.125-.877l.111-.242.248-.542a9.641,9.641,0,0,1-1.559.126c-4.59,0-8.311-3.207-8.311-7.163q0-.222.016-.441c.26-3.69,3.761-6.626,8.081-6.72l.214,0,.214,0,.1,0C179.328,659.294,182.829,662.335,182.953,666.1Z" transform="translate(-166.335 -659.147)" fill="url(#linear-gradient)"/>
          <path id="패스_2446" data-name="패스 2446" d="M288.834,711.394a6.3,6.3,0,0,1-.641,2.763,8.612,8.612,0,0,0,.618-2.5c.01-.119.016-.293.019-.469C288.833,711.259,288.834,711.326,288.834,711.394Z" transform="translate(-272.212 -704.23)" fill="url(#linear-gradient-2)"/>
        </g>
        <g id="그룹_1858" data-name="그룹 1858" transform="translate(55.244 11.823)" opacity="0.7">
          <path id="패스_2447" data-name="패스 2447" d="M349.953,666.1a.012.012,0,0,1,0,0c0,.176-.009.35-.019.469a8.613,8.613,0,0,1-.618,2.5c-1.247,3.074-4.028,5.559-5.917,7.1,0,0-.081.072-.1.1a.2.2,0,0,1-.1.031c-.261,0-.472-.58-.472-1.294a2.835,2.835,0,0,1,.125-.877l.111-.242.248-.542a9.64,9.64,0,0,1-1.559.126c-4.59,0-8.311-3.207-8.311-7.163q0-.222.016-.441c.26-3.69,3.761-6.626,8.081-6.72l.214,0,.214,0,.1,0C346.328,659.294,349.829,662.335,349.953,666.1Z" transform="translate(-333.335 -659.147)" fill="url(#linear-gradient)"/>
          <path id="패스_2448" data-name="패스 2448" d="M455.834,711.394a6.3,6.3,0,0,1-.641,2.763,8.613,8.613,0,0,0,.618-2.5c.01-.119.016-.293.019-.469C455.833,711.259,455.834,711.326,455.834,711.394Z" transform="translate(-439.212 -704.23)" fill="url(#linear-gradient-2)"/>
        </g>
        <g id="그룹_1859" data-name="그룹 1859" transform="translate(78.718 11.823)" opacity="0.7">
          <path id="패스_2449" data-name="패스 2449" d="M528.953,666.1a.013.013,0,0,1,0,0c0,.176-.009.35-.019.469a8.613,8.613,0,0,1-.618,2.5c-1.247,3.074-4.028,5.559-5.917,7.1,0,0-.081.072-.1.1a.2.2,0,0,1-.1.031c-.261,0-.472-.58-.472-1.294a2.836,2.836,0,0,1,.125-.877l.111-.242.248-.542a9.64,9.64,0,0,1-1.559.126c-4.59,0-8.311-3.207-8.311-7.163q0-.222.016-.441c.26-3.69,3.761-6.626,8.081-6.72l.214,0,.214,0,.1,0C525.328,659.294,528.829,662.335,528.953,666.1Z" transform="translate(-512.335 -659.147)" fill="url(#linear-gradient)"/>
          <path id="패스_2450" data-name="패스 2450" d="M634.834,711.394a6.3,6.3,0,0,1-.641,2.763,8.617,8.617,0,0,0,.618-2.5c.01-.119.016-.293.019-.469C634.833,711.259,634.834,711.326,634.834,711.394Z" transform="translate(-618.212 -704.23)" fill="url(#linear-gradient-2)"/>
        </g>
        <g id="그룹_1860" data-name="그룹 1860" transform="translate(102.192 11.823)" opacity="0.7">
          <path id="패스_2451" data-name="패스 2451" d="M707.953,666.1a.012.012,0,0,1,0,0c0,.176-.009.35-.019.469a8.617,8.617,0,0,1-.618,2.5c-1.247,3.074-4.028,5.559-5.917,7.1,0,0-.081.072-.1.1a.2.2,0,0,1-.1.031c-.261,0-.472-.58-.472-1.294a2.836,2.836,0,0,1,.125-.877l.111-.242.248-.542a9.64,9.64,0,0,1-1.559.126c-4.59,0-8.311-3.207-8.311-7.163q0-.222.016-.441c.26-3.69,3.761-6.626,8.081-6.72l.214,0,.214,0,.1,0C704.328,659.294,707.829,662.335,707.953,666.1Z" transform="translate(-691.335 -659.147)" fill="url(#linear-gradient)"/>
          <path id="패스_2452" data-name="패스 2452" d="M813.834,711.394a6.3,6.3,0,0,1-.641,2.763,8.615,8.615,0,0,0,.618-2.5c.01-.119.016-.293.019-.469C813.833,711.259,813.834,711.326,813.834,711.394Z" transform="translate(-797.212 -704.23)" fill="url(#linear-gradient-2)"/>
        </g>
        <g id="그룹_1861" data-name="그룹 1861" transform="translate(22.95)" opacity="0.7">
          <path id="패스_2453" data-name="패스 2453" d="M100.254,576.269a.011.011,0,0,1,0,0c0,.139-.007.277-.015.372a6.826,6.826,0,0,1-.49,1.978,15.5,15.5,0,0,1-4.69,5.63s-.064.057-.081.076a.156.156,0,0,1-.081.025c-.207,0-.374-.46-.374-1.026a2.247,2.247,0,0,1,.1-.7l.088-.192.2-.43a7.647,7.647,0,0,1-1.235.1c-3.638,0-6.587-2.542-6.587-5.677q0-.176.012-.35c.206-2.924,2.981-5.251,6.4-5.326l.17,0,.17,0,.083,0C97.381,570.872,100.156,573.281,100.254,576.269Z" transform="translate(-87.084 -570.755)" fill="url(#linear-gradient)"/>
          <path id="패스_2454" data-name="패스 2454" d="M184.17,612.164a4.992,4.992,0,0,1-.508,2.19,6.828,6.828,0,0,0,.49-1.978c.008-.094.013-.232.015-.372C184.169,612.057,184.17,612.11,184.17,612.164Z" transform="translate(-170.997 -606.487)" fill="url(#linear-gradient-12)"/>
        </g>
        <g id="그룹_1862" data-name="그룹 1862" transform="translate(0)" opacity="0.7">
          <path id="패스_2455" data-name="패스 2455" d="M-74.746,576.269a.011.011,0,0,1,0,0c0,.139-.007.277-.015.372a6.827,6.827,0,0,1-.49,1.978,15.5,15.5,0,0,1-4.69,5.63s-.064.057-.081.076a.156.156,0,0,1-.081.025c-.207,0-.374-.46-.374-1.026a2.247,2.247,0,0,1,.1-.7l.088-.192.2-.43a7.647,7.647,0,0,1-1.235.1c-3.638,0-6.587-2.542-6.587-5.677q0-.176.012-.35c.206-2.924,2.981-5.251,6.4-5.326l.17,0,.17,0,.083,0C-77.619,570.872-74.844,573.281-74.746,576.269Z" transform="translate(87.916 -570.755)" fill="url(#linear-gradient)"/>
          <path id="패스_2456" data-name="패스 2456" d="M9.17,612.164a4.992,4.992,0,0,1-.508,2.19,6.828,6.828,0,0,0,.49-1.978c.008-.094.013-.232.015-.372C9.169,612.057,9.17,612.11,9.17,612.164Z" transform="translate(4.003 -606.487)" fill="url(#linear-gradient-12)"/>
        </g>
        <g id="그룹_1863" data-name="그룹 1863" transform="translate(47.473)" opacity="0.7">
          <path id="패스_2457" data-name="패스 2457" d="M287.254,576.269a.011.011,0,0,1,0,0c0,.139-.007.277-.015.372a6.826,6.826,0,0,1-.49,1.978,15.5,15.5,0,0,1-4.69,5.63s-.064.057-.081.076a.156.156,0,0,1-.081.025c-.207,0-.374-.46-.374-1.026a2.247,2.247,0,0,1,.1-.7l.088-.192.2-.43a7.647,7.647,0,0,1-1.235.1c-3.638,0-6.587-2.542-6.587-5.677q0-.176.012-.35c.206-2.924,2.981-5.251,6.4-5.326l.17,0,.17,0,.083,0C284.381,570.872,287.156,573.281,287.254,576.269Z" transform="translate(-274.084 -570.755)" fill="url(#linear-gradient)"/>
          <path id="패스_2458" data-name="패스 2458" d="M371.17,612.164a4.992,4.992,0,0,1-.508,2.19,6.827,6.827,0,0,0,.49-1.978c.008-.094.013-.232.015-.372C371.169,612.057,371.17,612.11,371.17,612.164Z" transform="translate(-357.997 -606.487)" fill="url(#linear-gradient-12)"/>
        </g>
        <g id="그룹_1864" data-name="그룹 1864" transform="translate(69.591)" opacity="0.7">
          <path id="패스_2459" data-name="패스 2459" d="M455.911,576.269a.012.012,0,0,1,0,0c0,.139-.007.277-.015.372a6.826,6.826,0,0,1-.49,1.978,15.5,15.5,0,0,1-4.69,5.63s-.064.057-.081.076a.156.156,0,0,1-.081.025c-.207,0-.375-.46-.375-1.026a2.246,2.246,0,0,1,.1-.7l.088-.192.2-.43a7.648,7.648,0,0,1-1.235.1c-3.638,0-6.587-2.542-6.587-5.677q0-.176.012-.35c.206-2.924,2.98-5.251,6.4-5.326l.17,0,.17,0,.083,0C453.038,570.872,455.813,573.281,455.911,576.269Z" transform="translate(-442.741 -570.755)" fill="url(#linear-gradient)"/>
          <path id="패스_2460" data-name="패스 2460" d="M539.828,612.164a4.992,4.992,0,0,1-.508,2.19,6.828,6.828,0,0,0,.49-1.978c.008-.094.013-.232.015-.372C539.827,612.057,539.828,612.11,539.828,612.164Z" transform="translate(-526.654 -606.487)" fill="url(#linear-gradient-18)"/>
        </g>
        <g id="그룹_1865" data-name="그룹 1865" transform="translate(91.143)" opacity="0.7">
          <path id="패스_2461" data-name="패스 2461" d="M620.254,576.269a.012.012,0,0,1,0,0c0,.139-.007.277-.015.372a6.824,6.824,0,0,1-.49,1.978,15.5,15.5,0,0,1-4.69,5.63s-.064.057-.081.076a.156.156,0,0,1-.082.025c-.207,0-.374-.46-.374-1.026a2.248,2.248,0,0,1,.1-.7l.088-.192.2-.43a7.647,7.647,0,0,1-1.235.1c-3.638,0-6.587-2.542-6.587-5.677,0-.117,0-.234.012-.35.206-2.924,2.981-5.251,6.4-5.326l.17,0,.17,0,.083,0C617.381,570.872,620.156,573.281,620.254,576.269Z" transform="translate(-607.084 -570.755)" fill="url(#linear-gradient)"/>
          <path id="패스_2462" data-name="패스 2462" d="M704.17,612.164a4.992,4.992,0,0,1-.508,2.19,6.826,6.826,0,0,0,.49-1.978c.008-.094.013-.232.015-.372C704.169,612.057,704.17,612.11,704.17,612.164Z" transform="translate(-690.997 -606.487)" fill="url(#linear-gradient-12)"/>
        </g>
        <g id="그룹_1866" data-name="그룹 1866" transform="translate(113.7)" opacity="0.7">
          <path id="패스_2463" data-name="패스 2463" d="M792.254,576.269a.01.01,0,0,1,0,0c0,.139-.007.277-.015.372a6.828,6.828,0,0,1-.49,1.978,15.5,15.5,0,0,1-4.69,5.63s-.064.057-.081.076a.156.156,0,0,1-.082.025c-.207,0-.374-.46-.374-1.026a2.25,2.25,0,0,1,.1-.7l.088-.192.2-.43a7.647,7.647,0,0,1-1.235.1c-3.638,0-6.587-2.542-6.587-5.677q0-.176.012-.35c.206-2.924,2.981-5.251,6.4-5.326l.17,0,.17,0,.083,0C789.381,570.872,792.156,573.281,792.254,576.269Z" transform="translate(-779.084 -570.755)" fill="url(#linear-gradient)"/>
          <path id="패스_2464" data-name="패스 2464" d="M876.17,612.164a4.992,4.992,0,0,1-.508,2.19,6.828,6.828,0,0,0,.49-1.978c.008-.094.013-.232.016-.372C876.169,612.057,876.17,612.11,876.17,612.164Z" transform="translate(-862.997 -606.487)" fill="url(#linear-gradient-12)"/>
        </g>
      </g>
    </g>
    <g id="마스크_그룹_137" data-name="마스크 그룹 137" transform="translate(-15.406 -85)" clip-path="url(#clip-path-2)">
      <g id="그룹_1855" data-name="그룹 1855" transform="translate(240.533 283.624)">
        <path id="패스_2292" data-name="패스 2292" d="M363.393,617.52a4.256,4.256,0,0,1,.2,1.356c.352,6.886.164,13.781.282,20.67.055,3.231.108,6.465.218,9.694q.237,6.963.459,13.927a45.376,45.376,0,0,0,.805,6.828,30.272,30.272,0,0,1,.692,6.287,7.521,7.521,0,0,1-1.775,5.175,3.35,3.35,0,0,1-2.5,1.441,11.139,11.139,0,0,1-3.814.124.752.752,0,0,0-.634-.162,3.436,3.436,0,0,1-1.627-.289.848.848,0,0,1-.718-.708,41.933,41.933,0,0,1-1.1-5.107c-.258-1.565-.566-3.122-.772-4.694-.232-1.775-.378-3.563-.557-5.346q-.32-3.186-.632-6.373-.249-2.526-.5-5.051-.294-2.977-.591-5.953c-.174-1.723-.358-3.445-.534-5.167-.216-2.1-.434-4.206-.641-6.309-.171-1.744-.322-3.491-.49-5.235-.211-2.185-.439-4.368-.642-6.554-.21-2.267-.514-4.521-.847-6.768a8.79,8.79,0,0,0-1.012-3.468c-.142-.187-.29-.164-.442-.016-1.182.53-1.32,1.691-1.331,2.81-.023,2.363.055,4.727.1,7.091.15,7.1.038,14.193.142,21.288.044,2.971.022,5.943.092,8.913.154,6.57.038,13.141.128,19.711.021,1.555.059,3.111.07,4.666a2.45,2.45,0,0,1-1.734,2.6c-.277.1-.513.345-.837.277-.236.176-.543.166-.778.345a11.757,11.757,0,0,1-4.425-.227,1.394,1.394,0,0,0-.682-.234.613.613,0,0,1-.239-.13c-1.331-.383-2.545-.922-2.936-2.553-.1-.152-.1-.351-.216-.491a20.254,20.254,0,0,1-.646-5.616c-.054-2.485.015-4.974-.064-7.458-.056-1.77-.265-3.535-.412-5.3-.2-2.369-.392-4.738-.605-7.1-.164-1.825-.351-3.648-.537-5.471-.2-1.943-.418-3.883-.607-5.826-.119-1.223-.2-2.45-.3-3.675-.24-2.914-.422-5.831-.526-8.755-.014-.4,0-.809-.023-1.212a111.879,111.879,0,0,1,.326-11.427,5.827,5.827,0,0,1,.123-1.617.115.115,0,0,1,.148.017.688.688,0,0,1,.091.4c.005.647.147.881.73,1.066a5.705,5.705,0,0,1,.937.385.648.648,0,0,0,.462.159c1.184.217,2.343.559,3.512.842.5.121,1.007.113,1.506.206a9,9,0,0,1,1.1.214c.5.16.7.029.79-.529.2-1.293.363-2.593.556-3.888.291-1.952.565-3.907.9-5.852.46-2.661,1.05-5.291,1.615-7.926a8.6,8.6,0,0,1,.914-2.465,5.015,5.015,0,0,1,4.221-2.693c.456-.035.884-.423,1.366-.128a1.028,1.028,0,0,1,.274.645c.527,3.331,1.29,6.6,2.1,9.864a1.445,1.445,0,0,0,.182.793,3.242,3.242,0,0,1,.274.871,1.487,1.487,0,0,0,.192.773c.7,2.132,1.2,4.327,1.842,6.477.253.845.515,1.686.735,2.542a.928.928,0,0,0,.376.581c.2.059.423.023.608.151a.738.738,0,0,1,.212.276c.349.731.4.733,1.206.668,1.042-.084,2.047-.448,3.1-.459a1.022,1.022,0,0,0,.749-.155c.372-.07.725-.214,1.089-.315s.854.183,1.094-.369C363.265,618.222,363.122,617.828,363.393,617.52Z" transform="translate(-315.569 -545.051)" fill="#fe7281"/>
        <path id="패스_2293" data-name="패스 2293" d="M463.619,485.49l-.229-.847c-.15-.217-.082-.51-.221-.731-.584-2.143-1.06-4.317-1.527-6.492-.289-1.345-.5-2.711-.739-4.067-.023-.032-.06-.065-.061-.1a1.062,1.062,0,0,0-.858-1.12.177.177,0,0,1,.066-.178.641.641,0,0,0,.458-.823,38.361,38.361,0,0,1-.178-7.6,32.086,32.086,0,0,1,.886-7.713c.206-.691.426-1.377.621-2.071.2-.768.208-1.17.911-1.519.3-.1.427-.065.682-.422.052-.134.793-.185.876-.28a9.928,9.928,0,0,1,3.007-.377,12.75,12.75,0,0,1,1.845.254,15.517,15.517,0,0,1,3.714,1.453,1.821,1.821,0,0,0,.568.362c.662.5,1.328,1,1.986,1.5a19.912,19.912,0,0,1,1.772,1.64c.8.791,1.529,1.671,2.395,2.39.037.031,1.334,1.3,1.856,1.745a3.556,3.556,0,0,0,1.135.728,3.1,3.1,0,0,0,2.037.293,4.1,4.1,0,0,0,2.032-1.377c.1-.1.132-.257.224-.368a8.621,8.621,0,0,0,.554-2.065.465.465,0,0,1,.255-.148,2.049,2.049,0,0,1,1.086.21,18.609,18.609,0,0,0,2.358.449,1.465,1.465,0,0,0,.986.165,1.084,1.084,0,0,1,.852.179c-.046.608.1,1.2.1,1.808a22.745,22.745,0,0,1-.347,4.747,16.555,16.555,0,0,1-2.338,6,9.127,9.127,0,0,1-3.478,3.085,2.15,2.15,0,0,1-.489.126c-.114.163-.339.078-.455.236a13.834,13.834,0,0,1-3.718,0c-.149-.192-.421-.042-.569-.236a11.2,11.2,0,0,1-3.272-1.336c-.086-.126-.251-.12-.34-.24-.22-.132-.515-.107-.674-.368-.087-.123-.253-.117-.339-.242a19.42,19.42,0,0,1-2.609-1.794c-.54-.389-1.051-.816-1.577-1.225-.09-.067.015-.338-.225-.249-.353-.129-.524-.115-.383.387.379,1.354.695,2.729,1.078,4.082.425,1.5.891,2.989,1.448,4.443.3.775.538,1.574.8,2.363.094.194.077.435.222.608.565,1.717,1.075,3.454,1.614,5.18.434,1.391.725,2.816,1.037,4.235a8.913,8.913,0,0,1,.053,1.749.572.572,0,0,1-.266.505c-.585.2-.994.8-1.647.834-.092.116-.255.114-.344.236a1.406,1.406,0,0,0-1.124.6l-.073-.016c-.385-.132-.648.19-.967.3a2.676,2.676,0,0,1-1.379.364.718.718,0,0,0-.533.162.771.771,0,0,1-.244.07c-.521-.051-.97.3-1.479.312a1.618,1.618,0,0,0-.448.233,1.286,1.286,0,0,1-.514.075,1.172,1.172,0,0,0-.83.172c-.621.186-1.278.057-1.9.249-.613-.626-.6-1.533-.851-2.309-.492-1.5-.866-3.038-1.285-4.563-.268-.976-.527-1.954-.791-2.932C463.693,486,463.718,485.725,463.619,485.49Z" transform="translate(-427.318 -422.119)" fill="#bbcafe"/>
        <path id="패스_2294" data-name="패스 2294" d="M266.937,468.338c-.335.513-.948.537-1.373.908a8.881,8.881,0,0,1-2.227,1.279c-.091.119-.253.117-.345.234l-.781.131c-.18.1-.436.005-.566.244h0c-.27.008-.575-.17-.77.215-.073.145-.225.034-.349,0-.243-.059-.507-.168-.689.142a1.322,1.322,0,0,1-1.47.053c-.19-.117-.481-.027-.718-.075a6.791,6.791,0,0,1-2.043-.991,8.174,8.174,0,0,1-2.526-2.643,8.806,8.806,0,0,1-.936-1.77,21.52,21.52,0,0,1-1.472-6.75,32.912,32.912,0,0,1,.021-4.21.985.985,0,0,1,.743-.187c.783-.006,1.567-.039,2.348.008a15.4,15.4,0,0,0,2.491-.212.543.543,0,0,1,.283.16,9.339,9.339,0,0,0,1.653,3.881,2.414,2.414,0,0,0,1.96,1.094c.3-.017.6-.009.9-.013.116-.158.343-.072.455-.239h0c.087-.122.254-.117.339-.243A26.331,26.331,0,0,0,264,457.187c.31-.279.609-.573.913-.861.233.081.121-.192.221-.248a9.934,9.934,0,0,1,1.391-1.312c.6-.566,1.258-1.064,1.891-1.591.08-.13.252-.119.332-.249a1.174,1.174,0,0,0,.455-.36c.085-.125.253-.118.337-.244.35-.056.542-.453.9-.485.087-.123.255-.116.338-.244a6.361,6.361,0,0,1,1.69-.976c.094-.113.257-.11.342-.236l.342-.117a.306.306,0,0,1,.284-.1.308.308,0,0,0,.389-.146h0c.13-.131.343.1.453-.12h0c.115-.16.341-.075.454-.237a1.014,1.014,0,0,1,.107-.01c.119-.154.344-.07.458-.235l.111-.008c.338-.125.69-.2,1.021-.353a8.817,8.817,0,0,1,2.216-.03,6.553,6.553,0,0,1,.709.273c.25.274.125.626.17.942a2.829,2.829,0,0,1-.077.942,24.179,24.179,0,0,0-4.407,9.382,66.441,66.441,0,0,0-1.426,7.466,9.174,9.174,0,0,0-.212,1.372c-.293,2.074-.558,4.154-.9,6.217-.344,2.045-.661,4.095-.979,6.144-.315,2.03-.532,4.076-.812,6.111-.208,1.517-.333,3.048-.615,4.553-.128.683-.264.752-.9.583s-1.274-.09-1.895-.27c-.169-.051-.295-.207-.477-.228-.055-.012-.108-.029-.162-.046-.439-.026-.816-.346-1.268-.312a.706.706,0,0,1-.236-.069.682.682,0,0,0-.517-.163c-.14,0-.279,0-.419,0a1.188,1.188,0,0,1-.879-.334,3.1,3.1,0,0,0-.927-.452c-.152-.173-.376-.211-.55-.342l-.557-.13a.573.573,0,0,1-.006-.6c.4-1.431.8-2.867,1.218-4.293.381-1.3.782-2.586,1.188-3.873.316-1,.653-2,.981-3,.147-.172.128-.414.223-.607.731-2.058,1.477-4.109,2.187-6.175.47-1.367.892-2.754,1.327-4.135.071-.226.269-.5-.126-.633a8.574,8.574,0,0,0,.6-1.349,1.537,1.537,0,0,0,.154-.775c.234-1.081.561-2.135.766-3.223q.431-2.28.809-4.572a1.959,1.959,0,0,1,.207-.684,1.04,1.04,0,0,0,.2-.631,1.384,1.384,0,0,0-.368.795c-.294.766-.718,1.46-1.055,2.2a30.069,30.069,0,0,0-1.269,3.62A57.715,57.715,0,0,0,266.937,468.338Z" transform="translate(-247.572 -420.256)" fill="#bbcafe"/>
        <path id="패스_2295" data-name="패스 2295" d="M465.314,332.521a2.872,2.872,0,0,1,1.528.185c.19.109.356.043.351-.263a14.091,14.091,0,0,1,.678-3.456,1.272,1.272,0,0,1,.158-.381c.49-.775.993-1.541,1.479-2.319a.739.739,0,0,1,.494-.349c.091-.118.255-.115.343-.239l-.006-.007c.1-.112.253-.117.352-.225l-.009-.011c.682-.112,1.369-.189,2.042-.356.332-.008.393-.29.507-.545.308-.688.516-.762,1.155-.441a2.674,2.674,0,0,0,.919.376c.1.117.25.123.356.22l.316.033c.195.2.5.011.69.224,1.057.055,1.647.853,2.228,1.645a5.781,5.781,0,0,1,1.159,4.206c-.086.778-.02,1.571-.122,2.355a2.549,2.549,0,0,1-1.03,1.805.485.485,0,0,0-.2.272,3.192,3.192,0,0,1-1.355,1.632,3.179,3.179,0,0,0-.691.338l-.443.13a1.664,1.664,0,0,1-1.351-.013,1.378,1.378,0,0,0-1.79.187c-.43.348-.781-.107-1.143-.3-.089-.118-.261-.109-.336-.249a1.906,1.906,0,0,0-.388-.061,1.813,1.813,0,0,1-1.647-.484,4.843,4.843,0,0,1-1.036,2.507c-.294.118-.331-.136-.333-.318a1.822,1.822,0,0,0-.7-1.315c-.407-.52-.459-1.224-.816-1.78-.49-.763-1.015-1.5-1.529-2.24C464.815,332.795,464.827,332.772,465.314,332.521Z" transform="translate(-431.558 -314.26)" fill="#15203d"/>
        <path id="패스_2296" data-name="패스 2296" d="M658.723,408.305a7.82,7.82,0,0,1-2.943-.566,2.059,2.059,0,0,0-.551-.062,5.068,5.068,0,0,1,.024-1.71c.124-1.287.14-2.573.15-3.862.008-.927-.041-1.855.044-2.782a1.556,1.556,0,0,0-.135-.942.464.464,0,0,1-.068-.4c.3-.582.126-1.261.364-1.873a8.957,8.957,0,0,0,.236-1.269c.063-.29.147-.569.228-.85a8.593,8.593,0,0,0,.463-1.31c.143-.361.3-.487.613-.515v0a5.473,5.473,0,0,1,.136,1.988c0,.2-.058.4.093.56.7.02,1.207-.547,1.859-.706.273-.067.55-.211.842-.263a19.312,19.312,0,0,1,2.654-.719.881.881,0,0,1,.852.472c-.6.5-1.277.881-1.9,1.355-.364.278-.689.592-1.022.9a20.33,20.33,0,0,1,3.023-2.232.694.694,0,0,1-.1,1.079c-.784.7-1.582,1.388-2.352,2.109a18.051,18.051,0,0,0-1.659,1.7c-.348.424-.189,1-.111,1.516.193,1.265.459,2.519.6,3.79a39.664,39.664,0,0,1,.474,4.843l-.9-.013C659.369,408.288,658.988,408.557,658.723,408.305Z" transform="translate(-594.884 -372.111)" fill="#fcc4b5"/>
        <path id="패스_2297" data-name="패스 2297" d="M237.87,407.456c-1.867.449-3.76.18-5.641.242a15.271,15.271,0,0,1,.376-2.9,33.777,33.777,0,0,1,.758-3.295.944.944,0,0,1,.215-.478c.128-.222.061-.517.233-.723a5.346,5.346,0,0,0-1.293-1.888c-.439-.573-.945-1.087-1.421-1.627-.1-.055.009-.326-.221-.248-.56-.548-1.151-1.065-1.667-1.657-.283-.325.092-.494.3-.666a14.7,14.7,0,0,1,2.8,2.335c-.317-.628-1.029-.932-1.539-1.48a2.872,2.872,0,0,0-.6-.443c-.213-.136-.561-.221-.428-.643.144-.166.285-.185.541-.289.15-.057.59.173.59.173h0a3.706,3.706,0,0,1,1.575.371c.373.142.643.32.792.362a4.687,4.687,0,0,0,.682.357,4.9,4.9,0,0,0,1.687.851.662.662,0,0,0,.115-.57,5.9,5.9,0,0,1,.26-1.869c.038-.147.087-.361.263-.343s.178.227.208.384a18.319,18.319,0,0,0,.585,2.147c.018.885.361,1.729.3,2.626a5.458,5.458,0,0,1-.169,2.255.329.329,0,0,0-.027.177c.2,1.144.032,2.331.327,3.457.123.468-.09.971.182,1.4.233.3-.026.719.223,1.012h0A1.09,1.09,0,0,1,237.87,407.456Z" transform="translate(-229.107 -372.844)" fill="#fcc4b5"/>
        <path id="패스_2298" data-name="패스 2298" d="M442.035,391.1a1.32,1.32,0,0,1,.84,1.194c.02.181-.143.473.2.524a2.733,2.733,0,0,0-.773,1.933c-.27-.22.014-.658-.3-.86-.048,0-.1.007-.143.012a3.872,3.872,0,0,0-.592.019c-.269.079.023.149.037.229.1.071.217.112.322.176a.8.8,0,0,0,.314.174.872.872,0,0,1,.137.051.815.815,0,0,1,.22.2c.026,1.014-.2,2.018-.1,3.035.045.219-.16.24-.244.356a2.2,2.2,0,0,0-1.134,1.575,14.581,14.581,0,0,1-1.1,1.436,1.1,1.1,0,0,1-1.976-.866,2.013,2.013,0,0,1,.138-1.173q.014-.49.029-.979a26.173,26.173,0,0,0,.04-2.75c.013-.466-.357-.489-.623-.635a3.249,3.249,0,0,1-1.949-1.934c-.085-.149.1-.071.1-.228a2.839,2.839,0,0,1,.112-.526c-.066.04-.086.267-.21.071a.672.672,0,0,1-.066-.583c.323-.766.212-1.667.659-2.388a2.429,2.429,0,0,1,.576-.957c.069-.073.134-.157.225-.238l.45-.376a.346.346,0,0,1,.228-.11,6.227,6.227,0,0,1,3.49,2.908.713.713,0,0,0,.387.579C441.558,391.059,441.828,390.892,442.035,391.1Z" transform="translate(-406.107 -368.149)" fill="#fcc4b5"/>
        <path id="패스_2299" data-name="패스 2299" d="M527.339,1158.625a19.87,19.87,0,0,0,3.469-.127,4.245,4.245,0,0,0,2.543-1.158.461.461,0,0,1,.286-.171,14.518,14.518,0,0,0,.07,2.32,6.05,6.05,0,0,1,.139,1.365,1.8,1.8,0,0,0,.828,1.749c1.136.916,2.207,1.913,3.307,2.874a2.394,2.394,0,0,0,.279.184.6.6,0,0,1-.617.128,2.39,2.39,0,0,0-.779-.067q-4.013,0-8.026,0c-.274,0-.566.068-.811-.145a29.15,29.15,0,0,0-.653-5.223c-.094-.569-.228-1.134-.289-1.71A.184.184,0,0,1,527.339,1158.625Z" transform="translate(-484.927 -1020.762)" fill="#fcc4b5"/>
        <path id="패스_2300" data-name="패스 2300" d="M358.966,1167.026a19.107,19.107,0,0,0,4.615.246.548.548,0,0,1,.678,0c-.017,2.062.181,4.119.119,6.182-.192.225-.449.178-.688.178q-4.118.008-8.236,0c-.239,0-.5.047-.687-.18.29-.581.843-.861,1.281-1.27.638-.6,1.321-1.138,1.972-1.719a.926.926,0,0,1,.475-.282,11.427,11.427,0,0,0-.325-3.15c0-.077-.006-.154-.01-.231l.234-.012C358.542,1166.993,358.813,1166.844,358.966,1167.026Z" transform="translate(-336.989 -1028.922)" fill="#fcc4b5"/>
        <path id="패스_2301" data-name="패스 2301" d="M543.578,1212.65l.509.006c.336.414.858.648,1.029,1.223.09.349.2.673-.352.671-3.555-.013-7.109,0-10.664-.008a.535.535,0,0,1-.163-.041,9.551,9.551,0,0,1-.053-1.262c-.056-.49.094-.651.576-.645,2.4.028,4.807.007,7.21.016A12.7,12.7,0,0,1,543.578,1212.65Z" transform="translate(-490.755 -1067.757)" fill="#16213e"/>
        <path id="패스_2302" data-name="패스 2302" d="M343.746,1212.692l.688-.61c.211-.043.416-.114.628-.152,2.91-.016,5.82-.007,8.729,0,.722,0,.746.038.736.823-.014,1.225-.014,1.225-1.17,1.225q-4.674,0-9.349-.006c-.209,0-.512.133-.61-.125a.916.916,0,0,1,.157-.79A2.466,2.466,0,0,0,343.746,1212.692Z" transform="translate(-327.197 -1067.187)" fill="#16213e"/>
        <path id="패스_2303" data-name="패스 2303" d="M369.266,497.814a5.577,5.577,0,0,0-.417,1.914,49.887,49.887,0,0,1-1.372,6.4,1.193,1.193,0,0,0-.017.3c-.159.214-.1.5-.222.73a1.834,1.834,0,0,1-.682,1.309l-1.361.995c-.3-.357,0-.71.063-1.021.4-2,.98-3.955,1.564-5.9a27.332,27.332,0,0,1,1.991-4.607c.077-.09.1-.214.164-.309s.132-.231.256-.163C369.379,497.54,369.337,497.686,369.266,497.814Z" transform="translate(-345.83 -461.381)" fill="#96a1cb"/>
        <path id="패스_2304" data-name="패스 2304" d="M514.948,734.413l.538-.028a2.764,2.764,0,0,0,.534-.278c.449.1.838-.263,1.282-.187.2-.008.419.045.577-.154a1.374,1.374,0,0,1,.238-.189,3.19,3.19,0,0,0,1.447-.395c.346.084.637-.422,1-.107l.016-.009q0,.244.006.488-.006.606-.012,1.213a3.242,3.242,0,0,1-1.239.364,2.166,2.166,0,0,1-1.125.247c-.186.216-.5.015-.681.238-.986-.017-1.92.368-2.9.431a3.9,3.9,0,0,1-1.223.024c-.468-.124-.211-.759-.492-1.056.465-.393,1.067-.225,1.575-.442C514.642,734.512,514.823,734.553,514.948,734.413Z" transform="translate(-472.765 -661.085)" fill="#cb5c68"/>
        <path id="패스_2305" data-name="패스 2305" d="M454.79,384.871c-.252-.048-.5.135-.755.011-.157-.2-.293-.412-.442-.617a3.721,3.721,0,0,0-.959-1.29,7.1,7.1,0,0,0-2.436-1.616.214.214,0,0,1,0-.306l.245-.285a2.213,2.213,0,0,1,.834-.44,2.745,2.745,0,0,1,1.346-.152c-.361.335-.142.582.08.876A9.908,9.908,0,0,1,454.79,384.871Z" transform="translate(-418.861 -361.916)" fill="#fd7382"/>
        <path id="패스_2306" data-name="패스 2306" d="M439,357.568a2.961,2.961,0,0,1-.945-.216,3.157,3.157,0,0,1-1.765-1.971c.047-.273.2-.2.356-.129.8.2,1.2.96,1.783,1.468.192.157.259.042.281-.154a3.275,3.275,0,0,1,.05-.826,10.005,10.005,0,0,1,.283-2.2c.01-.13.051-.3.216-.313.193-.009.152.183.19.308a4.279,4.279,0,0,1-.293,3.482.778.778,0,0,0-.165.562Z" transform="translate(-406.979 -339.097)" fill="#fe7987"/>
        <path id="패스_2307" data-name="패스 2307" d="M655.127,402.676a4.9,4.9,0,0,1-.33,1.462c-.021.033-.06.081-.051.1.226.592-.317,1.076-.195,1.664a.7.7,0,0,1-.126.68.338.338,0,0,0-.067.393c.355.531.175,1.128.2,1.694a68.778,68.778,0,0,1-.225,7.046c-.016.258-.07.514-.106.77l-.234.019c.335-2.493.127-5.008.276-7.5a15.662,15.662,0,0,1,.005-3.02c.28-1.13.4-2.31.749-3.428C655.113,402.541,655.167,402.56,655.127,402.676Z" transform="translate(-593.881 -380.923)" fill="#facdc1"/>
        <path id="패스_2308" data-name="패스 2308" d="M342.758,1212.29a.207.207,0,0,1,0,.06c-.338,1.157-.338,1.157.831,1.157,3.065,0,6.13-.011,9.195.011.474,0,.639-.148.594-.65-.033-.37.14-.891-.032-1.086-.227-.257-.711-.082-1.083-.084q-4.146-.021-8.292-.025c.094-.294.333-.22.524-.22q4.308-.01,8.616,0c.22,0,.464-.044.581.247,0,.464-.035.93,0,1.39.031.412-.113.525-.473.52-1.2-.016-2.4-.006-3.6-.006h-6.693c-.779,0-.89-.2-.5-.93A2.358,2.358,0,0,1,342.758,1212.29Z" transform="translate(-326.209 -1066.785)" fill="#212843"/>
        <path id="패스_2309" data-name="패스 2309" d="M361.186,1210.984a.788.788,0,0,0-.541-.113q-4.344,0-8.689,0a.765.765,0,0,0-.492.088l-.526,0,.542-.361,9.611,0A.324.324,0,0,1,361.186,1210.984Z" transform="translate(-333.702 -1066.069)" fill="#ddb6af"/>
        <path id="패스_2310" data-name="패스 2310" d="M285.188,433.092c-.1-.02-.216-.067-.2-.17a17.379,17.379,0,0,0-.251-2.238,5.065,5.065,0,0,0-.193-2.081.62.62,0,0,1-.013-.47c.487-.781.095-1.637.211-2.445.064-.066.1-.2.226-.122a2.488,2.488,0,0,1,.076,1.543,12.612,12.612,0,0,0,.075,4.532c.042.441.053.879.078,1.318q.05.048.03.091T285.188,433.092Z" transform="translate(-276.653 -400.417)" fill="#fccec1"/>
        <path id="패스_2311" data-name="패스 2311" d="M533.747,1221.629c1.1.012,2.207.034,3.31.036,2.416.006,4.831-.013,7.247.014.469.005.7-.1.614-.635.336.664.31.736-.313.737q-5.26,0-10.52,0c-.151,0-.346.1-.443-.137Q533.687,1221.567,533.747,1221.629Z" transform="translate(-490.557 -1074.923)" fill="#898e9d"/>
        <path id="패스_2312" data-name="패스 2312" d="M533.747,1214.23a.742.742,0,0,1-.1.013q.007-.955.014-1.909,4.645-.01,9.291-.016a1.991,1.991,0,0,1,.434.1l-8.888.018c-.744,0-.744,0-.745.827Q533.747,1213.746,533.747,1214.23Z" transform="translate(-490.557 -1067.524)" fill="#212843"/>
        <path id="패스_2313" data-name="패스 2313" d="M232.18,399.325a.346.346,0,0,0,.21.331c.635.23.986.89,1.573,1.182.495.246.65.865,1.112,1.147.061.037.064.2-.016.274-.1.091-.162-.024-.228-.086-.571-.533-1.145-1.061-1.712-1.6-.377-.359-.9-.52-1.175-1.017A.215.215,0,0,1,232.18,399.325Z" transform="translate(-231.544 -378.187)" fill="#ebb7a9"/>
        <path id="패스_2314" data-name="패스 2314" d="M695.232,400.955c-.1.342-.415.46-.651.611a12.1,12.1,0,0,0-2.239,1.729c-.118.122-.249.264-.374.135-.174-.179.053-.258.15-.353a9.63,9.63,0,0,1,3.012-2.148A.233.233,0,0,1,695.232,400.955Z" transform="translate(-626.429 -379.547)" fill="#e9b6a8"/>
        <path id="패스_2315" data-name="패스 2315" d="M276.413,394.975c-.095-.017-.216-.048-.2-.163a3.389,3.389,0,0,0-.436-1.651c-.078-.195.183-.436-.136-.644a6.864,6.864,0,0,0-.355,2.177c0,.2.092.471-.228.52a6.313,6.313,0,0,1,.238-2.366c.088-.218.11-.516.389-.523s.257.285.305.492a9.456,9.456,0,0,1,.431,1.784A.326.326,0,0,1,276.413,394.975Z" transform="translate(-268.551 -372.252)" fill="#fdccbe"/>
        <path id="패스_2316" data-name="패스 2316" d="M239.565,398.535a2.918,2.918,0,0,0,1.01.7c.5.285.85.764,1.316,1.088a.348.348,0,0,1,.088.46c-.438-.182-.694-.618-1.062-.886-.5-.365-1.022-.7-1.523-1.067-.063-.046-.22-.118-.143-.261.023-.042.138-.027.21-.039A.464.464,0,0,1,239.565,398.535Z" transform="translate(-237.798 -377.512)" fill="#ebb7a9"/>
        <path id="패스_2317" data-name="패스 2317" d="M435.742,398.54l-.6,2.881c.214.047.084-.2.243-.182a4.74,4.74,0,0,1,.071,1.559,2.4,2.4,0,0,1-.452-1.418A4.444,4.444,0,0,1,435.742,398.54Z" transform="translate(-405.875 -377.521)" fill="#fcc4b5"/>
        <path id="패스_2320" data-name="패스 2320" d="M315.467,593.63c-.212-.6.248-.339.424-.353.27-.022.551.245.771-.217.083-.174.445-.021.612.209-.252.426-.689.238-1.034.344A2.747,2.747,0,0,1,315.467,593.63Z" transform="translate(-303.202 -542.391)" fill="#c5d3fd"/>
        <path id="패스_2321" data-name="패스 2321" d="M661.379,391.388l-.1-.119.667-1.824c.114-.194.251-.288.446-.113q.005.176.01.351c-.157.281-.522.356-.595.739-.026.138-.171.25-.113.431C661.79,391.165,661.6,391.287,661.379,391.388Z" transform="translate(-600.133 -369.636)" fill="#fdcec1"/>
        <path id="패스_2322" data-name="패스 2322" d="M669.374,394.718c-.319-.048-.226-.318-.229-.519-.008-.676,0-1.353,0-2.029a3.312,3.312,0,0,1,.308,1.967A5.355,5.355,0,0,1,669.374,394.718Z" transform="translate(-606.881 -372.12)" fill="#fdcec1"/>
        <path id="패스_2323" data-name="패스 2323" d="M378.82,1168.391a4.429,4.429,0,0,1,.367,2.262c-.069.293.267.608-.042.888C379.066,1170.487,378.839,1169.452,378.82,1168.391Z" transform="translate(-357.639 -1030.278)" fill="#fdd2c6"/>
        <path id="패스_2324" data-name="패스 2324" d="M284.568,407.668l0-.373a8.575,8.575,0,0,1,.448,2.8l-.226.122C284.973,409.34,284.451,408.537,284.568,407.668Z" transform="translate(-276.707 -384.945)" fill="#fdd0c2"/>
        <path id="패스_2325" data-name="패스 2325" d="M449.8,435.2c.48-.077.715.141.679.665a10.581,10.581,0,0,1-.1,2.719q-.011-.478-.022-.957c0-.219,0-.438,0-.656C450.378,436.306,450.485,435.607,449.8,435.2Z" transform="translate(-418.574 -408.593)" fill="#fde0d8"/>
        <path id="패스_2327" data-name="패스 2327" d="M515.04,1164.835l-.255.015a7.893,7.893,0,0,1-1.7-.112c-.147-.04-.3-.034-.322-.245Z" transform="translate(-472.628 -1026.973)" fill="#feb8c0"/>
        <path id="패스_2331" data-name="패스 2331" d="M289.325,474.436c0-.044.005-.088.008-.132.386.293.162.729.224,1.1C289.1,475.186,289.429,474.751,289.325,474.436Z" transform="translate(-280.789 -441.761)" fill="#f6d1cb"/>
        <path id="패스_2332" data-name="패스 2332" d="M426.888,449.542c-.26.388-.658.312-1.021.353A1.167,1.167,0,0,1,426.888,449.542Z" transform="translate(-398.03 -420.748)" fill="#e4eafe"/>
        <path id="패스_2334" data-name="패스 2334" d="M330.125,724a.523.523,0,0,1,.564.238.466.466,0,0,1,.119.252.405.405,0,0,1-.116.348l-.055,0-.055,0C330.661,724.415,330.264,724.29,330.125,724Z" transform="translate(-315.833 -653.468)" fill="#dae2fe"/>
        <path id="패스_2335" data-name="패스 2335" d="M451.742,369.775c0,.32.009.64.006.96,0,.126-.037.246-.188.236-.12-.008-.134-.116-.148-.217C451.863,370.561,451.48,370.042,451.742,369.775Z" transform="translate(-419.961 -353.131)" fill="#fd95a1"/>
        <path id="패스_2336" data-name="패스 2336" d="M291.042,482.5q0-.485,0-.971c.286.272.219.635.221.981Z" transform="translate(-282.28 -447.887)" fill="#f6d1cb"/>
        <path id="패스_2337" data-name="패스 2337" d="M328.574,592.872c.053-.445.288-.4.566-.244C329.059,593,328.776,592.827,328.574,592.872Z" transform="translate(-314.502 -541.994)" fill="#c5d3fd"/>
        <path id="패스_2339" data-name="패스 2339" d="M417.746,1168.551l-.678,0c.138-.424.461-.172.7-.223Z" transform="translate(-390.476 -1030.198)" fill="#fd9e9e"/>
        <path id="패스_2344" data-name="패스 2344" d="M613.336,603.557c.2.042.486-.14.569.236C613.7,603.754,613.417,603.938,613.336,603.557Z" transform="translate(-558.976 -551.348)" fill="#d6dffd"/>
        <path id="패스_2347" data-name="패스 2347" d="M260.933,440.859c-.065.246.053.56-.233.723C260.728,441.323,260.624,441.014,260.933,440.859Z" transform="translate(-256.23 -413.403)" fill="#f2d2d1"/>
        <path id="패스_2348" data-name="패스 2348" d="M412.351,455.98c-.008.246,0,.513-.335.246a.161.161,0,0,1,.005-.237Z" transform="translate(-386.096 -426.225)" fill="#c6d4fe"/>
        <path id="패스_2350" data-name="패스 2350" d="M324.775,719.251q0,.3.006.6C324.324,719.659,324.669,719.454,324.775,719.251Z" transform="translate(-311.047 -649.452)" fill="#d9e1fe"/>
        <path id="패스_2351" data-name="패스 2351" d="M445.818,724.319c.01-.177.1-.249.261-.236s.184.116.181.252Z" transform="translate(-415.158 -653.548)" fill="#fd9da7"/>
        <path id="패스_2353" data-name="패스 2353" d="M415.141,455.191c0,.695-.317.015-.453.12C414.81,455.144,414.983,455.2,415.141,455.191Z" transform="translate(-388.433 -425.554)" fill="#c6d4fe"/>
        <path id="패스_2354" data-name="패스 2354" d="M325,519.034c-.042.322-.273.226-.455.239C324.586,518.957,324.818,519.053,325,519.034Z" transform="translate(-311.04 -479.688)" fill="#dbe3fe"/>
        <path id="패스_2355" data-name="패스 2355" d="M626.086,329.191c.183.008.411-.088.458.231C626.364,329.406,626.135,329.5,626.086,329.191Z" transform="translate(-569.923 -318.714)" fill="#e8edfe"/>
        <path id="패스_2356" data-name="패스 2356" d="M418.337,453.632c-.042.321-.275.22-.454.237C417.927,453.552,418.158,453.648,418.337,453.632Z" transform="translate(-391.176 -424.232)" fill="#c6d4fe"/>
        <path id="패스_2358" data-name="패스 2358" d="M422.308,452.02c-.044.323-.275.224-.458.235C421.9,451.944,422.127,452.034,422.308,452.02Z" transform="translate(-394.581 -422.865)" fill="#d9e1fd"/>
        <path id="패스_2359" data-name="패스 2359" d="M643.636,603.827c.046-.313.276-.218.455-.236C644.048,603.911,643.819,603.818,643.636,603.827Z" transform="translate(-584.99 -551.384)" fill="#d4defd"/>
        <path id="패스_2361" data-name="패스 2361" d="M350.3,641.872c.006.237.039.484-.223.607A.748.748,0,0,1,350.3,641.872Z" transform="translate(-332.963 -583.842)" fill="#e1e7fe"/>
        <path id="패스_2362" data-name="패스 2362" d="M570.494,642.477c-.261-.123-.229-.371-.222-.608A.748.748,0,0,1,570.494,642.477Z" transform="translate(-522 -583.84)" fill="#dfe6fe"/>
        <path id="패스_2363" data-name="패스 2363" d="M405.444,458.392c-.013.247-.173.249-.342.236C405.122,458.391,405.28,458.387,405.444,458.392Z" transform="translate(-380.203 -428.269)" fill="#e0e6fe"/>
        <path id="패스_2364" data-name="패스 2364" d="M391.11,466.366c-.01.245-.171.249-.338.244C390.785,466.37,390.944,466.364,391.11,466.366Z" transform="translate(-367.9 -435.031)" fill="#d7e0fd"/>
        <path id="패스_2365" data-name="패스 2365" d="M382.345,471.161c-.011.244-.172.247-.337.244C382.019,471.162,382.179,471.158,382.345,471.161Z" transform="translate(-360.376 -439.096)" fill="#e0e8fe"/>
        <path id="패스_2366" data-name="패스 2366" d="M376.778,475.139c-.006.244-.168.249-.332.249C376.45,475.142,376.613,475.139,376.778,475.139Z" transform="translate(-355.601 -442.469)" fill="#dae2fd"/>
        <path id="패스_2368" data-name="패스 2368" d="M580.647,589.221c.165,0,.325,0,.339.242C580.82,589.469,580.658,589.467,580.647,589.221Z" transform="translate(-530.912 -539.199)" fill="#dce4fd"/>
        <path id="패스_2369" data-name="패스 2369" d="M338.093,591.069c.02-.24.179-.243.345-.234C338.421,591.079,338.261,591.081,338.093,591.069Z" transform="translate(-322.674 -540.566)" fill="#dee5fe"/>
        <path id="패스_2371" data-name="패스 2371" d="M587.806,593.228c.167-.007.329-.006.34.241C587.982,593.472,587.82,593.47,587.806,593.228Z" transform="translate(-537.058 -542.596)" fill="#dee5fe"/>
        <path id="패스_2372" data-name="패스 2372" d="M328.091,517.43c-.012.244-.172.248-.339.243C327.765,517.431,327.925,517.425,328.091,517.43Z" transform="translate(-313.796 -478.327)" fill="#dee5fe"/>
        <path id="패스_2373" data-name="패스 2373" d="M603.77,321.19c.166-.005.326,0,.34.241C603.943,321.438,603.783,321.433,603.77,321.19Z" transform="translate(-550.764 -311.935)" fill="#d7dffd"/>
        <path id="패스_2374" data-name="패스 2374" d="M356.448,1146.853a.426.426,0,0,1,.216.491A.441.441,0,0,1,356.448,1146.853Z" transform="translate(-338.428 -1012.016)" fill="#febec4"/>
        <path id="패스_2383" data-name="패스 2383" d="M410.276,456.03q0,.118-.005.237l-.337,0C409.944,456.019,410.108,456.022,410.276,456.03Z" transform="translate(-384.351 -426.265)" fill="#e6ebfe"/>
        <path id="패스_2384" data-name="패스 2384" d="M575.041,728.29c.018-.242.176-.247.344-.236C575.367,728.3,575.207,728.3,575.041,728.29Z" transform="translate(-526.099 -656.914)" fill="#dfe6fe"/>
        <path id="패스_2387" data-name="패스 2387" d="M241.607,415.9c.282-.131.214.1.221.248C241.682,416.139,241.609,416.055,241.607,415.9Z" transform="translate(-239.839 -392.207)" fill="#fddcd2"/>
        <path id="패스_2388" data-name="패스 2388" d="M549.475,567.483c.295-.146.224.089.224.249A.237.237,0,0,1,549.475,567.483Z" transform="translate(-504.15 -520.729)" fill="#cbd7fd"/>
        <path id="패스_2389" data-name="패스 2389" d="M351.908,495.863c-.007.152.063.383-.221.248A.22.22,0,0,1,351.908,495.863Z" transform="translate(-334.345 -460.041)" fill="#d5defe"/>
        <path id="패스_2391" data-name="패스 2391" d="M449.24,386.171q0,.153,0,.306l-.219,0C449,386.3,449.064,386.191,449.24,386.171Z" transform="translate(-417.908 -367.034)" fill="#be828d"/>
        <path id="패스_2392" data-name="패스 2392" d="M333.62,604.441q.008-.171.016-.342c.354-.164.662.089.995.124.181.34.491.336.8.347.127.169.315.1.476.138a.576.576,0,0,1,.141.061.709.709,0,0,0,.586.164c.352-.094.631.254.978.185.159.035.269.215.453.18a.47.47,0,0,1,.31.1,11.01,11.01,0,0,1,2.321.346c.308.118.373-.132.408-.4.174-1.338.357-2.673.535-4.01.345-2.593.643-5.195,1.049-7.777.258-1.646.478-3.3.8-4.936.243-1.218.351-2.466.532-3.7.137-.934.292-1.864.438-2.8.073-.066.165-.159.245-.129.782.282,1.653,0,2.407.449a13.219,13.219,0,0,0,2.939.371.945.945,0,0,1,.194.035c.4.177.861-.063,1.24.224.873-.012.894.018.865,1.228a7.857,7.857,0,0,0-4.232,1.343,6,6,0,0,0-1.85,3.022,24.227,24.227,0,0,0-.819,3.6c-.248,1.741-.775,3.409-1.032,5.152-.253,1.716-.516,3.435-.811,5.147-.265,1.535-.412,3.092-.634,4.636-.107.744-.385,1-.988.719a4,4,0,0,0-1.52-.277c-1.137-.062-2.187-.524-3.3-.684a11.828,11.828,0,0,0-1.394-.335c-.088-.123-.251-.12-.343-.237a4.346,4.346,0,0,1-1.61-.657.508.508,0,0,1-.235-.648A2.172,2.172,0,0,0,333.62,604.441Z" transform="translate(-318.761 -533.069)" fill="#cb5c68"/>
        <path id="패스_2393" data-name="패스 2393" d="M510.349,743.432l-1.684.361-.7-.025c.367-.422.883-.145,1.309-.317a1.965,1.965,0,0,1,.615-.042A.32.32,0,0,1,510.349,743.432Z" transform="translate(-468.513 -669.863)" fill="#ca758a"/>
        <path id="패스_2394" data-name="패스 2394" d="M558.3,745.141a4.324,4.324,0,0,1,1.239-.364C559.213,745.243,558.738,745.122,558.3,745.141Z" transform="translate(-511.726 -671.094)" fill="#e06673"/>
        <path id="패스_2395" data-name="패스 2395" d="M545.53,748.95c.12-.434.452-.164.681-.238C546.09,749.141,545.759,748.876,545.53,748.95Z" transform="translate(-500.763 -674.418)" fill="#e36674"/>
        <path id="패스_2396" data-name="패스 2396" d="M380.98,1167c-.206-.035-.491.156-.571-.234C380.612,1166.8,380.892,1166.631,380.98,1167Z" transform="translate(-359.003 -1028.892)" fill="#fd9e9d"/>
        <path id="패스_2397" data-name="패스 2397" d="M482.473,666.615a.839.839,0,0,1,.221.731C482.4,667.178,482.473,666.885,482.473,666.615Z" transform="translate(-446.621 -604.822)" fill="#de9dbd"/>
        <path id="패스_2399" data-name="패스 2399" d="M485.683,676.99a1.074,1.074,0,0,1,.224.73C485.61,677.555,485.694,677.256,485.683,676.99Z" transform="translate(-449.381 -613.619)" fill="#d8a5c9"/>
        <path id="패스_2400" data-name="패스 2400" d="M346.881,742.417c.167-.01.328-.008.343.237C347.059,742.659,346.9,742.658,346.881,742.417Z" transform="translate(-330.219 -669.092)" fill="#e96977"/>
        <path id="패스_2401" data-name="패스 2401" d="M413.246,482.533a1.362,1.362,0,0,0-.9-.227c-.588.086-1.118-.257-1.694-.246a7.229,7.229,0,0,1,.276-1.955c.312-1.848.588-3.706,1.035-5.53a38.074,38.074,0,0,1,2.179-6.623,24.966,24.966,0,0,1,2.388-3.895c.037-.053.135-.057.2-.083,0,.444-.005.889.013,1.333.016.4.117.8.51.922a.95.95,0,0,0,1.137-.266c.31-.4.645-.771.958-1.165a.469.469,0,0,1,.318-.221,29.714,29.714,0,0,0-1.4,7.682c-.146,2.277-.1,4.545-.181,6.816a27.3,27.3,0,0,0,.257,3.3c.044.507-.092.592-.483.54a1.13,1.13,0,0,0-.224.014.181.181,0,0,1-.173-.019,7.445,7.445,0,0,0-1.274-.124C415.2,482.847,414.233,482.568,413.246,482.533Z" transform="translate(-384.957 -433.004)" fill="#e6eff7"/>
        <path id="패스_2402" data-name="패스 2402" d="M535.066,738.584l-1.426.161a.093.093,0,0,1-.144-.038c.541-.073,1.028-.443,1.6-.338C535.152,738.452,535.154,738.526,535.066,738.584Z" transform="translate(-490.432 -665.646)" fill="#bfadd6"/>
        <path id="패스_2403" data-name="패스 2403" d="M680.339,498.164c.3.083.692-.229.911.233C680.948,498.313,680.555,498.636,680.339,498.164Z" transform="translate(-616.5 -461.969)" fill="#d8c7de"/>
        <path id="패스_2404" data-name="패스 2404" d="M560.9,732.107l-1,.107c.157-.166.391-.159.571-.307C560.584,731.807,560.87,731.744,560.9,732.107Z" transform="translate(-513.094 -660.117)" fill="#c4abd2"/>
        <path id="패스_2405" data-name="패스 2405" d="M522.026,742.539l-.46-.022c.188-.416.533-.168.807-.219C522.341,742.517,522.179,742.521,522.026,742.539Z" transform="translate(-480.19 -668.97)" fill="#bfb0da"/>
        <path id="패스_2406" data-name="패스 2406" d="M452.545,587.678a.259.259,0,0,0,.108.012.34.34,0,0,0,.035.082c-.424-.016-.861.14-1.268-.111A1.2,1.2,0,0,1,452.545,587.678Z" transform="translate(-419.969 -537.766)" fill="#d57984"/>
        <path id="패스_2407" data-name="패스 2407" d="M544.591,738.2l.032-.215.209-.017a.239.239,0,0,1,.345.008C545.086,738.37,544.8,738.181,544.591,738.2Z" transform="translate(-499.957 -665.266)" fill="#c7768b"/>
        <path id="패스_2408" data-name="패스 2408" d="M546.635,737.056l-.345-.008c.064-.316.285-.228.477-.214Z" transform="translate(-501.416 -664.342)" fill="#c29cbf"/>
        <path id="패스_2409" data-name="패스 2409" d="M531.413,740.7l.144.038c-.082.291-.293.222-.487.2C531.1,740.71,531.26,740.712,531.413,740.7Z" transform="translate(-488.349 -667.635)" fill="#c490af"/>
        <path id="패스_2410" data-name="패스 2410" d="M392,494.756l-.063-.278a.7.7,0,0,0-.156.151.493.493,0,0,1-.235.246c-.026-.372.269-.59.376-.9.03-.088.107-.175.216-.124s.094.163.084.257A1.145,1.145,0,0,1,392,494.756Z" transform="translate(-368.564 -458.322)" fill="#abb9e9"/>
        <path id="패스_2411" data-name="패스 2411" d="M355.7,732.372l-1.1-.155a.138.138,0,0,1-.025-.216c.5-.092.907.257,1.369.346A.171.171,0,0,1,355.7,732.372Z" transform="translate(-336.787 -660.249)" fill="#c0aad2"/>
        <path id="패스_2412" data-name="패스 2412" d="M335.129,726.024l-.995-.125-.018-.258C334.5,725.63,334.793,725.891,335.129,726.024Z" transform="translate(-319.26 -654.87)" fill="#ccbce2"/>
        <path id="패스_2413" data-name="패스 2413" d="M351.435,731.6q.012.108.025.216c-.211-.024-.491.162-.582-.223a.247.247,0,0,1,.349-.017Z" transform="translate(-333.65 -659.848)" fill="#c77c93"/>
        <path id="패스_2414" data-name="패스 2414" d="M380.392,557.25c.014-.265-.084-.569.222-.73A.85.85,0,0,1,380.392,557.25Z" transform="translate(-358.985 -511.472)" fill="#a7b5e3"/>
        <path id="패스_2415" data-name="패스 2415" d="M347.36,730.67c-.184-.008-.415.093-.461-.232l.441.011A.147.147,0,0,1,347.36,730.67Z" transform="translate(-330.234 -658.937)" fill="#c77c93"/>
        <path id="패스_2416" data-name="패스 2416" d="M350.039,730.659c-.007-.074-.013-.147-.02-.221.186,0,.408-.092.471.217l-.349.016Z" transform="translate(-332.913 -658.926)" fill="#c1a7cd"/>
        <path id="패스_2417" data-name="패스 2417" d="M362.8,734.387l.24-.026c.034.007.068.012.1.016a.157.157,0,0,1,.013.227C362.984,734.623,362.832,734.615,362.8,734.387Z" transform="translate(-343.882 -662.264)" fill="#c77b93"/>
        <path id="패스_2418" data-name="패스 2418" d="M365.226,734.656q-.007-.114-.013-.227c.165-.016.321-.016.352.217Z" transform="translate(-345.957 -662.316)" fill="#c1a2c7"/>
        <g id="그룹_1868" data-name="그룹 1868" transform="translate(63.044)">
          <path id="패스_2398" data-name="패스 2398" d="M574.1,190.5c-7.9,0-14.3,4.9-14.3,10.952,0,.052,0,.1.005.154,0,.143,0,.286.011.43a8.434,8.434,0,0,0,1.139,3.767,9.963,9.963,0,0,0,1.668,2.182l.056.056.035.034a15.935,15.935,0,0,0,10.729,4.315c-.319.874-.882,1.609-1.217,2.473a4.783,4.783,0,0,1-.284.7c-.221.526-.086.732.514.764h0a.634.634,0,0,1,.344-.239c.7-.351,1.4-.689,2.095-1.057,1.354-.721,2.7-1.456,4.051-2.191,1.02-.556,2.078-1.048,3.04-1.7a21.534,21.534,0,0,0,3.069-2.444A11.209,11.209,0,0,0,587.11,206a9.259,9.259,0,0,0,.937-2.124,1.124,1.124,0,0,0,.074-.238l.008-.05a8.526,8.526,0,0,0,.275-2.139C588.4,195.4,582,190.5,574.1,190.5Z" transform="translate(-559.797 -190.5)" fill="#d8e0fe"/>
          <path id="패스_2419" data-name="패스 2419" d="M621.6,220.2c-.178,1.109-.439,1.393-1.226,1.329a.841.841,0,0,1-.775-1.109,5.592,5.592,0,0,1,1.392-2.623,13.058,13.058,0,0,0,2.275-2.609,2.278,2.278,0,0,0,.28-1.142c-.019-.891-.567-1.38-1.713-1.477a3.731,3.731,0,0,0-2.08.3.6.6,0,0,1-.9-.333c-.13-.365-.209-.761.265-.954.181-.226.5-.019.677-.243a14.049,14.049,0,0,1,3.266-.359c.151.19.421.043.572.234,1.936.442,2.553,2.064,1.719,3.958a9.234,9.234,0,0,1-2.391,2.872,5.507,5.507,0,0,1-.686.694A3.363,3.363,0,0,0,621.6,220.2Z" transform="translate(-610.411 -207.842)" fill="#fefefe"/>
          <path id="패스_2420" data-name="패스 2420" d="M679.519,222.69c-.812,0-.874-.043-.807-.907.091-1.161.236-2.317.349-3.476.111-1.139.24-2.276.307-3.418.037-.627.14-1.237.238-1.851a.559.559,0,0,1,.1-.27,2.252,2.252,0,0,1,2,.162.394.394,0,0,1,.114.374,32.324,32.324,0,0,0-.542,3.195c-.264,1.66-.514,3.323-.781,4.983a6.152,6.152,0,0,1-.233.933C680.121,222.85,679.753,222.625,679.519,222.69Z" transform="translate(-661.871 -209.238)" fill="#fefefe"/>
          <path id="패스_2421" data-name="패스 2421" d="M620.953,292.046c.14.665-.97,1.545-1.591,1.51a1.213,1.213,0,0,1-1.231-1.238,1.4,1.4,0,0,1,1.572-1.43C620.538,290.89,620.957,291.278,620.953,292.046Z" transform="translate(-609.878 -275.619)" fill="#fdfdfe"/>
          <path id="패스_2422" data-name="패스 2422" d="M675.4,290.828c1.021,0,1.257.2,1.257,1.069a1.53,1.53,0,0,1-1.505,1.487,1.118,1.118,0,0,1-1.214-1.209C673.936,291.209,674.345,290.831,675.4,290.828Z" transform="translate(-657.787 -275.568)" fill="#fdfdfe"/>
        </g>
        <path id="패스_2423" data-name="패스 2423" d="M668.6,411.133a1.863,1.863,0,0,1-.547,1.563c-.074.07-.189.18-.294.067s0-.2.073-.293a1.8,1.8,0,0,0,.283-2.3c-.051-.077-.048-.169.03-.2a.251.251,0,0,1,.2.053C668.728,410.316,668.569,410.752,668.6,411.133Z" transform="translate(-605.663 -387.213)" fill="#ebb7a9"/>
        <path id="패스_2424" data-name="패스 2424" d="M690.293,400.968a8.9,8.9,0,0,1-1.706,1.22,3.371,3.371,0,0,0-.438.357c-.21.011-.178-.108-.114-.244a4,4,0,0,1,2.258-1.333Z" transform="translate(-623.065 -379.58)" fill="#ebb7a9"/>
        <path id="패스_2425" data-name="패스 2425" d="M704.286,399.668c.018-.2.127-.266.3-.218.036.01.092.092.083.111-.086.181-.25.078-.379.108Z" transform="translate(-637.059 -378.28)" fill="#e6b3a6"/>
        <path id="패스_2426" data-name="패스 2426" d="M687.046,409.735a.261.261,0,0,0,.114.244c-.1.126-.225.17-.3.013S686.9,409.753,687.046,409.735Z" transform="translate(-622.076 -387.013)" fill="#ecb8aa"/>
        <path id="패스_2427" data-name="패스 2427" d="M271.038,411.912a2.769,2.769,0,0,0-.266,1.338c.007.166-.074.269-.241.258s-.212-.156-.2-.3A1.5,1.5,0,0,1,271.038,411.912Z" transform="translate(-264.498 -388.859)" fill="#eab6a9"/>
        <path id="패스_2428" data-name="패스 2428" d="M455.366,437.812c0-.265,0-.445,0-.625a.881.881,0,0,1,1.316-.857c.3.165.095.414-.041.528a4.128,4.128,0,0,0-.591.542C455.88,437.611,455.62,437.618,455.366,437.812Z" transform="translate(-423.355 -409.458)" fill="#d1a599"/>
        <path id="패스_2429" data-name="패스 2429" d="M447.825,415.346c.054-.231.7.094,1.058-.064.209-.094.237.136.129.284a.6.6,0,0,1-.553.313C448.107,415.848,447.789,415.652,447.825,415.346Z" transform="translate(-416.856 -391.698)" fill="#53403b"/>
        <path id="패스_2430" data-name="패스 2430" d="M478.242,429.5l-.11-.006c-.088-.122-.253-.117-.341-.239-.124-.007-.258.021-.342-.119-.117-.249.033-.32.214-.355.16-.031.337.012.469-.132h0c.117-.083.263-.047.253.08C478.367,428.989,478.584,429.313,478.242,429.5Z" transform="translate(-442.279 -403.015)" fill="#ca9f93"/>
        <path id="패스_2431" data-name="패스 2431" d="M444.6,404.653c0,.119,0,.239-.01.358-.009.179.174.381-.047.535-.077.053-.124-.016-.182-.071a.565.565,0,0,1-.2-.626c.028-.082.124-.137.188-.2A.172.172,0,0,1,444.6,404.653Z" transform="translate(-413.707 -382.653)" fill="#322724"/>
        <path id="패스_2432" data-name="패스 2432" d="M476.007,428.31c-.019.212-.157.241-.316.238s-.342,0-.366.248c-.282-.053-.305-.309-.392-.593A3.154,3.154,0,0,0,476.007,428.31Z" transform="translate(-440.153 -402.673)" fill="#dfb2a6"/>
        <path id="패스_2433" data-name="패스 2433" d="M445.751,399.285c-.085,0-.335.171-.42.168a5.416,5.416,0,0,1,.543-1.039c.147-.2.24-.177.211.044a1.4,1.4,0,0,1-.113.46Z" transform="translate(-414.857 -377.284)" fill="#322724"/>
        <path id="패스_2435" data-name="패스 2435" d="M458.559,403.629c-.016-.181-.045-.37.211-.373s.238.182.226.366A.276.276,0,0,1,458.559,403.629Z" transform="translate(-426.088 -381.52)" fill="#4e3c38"/>
        <path id="패스_2436" data-name="패스 2436" d="M441.729,398.449c-.005.152-.088.2-.218.189a.193.193,0,0,1-.195-.227c.006-.16.119-.182.229-.188C441.686,398.215,441.736,398.309,441.729,398.449Z" transform="translate(-411.293 -377.251)" fill="#53403c"/>
        <path id="패스_2437" data-name="패스 2437" d="M482.637,429.157c.143-.311.271-.619-.111-.851.249-.221.324-.069.334.188s0,.521.006.782h0A.247.247,0,0,1,482.637,429.157Z" transform="translate(-446.673 -402.669)" fill="#dfb2a6"/>
        <path id="패스_2438" data-name="패스 2438" d="M474.6,407.288a.773.773,0,0,1,.441.617A.7.7,0,0,1,474.6,407.288Z" transform="translate(-439.872 -384.939)" fill="#f6a29f"/>
        <path id="패스_2439" data-name="패스 2439" d="M458.619,405.668l.437-.007c0,.158-.055.25-.213.252S458.621,405.825,458.619,405.668Z" transform="translate(-426.151 -383.559)" fill="#4e3c38"/>
        <path id="패스_2440" data-name="패스 2440" d="M480.117,432.877c.165-.005.325,0,.341.239C480.291,433.124,480.132,433.12,480.117,432.877Z" transform="translate(-444.605 -406.634)" fill="#e1b0a2"/>
        <path id="패스_2441" data-name="패스 2441" d="M429.065,585.913c1.012-.073,2.011.178,3.022.144.094.054.091.13.043.216A10.535,10.535,0,0,1,429.065,585.913Z" transform="translate(-400.776 -536.384)" fill="#d57984"/>
        <path id="패스_2442" data-name="패스 2442" d="M450.471,587.069l-.043-.216.9-.014c.174,0,.348,0,.369.253l-1.124-.017-.049-.009Z" transform="translate(-419.116 -537.179)" fill="#e5dde5"/>
      </g>
    </g>
  </g>
</svg>
