<svg xmlns="http://www.w3.org/2000/svg" width="20" height="20" viewBox="0 0 20 20">
  <defs>
    <style>
      .cls-1, .cls-2, .cls-5 {
        fill: none;
      }

      .cls-1 {
        stroke: #77f;
        stroke-width: 1.5px;
      }

      .cls-3 {
        fill: #77f;
      }

      .cls-4, .cls-6 {
        stroke: none;
      }

      .cls-6 {
        fill: #77f;
      }
    </style>
  </defs>
  <g id="그룹_1771" data-name="그룹 1771" transform="translate(-47 -705)">
    <g id="그룹_1698" data-name="그룹 1698" transform="translate(47 705)">
      <g id="사각형_2727" data-name="사각형 2727" class="cls-1" transform="translate(0 0)">
        <rect class="cls-4" width="20" height="20" rx="7"/>
        <rect class="cls-5" x="0.75" y="0.75" width="18.5" height="18.5" rx="6.25"/>
      </g>
      <g id="패스_2270" data-name="패스 2270" class="cls-2" transform="translate(5.08 5.159)">
        <path class="cls-4" d="M5,0A5,5,0,1,1,0,5,5,5,0,0,1,5,0Z"/>
        <path class="cls-6" d="M 5.000330448150635 1.5 C 3.070240497589111 1.5 1.5 3.070240497589111 1.5 5.000330448150635 C 1.5 6.930420398712158 3.070240497589111 8.500659942626953 5.000330448150635 8.500659942626953 C 6.930420398712158 8.500659942626953 8.500659942626953 6.930420398712158 8.500659942626953 5.000330448150635 C 8.500659942626953 3.070240497589111 6.930420398712158 1.5 5.000330448150635 1.5 M 5.000330448150635 0 C 7.761940479278564 0 10.00066089630127 2.238720417022705 10.00066089630127 5.000330448150635 C 10.00066089630127 7.761940479278564 7.761940479278564 10.00066089630127 5.000330448150635 10.00066089630127 C 2.238720417022705 10.00066089630127 0 7.761940479278564 0 5.000330448150635 C 0 2.238720417022705 2.238720417022705 0 5.000330448150635 0 Z"/>
      </g>
      <circle id="타원_655" data-name="타원 655" class="cls-3" cx="1" cy="1" r="1" transform="translate(14 4)"/>
    </g>
  </g>
</svg>
