<svg xmlns="http://www.w3.org/2000/svg" xmlns:xlink="http://www.w3.org/1999/xlink" width="30" height="30" viewBox="0 0 30 30">
  <defs>
    <clipPath id="clip-path">
      <circle id="타원_657" data-name="타원 657" cx="15" cy="15" r="15" transform="translate(342 40)" fill="#d2d2d2"/>
    </clipPath>
  </defs>
  <g id="그룹_2477" data-name="그룹 2477" transform="translate(-354 -50)">
    <g id="그룹_1885" data-name="그룹 1885" transform="translate(10 10)">
      <circle id="타원_355" data-name="타원 355" cx="15" cy="15" r="15" transform="translate(344 40)" fill="#d2d2d2"/>
      <g id="마스크_그룹_124" data-name="마스크 그룹 124" transform="translate(2)" clip-path="url(#clip-path)">
        <g id="MY_Setting_profile" data-name="MY_Setting profile" transform="translate(340.584 40.467)" opacity="0.57">
          <g id="_ver2_MY_PAGE_아이콘_면_" data-name="(ver2) MY PAGE 아이콘 면 " transform="translate(4.764 5.883)">
            <g id="패스_1869" data-name="패스 1869" transform="translate(-174.221 -749.108)" fill="none" stroke-linejoin="round">
              <path d="M192.474,774.344s-4.077,1.6-6.548,1.6-6.789-1.6-6.789-1.6-5.256-1.779-4.9-4.7,2.543-6.387,8.112-6.387H189.5c5.57,0,8.362,3.183,8.58,6.387C198.08,771.74,192.474,774.344,192.474,774.344Z" stroke="none"/>
              <path d="M 185.9252014160156 774.6431884765625 C 187.7238464355469 774.6431884765625 190.8509979248047 773.5791015625 191.9594116210938 773.148681640625 C 192.1707458496094 773.0482177734375 193.3334350585938 772.486083984375 194.4951934814453 771.7374877929688 C 196.4692535400391 770.4655151367188 196.7447052001953 769.7601928710938 196.7763214111328 769.6526489257812 C 196.6651458740234 768.347412109375 196.0222625732422 767.1405639648438 194.9597625732422 766.2465209960938 C 193.6484832763672 765.1431884765625 191.7604217529297 764.5599365234375 189.4996795654297 764.5599365234375 L 182.3507690429688 764.5599365234375 C 180.1645660400391 764.5599365234375 178.4449615478516 765.1448974609375 177.2397308349609 766.2985229492188 C 175.9775390625 767.5066528320312 175.6261901855469 769.0140991210938 175.5290985107422 769.8051147460938 C 175.3587799072266 771.1928100585938 178.2223510742188 772.6575927734375 179.5531311035156 773.1121826171875 C 179.5647583007812 773.1161499023438 179.5763244628906 773.1202392578125 179.5878295898438 773.12451171875 C 180.7280731201172 773.5469360351562 184.0893402099609 774.6431884765625 185.9252014160156 774.6431884765625 M 185.9252014160156 775.9431762695312 C 183.4542541503906 775.9431762695312 179.1362457275391 774.3435668945312 179.1362457275391 774.3435668945312 C 179.1362457275391 774.3435668945312 173.8807067871094 772.5642700195312 174.2387847900391 769.646728515625 C 174.5968475341797 766.7294921875 176.7821655273438 763.2599487304688 182.3507690429688 763.2599487304688 L 189.4996795654297 763.2599487304688 C 195.0694274902344 763.2599487304688 197.8621520996094 766.4426879882812 198.0796203613281 769.646728515625 C 198.0796203613281 771.7402954101562 192.4735412597656 774.3435668945312 192.4735412597656 774.3435668945312 C 192.4735412597656 774.3435668945312 188.3962097167969 775.9431762695312 185.9252014160156 775.9431762695312 Z" stroke="none" fill="#fff"/>
            </g>
            <g id="타원_481" data-name="타원 481" transform="translate(5.889)" fill="none" stroke="#fff" stroke-linejoin="round" stroke-width="1.3">
              <circle cx="6.04" cy="6.04" r="6.04" stroke="none"/>
              <circle cx="6.04" cy="6.04" r="5.39" fill="none"/>
            </g>
          </g>
        </g>
      </g>
    </g>
  </g>
</svg>
