<svg xmlns="http://www.w3.org/2000/svg" width="16.837" height="17.773" viewBox="0 0 16.837 17.773">
  <defs>
    <style>
      .cls-1 {
        fill: #77f;
        stroke: #77f;
        stroke-width: 0.2px;
      }
    </style>
  </defs>
  <path id="home" class="cls-1" d="M18.5,8.86,11.128,2.075a1.263,1.263,0,0,0-1.748.036L2.6,8.894l-.348.348v10H8.786V13h3.565v6.239h6.536V9.213Zm-8.23-5.93c.011,0,0,0,0,.007S10.262,2.93,10.273,2.93ZM17.7,18.053H13.539V13a1.188,1.188,0,0,0-1.188-1.188H8.786A1.188,1.188,0,0,0,7.6,13v5.051H3.438V9.735l6.834-6.783h0L17.7,9.735Z" transform="translate(-2.15 -1.569)"/>
</svg>
