<svg xmlns="http://www.w3.org/2000/svg" width="34.225" height="28.503" viewBox="0 0 34.225 28.503">
  <g id="_ver2_CHAT_미확인_아이콘" data-name="(ver2)CHAT 미확인 아이콘" transform="translate(1526.225 21)">
    <g id="_ver2_CHAT_아이콘_선_" data-name="(ver2) CHAT 아이콘 선 " transform="translate(-1618.171 -728.438)">
      <g id="그룹_1157" data-name="그룹 1157" transform="translate(91.946 712.584)">
        <g id="패스_1884" data-name="패스 1884" transform="translate(-92.29 -712.778)" fill="none" stroke-miterlimit="10">
          <path d="M96.384,723.024a10.52,10.52,0,0,1,10.775-10.246,11.067,11.067,0,0,1,6.95,2.415,10.03,10.03,0,0,1,3.826,7.831c0,2.911-8.163,10.985-10.275,13.026a.306.306,0,0,1-.513-.244c-.017-.682-.036-1.678-.02-2.2a.322.322,0,0,0-.3-.344A10.5,10.5,0,0,1,96.384,723.024Z" stroke="none"/>
          <path d="M 107.1591644287109 714.778076171875 C 102.3205184936523 714.778076171875 98.38399505615234 718.47705078125 98.38399505615234 723.0237426757812 C 98.38399505615234 725.1624145507812 99.25241851806641 727.1901245117188 100.8292770385742 728.7333374023438 C 102.4293365478516 730.2992553710938 104.5790939331055 731.1985473632812 106.8778305053711 731.2655029296875 C 107.4928283691406 731.2819213867188 108.0648956298828 731.5379028320312 108.4886474609375 731.9862060546875 C 108.5571212768555 732.0586547851562 108.6204147338867 732.1347045898438 108.6783905029297 732.2139892578125 C 109.6875534057617 731.1802978515625 110.8481063842773 729.9532470703125 111.9503707885742 728.699462890625 C 115.655387878418 724.4851684570312 115.9187164306641 723.1260375976562 115.9352493286133 723.006591796875 C 115.9299163818359 720.59912109375 114.8084030151367 718.3203125 112.8563690185547 716.752197265625 C 111.2716903686523 715.4791870117188 109.2483749389648 714.778076171875 107.1591644287109 714.778076171875 M 107.1591644287109 712.778076171875 C 109.8075408935547 712.778076171875 112.232666015625 713.6857299804688 114.1089248657227 715.1929931640625 C 116.4491958618164 717.072998046875 117.9352645874023 719.8827514648438 117.9352645874023 723.0237426757812 C 117.9352645874023 725.9349975585938 109.7724838256836 734.0092163085938 107.6600646972656 736.0496826171875 C 107.4635848999023 736.2396850585938 107.1536407470703 736.0911254882812 107.1471862792969 735.8052368164062 C 107.1305770874023 735.12353515625 107.1112060546875 734.1272583007812 107.1268844604492 733.6088256835938 C 107.1324310302734 733.4215698242188 106.9977340698242 733.2694091796875 106.8243255615234 733.2647705078125 C 101.0276260375977 733.0960083007812 96.38399505615234 728.5750732421875 96.38399505615234 723.0237426757812 C 96.38399505615234 717.3644409179688 101.2084274291992 712.778076171875 107.1591644287109 712.778076171875 Z" stroke="none" fill="#c6c6c6"/>
        </g>
        <g id="패스_1885" data-name="패스 1885" transform="translate(-91.946 -713.299)" fill="#c6c6c6" stroke-linejoin="round">
          <path d="M 94.28012847900391 725.8905029296875 C 93.48232269287109 725.3864135742188 92.94599914550781 724.4573364257812 92.94599914550781 723.3969116210938 C 92.94599914550781 722.2724609375 93.54561614990234 721.2953491210938 94.42010498046875 720.8135375976562 C 94.14569854736328 721.7141723632812 94.00394439697266 722.6536254882812 94.00394439697266 723.59619140625 C 94.00394439697266 724.3820190429688 94.09645843505859 725.1487426757812 94.28012847900391 725.8905029296875 Z" stroke="none"/>
          <path d="M 95.65320587158203 727.2910766601562 C 93.60951995849609 727.2910766601562 91.94599914550781 725.5506591796875 91.94599914550781 723.3969116210938 C 91.94599914550781 721.107421875 93.82518005371094 719.2774047851562 96.04168701171875 719.5152587890625 C 95.38397979736328 720.7273559570312 95.00394439697266 722.1156616210938 95.00394439697266 723.59619140625 C 95.00394439697266 724.923583984375 95.30373382568359 726.1735229492188 95.84428405761719 727.2860107421875 C 95.78031921386719 727.2893676757812 95.71647644042969 727.2910766601562 95.65320587158203 727.2910766601562 Z" stroke="none" fill="#c6c6c6"/>
        </g>
      </g>
      <g id="그룹_1158" data-name="그룹 1158" transform="translate(116.065 718.104)">
        <g id="패스_1886" data-name="패스 1886" transform="translate(-118.093 -718.763)" fill="#c6c6c6" stroke-linejoin="round">
          <path d="M 120.0261611938477 727.65869140625 C 120.2919769287109 727.3050537109375 120.5473098754883 726.9383544921875 120.7820434570312 726.5526123046875 C 121.3110809326172 725.6797485351562 121.6661682128906 724.8096923828125 121.8383636474609 723.9651489257812 C 122.039176940918 722.9783325195312 121.8680191040039 722.0005493164062 121.7170104980469 721.1378784179688 L 121.695198059082 721.0130004882812 C 121.6425170898438 720.709716796875 121.5773086547852 720.4159545898438 121.500358581543 720.1348266601562 C 121.8415756225586 720.323974609375 122.1625289916992 720.575439453125 122.4175796508789 720.8661499023438 C 123.066520690918 721.6052856445312 123.4237976074219 722.6384887695312 123.4237976074219 723.7755737304688 C 123.4237976074219 725.7592163085938 121.9414901733398 727.4032592773438 120.0261611938477 727.65869140625 Z" stroke="none"/>
          <path d="M 119.5052795410156 728.6931762695312 C 119.0237579345703 728.6931762695312 118.5450134277344 728.6304931640625 118.0930023193359 728.460693359375 C 118.7451782226562 727.6821899414062 119.4001235961914 726.89990234375 119.9277725219727 726.0327758789062 C 120.3520889282227 725.3327026367188 120.6943206787109 724.5707397460938 120.8585205078125 723.765380859375 C 121.0300903320312 722.9223022460938 120.8557434082031 722.0220336914062 120.7099990844727 721.1843872070312 C 120.6380462646484 720.770263671875 120.5384292602539 720.3606567382812 120.4019012451172 719.9630737304688 C 120.2755279541016 719.5941162109375 119.7506484985352 718.8109130859375 119.9037780761719 718.7823486328125 C 121.0974731445312 718.6349487304688 122.4036407470703 719.333984375 123.1692581176758 720.2066040039062 C 124.0252990722656 721.181640625 124.4237976074219 722.4915161132812 124.4237976074219 723.7755737304688 C 124.4237976074219 726.4893798828125 122.2274322509766 728.6931762695312 119.5052795410156 728.6931762695312 Z" stroke="none" fill="#c6c6c6"/>
        </g>
      </g>
      <g id="패스_1887" data-name="패스 1887" transform="translate(-0.463 -0.616)" fill="#c6c6c6" stroke-linejoin="round">
        <path d="M 98.87136077880859 718.5908203125 L 97.20491027832031 718.0961303710938 L 97.91923522949219 717.3818359375 L 98.89260864257812 718.5309448242188 C 98.88687896728516 718.5493774414062 98.87987518310547 718.5695190429688 98.87136077880859 718.5908203125 Z" stroke="none"/>
        <path d="M 97.91500854492188 718.3768310546875 C 97.92422485351562 718.321533203125 97.92422485351562 718.2661743164062 97.94268035888672 718.219970703125 C 97.93344879150391 718.2661743164062 97.93344879150391 718.321533203125 97.93344879150391 718.3676147460938 C 97.92422485351562 718.3676147460938 97.92422485351562 718.3768310546875 97.91500854492188 718.3768310546875 Z" stroke="none" fill="#c6c6c6"/>
      </g>
      <path id="패스_1888" data-name="패스 1888" d="M95.726,717.205c1.725-5.9,14.936-11.847,22.651-.494" transform="translate(-0.293)" fill="none" stroke="#c6c6c6" stroke-linecap="round" stroke-linejoin="round" stroke-width="2"/>
    </g>
    <g id="타원_622" data-name="타원 622" transform="translate(-1508 -21)" fill="#77f" stroke="#fff" stroke-width="2">
      <circle cx="8" cy="8" r="8" stroke="none"/>
      <circle cx="8" cy="8" r="7" fill="none"/>
    </g>
  </g>
</svg>
