<svg xmlns="http://www.w3.org/2000/svg" width="25.151" height="40.83" viewBox="0 0 25.151 40.83">
  <g id="그룹_2087" data-name="그룹 2087" transform="translate(-333.849 -247.251)">
    <g id="그룹_2052" data-name="그룹 2052" transform="translate(7 -661.918)">
      <text id="MY" transform="translate(331 947)" fill="#77f" font-size="11" font-family="SegoeUI, Segoe UI"><tspan x="0" y="0">MY</tspan></text>
      <g id="_ver2_MY_PAGE_아이콘_면_" data-name="(ver2) MY PAGE 아이콘 면 " transform="translate(1002.311 -139.83)">
        <g id="패스_1869" data-name="패스 1869" transform="translate(-847.884 298.77)" fill="#77f" stroke-linejoin="round">
          <path d="M 196.4120025634766 773.0039672851562 L 173.5820007324219 773.0039672851562 C 173.492919921875 773.0039672851562 173.4386138916016 772.9663696289062 173.4219970703125 772.946533203125 L 173.4219970703125 771.6090698242188 C 173.4219970703125 767.5567626953125 177.13818359375 764.2599487304688 181.7059936523438 764.2599487304688 L 184.9969940185547 764.2599487304688 L 188.2879943847656 764.2599487304688 C 192.8563537597656 764.2599487304688 196.572998046875 767.5567626953125 196.572998046875 771.6090698242188 L 196.572998046875 772.9461059570312 C 196.5561218261719 772.9661254882812 196.5014343261719 773.0039672851562 196.4120025634766 773.0039672851562 Z" stroke="none"/>
          <path d="M 195.572998046875 772.0039672851562 L 195.572998046875 771.6090698242188 C 195.572998046875 768.108154296875 192.3049621582031 765.2599487304688 188.2879943847656 765.2599487304688 L 181.7059936523438 765.2599487304688 C 177.6895904541016 765.2599487304688 174.4219970703125 768.108154296875 174.4219970703125 771.6090698242188 L 174.4219970703125 772.0039672851562 L 195.572998046875 772.0039672851562 M 196.4120025634766 774.0039672851562 L 173.5820007324219 774.0039672851562 C 172.9409942626953 774.0039672851562 172.4219970703125 773.53662109375 172.4219970703125 772.9605712890625 L 172.4219970703125 771.6090698242188 C 172.4219970703125 766.9982299804688 176.5789947509766 763.2599487304688 181.7059936523438 763.2599487304688 L 188.2879943847656 763.2599487304688 C 193.4160003662109 763.2599487304688 197.572998046875 766.9982299804688 197.572998046875 771.6090698242188 L 197.572998046875 772.9605712890625 C 197.572998046875 773.53662109375 197.0529937744141 774.0039672851562 196.4120025634766 774.0039672851562 Z" stroke="none" fill="#77f"/>
        </g>
        <g id="타원_481" data-name="타원 481" transform="translate(-668.906 1049)" fill="#77f" stroke="#77f" stroke-linejoin="round" stroke-width="2">
          <circle cx="6.019" cy="6.019" r="6.019" stroke="none"/>
          <circle cx="6.019" cy="6.019" r="5.019" fill="none"/>
        </g>
      </g>
    </g>
  </g>
</svg>
