<svg xmlns="http://www.w3.org/2000/svg" width="24.092" height="23.981" viewBox="0 0 24.092 23.981">
  <g id="_ver2_SERIES_아이콘_면" data-name="(ver2) SERIES 아이콘 면" transform="translate(714.824 -998.047)">
    <g id="사각형_2268" data-name="사각형 2268" transform="translate(-714.824 998.047)" fill="#77f" stroke="#77f" stroke-linecap="round" stroke-miterlimit="10" stroke-width="2">
      <rect width="11.2" height="11.2" rx="5.6" stroke="none"/>
      <rect x="1" y="1" width="9.2" height="9.2" rx="4.6" fill="none"/>
    </g>
    <g id="패스_1891" data-name="패스 1891" transform="translate(-701.932 998.047)" fill="#77f" stroke-linecap="round">
      <path d="M 8.918600082397461 10.19655513763428 L 2.281399965286255 10.19655513763428 C 1.574829936027527 10.19655513763428 0.9999998807907104 9.622035026550293 0.9999998807907104 8.915854454040527 L 0.9999998807907104 2.280694723129272 C 0.9999998807907104 1.574524760246277 1.574829936027527 1.000004649162292 2.281399965286255 1.000004649162292 L 8.918600082397461 1.000004649162292 C 9.62516975402832 1.000004649162292 10.19999980926514 1.574524760246277 10.19999980926514 2.280694723129272 L 10.19999980926514 8.915854454040527 C 10.19999980926514 9.622035026550293 9.62516975402832 10.19655513763428 8.918600082397461 10.19655513763428 Z" stroke="none"/>
      <path d="M 2.281399726867676 1.999994277954102 C 2.126239776611328 1.999994277954102 2 2.125914573669434 2 2.280694961547852 L 2 8.915854454040527 C 2 9.070624351501465 2.126239776611328 9.196544647216797 2.281399726867676 9.196544647216797 L 8.918600082397461 9.196544647216797 C 9.073760032653809 9.196544647216797 9.199999809265137 9.070624351501465 9.199999809265137 8.915854454040527 L 9.199999809265137 2.280694961547852 C 9.199999809265137 2.125914573669434 9.073760032653809 1.999994277954102 8.918600082397461 1.999994277954102 L 2.281399726867676 1.999994277954102 M 2.281399726867676 -5.7220458984375e-06 L 8.918600082397461 -5.7220458984375e-06 C 10.17858982086182 -5.7220458984375e-06 11.19999980926514 1.02110481262207 11.19999980926514 2.280694961547852 L 11.19999980926514 8.915854454040527 C 11.19999980926514 10.17545509338379 10.17858982086182 11.1965446472168 8.918600082397461 11.1965446472168 L 2.281399726867676 11.1965446472168 C 1.021419525146484 11.1965446472168 0 10.17545509338379 0 8.915854454040527 L 0 2.280694961547852 C 0 1.02110481262207 1.021419525146484 -5.7220458984375e-06 2.281399726867676 -5.7220458984375e-06 Z" stroke="none" fill="#77f"/>
    </g>
    <g id="패스_1913" data-name="패스 1913" transform="translate(-714.824 1010.828)" fill="#77f" stroke-linecap="round">
      <path d="M 8.768619537353516 10.19999980926514 L 2.431379795074463 10.19999980926514 C 1.642109870910645 10.19999980926514 0.9999998807907104 9.557889938354492 0.9999998807907104 8.768619537353516 L 0.9999998807907104 2.431379795074463 C 0.9999998807907104 1.642109870910645 1.642109870910645 0.9999998807907104 2.431379795074463 0.9999998807907104 L 8.768619537353516 0.9999998807907104 C 9.557889938354492 0.9999998807907104 10.19999980926514 1.642109870910645 10.19999980926514 2.431379795074463 L 10.19999980926514 8.768619537353516 C 10.19999980926514 9.557889938354492 9.557889938354492 10.19999980926514 8.768619537353516 10.19999980926514 Z" stroke="none"/>
      <path d="M 2.431380271911621 2 C 2.193519592285156 2 2 2.193519592285156 2 2.431380271911621 L 2 8.768619537353516 C 2 9.00648021697998 2.193519592285156 9.199999809265137 2.431380271911621 9.199999809265137 L 8.768619537353516 9.199999809265137 C 9.00648021697998 9.199999809265137 9.199999809265137 9.00648021697998 9.199999809265137 8.768619537353516 L 9.199999809265137 2.431380271911621 C 9.199999809265137 2.193519592285156 9.00648021697998 2 8.768619537353516 2 L 2.431380271911621 2 M 2.431380271911621 0 L 8.768619537353516 0 C 10.11143016815186 0 11.19999980926514 1.088569641113281 11.19999980926514 2.431380271911621 L 11.19999980926514 8.768619537353516 C 11.19999980926514 10.11143016815186 10.11143016815186 11.19999980926514 8.768619537353516 11.19999980926514 L 2.431380271911621 11.19999980926514 C 1.088569641113281 11.19999980926514 0 10.11143016815186 0 8.768619537353516 L 0 2.431380271911621 C 0 1.088569641113281 1.088569641113281 0 2.431380271911621 0 Z" stroke="none" fill="#77f"/>
    </g>
    <g id="패스_1892" data-name="패스 1892" transform="translate(-701.932 1010.828)" fill="#77f" stroke-linecap="round">
      <path d="M 8.918600082397461 10.19999980926514 L 2.281399965286255 10.19999980926514 C 1.574829936027527 10.19999980926514 0.9999998807907104 9.62516975402832 0.9999998807907104 8.918600082397461 L 0.9999998807907104 2.281399965286255 C 0.9999998807907104 1.574829936027527 1.574829936027527 0.9999998807907104 2.281399965286255 0.9999998807907104 L 8.918600082397461 0.9999998807907104 C 9.62516975402832 0.9999998807907104 10.19999980926514 1.574829936027527 10.19999980926514 2.281399965286255 L 10.19999980926514 8.918600082397461 C 10.19999980926514 9.62516975402832 9.62516975402832 10.19999980926514 8.918600082397461 10.19999980926514 Z" stroke="none"/>
      <path d="M 2.281399726867676 2 C 2.126239776611328 2 2 2.126239776611328 2 2.281399726867676 L 2 8.918600082397461 C 2 9.073760032653809 2.126239776611328 9.199999809265137 2.281399726867676 9.199999809265137 L 8.918600082397461 9.199999809265137 C 9.073760032653809 9.199999809265137 9.199999809265137 9.073760032653809 9.199999809265137 8.918600082397461 L 9.199999809265137 2.281399726867676 C 9.199999809265137 2.126239776611328 9.073760032653809 2 8.918600082397461 2 L 2.281399726867676 2 M 2.281399726867676 0 L 8.918600082397461 0 C 10.17858028411865 0 11.19999980926514 1.021419525146484 11.19999980926514 2.281399726867676 L 11.19999980926514 8.918600082397461 C 11.19999980926514 10.17858028411865 10.17858028411865 11.19999980926514 8.918600082397461 11.19999980926514 L 2.281399726867676 11.19999980926514 C 1.021419525146484 11.19999980926514 0 10.17858028411865 0 8.918600082397461 L 0 2.281399726867676 C 0 1.021419525146484 1.021419525146484 0 2.281399726867676 0 Z" stroke="none" fill="#77f"/>
    </g>
  </g>
</svg>
