<svg xmlns="http://www.w3.org/2000/svg" width="24.092" height="23.981" viewBox="0 0 24.092 23.981">
  <g id="_ver2_SERIES_아이콘_선_" data-name="(ver2) SERIES 아이콘 선 " transform="translate(714.824 -998.047)">
    <g id="사각형_2268" data-name="사각형 2268" transform="translate(-714.824 998.047)" fill="none" stroke="#c6c6c6" stroke-linecap="round" stroke-miterlimit="10" stroke-width="2">
      <rect width="11.2" height="11.2" rx="5.6" stroke="none"/>
      <rect x="1" y="1" width="9.2" height="9.2" rx="4.6" fill="none"/>
    </g>
    <g id="패스_1891" data-name="패스 1891" transform="translate(-701.932 998.047)" fill="none" stroke-linecap="round">
      <path d="M2.281,0H8.919A2.281,2.281,0,0,1,11.2,2.281V8.916A2.281,2.281,0,0,1,8.919,11.2H2.281A2.281,2.281,0,0,1,0,8.916V2.281A2.281,2.281,0,0,1,2.281,0Z" stroke="none"/>
      <path d="M 2.281399726867676 1.999994277954102 C 2.126239776611328 1.999994277954102 2 2.125914573669434 2 2.280694961547852 L 2 8.915854454040527 C 2 9.070624351501465 2.126239776611328 9.196544647216797 2.281399726867676 9.196544647216797 L 8.918600082397461 9.196544647216797 C 9.073760032653809 9.196544647216797 9.199999809265137 9.070624351501465 9.199999809265137 8.915854454040527 L 9.199999809265137 2.280694961547852 C 9.199999809265137 2.125914573669434 9.073760032653809 1.999994277954102 8.918600082397461 1.999994277954102 L 2.281399726867676 1.999994277954102 M 2.281399726867676 -5.7220458984375e-06 L 8.918600082397461 -5.7220458984375e-06 C 10.17858982086182 -5.7220458984375e-06 11.19999980926514 1.02110481262207 11.19999980926514 2.280694961547852 L 11.19999980926514 8.915854454040527 C 11.19999980926514 10.17545509338379 10.17858982086182 11.1965446472168 8.918600082397461 11.1965446472168 L 2.281399726867676 11.1965446472168 C 1.021419525146484 11.1965446472168 0 10.17545509338379 0 8.915854454040527 L 0 2.280694961547852 C 0 1.02110481262207 1.021419525146484 -5.7220458984375e-06 2.281399726867676 -5.7220458984375e-06 Z" stroke="none" fill="#c6c6c6"/>
    </g>
    <g id="사각형_2270" data-name="사각형 2270" transform="translate(-714.824 1010.828)" fill="none" stroke="#c6c6c6" stroke-linecap="round" stroke-miterlimit="10" stroke-width="2">
      <rect width="11.2" height="11.2" rx="2.431" stroke="none"/>
      <rect x="1" y="1" width="9.2" height="9.2" rx="1.431" fill="none"/>
    </g>
    <g id="패스_1892" data-name="패스 1892" transform="translate(-701.932 1010.828)" fill="none" stroke-linecap="round">
      <path d="M2.281,0H8.919A2.281,2.281,0,0,1,11.2,2.281V8.919A2.281,2.281,0,0,1,8.919,11.2H2.281A2.281,2.281,0,0,1,0,8.919V2.281A2.281,2.281,0,0,1,2.281,0Z" stroke="none"/>
      <path d="M 2.281399726867676 2 C 2.126239776611328 2 2 2.126239776611328 2 2.281399726867676 L 2 8.918600082397461 C 2 9.073760032653809 2.126239776611328 9.199999809265137 2.281399726867676 9.199999809265137 L 8.918600082397461 9.199999809265137 C 9.073760032653809 9.199999809265137 9.199999809265137 9.073760032653809 9.199999809265137 8.918600082397461 L 9.199999809265137 2.281399726867676 C 9.199999809265137 2.126239776611328 9.073760032653809 2 8.918600082397461 2 L 2.281399726867676 2 M 2.281399726867676 0 L 8.918600082397461 0 C 10.17858028411865 0 11.19999980926514 1.021419525146484 11.19999980926514 2.281399726867676 L 11.19999980926514 8.918600082397461 C 11.19999980926514 10.17858028411865 10.17858028411865 11.19999980926514 8.918600082397461 11.19999980926514 L 2.281399726867676 11.19999980926514 C 1.021419525146484 11.19999980926514 0 10.17858028411865 0 8.918600082397461 L 0 2.281399726867676 C 0 1.021419525146484 1.021419525146484 0 2.281399726867676 0 Z" stroke="none" fill="#c6c6c6"/>
    </g>
  </g>
</svg>
