<svg xmlns="http://www.w3.org/2000/svg" width="32" height="42.163" viewBox="0 0 32 42.163">
  <g id="그룹_2084" data-name="그룹 2084" transform="translate(-149 -161.918)">
    <g id="그룹_2048" data-name="그룹 2048" transform="translate(1 -215)">
      <text id="ZONE" transform="translate(149 416.082)" fill="#c6c6c6" font-size="11" font-family="Helvetica"><tspan x="0" y="0">ZONE</tspan></text>
      <g id="그룹_2047" data-name="그룹 2047" transform="translate(509.585 -139.142)">
        <ellipse id="타원_804" data-name="타원 804" cx="9.212" cy="3.256" rx="9.212" ry="3.256" transform="translate(-355.194 536.716)" fill="#fff"/>
        <path id="패스_2733" data-name="패스 2733" d="M-340.826,559.89c-.943,0-9.212-.091-9.212-3.256s8.269-3.256,9.212-3.256,9.212.091,9.212,3.256S-339.883,559.89-340.826,559.89Zm-7.1-3.256c.683.513,3.264,1.256,7.1,1.256s6.416-.743,7.1-1.256c-.683-.513-3.264-1.256-7.1-1.256S-347.241,556.121-347.924,556.634Z" transform="translate(-5.156 -16.663)" fill="#c6c6c6"/>
        <path id="패스_2734" data-name="패스 2734" d="M-341.585,539.924a48.591,48.591,0,0,1-4.663-4.153c-3.3-3.377-5.047-6.368-5.047-8.65a8.9,8.9,0,0,1,2.787-6.735,10.1,10.1,0,0,1,6.916-2.52,10.514,10.514,0,0,1,7.058,2.531,8.756,8.756,0,0,1,2.9,6.724c0,2.281-1.794,5.276-5.187,8.661A49.219,49.219,0,0,1-341.585,539.924Z" transform="translate(-4.595 -0.807)" fill="#fff"/>
        <path id="패스_2735" data-name="패스 2735" d="M-342.4,518.06a9.1,9.1,0,0,0-6.237,2.254,7.926,7.926,0,0,0-2.466,6c0,1.981,1.684,4.8,4.743,7.932a46.868,46.868,0,0,0,3.974,3.6,47.922,47.922,0,0,0,4.091-3.616c3.132-3.132,4.856-5.943,4.856-7.916a7.78,7.78,0,0,0-2.572-5.978,9.516,9.516,0,0,0-6.391-2.277m0-2c5.982,0,10.963,4.012,10.963,10.255S-342.4,540.369-342.4,540.369s-10.7-7.81-10.7-14.054S-348.382,516.06-342.4,516.06Z" transform="translate(-3.788 0)" fill="#c6c6c6"/>
        <path id="패스_2736" data-name="패스 2736" d="M-346.291,537.524h-.008c-1.283,0-2.554-.031-3.779-.092a.97.97,0,0,1-.919-1.016.975.975,0,0,1,1.016-.919c1.193.06,2.431.09,3.682.09a.972.972,0,0,1,.973.969A.965.965,0,0,1-346.291,537.524Zm3.738-.092a.969.969,0,0,1-.967-.921.969.969,0,0,1,.919-1.016c1.288-.064,2.522-.163,3.667-.293a.965.965,0,0,1,1.072.852.969.969,0,0,1-.853,1.072c-1.186.135-2.46.237-3.789.3Zm-11.2-.3a1.094,1.094,0,0,1-.111-.006,34.522,34.522,0,0,1-3.8-.622.968.968,0,0,1-.726-1.161.968.968,0,0,1,1.161-.726,32.8,32.8,0,0,0,3.582.584.968.968,0,0,1,.853,1.072A.968.968,0,0,1-353.757,537.135Zm18.622-.605a.969.969,0,0,1-.943-.751.969.969,0,0,1,.726-1.162,6.111,6.111,0,0,0,2.417-.893.979.979,0,0,1,.928-.813.96.96,0,0,1,.992.9c0,.017,0,.064,0,.081,0,1.513-2.086,2.19-3.9,2.61A.963.963,0,0,1-335.135,536.529Zm-25.482-1.659a.962.962,0,0,1-.966-.91c0-.017,0-.049,0-.066,0-1.511,2.077-2.186,3.887-2.607a.97.97,0,0,1,1.163.725.968.968,0,0,1-.725,1.162,6.1,6.1,0,0,0-2.4.891.973.973,0,0,1-.928.8Zm25.453-1.681a.986.986,0,0,1-.217-.025,32.858,32.858,0,0,0-3.583-.582.968.968,0,0,1-.853-1.072.966.966,0,0,1,1.072-.853,34.685,34.685,0,0,1,3.8.619.969.969,0,0,1,.727,1.161A.969.969,0,0,1-335.164,533.189Zm-18.626-.6a.969.969,0,0,1-.961-.859.969.969,0,0,1,.852-1.073c1.184-.135,2.459-.237,3.789-.3a.965.965,0,0,1,1.016.919.969.969,0,0,1-.919,1.016c-1.29.064-2.523.164-3.666.294A.944.944,0,0,1-353.791,532.594Zm11.208-.3h-.049c-1.188-.059-2.422-.089-3.667-.089a.979.979,0,0,1-.981-.969.958.958,0,0,1,.957-.969h.024c1.276,0,2.543.03,3.763.091a.969.969,0,0,1,.919,1.016A.969.969,0,0,1-342.583,532.292Z" transform="translate(0 -6.342)" fill="#c6c6c6"/>
        <path id="패스_2737" data-name="패스 2737" d="M-342.512,535.585c-1.251,0-2.491-.028-3.681-.089a.974.974,0,0,0-1.018.919.97.97,0,0,0,.919,1.013c1.229.061,2.5.094,3.78.094h.011a.965.965,0,0,0,.963-.969A.971.971,0,0,0-342.512,535.585Zm8.441.471a.927.927,0,0,0-.244-.537.939.939,0,0,0-.83-.321c-1.146.133-2.38.232-3.67.293a.975.975,0,0,0-.919,1.018.967.967,0,0,0,.969.919h.05c1.173-.061,2.3-.144,3.371-.26.144-.011.282-.028.421-.044A.965.965,0,0,0-334.071,536.055Zm-15.791-.852c-.2-.022-.393-.044-.587-.072q-1.254-.158-2.291-.365a11.729,11.729,0,0,0,.963,2.136c.537.083,1.1.161,1.7.227.039,0,.072.006.111.006a.911.911,0,0,0,.57-.194.948.948,0,0,0,.387-.67A.965.965,0,0,0-349.862,535.2Zm17.573.576a.35.35,0,0,0,.033.1,9.5,9.5,0,0,0,.47-1.179A.954.954,0,0,0-332.289,535.778Zm-20.457-3.769a.977.977,0,0,0-.3-.5,11.114,11.114,0,0,0-.055,1.146c0,.111.006.221.011.332A.974.974,0,0,0-352.746,532.009Zm21.21-.819c-.637-.133-1.334-.255-2.087-.365-.426-.061-.869-.116-1.334-.172a.971.971,0,0,0-1.074.858.965.965,0,0,0,.852,1.068c.614.066,1.19.149,1.732.232.675.105,1.3.221,1.854.349a1,1,0,0,0,.127.022c.017-.177.028-.354.028-.526A10.52,10.52,0,0,0-331.536,531.19Zm-14.784-.836c-1.334.066-2.607.172-3.791.3a.97.97,0,0,0-.852,1.074.969.969,0,0,0,.963.858.785.785,0,0,0,.111-.005c1.14-.127,2.375-.227,3.664-.293a.967.967,0,0,0,.919-1.018A.969.969,0,0,0-346.32,530.354Zm7.572,0c-1.218-.061-2.485-.094-3.764-.094h-.022a.96.96,0,0,0-.958.969.979.979,0,0,0,.98.969c1.245,0,2.48.033,3.67.089a.154.154,0,0,0,.05.005.967.967,0,0,0,.963-.924A.966.966,0,0,0-338.748,530.354Z" transform="translate(-3.789 -6.34)" fill="#c6c6c6"/>
      </g>
    </g>
  </g>
</svg>
