<svg xmlns="http://www.w3.org/2000/svg" xmlns:xlink="http://www.w3.org/1999/xlink" width="383" height="280" viewBox="0 0 383 280">
  <defs>
    <clipPath id="clip-path">
      <rect id="사각형_3736" data-name="사각형 3736" width="383" height="280" rx="10" fill="#fff"/>
    </clipPath>
    <linearGradient id="linear-gradient" x1="-0.243" y1="20.894" x2="-8.03" y2="234.716" gradientUnits="objectBoundingBox">
      <stop offset="0" stop-color="#fff"/>
      <stop offset="0.921" stop-color="#d086f2"/>
    </linearGradient>
    <linearGradient id="linear-gradient-2" x1="1.102" y1="0.021" x2="0.212" y2="0.465" xlink:href="#linear-gradient"/>
    <linearGradient id="linear-gradient-3" x1="1.194" y1="0.207" x2="0.247" y2="0.592" xlink:href="#linear-gradient"/>
    <linearGradient id="linear-gradient-4" x1="3943.328" y1="20.894" x2="3935.541" y2="234.716" xlink:href="#linear-gradient"/>
    <linearGradient id="linear-gradient-5" x1="451.153" y1="0.021" x2="450.263" y2="0.465" xlink:href="#linear-gradient"/>
    <linearGradient id="linear-gradient-6" x1="479.609" y1="0.207" x2="478.662" y2="0.592" xlink:href="#linear-gradient"/>
    <linearGradient id="linear-gradient-7" y1="0.5" x2="1" y2="0.5" gradientUnits="objectBoundingBox">
      <stop offset="0.007" stop-color="#fff" stop-opacity="0"/>
      <stop offset="1" stop-color="#fff"/>
    </linearGradient>
    <linearGradient id="linear-gradient-8" x1="0" y1="0.5" x2="1" y2="0.5" xlink:href="#linear-gradient-7"/>
  </defs>
  <g id="마스크_그룹_2495" data-name="마스크 그룹 2495" clip-path="url(#clip-path)">
    <g id="그룹_2618" data-name="그룹 2618" transform="translate(278.912 138.374)">
      <path id="패스_3569" data-name="패스 3569" d="M537.175,444.871l-.334,9.288a.819.819,0,0,1-.181.491L524.2,473.958a1.208,1.208,0,0,1-1.014.552h-27.4a1.218,1.218,0,0,1-1.047-.6l-10.706-18.52a.038.038,0,0,1-.009-.019l-2.823-4.88a1.208,1.208,0,0,1,1.043-1.812l43.078-.107a1.154,1.154,0,0,0,.529-.125l9.6-4.7a1.2,1.2,0,0,1,1.7.788A1.18,1.18,0,0,1,537.175,444.871Z" transform="translate(-481.03 -408.458)" fill="#c397d7" style="mix-blend-mode: multiply;isolation: isolate"/>
      <path id="패스_3570" data-name="패스 3570" d="M543.539,450.955l-.334,9.288a.85.85,0,0,1-.181.491l-12.462,19.308a1.214,1.214,0,0,1-1.014.552H502.138a1.211,1.211,0,0,1-1.043-.6l-13.538-23.419c-.023-.042-.046-.088-.065-.13l10.706,18.52a1.218,1.218,0,0,0,1.047.6h27.4a1.208,1.208,0,0,0,1.014-.552l12.462-19.308a.82.82,0,0,0,.181-.491l.334-9.288a1.18,1.18,0,0,0-.037-.343C541.825,447.711,543.571,450.089,543.539,450.955Z" transform="translate(-484.498 -409.513)" fill="#7e3ca5" style="mix-blend-mode: multiply;isolation: isolate"/>
      <g id="그룹_2617" data-name="그룹 2617" transform="translate(30.464)">
        <g id="그룹_2606" data-name="그룹 2606" transform="translate(2.75 2.253)">
          <path id="패스_3571" data-name="패스 3571" d="M565,378.618h-2.6c0-.046.821-5.636.887-5.753.189-.352,1.336-.352,1.525.122C564.976,373.4,565,378.618,565,378.618Z" transform="translate(-557.903 -372.615)" fill="#5f2e7c"/>
          <path id="패스_3572" data-name="패스 3572" d="M575.357,378.618h-2.6s.025-5.222.189-5.631c.189-.474,1.336-.474,1.525-.122C574.536,372.983,575.352,378.572,575.357,378.618Z" transform="translate(-563.459 -372.615)" fill="#5f2e7c"/>
          <path id="패스_3573" data-name="패스 3573" d="M568.821,439.62c.026,1.4.041,2.229.041,2.229H552.924l.046-2.229a.421.421,0,0,1-.275-.4.427.427,0,0,1,.3-.4l.117-5.523a.427.427,0,0,1,.021-.842q.015-.635.031-1.3c.005-.092.005-.189.005-.285.015-.469.031-.949.041-1.433.005-.1.005-.189.005-.285.02-.47.036-.949.051-1.433,0-.092,0-.189.005-.286.01-.362.02-.724.036-1.1a.426.426,0,1,1,.031-.852c.01-.4.025-.8.041-1.2,0-.1,0-.189.005-.285.015-.475.036-.949.056-1.428,0-.092.005-.189.01-.286.015-.479.036-.953.056-1.433,0-.1.005-.189.01-.285.015-.413.036-.826.046-1.234a.412.412,0,0,1-.224-.373.417.417,0,0,1,.265-.393c.015-.387.036-.775.056-1.153,0-.1.01-.194.01-.285.026-.485.046-.964.077-1.433a2.665,2.665,0,0,1,.015-.286c.025-.489.051-.964.081-1.433.005-.092.01-.189.015-.286.026-.357.051-.714.071-1.056a.425.425,0,0,1-.4-.423.43.43,0,0,1,.439-.429h.02c.031-.433.066-.847.1-1.239.01-.1.02-.194.026-.285s.015-.168.026-.255c.02-.255.046-.5.071-.744.016-.148.025-.3.046-.433.005-.051.01-.108.015-.159s.01-.082.015-.127c.051-.449.107-.923.163-1.433.01-.092.025-.189.036-.285.041-.321.082-.653.117-1a.43.43,0,0,1,.051-.857.209.209,0,0,1,.056.005c.015-.1.026-.2.036-.306.036-.255.066-.51.1-.775l.031-.214c.01-.1.02-.194.036-.291.056-.464.112-.944.178-1.428.01-.092.025-.189.036-.285.056-.469.122-.949.184-1.433.011-.1.02-.189.036-.285.061-.475.122-.949.183-1.434.015-.092.026-.189.041-.286.061-.474.122-.949.189-1.433.01-.092.02-.189.036-.285.061-.444.117-.893.173-1.332a.428.428,0,1,1,.015-.856.62.62,0,0,1,.1.01c.071-.521.138-1.035.209-1.551a.8.8,0,0,0,.01-.092c.01-.077.025-.189.046-.326.071-.53.2-1.474.317-2.371.031-.194.056-.383.082-.561.082-.622.158-1.173.2-1.484.01-.082.02-.148.026-.194.01-.066.015-.127.026-.189.061-.449.107-.816.158-1.209h2.188l.005-.01.433-.005-.005.005h2.259l-.005-.005.434.005.005.01h2.188c.051.393.1.76.158,1.209.01.061.015.122.026.189.005.046.015.112.025.194.046.311.122.862.2,1.484.026.178.051.368.082.561.117.9.245,1.841.316,2.371.02.138.036.25.046.326.005.046.01.077.01.092.071.515.138,1.03.209,1.551a.558.558,0,0,1,.092-.01.438.438,0,0,1,.443.428.433.433,0,0,1-.423.428c.056.439.112.888.173,1.332.015.1.025.194.036.285.066.484.127.959.189,1.433.015.1.025.194.041.286.061.485.122.959.184,1.434.015.1.026.189.036.285.061.484.128.964.184,1.433.01.1.025.194.041.285.061.485.117.964.173,1.428.015.1.026.194.036.291l.031.214c.031.265.061.52.1.775.01.1.02.2.036.306a.209.209,0,0,1,.056-.005.436.436,0,0,1,.438.428.431.431,0,0,1-.387.429c.041.347.082.679.117,1,.01.1.026.194.036.285.056.51.112.984.163,1.433.005.046.01.087.015.127s.01.107.015.159c.02.138.031.285.046.433.025.24.051.489.071.744.01.087.02.169.025.255s.015.189.026.285c.031.393.067.806.1,1.239h.02a.433.433,0,0,1,.438.429.428.428,0,0,1-.4.423c.026.342.051.7.071,1.056.005.1.01.194.015.286.031.469.056.944.082,1.433.01.1.01.189.015.286.031.469.051.948.076,1.433,0,.092.01.189.01.285.02.377.041.765.056,1.153a.417.417,0,0,1,.265.393.412.412,0,0,1-.224.373c.015.408.031.821.046,1.234.005.1.005.189.01.285.02.48.041.954.056,1.433.005.1.01.194.01.286.02.479.041.953.056,1.428.005.1.005.189.005.285.015.4.031.806.041,1.2a.426.426,0,1,1,.031.852c.015.372.026.735.036,1.1.005.1.005.194.005.286.02.485.036.964.051,1.433,0,.1,0,.189.005.285.01.484.026.964.041,1.433,0,.1,0,.194.005.285.01.444.026.877.031,1.3a.424.424,0,0,1,.025.837c.051,2.163.092,4.07.128,5.534a.425.425,0,0,1,.01.8Z" transform="translate(-552.695 -379.978)" fill="#5f2e7c"/>
        </g>
        <g id="그룹_2615" data-name="그룹 2615">
          <path id="패스_3574" data-name="패스 3574" d="M564.268,381.5h-.038c0,.383-.012,1.347-.019,2.3,0,.174,0,.344,0,.511-.008.619-.012,1.188-.012,1.533,0,.093,0,.171,0,.229l-.012.015s0,.074,0,.213c-.008.364-.027,1.18-.058,2.357,0,.127,0,.259-.007.4-.02.747-.039,1.614-.062,2.581v.019c0,.1,0,.186,0,.283v0c-.012.457-.023.937-.035,1.432,0,.1,0,.19-.008.286-.012.457-.019.929-.035,1.413v.019c0,.1,0,.186,0,.283v0c-.012.464-.023.945-.031,1.432,0,.1-.008.19-.008.286-.012.464-.023.933-.035,1.413v.016c0,.1,0,.19-.008.286-.012.468-.019.948-.031,1.432,0,.093-.007.19-.007.286-.012.464-.024.937-.035,1.413v.019c0,.093,0,.186-.007.282v0c-.008.472-.019.952-.031,1.432,0,.1,0,.19-.008.286-.012.464-.019.94-.035,1.413v.019c0,.093,0,.186-.008.282v0c-.007.472-.019.952-.031,1.432,0,.093,0,.19,0,.286-.012.472-.023.952-.035,1.428,0,.093,0,.19-.008.286-.012.476-.023.956-.035,1.432,0,.1,0,.19-.008.286-.007.476-.019.956-.031,1.433,0,.1,0,.193,0,.286-.015.48-.023.956-.035,1.433,0,.1-.008.19-.008.286-.012.48-.023.956-.035,1.432,0,.1,0,.19-.007.286-.008.48-.019.96-.031,1.432,0,.1,0,.193-.008.286q-.017.72-.035,1.428c0,.093,0,.19-.008.286-.008.484-.019.96-.031,1.432,0,.1,0,.19-.007.286-.012.484-.019.964-.031,1.432,0,.1,0,.19-.008.286-.011.488-.023.964-.035,1.432,0,.1,0,.194-.008.286-.007.488-.019.968-.031,1.432,0,.1,0,.194-.007.286-.012.492-.023.971-.035,1.432a1.009,1.009,0,0,1,0,.112c0,.058,0,.116,0,.174,0,.12-.008.244-.008.36-.019.828-.038,1.595-.054,2.3-.019-.673-.035-1.413-.054-2.2l-.011-.453c0-.1-.007-.19-.007-.286-.012-.461-.024-.94-.035-1.432,0-.093,0-.19-.007-.286-.012-.464-.023-.944-.031-1.432,0-.093-.008-.19-.008-.286-.012-.468-.023-.944-.035-1.432,0-.1,0-.19-.008-.286-.007-.364-.015-.739-.023-1.115,0-.1,0-.213-.007-.317s-.008-.19-.008-.286c0-.073,0-.143,0-.216-.012-.4-.019-.805-.027-1.216,0-.1-.008-.193-.008-.286q-.017-.708-.035-1.428c0-.093,0-.19-.008-.286-.012-.472-.023-.952-.031-1.432,0-.1-.008-.19-.008-.286-.012-.4-.019-.8-.031-1.208,0-.074,0-.151,0-.224,0-.1,0-.19-.008-.286s0-.2-.008-.294c-.007-.38-.015-.755-.027-1.138,0-.093,0-.19,0-.286-.012-.476-.024-.956-.031-1.433,0-.1-.008-.19-.008-.286-.012-.476-.023-.956-.035-1.432,0-.1,0-.193-.008-.286-.008-.352-.015-.7-.027-1.056,0-.124,0-.248-.008-.372,0-.1,0-.194,0-.286,0-.066,0-.128,0-.194-.012-.414-.019-.828-.027-1.238v0c0-.1-.008-.19-.008-.282v-.019c-.015-.472-.023-.948-.035-1.413,0-.1,0-.19-.008-.286-.012-.48-.023-.96-.031-1.432v0c0-.1-.007-.19-.007-.282v-.019q-.012-.505-.023-1c0-.139-.008-.279-.012-.414,0-.1,0-.194-.008-.286,0-.043,0-.082,0-.124-.008-.441-.016-.878-.027-1.308,0-.1,0-.19-.008-.286v-.016c-.012-.48-.023-.948-.035-1.413,0-.1,0-.19-.007-.286-.008-.488-.019-.968-.031-1.432v0c0-.1,0-.186,0-.283v-.019c-.015-.484-.023-.956-.035-1.413,0-.1,0-.19-.008-.286-.012-.5-.023-.976-.035-1.432v0c0-.1,0-.186,0-.283v-.019c-.012-.464-.023-.906-.031-1.32-.008-.294-.015-.577-.019-.847,0-.144-.007-.279-.012-.414s-.008-.271-.008-.4c-.031-1.177-.05-1.993-.058-2.357,0-.139,0-.213,0-.213l-.011-.015c0-.058,0-.135,0-.229,0-.344,0-.914-.012-1.533,0-.166,0-.336,0-.511-.007-.952-.015-1.916-.019-2.3H562l.008-.012h2.257Z" transform="translate(-554.935 -375.124)" fill="#302d56"/>
          <path id="패스_3575" data-name="패스 3575" d="M559.064,373.76h-2.6c0-.046.824-5.635.89-5.752.19-.356,1.335-.356,1.525.12C559.037,368.535,559.064,373.76,559.064,373.76Z" transform="translate(-551.964 -367.755)" fill="#d086f2"/>
          <path id="패스_3576" data-name="패스 3576" d="M547.446,428.016c0-.1,0-.193.008-.286.007-.468.023-.944.035-1.432,0-.093,0-.19.008-.286.015-.472.027-.948.038-1.432,0-.1.008-.19.008-.286.015-.472.031-.948.046-1.432,0-.093,0-.19.008-.286.012-.472.027-.952.046-1.432,0-.1,0-.19.008-.286.015-.476.031-.956.05-1.432,0-.1,0-.193.008-.286.015-.476.035-.952.054-1.428,0-.093,0-.19.012-.286.015-.48.035-.956.054-1.432,0-.1.007-.19.012-.286.019-.48.038-.96.058-1.432.008-.1.012-.194.015-.286.019-.484.043-.964.07-1.433,0-.1.007-.193.012-.286.023-.488.046-.964.074-1.433,0-.1.007-.193.015-.286.027-.491.054-.967.081-1.432.008-.1.012-.193.016-.286.035-.491.066-.971.1-1.428.008-.1.012-.194.019-.286.035-.5.074-.979.112-1.432.008-.1.016-.194.024-.286l.023-.255c.023-.256.046-.507.073-.747.016-.147.027-.294.047-.43,0-.054.007-.108.015-.159s.008-.085.015-.127c.051-.449.1-.925.163-1.432.012-.093.023-.19.035-.286.054-.457.113-.937.171-1.432.015-.093.027-.19.038-.286.02-.147.035-.294.054-.441.031-.252.062-.511.1-.774.008-.07.019-.143.027-.216.012-.093.024-.19.035-.286.058-.464.116-.945.178-1.428.012-.093.027-.19.038-.286.058-.472.12-.948.182-1.432.012-.1.023-.19.038-.286.058-.476.12-.952.182-1.432.015-.093.027-.19.039-.286.062-.476.124-.952.19-1.432.012-.1.023-.194.035-.286.073-.53.143-1.06.213-1.587v-.012c.012-.085.023-.166.031-.252.085-.631.166-1.258.252-1.877,0-.019.007-.051.012-.1.012-.074.027-.186.046-.325.07-.53.2-1.471.317-2.369.027-.193.054-.383.077-.565.085-.619.159-1.169.2-1.483.012-.081.02-.147.027-.193.008-.066.015-.128.023-.186.062-.449.108-.821.159-1.211h2.187l.008-.012.433,0,0,0-.008.012h.038c0,.383.012,1.347.02,2.3,0,.174,0,.344,0,.511.007.619.012,1.188.012,1.533,0,.093,0,.171,0,.228l.012.015s0,.074,0,.213c.008.364.027,1.18.058,2.357,0,.127,0,.259.007.4.019.751.039,1.625.062,2.6,0,.1,0,.19,0,.286.012.457.023.937.035,1.432,0,.1,0,.19.008.286.012.464.019.94.035,1.432,0,.1,0,.19,0,.286.012.464.023.945.031,1.432,0,.1.007.19.007.286q.017.7.035,1.428c0,.1,0,.19.008.286.012.468.019.948.031,1.432,0,.093.008.19.008.286.012.472.023.948.035,1.432,0,.093,0,.19.007.286.008.472.019.952.031,1.432,0,.1,0,.19.008.286.012.472.019.952.035,1.432,0,.093,0,.19.008.286.008.472.02.952.031,1.432,0,.093,0,.19,0,.286.012.472.023.952.035,1.428,0,.093,0,.19.008.286.012.476.023.956.035,1.432,0,.1,0,.19.008.286.007.476.019.956.031,1.433,0,.1,0,.193,0,.286.015.48.023.956.035,1.433,0,.1.008.19.008.286.012.48.023.956.035,1.432,0,.1,0,.19.008.286.007.48.019.96.031,1.432,0,.1,0,.193.008.286q.017.72.035,1.428c0,.093,0,.19.008.286.008.484.019.96.031,1.432,0,.1,0,.19.008.286.012.484.019.964.031,1.432,0,.1,0,.19.008.286.012.488.023.964.035,1.432,0,.1,0,.194.008.286.008.488.02.968.031,1.432,0,.1,0,.194.007.286.012.492.024.971.035,1.432,0,.1,0,.19.007.286.023.964.043,1.854.066,2.655,0,.139,0,.271.008.4.058,2.512.1,4.084.1,4.207v1.711h-8.081" transform="translate(-547.027 -375.12)" fill="#4045a8"/>
          <g id="그룹_2607" data-name="그룹 2607" transform="translate(0.419 16.533)">
            <path id="패스_3577" data-name="패스 3577" d="M557.574,403.714h-4.238c.012-.1.023-.194.035-.286h4.2C557.57,403.525,557.574,403.618,557.574,403.714Z" transform="translate(-550.708 -403.428)" fill="#88c1ff"/>
            <path id="패스_3578" data-name="패스 3578" d="M557.352,407.422h-4.509c.015-.093.027-.19.038-.286h4.463C557.348,407.233,557.348,407.326,557.352,407.422Z" transform="translate(-550.443 -405.417)" fill="#88c1ff"/>
            <path id="패스_3579" data-name="패스 3579" d="M557.135,411.13h-4.768c.012-.1.023-.19.038-.286h4.726C557.131,410.941,557.135,411.034,557.135,411.13Z" transform="translate(-550.188 -407.407)" fill="#88c1ff"/>
            <path id="패스_3580" data-name="패스 3580" d="M556.919,414.838h-5.028c.012-.093.027-.19.038-.286h4.982C556.915,414.649,556.919,414.742,556.919,414.838Z" transform="translate(-549.932 -409.397)" fill="#88c1ff"/>
            <path id="패스_3581" data-name="패스 3581" d="M556.714,418.538h-5.283c.012-.093.024-.19.035-.286h5.24C556.711,418.349,556.711,418.442,556.714,418.538Z" transform="translate(-549.686 -411.382)" fill="#88c1ff"/>
            <path id="패스_3582" data-name="패스 3582" d="M556.5,422.246h-5.539c.015-.093.027-.19.038-.286h5.492C556.5,422.053,556.5,422.15,556.5,422.246Z" transform="translate(-549.435 -413.371)" fill="#88c1ff"/>
            <path id="패스_3583" data-name="패스 3583" d="M556.307,425.954h-5.786c.012-.093.023-.19.035-.286H556.3C556.3,425.761,556.3,425.858,556.307,425.954Z" transform="translate(-549.197 -415.361)" fill="#88c1ff"/>
            <path id="패스_3584" data-name="패스 3584" d="M556.122,429.662H550.1c0-.054.007-.108.015-.159s.008-.085.015-.127h5.98C556.119,429.473,556.119,429.566,556.122,429.662Z" transform="translate(-548.974 -417.35)" fill="#88c1ff"/>
            <path id="패스_3585" data-name="패스 3585" d="M555.972,433.37h-6.228c.008-.1.016-.194.024-.286h6.2C555.964,433.177,555.968,433.274,555.972,433.37Z" transform="translate(-548.78 -419.34)" fill="#88c1ff"/>
            <path id="패스_3586" data-name="패스 3586" d="M555.854,437.078H549.46c.008-.1.012-.194.02-.286h6.371C555.851,436.885,555.854,436.982,555.854,437.078Z" transform="translate(-548.628 -421.329)" fill="#88c1ff"/>
            <path id="패스_3587" data-name="패스 3587" d="M555.767,440.777h-6.549c.008-.1.012-.193.016-.286h6.525C555.763,440.584,555.763,440.681,555.767,440.777Z" transform="translate(-548.498 -423.314)" fill="#88c1ff"/>
            <path id="패스_3588" data-name="패스 3588" d="M555.7,444.485H549.01c0-.1.007-.193.015-.286h6.665C555.69,444.3,555.694,444.389,555.7,444.485Z" transform="translate(-548.387 -425.303)" fill="#88c1ff"/>
            <path id="패스_3589" data-name="패스 3589" d="M555.634,448.194h-6.808c0-.1.007-.193.012-.286h6.793C555.634,448,555.634,448.1,555.634,448.194Z" transform="translate(-548.288 -427.293)" fill="#88c1ff"/>
            <path id="패스_3590" data-name="패스 3590" d="M555.578,451.9h-6.936c.008-.1.012-.194.015-.286h6.913C555.574,451.712,555.578,451.806,555.578,451.9Z" transform="translate(-548.189 -429.283)" fill="#88c1ff"/>
            <path id="패스_3591" data-name="패스 3591" d="M555.54,455.61h-7.048c0-.1.007-.19.012-.286h7.029C555.532,455.42,555.536,455.514,555.54,455.61Z" transform="translate(-548.109 -431.272)" fill="#88c1ff"/>
            <path id="패스_3592" data-name="패스 3592" d="M555.5,459.318H548.35c0-.093,0-.19.012-.286h7.133C555.5,459.128,555.5,459.225,555.5,459.318Z" transform="translate(-548.032 -433.262)" fill="#88c1ff"/>
            <path id="패스_3593" data-name="패스 3593" d="M555.473,463.017h-7.257c0-.1,0-.193.008-.286h7.242C555.465,462.824,555.47,462.921,555.473,463.017Z" transform="translate(-547.961 -435.247)" fill="#88c1ff"/>
            <path id="패스_3594" data-name="패스 3594" d="M555.445,466.725h-7.354c0-.1,0-.19.008-.286h7.338C555.437,466.536,555.441,466.629,555.445,466.725Z" transform="translate(-547.894 -437.236)" fill="#88c1ff"/>
            <path id="패스_3595" data-name="패스 3595" d="M555.421,470.433h-7.447c0-.093,0-.19.008-.286h7.431C555.417,470.244,555.417,470.337,555.421,470.433Z" transform="translate(-547.831 -439.225)" fill="#88c1ff"/>
            <path id="패스_3596" data-name="패스 3596" d="M555.4,474.141h-7.544c0-.1.008-.19.008-.286h7.528C555.393,473.952,555.4,474.049,555.4,474.141Z" transform="translate(-547.768 -441.215)" fill="#88c1ff"/>
            <path id="패스_3597" data-name="패스 3597" d="M555.385,477.849h-7.628c0-.093,0-.19.008-.286h7.613C555.382,477.66,555.382,477.757,555.385,477.849Z" transform="translate(-547.714 -443.205)" fill="#88c1ff"/>
            <path id="패스_3598" data-name="패스 3598" d="M555.379,481.557h-7.714c0-.1,0-.193.008-.286h7.7C555.371,481.368,555.375,481.461,555.379,481.557Z" transform="translate(-547.665 -445.194)" fill="#88c1ff"/>
          </g>
          <g id="그룹_2609" data-name="그룹 2609" transform="translate(3.295 6.361)">
            <path id="패스_3599" data-name="패스 3599" d="M561.51,381.481l-.012.015h-.43l.008-.012Z" transform="translate(-557.732 -381.481)" fill="url(#linear-gradient)"/>
            <g id="그룹_2608" data-name="그룹 2608" transform="translate(0 0)">
              <path id="패스_3600" data-name="패스 3600" d="M557.729,387.716l-1.01,1.041-.217.221L555.4,390.12l-.217.221-1.2,1.238-.108-.093v-.012c.012-.085.023-.166.031-.252l1.072-1.1.213-.221,1.123-1.157.217-.221.991-1.026-.736-.813-.2-.228-1.01-1.115-.209-.228-.546-.6c.012-.081.02-.147.027-.193.008-.066.015-.128.023-.186l.689.759.2.228,1.026,1.126.209.224.72.793c0,.093,0,.171,0,.228l.012.015S557.725,387.577,557.729,387.716Z" transform="translate(-553.87 -382.901)" fill="url(#linear-gradient-2)"/>
              <path id="패스_3601" data-name="패스 3601" d="M558.128,388.653l-1.068-1.316-.194-.236-.693-.852.948-.987.209-.217.709-.739c0-.166,0-.336,0-.511l-1.029-1.169.971-1.13.012-.015-.433,0-.008.012-.743.9-.782-.9h-.429l1.01,1.134-.712.836-.194.224-.751.879c-.023.182-.05.372-.077.565l.894,1.1-1.212,1.269c-.019.139-.035.252-.046.325l.809.871.205.221,1.049,1.13.205.015,1.362-1.247C558.132,388.679,558.128,388.78,558.128,388.653Zm-3.058-3.759.836-.975.19-.224.712-.832,1.049,1.192-.736.767-.2.213-.941.979Zm1.629,4.846-.964-1.041-.209-.221-.735-.793,1.169-1.211.689.848.194.236.96,1.095Z" transform="translate(-554.211 -381.481)" fill="url(#linear-gradient-3)"/>
            </g>
          </g>
          <g id="그룹_2610" data-name="그룹 2610" transform="translate(0 14.344)">
            <ellipse id="타원_973" data-name="타원 973" cx="0.441" cy="0.429" rx="0.441" ry="0.429" transform="translate(2.833)" fill="#cd8eef"/>
            <path id="패스_3602" data-name="패스 3602" d="M562.17,399.133a.427.427,0,0,1-.279.4.4.4,0,0,1-.164.033.429.429,0,1,1,0-.858.416.416,0,0,1,.159.03A.425.425,0,0,1,562.17,399.133Z" transform="translate(-554.555 -398.705)" fill="#cd8eef"/>
            <ellipse id="타원_974" data-name="타원 974" cx="0.441" cy="0.429" rx="0.441" ry="0.429" transform="translate(1.506 10.64)" fill="#cd8eef"/>
            <path id="패스_3603" data-name="패스 3603" d="M562.593,422.09a.426.426,0,0,1-.192.353.432.432,0,1,1-.007-.709A.419.419,0,0,1,562.593,422.09Z" transform="translate(-554.782 -411.02)" fill="#cd8eef"/>
            <ellipse id="타원_975" data-name="타원 975" cx="0.441" cy="0.429" rx="0.441" ry="0.429" transform="translate(0.823 17.455)" fill="#cd8eef"/>
            <path id="패스_3604" data-name="패스 3604" d="M563.108,436.8a.415.415,0,0,1-.146.316.451.451,0,0,1-.3.112.429.429,0,1,1,0-.858.445.445,0,0,1,.291.107A.424.424,0,0,1,563.108,436.8Z" transform="translate(-555.059 -418.912)" fill="#cd8eef"/>
            <ellipse id="타원_976" data-name="타원 976" cx="0.441" cy="0.429" rx="0.441" ry="0.429" transform="translate(0.634 24.205)" fill="#cd8eef"/>
            <path id="패스_3605" data-name="패스 3605" d="M563.211,451.361a.407.407,0,0,1-.082.244.441.441,0,0,1-.361.184.429.429,0,1,1,.356-.679A.4.4,0,0,1,563.211,451.361Z" transform="translate(-555.114 -426.725)" fill="#cd8eef"/>
            <ellipse id="타원_977" data-name="타원 977" cx="0.441" cy="0.429" rx="0.441" ry="0.429" transform="translate(0.192 31.16)" fill="#cd8eef"/>
            <ellipse id="타원_978" data-name="타원 978" cx="0.441" cy="0.429" rx="0.441" ry="0.429" transform="translate(7.402 31.16)" fill="#cd8eef"/>
            <ellipse id="타원_979" data-name="타원 979" cx="0.441" cy="0.429" rx="0.441" ry="0.429" transform="translate(0.064 38.125)" fill="#cd8eef"/>
            <path id="패스_3606" data-name="패스 3606" d="M563.77,481.58a.43.43,0,0,1-.345.418.305.305,0,0,1-.094.012.429.429,0,1,1,0-.858.4.4,0,0,1,.079.007A.431.431,0,0,1,563.77,481.58Z" transform="translate(-555.414 -442.941)" fill="#cd8eef"/>
            <ellipse id="타원_980" data-name="타원 980" cx="0.441" cy="0.429" rx="0.441" ry="0.429" transform="translate(0 44.474)" fill="#cd8eef"/>
            <path id="패스_3607" data-name="패스 3607" d="M564.374,495.094a.418.418,0,0,1-.23.375.422.422,0,0,1-.21.055.429.429,0,1,1,0-.858.414.414,0,0,1,.192.045A.42.42,0,0,1,564.374,495.094Z" transform="translate(-555.738 -450.192)" fill="#cd8eef"/>
            <ellipse id="타원_981" data-name="타원 981" cx="0.441" cy="0.429" rx="0.441" ry="0.429" transform="translate(3.757 38.186)" fill="#cd8eef"/>
            <ellipse id="타원_982" data-name="타원 982" cx="0.441" cy="0.429" rx="0.441" ry="0.429" transform="translate(3.972 17.455)" fill="#cd8eef"/>
          </g>
          <line id="선_440" data-name="선 440" x2="2.427" transform="translate(7.099 6.203)" fill="none" stroke="#c0c0f9" stroke-miterlimit="10" stroke-width="0.799"/>
          <path id="패스_3608" data-name="패스 3608" d="M566.813,373.76h2.6c0-.046-.824-5.635-.89-5.752-.19-.356-1.335-.356-1.525.12C566.84,368.535,566.813,373.76,566.813,373.76Z" transform="translate(-557.52 -367.755)" fill="#d086f2"/>
          <path id="패스_3609" data-name="패스 3609" d="M572.282,436.992H564.2v-1.711c0-.124.046-1.7.1-4.207,0-.132.008-.263.012-.4.019-.8.039-1.691.062-2.655,0-.1.008-.19.008-.286.012-.461.023-.94.035-1.432,0-.093,0-.19.007-.286.012-.464.024-.944.031-1.432,0-.093.008-.19.008-.286.012-.468.023-.944.035-1.432,0-.1,0-.19.008-.286.012-.468.019-.948.031-1.432,0-.1.007-.19.007-.286.012-.472.023-.948.031-1.432,0-.1.008-.193.008-.286q.017-.708.035-1.428c0-.093,0-.19.008-.286.012-.472.023-.952.031-1.432,0-.1.007-.19.007-.286l.035-1.432c0-.1,0-.19.008-.286.012-.476.019-.952.035-1.433,0-.093,0-.19,0-.286.012-.476.023-.956.031-1.433,0-.1.008-.19.008-.286.012-.476.023-.956.035-1.432,0-.1,0-.193.008-.286.012-.476.023-.956.035-1.428,0-.1,0-.194,0-.286.012-.48.023-.96.031-1.432,0-.1.008-.194.008-.286.015-.48.023-.96.035-1.432,0-.1,0-.19.008-.286.012-.48.023-.96.031-1.432,0-.1.007-.194.007-.286.012-.484.023-.96.035-1.432,0-.1,0-.194.007-.286.012-.484.019-.964.031-1.432,0-.1,0-.19.008-.286q.017-.726.035-1.428c0-.1,0-.19.008-.286.007-.488.019-.968.031-1.432,0-.1,0-.19,0-.286.015-.492.023-.968.035-1.432,0-.1,0-.19.008-.286.012-.5.023-.976.035-1.432,0-.1,0-.19,0-.286.023-.976.043-1.85.062-2.6,0-.139.007-.271.007-.4.031-1.177.051-1.993.058-2.357,0-.139,0-.213,0-.213l.012-.015c0-.058,0-.135,0-.228,0-.344,0-.914.012-1.533,0-.166,0-.336,0-.511.008-.952.015-1.916.019-2.3h.038l-.007-.012,0,0,.434,0,.007.012h2.187c.05.391.1.762.158,1.211.008.058.016.12.023.186.008.046.016.112.027.193.046.314.12.863.2,1.483.023.182.05.372.077.565.12.9.248,1.839.318,2.369.019.139.035.252.046.325,0,.046.008.077.012.1.085.619.167,1.246.252,1.877.008.085.02.166.031.252v.012c.069.526.14,1.057.213,1.587.012.093.024.19.035.286.066.48.127.956.19,1.432.012.1.023.194.038.286.062.48.124.956.182,1.432.015.1.027.19.038.286.062.484.124.96.182,1.432.012.1.027.194.038.286.062.484.12.964.178,1.428.012.1.023.193.035.286.007.073.019.147.027.216.035.263.066.523.1.774.019.147.035.294.054.441.012.1.023.193.038.286.058.5.116.975.171,1.432.012.1.023.193.035.286.058.507.112.983.163,1.432.007.043.012.085.015.127s.012.1.016.159c.019.135.031.282.046.43.027.24.05.491.073.747l.024.255c.007.093.015.19.023.286.039.453.077.929.112,1.432.008.093.012.19.019.286.031.456.062.937.1,1.428,0,.093.008.19.016.286.027.465.054.941.081,1.432.008.093.012.19.016.286.027.469.05.945.073,1.433,0,.093.012.19.012.286.027.469.051.949.07,1.433,0,.093.007.19.015.286.019.472.039.952.058,1.432,0,.1.008.19.012.286.019.476.039.952.054,1.432.008.1.012.193.012.286.019.476.039.952.054,1.428,0,.093.008.19.008.286.019.476.035.956.051,1.432,0,.1.007.19.007.286.02.48.035.96.047,1.432,0,.1.007.194.007.286.016.484.031.96.046,1.432,0,.1,0,.19.008.286.012.484.023.96.039,1.432,0,.1,0,.194.008.286.012.488.027.964.035,1.432,0,.093.008.19.008.286C572.224,433.168,572.282,436.992,572.282,436.992Z" transform="translate(-556.118 -375.12)" fill="#4045a8"/>
          <g id="그룹_2611" data-name="그룹 2611" transform="translate(8.26 16.533)">
            <path id="패스_3610" data-name="패스 3610" d="M566.412,403.714h4.238c-.012-.1-.023-.194-.035-.286h-4.2C566.416,403.525,566.412,403.618,566.412,403.714Z" transform="translate(-565.564 -403.428)" fill="#88c1ff"/>
            <path id="패스_3611" data-name="패스 3611" d="M566.32,407.422h4.509c-.015-.093-.027-.19-.038-.286h-4.463C566.324,407.233,566.324,407.326,566.32,407.422Z" transform="translate(-565.515 -405.417)" fill="#88c1ff"/>
            <path id="패스_3612" data-name="패스 3612" d="M566.237,411.13h4.768c-.012-.1-.023-.19-.038-.286h-4.726C566.241,410.941,566.237,411.034,566.237,411.13Z" transform="translate(-565.47 -407.407)" fill="#88c1ff"/>
            <path id="패스_3613" data-name="패스 3613" d="M566.153,414.838h5.028c-.012-.093-.027-.19-.039-.286h-4.981C566.157,414.649,566.153,414.742,566.153,414.838Z" transform="translate(-565.425 -409.397)" fill="#88c1ff"/>
            <path id="패스_3614" data-name="패스 3614" d="M566.061,418.538h5.284c-.012-.093-.023-.19-.035-.286h-5.241C566.065,418.349,566.065,418.442,566.061,418.538Z" transform="translate(-565.376 -411.382)" fill="#88c1ff"/>
            <path id="패스_3615" data-name="패스 3615" d="M565.978,422.246h5.539c-.016-.093-.027-.19-.039-.286h-5.492C565.982,422.053,565.978,422.15,565.978,422.246Z" transform="translate(-565.331 -413.371)" fill="#88c1ff"/>
            <path id="패스_3616" data-name="패스 3616" d="M565.886,425.954h5.786c-.012-.093-.023-.19-.035-.286h-5.744C565.893,425.761,565.89,425.858,565.886,425.954Z" transform="translate(-565.282 -415.361)" fill="#88c1ff"/>
            <path id="패스_3617" data-name="패스 3617" d="M565.8,429.662h6.019c0-.054-.008-.108-.016-.159s-.007-.085-.015-.127h-5.98C565.806,429.473,565.806,429.566,565.8,429.662Z" transform="translate(-565.237 -417.35)" fill="#88c1ff"/>
            <path id="패스_3618" data-name="패스 3618" d="M565.71,433.37h6.228c-.008-.1-.016-.194-.023-.286h-6.2C565.718,433.177,565.714,433.274,565.71,433.37Z" transform="translate(-565.188 -419.34)" fill="#88c1ff"/>
            <path id="패스_3619" data-name="패스 3619" d="M565.635,437.078h6.394c-.008-.1-.012-.194-.019-.286h-6.371C565.639,436.885,565.635,436.982,565.635,437.078Z" transform="translate(-565.147 -421.329)" fill="#88c1ff"/>
            <path id="패스_3620" data-name="패스 3620" d="M565.543,440.777h6.549c-.008-.1-.012-.193-.015-.286h-6.526C565.547,440.584,565.547,440.681,565.543,440.777Z" transform="translate(-565.098 -423.314)" fill="#88c1ff"/>
            <path id="패스_3621" data-name="패스 3621" d="M565.452,444.485h6.688c0-.1-.008-.193-.016-.286h-6.665C565.459,444.3,565.456,444.389,565.452,444.485Z" transform="translate(-565.049 -425.303)" fill="#88c1ff"/>
            <path id="패스_3622" data-name="패스 3622" d="M565.376,448.194h6.809c0-.1-.008-.193-.012-.286H565.38C565.376,448,565.376,448.1,565.376,448.194Z" transform="translate(-565.008 -427.293)" fill="#88c1ff"/>
            <path id="패스_3623" data-name="패스 3623" d="M565.285,451.9h6.936c-.007-.1-.012-.194-.015-.286h-6.913C565.289,451.712,565.285,451.806,565.285,451.9Z" transform="translate(-564.96 -429.283)" fill="#88c1ff"/>
            <path id="패스_3624" data-name="패스 3624" d="M565.193,455.61h7.048c0-.1-.007-.19-.012-.286H565.2C565.2,455.42,565.2,455.514,565.193,455.61Z" transform="translate(-564.91 -431.272)" fill="#88c1ff"/>
            <path id="패스_3625" data-name="패스 3625" d="M565.109,459.318h7.153c0-.093,0-.19-.012-.286h-7.133C565.113,459.128,565.113,459.225,565.109,459.318Z" transform="translate(-564.865 -433.262)" fill="#88c1ff"/>
            <path id="패스_3626" data-name="패스 3626" d="M565.017,463.017h7.257c0-.1,0-.193-.008-.286h-7.241C565.025,462.824,565.021,462.921,565.017,463.017Z" transform="translate(-564.816 -435.247)" fill="#88c1ff"/>
            <path id="패스_3627" data-name="패스 3627" d="M564.934,466.725h7.354c0-.1,0-.19-.007-.286h-7.339C564.941,466.536,564.938,466.629,564.934,466.725Z" transform="translate(-564.771 -437.236)" fill="#88c1ff"/>
            <path id="패스_3628" data-name="패스 3628" d="M564.85,470.433H572.3c0-.093,0-.19-.007-.286h-7.432C564.854,470.244,564.854,470.337,564.85,470.433Z" transform="translate(-564.726 -439.225)" fill="#88c1ff"/>
            <path id="패스_3629" data-name="패스 3629" d="M564.758,474.141H572.3c0-.1-.008-.19-.008-.286h-7.528C564.766,473.952,564.762,474.049,564.758,474.141Z" transform="translate(-564.677 -441.215)" fill="#88c1ff"/>
            <path id="패스_3630" data-name="패스 3630" d="M564.675,477.849H572.3c0-.093,0-.19-.007-.286h-7.614C564.679,477.66,564.679,477.757,564.675,477.849Z" transform="translate(-564.632 -443.205)" fill="#88c1ff"/>
            <path id="패스_3631" data-name="패스 3631" d="M564.583,481.557H572.3c0-.1,0-.193-.007-.286h-7.7C564.591,481.368,564.587,481.461,564.583,481.557Z" transform="translate(-564.583 -445.194)" fill="#88c1ff"/>
          </g>
          <g id="그룹_2613" data-name="그룹 2613" transform="translate(9.173 6.361)">
            <path id="패스_3632" data-name="패스 3632" d="M566.871,381.481l.012.015h.43l-.008-.012Z" transform="translate(-566.724 -381.481)" fill="url(#linear-gradient-4)"/>
            <g id="그룹_2612" data-name="그룹 2612" transform="translate(0 0)">
              <path id="패스_3633" data-name="패스 3633" d="M566.7,387.716l1.01,1.041.216.221,1.107,1.142.216.221,1.2,1.238.108-.093v-.012c-.012-.085-.023-.166-.031-.252l-1.072-1.1-.213-.221-1.122-1.157-.217-.221-.991-1.026.735-.813.205-.228,1.01-1.115.209-.228.546-.6c-.012-.081-.019-.147-.027-.193-.007-.066-.015-.128-.023-.186l-.689.759-.205.228-1.026,1.126-.209.224-.72.793c0,.093,0,.171,0,.228l-.012.015S566.7,387.577,566.7,387.716Z" transform="translate(-566.63 -382.901)" fill="url(#linear-gradient-5)"/>
              <path id="패스_3634" data-name="패스 3634" d="M566.554,388.819l1.363,1.247.2-.015,1.049-1.13.205-.221.809-.871c-.012-.074-.027-.186-.047-.325l-1.211-1.269.894-1.1c-.027-.193-.054-.383-.077-.565l-.751-.879-.193-.224-.712-.836,1.01-1.134h-.43l-.782.9-.743-.9-.007-.012-.434,0,.012.015.972,1.13-1.03,1.169c0,.174,0,.344,0,.511l.708.739.209.217.948.987-.693.852-.193.236-1.068,1.316C566.562,388.78,566.558,388.679,566.554,388.819Zm2.16-2.806-.94-.979-.205-.213-.736-.767,1.049-1.192.712.832.19.224.836.975Zm-1.826,2.639.959-1.095.194-.236.689-.848,1.169,1.211-.735.793-.209.221-.964,1.041Z" transform="translate(-566.554 -381.481)" fill="url(#linear-gradient-6)"/>
            </g>
          </g>
          <g id="그룹_2614" data-name="그룹 2614" transform="translate(7.756 14.344)">
            <ellipse id="타원_983" data-name="타원 983" cx="0.441" cy="0.429" rx="0.441" ry="0.429" transform="translate(4.92)" fill="#cd8eef"/>
            <path id="패스_3635" data-name="패스 3635" d="M565.7,399.133a.426.426,0,0,0,.279.4.4.4,0,0,0,.164.033.429.429,0,1,0,0-.858.417.417,0,0,0-.158.03A.425.425,0,0,0,565.7,399.133Z" transform="translate(-564.68 -398.705)" fill="#cd8eef"/>
            <ellipse id="타원_984" data-name="타원 984" cx="0.441" cy="0.429" rx="0.441" ry="0.429" transform="translate(6.247 10.64)" fill="#cd8eef"/>
            <path id="패스_3636" data-name="패스 3636" d="M565.278,422.09a.426.426,0,0,0,.192.353.434.434,0,1,0,.251-.784.43.43,0,0,0-.243.075A.419.419,0,0,0,565.278,422.09Z" transform="translate(-564.453 -411.02)" fill="#cd8eef"/>
            <ellipse id="타원_985" data-name="타원 985" cx="0.441" cy="0.429" rx="0.441" ry="0.429" transform="translate(6.931 17.455)" fill="#cd8eef"/>
            <path id="패스_3637" data-name="패스 3637" d="M564.764,436.8a.414.414,0,0,0,.146.316.45.45,0,0,0,.3.112.429.429,0,1,0,0-.858.445.445,0,0,0-.292.107A.424.424,0,0,0,564.764,436.8Z" transform="translate(-564.177 -418.912)" fill="#cd8eef"/>
            <ellipse id="타원_986" data-name="타원 986" cx="0.441" cy="0.429" rx="0.441" ry="0.429" transform="translate(7.12 24.205)" fill="#cd8eef"/>
            <path id="패스_3638" data-name="패스 3638" d="M564.661,451.361a.407.407,0,0,0,.082.244.441.441,0,0,0,.361.184.429.429,0,1,0-.355-.679A.4.4,0,0,0,564.661,451.361Z" transform="translate(-564.122 -426.725)" fill="#cd8eef"/>
            <ellipse id="타원_987" data-name="타원 987" cx="0.441" cy="0.429" rx="0.441" ry="0.429" transform="translate(7.561 31.16)" fill="#cd8eef"/>
            <ellipse id="타원_988" data-name="타원 988" cx="0.441" cy="0.429" rx="0.441" ry="0.429" transform="translate(0.352 31.16)" fill="#cd8eef"/>
            <ellipse id="타원_989" data-name="타원 989" cx="0.441" cy="0.429" rx="0.441" ry="0.429" transform="translate(7.69 38.125)" fill="#cd8eef"/>
            <path id="패스_3639" data-name="패스 3639" d="M564.1,481.58a.43.43,0,0,0,.345.418.309.309,0,0,0,.1.012.429.429,0,1,0,0-.858.4.4,0,0,0-.079.007A.431.431,0,0,0,564.1,481.58Z" transform="translate(-563.821 -442.941)" fill="#cd8eef"/>
            <ellipse id="타원_990" data-name="타원 990" cx="0.441" cy="0.429" rx="0.441" ry="0.429" transform="translate(7.754 44.474)" fill="#cd8eef"/>
            <path id="패스_3640" data-name="패스 3640" d="M563.5,495.094a.418.418,0,0,0,.23.375.423.423,0,0,0,.209.055.429.429,0,1,0,0-.858.414.414,0,0,0-.192.045A.421.421,0,0,0,563.5,495.094Z" transform="translate(-563.497 -450.192)" fill="#cd8eef"/>
            <ellipse id="타원_991" data-name="타원 991" cx="0.441" cy="0.429" rx="0.441" ry="0.429" transform="translate(3.997 38.186)" fill="#cd8eef"/>
            <ellipse id="타원_992" data-name="타원 992" cx="0.441" cy="0.429" rx="0.441" ry="0.429" transform="translate(3.782 17.455)" fill="#cd8eef"/>
          </g>
          <line id="선_441" data-name="선 441" x1="2.427" transform="translate(6.866 6.203)" fill="none" stroke="#c0c0f9" stroke-miterlimit="10" stroke-width="0.799"/>
          <path id="패스_3641" data-name="패스 3641" d="M564.3,403.386v.02c0,.1,0,.186,0,.283h-1.823c0-.1,0-.186,0-.283v-.02Z" transform="translate(-555.191 -386.872)" fill="#f9ffd7"/>
          <path id="패스_3642" data-name="패스 3642" d="M564.315,410.8v.019c0,.1,0,.186,0,.283h-1.66c0-.1,0-.186,0-.283V410.8Z" transform="translate(-555.285 -390.851)" fill="#f9ffd7"/>
          <path id="패스_3643" data-name="패스 3643" d="M564.328,418.218v.016c0,.1,0,.19-.008.286h-1.5c0-.1,0-.19-.008-.286v-.016Z" transform="translate(-555.374 -394.83)" fill="#f9ffd7"/>
          <path id="패스_3644" data-name="패스 3644" d="M564.34,425.626v.02c0,.093,0,.186-.007.282H563c0-.1-.007-.19-.007-.282v-.02Z" transform="translate(-555.469 -398.805)" fill="#f9ffd7"/>
          <path id="패스_3645" data-name="패스 3645" d="M564.353,433.042v.02c0,.093,0,.186-.008.282h-1.172c0-.1-.008-.19-.008-.282v-.02Z" transform="translate(-555.563 -402.784)" fill="#f9ffd7"/>
          <path id="패스_3646" data-name="패스 3646" d="M559.881,488.875" transform="translate(-553.801 -432.741)" fill="none" stroke="#9c9cff" stroke-miterlimit="10" stroke-width="0.434"/>
          <path id="패스_3647" data-name="패스 3647" d="M562.413,490.081a.151.151,0,0,1-.06.109c.008-.069.02-.132.026-.187A.12.12,0,0,1,562.413,490.081Z" transform="translate(-555.127 -433.346)" fill="none" stroke="#9c9cff" stroke-miterlimit="10" stroke-width="0.144"/>
        </g>
        <g id="그룹_2616" data-name="그룹 2616" transform="translate(0.2 0.212)" opacity="0.5" style="mix-blend-mode: overlay;isolation: isolate">
          <path id="패스_3648" data-name="패스 3648" d="M559.5,374.216h-2.6c0-.046.821-5.636.888-5.753.189-.352,1.336-.352,1.525.123C559.474,368.994,559.5,374.216,559.5,374.216Z" transform="translate(-552.401 -368.213)" fill="url(#linear-gradient-7)"/>
          <path id="패스_3649" data-name="패스 3649" d="M569.855,374.216h-2.6s.025-5.222.189-5.63c.189-.475,1.337-.475,1.525-.123C569.034,368.581,569.85,374.17,569.855,374.216Z" transform="translate(-557.957 -368.213)" fill="url(#linear-gradient-8)"/>
          <path id="패스_3650" data-name="패스 3650" d="M563.319,435.218c.026,1.4.041,2.229.041,2.229H547.422l.046-2.229a.421.421,0,0,1-.275-.4.428.428,0,0,1,.3-.4l.117-5.524a.432.432,0,0,1-.347-.423.427.427,0,0,1,.367-.418q.015-.635.031-1.3c.005-.092.005-.189.005-.285.015-.469.031-.949.041-1.433.005-.1.005-.189.005-.285.02-.469.036-.949.051-1.434,0-.092,0-.189.005-.285.01-.362.02-.724.036-1.1a.426.426,0,1,1,.031-.851c.01-.4.026-.8.041-1.2,0-.1,0-.189.006-.285.015-.474.036-.949.056-1.428,0-.092.005-.189.01-.285.015-.48.036-.954.056-1.433,0-.1.005-.189.01-.285.015-.413.036-.826.046-1.234a.412.412,0,0,1-.225-.372.418.418,0,0,1,.266-.393c.015-.387.036-.775.056-1.153,0-.1.01-.194.01-.286.026-.484.046-.964.076-1.433a2.679,2.679,0,0,1,.015-.285c.025-.49.051-.964.082-1.434.005-.092.01-.189.015-.285.025-.357.051-.714.071-1.056a.425.425,0,0,1-.4-.423.43.43,0,0,1,.438-.429h.02c.031-.433.066-.846.1-1.239.01-.1.02-.194.025-.286s.015-.168.025-.255c.02-.255.046-.505.071-.745.015-.148.026-.3.046-.433.005-.051.01-.107.015-.158s.01-.082.015-.127c.051-.449.107-.923.163-1.434.01-.092.026-.189.036-.285.04-.321.081-.653.117-1a.43.43,0,0,1,.051-.857.21.21,0,0,1,.056.005c.015-.1.025-.2.036-.306.036-.255.066-.51.1-.775l.031-.214c.01-.1.02-.194.036-.291.056-.464.112-.944.178-1.428.01-.092.025-.189.036-.286.056-.469.122-.949.184-1.433.01-.1.02-.189.036-.285.061-.475.122-.949.184-1.434.015-.092.026-.189.041-.285.062-.474.123-.949.189-1.433.01-.092.02-.189.036-.285.061-.444.117-.893.173-1.331a.429.429,0,1,1,.015-.857.623.623,0,0,1,.1.01c.071-.52.138-1.035.209-1.551a.787.787,0,0,0,.01-.092c.01-.076.026-.189.046-.326.071-.53.2-1.474.316-2.372.031-.194.056-.382.082-.561.082-.622.159-1.173.2-1.484.01-.082.02-.148.025-.194.01-.066.015-.127.026-.189.061-.449.107-.816.158-1.209h2.188l.005-.01.433-.005-.005.005h2.259l-.005-.005.434.005.005.01h2.188c.051.393.1.76.158,1.209.01.061.015.122.025.189.005.046.015.112.026.194.046.311.122.862.2,1.484.025.179.051.368.082.561.117.9.245,1.841.316,2.372.02.138.036.25.046.326.005.046.01.076.01.092.071.515.138,1.03.209,1.551a.565.565,0,0,1,.092-.01.429.429,0,1,1,.02.857c.056.438.112.887.173,1.331.015.1.026.194.036.285.066.484.127.959.189,1.433.015.1.026.194.041.285.061.485.122.959.184,1.434.015.1.026.189.036.285.061.484.127.964.184,1.433.01.1.026.194.041.286.061.484.117.964.173,1.428.016.1.026.194.036.291l.031.214c.031.266.061.52.1.775.01.1.02.2.036.306a.211.211,0,0,1,.056-.005.436.436,0,0,1,.438.429.431.431,0,0,1-.388.428c.041.347.082.678.117,1,.01.1.025.194.036.285.056.51.112.984.163,1.434.005.045.01.087.015.127s.01.107.015.158c.02.138.031.285.046.433.026.24.051.489.071.745.01.087.02.168.026.255s.015.189.026.286c.031.393.066.806.1,1.239h.02a.434.434,0,0,1,.439.429.429.429,0,0,1-.4.423c.025.342.051.7.071,1.056.005.1.01.194.015.285.031.47.056.944.082,1.434.011.1.011.189.016.285.031.469.051.949.076,1.433,0,.092.01.189.01.286.02.378.041.765.056,1.153a.418.418,0,0,1,.265.393.412.412,0,0,1-.224.372c.015.408.031.821.046,1.234.005.1.005.189.01.285.02.48.041.954.056,1.433.005.1.01.194.01.285.02.479.041.954.056,1.428.005.1.005.189.005.285.015.4.031.806.041,1.2a.426.426,0,1,1,.031.851c.015.373.025.735.036,1.1.005.1.005.194.005.285.021.485.036.964.051,1.434,0,.1,0,.189.005.285.01.484.026.964.041,1.433,0,.1,0,.194.005.285.01.444.026.877.031,1.3a.424.424,0,0,1,.026.836c.051,2.163.092,4.07.127,5.534a.425.425,0,0,1,.01.8Z" transform="translate(-547.193 -375.577)" fill="url(#linear-gradient-7)"/>
        </g>
      </g>
    </g>
  </g>
</svg>
