<svg xmlns="http://www.w3.org/2000/svg" xmlns:xlink="http://www.w3.org/1999/xlink" width="383" height="280" viewBox="0 0 383 280">
  <defs>
    <clipPath id="clip-path">
      <rect id="사각형_3736" data-name="사각형 3736" width="383" height="280" rx="10" fill="#fff"/>
    </clipPath>
  </defs>
  <g id="마스크_그룹_2497" data-name="마스크 그룹 2497" clip-path="url(#clip-path)">
    <g id="그룹_2598" data-name="그룹 2598" transform="translate(242.748 70.677)">
      <g id="그룹_2594" data-name="그룹 2594" transform="translate(0.089 18.887)">
        <path id="패스_3529" data-name="패스 3529" d="M503.429,277.729V262.44l3.059,4.417,0,13.626-5.714-.013" transform="translate(-455.546 -262.439)" fill="#93d8b7" style="mix-blend-mode: multiply;isolation: isolate"/>
        <path id="패스_3530" data-name="패스 3530" d="M447.716,303l-.03,7.629-6.27,6.474-35.2-.027-3.028-4.305,35,0" transform="translate(-403.189 -284.203)" fill="#93d8b7" style="mix-blend-mode: multiply;isolation: isolate"/>
        <path id="패스_3531" data-name="패스 3531" d="M441.465,295.341l-35.156-.027-3.029-4.305.325-26.73a1.538,1.538,0,0,1,1.527-1.519l46.031-.323,3.06,4.419-.046,13.626-6.379-.01-.063,8.4Z" transform="translate(-403.238 -262.437)" fill="#93d8b7" style="mix-blend-mode: multiply;isolation: isolate"/>
      </g>
      <g id="그룹_2597" data-name="그룹 2597">
        <path id="패스_3532" data-name="패스 3532" d="M453.939,237.028a.864.864,0,0,1-.063.374.888.888,0,0,1-.532.519,12.345,12.345,0,0,1-2.324.471,3.807,3.807,0,0,1-.653.957,6.493,6.493,0,0,1-3.786,1.712v.461h1.929a.974.974,0,0,1,.981.961v1.7l.856.01a.87.87,0,0,1,.366.08.887.887,0,0,1,.408.358.846.846,0,0,1,.127.377l1.07,11.517a.963.963,0,0,1-.242.726,1,1,0,0,1-.739.325h-7.163v.026H438v-.026h-4.062a.817.817,0,0,1-.22.032h-5.7a.817.817,0,0,1-.22-.032h-4.088v.026H417.54v-.026h-7.16a1,1,0,0,1-.739-.325.942.942,0,0,1-.242-.726l1.07-11.517a.843.843,0,0,1,.124-.377.887.887,0,0,1,.408-.358.871.871,0,0,1,.366-.08l.859-.01v-1.7a.972.972,0,0,1,.981-.961h1.926v-.461a6.5,6.5,0,0,1-3.786-1.712,3.807,3.807,0,0,1-.653-.957,12.291,12.291,0,0,1-2.321-.471.885.885,0,0,1-.535-.519.825.825,0,0,1-.06-.374l.038-.645a.654.654,0,0,1,.213-.448.688.688,0,0,1,.468-.184l7.437.023.067-.139.029,0c0-.013,0-.026,0-.039a.055.055,0,0,1,0-.023c.063-.69.1-1.383.13-2.08a1.336,1.336,0,0,1-.133-.019,5.6,5.6,0,0,1-4.387-3.157,11.67,11.67,0,0,1-1.325-.377.684.684,0,0,1-.458-.619l-.022-.732a.756.756,0,0,1,.233-.571.788.788,0,0,1,.617-.222,53.6,53.6,0,0,0,9.694-.178.662.662,0,0,1-.025-.158.572.572,0,0,1,.577-.567h.273v-.564a.575.575,0,0,1,1.149,0v.564h.277a.571.571,0,0,1,.573.567.672.672,0,0,1-.012.113l7.663.119,7.965-.126a.638.638,0,0,1-.009-.107.572.572,0,0,1,.576-.567h.274v-.564a.575.575,0,0,1,1.149,0v.564h.273a.571.571,0,0,1,.573.567.547.547,0,0,1-.035.19,53.825,53.825,0,0,0,9.4.145.8.8,0,0,1,.621.222.761.761,0,0,1,.233.571l-.026.732a.676.676,0,0,1-.455.619,11.885,11.885,0,0,1-1.325.377,5.185,5.185,0,0,1-3.263,2.879,6.934,6.934,0,0,1-1.261.3q.038,1.045.137,2.08l.019.2,1.1,0,6.409-.019h0a.675.675,0,0,1,.681.632Z" transform="translate(-405.562 -223.872)" fill="#549b77"/>
        <path id="패스_3533" data-name="패스 3533" d="M449.534,233.224a.872.872,0,0,1-.064.377.9.9,0,0,1-.536.523,12.422,12.422,0,0,1-2.343.475,3.835,3.835,0,0,1-.658.965,6.545,6.545,0,0,1-3.816,1.726v.465h1.945a.982.982,0,0,1,.989.969v1.716l.863.01a.87.87,0,0,1,.369.082.892.892,0,0,1,.411.361.855.855,0,0,1,.128.381l1.078,11.611a.967.967,0,0,1-.244.731,1.011,1.011,0,0,1-.745.328H439.69v.026h-6.22v-.026h-4.1a.827.827,0,0,1-.222.032h-5.748a.827.827,0,0,1-.222-.032h-4.121v.026H412.84v-.026h-7.218a1.007,1.007,0,0,1-.745-.328.95.95,0,0,1-.244-.731l1.078-11.611a.851.851,0,0,1,.125-.381.891.891,0,0,1,.411-.361.873.873,0,0,1,.369-.082l.867-.01v-1.716a.98.98,0,0,1,.988-.969h1.942v-.465a6.555,6.555,0,0,1-3.816-1.726,3.824,3.824,0,0,1-.658-.965,12.376,12.376,0,0,1-2.34-.475.891.891,0,0,1-.539-.523.839.839,0,0,1-.061-.377l.038-.65a.656.656,0,0,1,.215-.452.691.691,0,0,1,.472-.185l7.5.023.068-.14.029,0c0-.013,0-.026,0-.039a.055.055,0,0,1,0-.023c.064-.7.106-1.395.132-2.1a1.346,1.346,0,0,1-.135-.019,5.649,5.649,0,0,1-4.423-3.182,11.911,11.911,0,0,1-1.335-.38.691.691,0,0,1-.462-.624l-.022-.738a.763.763,0,0,1,.234-.575.8.8,0,0,1,.623-.224,54.023,54.023,0,0,0,9.772-.179.679.679,0,0,1-.025-.159.577.577,0,0,1,.581-.572h.276v-.569a.579.579,0,0,1,1.159,0V223h.279a.576.576,0,0,1,.578.572.689.689,0,0,1-.013.114l7.725.12,8.03-.127a.6.6,0,0,1-.01-.108.577.577,0,0,1,.581-.572h.276v-.569a.579.579,0,0,1,1.159,0V223h.276a.576.576,0,0,1,.577.572.544.544,0,0,1-.035.192,54.23,54.23,0,0,0,9.471.146.806.806,0,0,1,.626.224.766.766,0,0,1,.234.575l-.026.738a.682.682,0,0,1-.459.624,12.074,12.074,0,0,1-1.335.38,5.227,5.227,0,0,1-3.29,2.9,6.934,6.934,0,0,1-1.271.3q.038,1.053.138,2.1l.019.2,1.114,0,6.461-.019h0a.681.681,0,0,1,.687.637Z" transform="translate(-402.998 -221.783)" fill="#fff"/>
        <g id="그룹_2596" data-name="그룹 2596" transform="translate(0.149)">
          <path id="패스_3534" data-name="패스 3534" d="M489.551,230.885a5.117,5.117,0,0,1-3.1,2.8,6.748,6.748,0,0,1-1.534.384v0q-.039-1.217,0-2.437c.552-.066,1.063-.128,1.53-.194,1.336-.184,2.333-.371,3.068-.539C489.528,230.888,489.541,230.888,489.551,230.885Z" transform="translate(-447.09 -226.621)" fill="#292434"/>
          <path id="패스_3535" data-name="패스 3535" d="M411.171,230.885s0,0,0,.007a5.1,5.1,0,0,0,3.067,2.776,7.42,7.42,0,0,0,1.352.371.322.322,0,0,0,.052.006c.058.01.1.013.13.016a.2.2,0,0,0,.03,0q.039-1.217,0-2.437v0c-.01,0-.02,0-.03,0-.263-.03-.513-.063-.757-.089a.615.615,0,0,0-.082-.013c-.24-.029-.471-.062-.692-.092C412.9,231.24,411.905,231.053,411.171,230.885Z" transform="translate(-407.532 -226.621)" fill="#292434"/>
          <path id="패스_3536" data-name="패스 3536" d="M449.777,226.566l-.023.746a.332.332,0,0,1-.016.1.012.012,0,0,1,0,.01.377.377,0,0,1-.032.085,0,0,0,0,1,0,0,.379.379,0,0,1-.058.082.464.464,0,0,1-.071.065.4.4,0,0,1-.124.066c-.019.006-.036.013-.058.02-.078.026-.172.059-.283.092-.136.043-.3.092-.494.141l-.377.1c-.6.144-1.417.312-2.505.482-.127.02-.26.04-.4.059l-.045.007c-.143.02-.289.043-.442.063l-.286.039-.165.02c-.172.026-.354.046-.539.069s-.354.043-.539.066l-.367.039-.169.02c-.084.006-.169.016-.254.026-.172.017-.348.033-.526.053s-.384.036-.585.052c-.995.089-2.1.174-3.331.247-.133.006-.27.016-.406.023-.273.017-.556.033-.842.046H420.3c-1.232-.063-2.35-.135-3.367-.214-.423-.033-.825-.066-1.212-.1-.208-.019-.416-.039-.614-.056l-.494-.05c-.045-.007-.088-.01-.13-.013-.188-.023-.374-.043-.555-.063l-.1-.01c-.075-.01-.149-.016-.221-.026l-.162-.016c-.124-.016-.244-.03-.364-.046-.15-.02-.3-.039-.432-.056l-.527-.072c-.864-.121-1.582-.246-2.174-.361-.071-.017-.143-.03-.211-.043-.689-.141-1.2-.273-1.556-.378-.052-.016-.1-.029-.146-.046a.1.1,0,0,1-.029-.01c-.045-.013-.084-.026-.123-.036-.072-.026-.133-.046-.189-.066a.454.454,0,0,1-.305-.411l-.026-.746a.558.558,0,0,1,.614-.558c1.836.138,3.564.165,5.072.132.185,0,.368-.006.546-.013h.029c.26-.01.51-.016.754-.029.37-.017.725-.036,1.053-.056.117-.006.234-.013.344-.023.215-.016.419-.029.611-.046.247-.019.475-.039.685-.062a.151.151,0,0,0,.036,0c.156-.013.3-.03.432-.043a.529.529,0,0,0,.071-.007.359.359,0,0,0,.058-.006l.237-.026c.049-.006.095-.01.137-.016a1.028,1.028,0,0,0,.11-.013,1.189,1.189,0,0,0,.12-.017h0a.345.345,0,0,0,.081.03.411.411,0,0,0,.091.01h.458v.44a.41.41,0,0,0,.819,0v-.44h.458a.335.335,0,0,0,.1-.013.577.577,0,0,0,.082-.026s0,0,.007,0l8.2.125,8.517-.131a.333.333,0,0,0,.094.036.343.343,0,0,0,.1.013h.458v.44a.408.408,0,0,0,.816,0v-.44h.458a.417.417,0,0,0,.091-.01h0c.081.01.169.019.263.033.14.013.3.033.471.049.192.02.406.039.637.059l.224.019h.007c.153.013.312.026.481.036.338.026.7.049,1.1.069.146.006.3.016.448.023.305.013.624.023.955.032.082,0,.166.007.25.007l.514.01c.088,0,.176,0,.263,0,1.355.013,2.866-.023,4.455-.141A.555.555,0,0,1,449.777,226.566Z" transform="translate(-405.483 -223.876)" fill="#4c40a0"/>
          <path id="패스_3537" data-name="패스 3537" d="M450.808,237.866l-14.668.046-14.674-.046a38.049,38.049,0,0,0,.169-4.757c2.434.27,5.683.506,9.975.631l1,2.365h7.655l.917-2.382c4.042-.128,7.126-.358,9.462-.615A38.715,38.715,0,0,0,450.808,237.866Z" transform="translate(-413.056 -227.814)" fill="#292434"/>
          <path id="패스_3538" data-name="패스 3538" d="M449.485,245.143a.438.438,0,0,1-.289.427c-1.069.374-5.42,1.242-22.791,1.183h0c-17.368.056-21.726-.808-22.791-1.183a.434.434,0,0,1-.289-.427l.039-.657a.213.213,0,0,1,.221-.19l22.824.072,22.821-.072a.213.213,0,0,1,.221.19Z" transform="translate(-403.32 -233.817)" fill="#4c40a0"/>
          <path id="패스_3539" data-name="패스 3539" d="M413.927,249.551v1.83a6.655,6.655,0,0,1-3.152-1.258,3.516,3.516,0,0,1-.793-.9C410.983,249.337,412.27,249.452,413.927,249.551Z" transform="translate(-406.894 -236.46)" fill="#292434"/>
          <path id="패스_3540" data-name="패스 3540" d="M415.983,256.983v2.231h-2.86v-1.735a.511.511,0,0,1,.523-.5Z" transform="translate(-408.58 -240.624)" fill="#292434"/>
          <rect id="사각형_3705" data-name="사각형 3705" width="2.869" height="2.23" transform="translate(7.949 16.359)" fill="#c45757"/>
          <rect id="사각형_3706" data-name="사각형 3706" width="2.869" height="2.23" transform="translate(11.361 16.359)" fill="#292434"/>
          <rect id="사각형_3707" data-name="사각형 3707" width="2.872" height="2.23" transform="translate(14.773 16.359)" fill="#c45757"/>
          <rect id="사각형_3708" data-name="사각형 3708" width="2.869" height="2.23" transform="translate(18.188 16.359)" fill="#292434"/>
          <rect id="사각형_3709" data-name="사각형 3709" width="2.869" height="2.23" transform="translate(21.6 16.359)" fill="#c45757"/>
          <rect id="사각형_3710" data-name="사각형 3710" width="2.869" height="2.23" transform="translate(25.015 16.359)" fill="#292434"/>
          <rect id="사각형_3711" data-name="사각형 3711" width="2.869" height="2.23" transform="translate(28.427 16.359)" fill="#c45757"/>
          <rect id="사각형_3712" data-name="사각형 3712" width="2.872" height="2.23" transform="translate(31.839 16.359)" fill="#292434"/>
          <rect id="사각형_3713" data-name="사각형 3713" width="2.869" height="2.23" transform="translate(35.254 16.359)" fill="#c45757"/>
          <path id="패스_3541" data-name="패스 3541" d="M489.7,257.479v1.735h-2.957v-2.231h2.434A.511.511,0,0,1,489.7,257.479Z" transform="translate(-448.083 -240.624)" fill="#292434"/>
          <path id="패스_3542" data-name="패스 3542" d="M491.7,249.222a3.518,3.518,0,0,1-.8.9,6.643,6.643,0,0,1-3.152,1.258v-1.83C489.408,249.452,490.7,249.337,491.7,249.222Z" transform="translate(-448.621 -236.46)" fill="#292434"/>
          <path id="패스_3543" data-name="패스 3543" d="M450.67,249.994v2.756H419.524v-2.756c3.184.177,7.646.3,13.9.3.543,0,1.1,0,1.667,0s1.128,0,1.667,0C443.021,250.293,447.485,250.171,450.67,249.994Z" transform="translate(-412.014 -236.874)" fill="#93d8b7"/>
          <path id="패스_3544" data-name="패스 3544" d="M449.744,274.972a.472.472,0,0,1-.127.368.541.541,0,0,1-.4.177h-7.311v-6.964a3.149,3.149,0,1,0-6.3,0v6.964h-3.6a.8.8,0,0,0,.062-.3v-7.181a3.747,3.747,0,0,0-7.49,0v7.181a.788.788,0,0,0,.062.3h-3.623v-6.964a3.151,3.151,0,1,0-6.3,0v6.964h-7.308a.541.541,0,0,1-.4-.177.481.481,0,0,1-.124-.368l1.092-11.734a.442.442,0,0,1,.448-.394l1.108-.013h37.557l1.111.013a.444.444,0,0,1,.448.394Z" transform="translate(-405.233 -243.762)" fill="#fff"/>
          <path id="패스_3545" data-name="패스 3545" d="M475.234,272.052v6.964h-5.348v-6.964a2.674,2.674,0,1,1,5.348,0Z" transform="translate(-439.035 -247.26)" fill="#292434"/>
          <path id="패스_3546" data-name="패스 3546" d="M452.649,270.491v7.181a.278.278,0,0,1-.289.266h-5.82a.276.276,0,0,1-.289-.266v-7.181a3.2,3.2,0,0,1,6.4,0Z" transform="translate(-426.354 -246.218)" fill="#292434"/>
          <path id="패스_3547" data-name="패스 3547" d="M430.17,272.052v6.964h-5.345v-6.964a2.673,2.673,0,1,1,5.345,0Z" transform="translate(-414.858 -247.26)" fill="#292434"/>
          <path id="패스_3548" data-name="패스 3548" d="M432.943,223.232a.4.4,0,0,1-.221.351s0,0-.007,0a.581.581,0,0,1-.082.026.334.334,0,0,1-.1.013h-.458v.44a.41.41,0,0,1-.819,0v-.44H430.8a.411.411,0,0,1-.091-.01.347.347,0,0,1-.081-.03h0a.393.393,0,0,1-.234-.355.4.4,0,0,1,.409-.4h.458v-.755a.41.41,0,0,1,.819,0v.755h.458A.4.4,0,0,1,432.943,223.232Z" transform="translate(-417.845 -221.685)" fill="#292434"/>
          <path id="패스_3549" data-name="패스 3549" d="M473.587,223.232a.4.4,0,0,1-.315.384h0a.418.418,0,0,1-.091.01h-.458v.44a.408.408,0,0,1-.816,0v-.44h-.458a.342.342,0,0,1-.1-.013.333.333,0,0,1-.094-.036.386.386,0,0,1-.215-.345.4.4,0,0,1,.409-.4h.458v-.755a.408.408,0,0,1,.816,0v.755h.458A.4.4,0,0,1,473.587,223.232Z" transform="translate(-439.652 -221.685)" fill="#292434"/>
          <path id="패스_3550" data-name="패스 3550" d="M453.03,234.578l-.669,1.738h-6.928l-.731-1.738h3.457c.149,0,.292.006.445.006h0c.153,0,.3,0,.445-.006Z" transform="translate(-425.523 -228.603)" fill="#292434"/>
          <path id="패스_3551" data-name="패스 3551" d="M452.361,236.316h-6.928l-.731-1.738h3.457c.149,0,.292.006.445.006h0c.153,0,.3,0,.445-.006h3.977Z" transform="translate(-425.523 -228.603)" fill="#292434"/>
          <g id="그룹_2595" data-name="그룹 2595" transform="translate(11.171 8.477)">
            <line id="선_430" data-name="선 430" y2="1.62" fill="#93d8b7" stroke="#ce5c4d" stroke-miterlimit="10" stroke-width="0.979"/>
            <line id="선_431" data-name="선 431" y2="1.62" transform="translate(2.671)" fill="#93d8b7" stroke="#ce5c4d" stroke-miterlimit="10" stroke-width="0.979"/>
            <line id="선_432" data-name="선 432" y2="1.62" transform="translate(5.342)" fill="#93d8b7" stroke="#ce5c4d" stroke-miterlimit="10" stroke-width="0.979"/>
            <line id="선_433" data-name="선 433" y2="1.62" transform="translate(8.012)" fill="#93d8b7" stroke="#ce5c4d" stroke-miterlimit="10" stroke-width="0.979"/>
            <line id="선_434" data-name="선 434" y2="1.62" transform="translate(10.683)" fill="#93d8b7" stroke="#ce5c4d" stroke-miterlimit="10" stroke-width="0.979"/>
            <line id="선_435" data-name="선 435" y2="1.62" transform="translate(13.354)" fill="#93d8b7" stroke="#ce5c4d" stroke-miterlimit="10" stroke-width="0.979"/>
            <line id="선_436" data-name="선 436" y2="1.62" transform="translate(16.025)" fill="#93d8b7" stroke="#ce5c4d" stroke-miterlimit="10" stroke-width="0.979"/>
            <line id="선_437" data-name="선 437" y2="1.62" transform="translate(18.695)" fill="#93d8b7" stroke="#ce5c4d" stroke-miterlimit="10" stroke-width="0.979"/>
            <line id="선_438" data-name="선 438" y2="1.62" transform="translate(21.366)" fill="#93d8b7" stroke="#ce5c4d" stroke-miterlimit="10" stroke-width="0.979"/>
            <line id="선_439" data-name="선 439" y2="1.62" transform="translate(24.037)" fill="#93d8b7" stroke="#ce5c4d" stroke-miterlimit="10" stroke-width="0.979"/>
          </g>
        </g>
      </g>
    </g>
  </g>
</svg>
