<svg xmlns="http://www.w3.org/2000/svg" xmlns:xlink="http://www.w3.org/1999/xlink" width="383" height="280" viewBox="0 0 383 280">
  <defs>
    <clipPath id="clip-path">
      <rect id="사각형_3736" data-name="사각형 3736" width="383" height="280" rx="10" fill="#fff"/>
    </clipPath>
    <linearGradient id="linear-gradient" x1="0.48" y1="0.651" x2="0.748" y2="0.278" gradientUnits="objectBoundingBox">
      <stop offset="0" stop-color="#fff"/>
      <stop offset="0.063" stop-color="#fff"/>
      <stop offset="1" stop-color="#fbece1"/>
    </linearGradient>
  </defs>
  <g id="마스크_그룹_2498" data-name="마스크 그룹 2498" clip-path="url(#clip-path)">
    <g id="그룹_2593" data-name="그룹 2593" transform="translate(160.217 66.576)">
      <path id="패스_3514" data-name="패스 3514" d="M346.482,319.946l-17.655,23.787c-.7.948-1.335.78-2.283.084l-5.45-4.038a2.123,2.123,0,0,0,2.556-.681l17.655-23.787-.07-8.376,3.961,3.776a1.172,1.172,0,0,1,1.159,1.152Z" transform="translate(-276.522 -263.324)" fill="#e8b84d" style="mix-blend-mode: multiply;isolation: isolate"/>
      <path id="패스_3515" data-name="패스 3515" d="M289.705,313.73,272.05,337.517a2.123,2.123,0,0,1-2.556.681,1.773,1.773,0,0,1-.421-.232l-43.738-32.157a1.007,1.007,0,0,1,.6-1.819l62.482.506a1.172,1.172,0,0,1,1.159,1.152l.056,3.448Z" transform="translate(-224.921 -261.744)" fill="#fad46c" opacity="0.68"/>
      <g id="그룹_2592" data-name="그룹 2592" transform="translate(7.862)">
        <g id="그룹_2586" data-name="그룹 2586" transform="translate(1.681 1.16)" style="mix-blend-mode: multiply;isolation: isolate">
          <rect id="사각형_3691" data-name="사각형 3691" width="12.241" height="9.809" rx="4.905" transform="translate(0.323 2.57)" fill="#d6a84c"/>
          <path id="패스_3516" data-name="패스 3516" d="M293.88,252.83a5.131,5.131,0,0,0,2.468-4.371V221.629a5.143,5.143,0,0,0-5.125-5.125h-1.108a5.026,5.026,0,0,0-1.647.277,2.8,2.8,0,1,0-3.4,4,4.644,4.644,0,0,0-.077.852v26.954H273.841c.005-.323.005-.508.005-.508V242.8a2.622,2.622,0,0,0,1.549-1.729,2.449,2.449,0,0,0,.308-.831,2.478,2.478,0,0,0,.036-.395v-8.275a5.811,5.811,0,0,0-.077-.949,6.265,6.265,0,0,0-6.187-5.33H269.1a6.255,6.255,0,0,0-5.253,2.873,6.39,6.39,0,0,0-.723.975,3.617,3.617,0,0,0-2.1-.672,3.688,3.688,0,0,0-3.011,1.565,3.634,3.634,0,0,0-.954,1.139,5.541,5.541,0,0,0-4.5-2.329h-1.19a5.537,5.537,0,0,0-5.525,5.525v2.781a5.541,5.541,0,0,0,2.709,4.75H248.2a2.691,2.691,0,0,0-2.689,2.689v9.065a2.691,2.691,0,0,0,2.689,2.688h1.893v3.9h.006v.077s2.118.041,5,.082h-5.012v.677a3.335,3.335,0,0,0,3.345,3.324h18.761c.036.041.077.077.118.118-2.77.7-4.515,1.729-4.515,2.868,0,2.108,5.977,3.817,13.349,3.817S294.5,269.5,294.5,267.39c0-1.16-1.806-2.2-4.663-2.9.051-.051.1-.108.154-.159a10.722,10.722,0,0,0,1.534-2.031,4.467,4.467,0,0,0,1.488.256,4.556,4.556,0,0,0,4.55-4.55v-.713A4.547,4.547,0,0,0,293.88,252.83Z" transform="translate(-245.512 -215.339)" fill="#d6a84c"/>
          <path id="패스_3517" data-name="패스 3517" d="M359.347,234.71h-1.811v24.9h.651a6.085,6.085,0,0,0,6.069-6.069V239.615A4.922,4.922,0,0,0,359.347,234.71Z" transform="translate(-305.618 -225.732)" fill="#d6a84c"/>
        </g>
        <g id="그룹_2591" data-name="그룹 2591">
          <path id="패스_3518" data-name="패스 3518" d="M252.677,254.306a1.059,1.059,0,0,0-1.01,1.061v2.847a5.764,5.764,0,0,0,1.078-.547,6.026,6.026,0,0,0,2.518-3.367" transform="translate(-247.133 -235.084)" fill="#77f" stroke="#fff" stroke-miterlimit="10" stroke-width="1.566"/>
          <path id="패스_3519" data-name="패스 3519" d="M285.009,240.1v8.124a2.268,2.268,0,0,1-.033.391,2.439,2.439,0,0,1-1.066,1.619v-5.773c0-.062-.006-.123-.011-.184a1.79,1.79,0,0,0-1.776-1.63h-1.105v.022l-.045.681c-.006.067-.011.139-.022.207a3.692,3.692,0,0,1-1.814,2.73,3.473,3.473,0,0,1-1.279.452,3.362,3.362,0,0,1-.581.05h-.547c-.1,0-.2-.006-.291-.011l-.039-.006h-.006a3.693,3.693,0,0,1-2.657-1.5c-.084-.123-.151-.229-.212-.335,0-.006-.006-.006-.006-.011a3.625,3.625,0,0,1-.464-1.384c-.006-.062-.011-.128-.017-.19-.006-.078-.011-.162-.011-.24v-1.189h-6.1V240.7q0-.184.017-.368a3.639,3.639,0,0,1,3.607-3.278,3.575,3.575,0,0,1,2.222.771,6.169,6.169,0,0,1,5.718-3.892h.368a6.156,6.156,0,0,1,6.075,5.237A5.705,5.705,0,0,1,285.009,240.1Z" transform="translate(-255.323 -224.154)" fill="#fff"/>
          <path id="패스_3520" data-name="패스 3520" d="M274.994,255.366v4.065a1.176,1.176,0,0,1-1.05.637H252.627a1.168,1.168,0,0,1-.96-.491v-4.21a1.059,1.059,0,0,1,1.01-1.061.158.158,0,0,1,.051-.006h11.4a4.383,4.383,0,0,0,.575,1.915c.078.14.162.268.252.4a4.43,4.43,0,0,0,3.227,1.814h.006c.117.011.234.017.357.017h.547a4.437,4.437,0,0,0,4.422-4.143h.424A1.065,1.065,0,0,1,274.994,255.366Z" transform="translate(-247.133 -235.084)" fill="#f9f7ef"/>
          <g id="그룹_2587" data-name="그룹 2587" transform="translate(0.319)">
            <rect id="사각형_3692" data-name="사각형 3692" width="12.023" height="13.583" rx="6.012" transform="translate(0 13.262)" fill="#4e4ecc" stroke="#fff5dc" stroke-miterlimit="10" stroke-width="1.205"/>
            <rect id="사각형_3693" data-name="사각형 3693" width="12.023" height="9.637" rx="4.818" transform="translate(0 2.524)" fill="#6a6aad"/>
            <ellipse id="타원_966" data-name="타원 966" cx="3.901" cy="1.927" rx="3.901" ry="1.927" transform="translate(2.065 5.369)" fill="#ffdf8f"/>
            <circle id="타원_967" data-name="타원 967" cx="2.753" cy="2.753" r="2.753" transform="translate(36.712)" fill="#ffdf8f"/>
          </g>
          <rect id="사각형_3694" data-name="사각형 3694" width="11.151" height="36.413" rx="5.576" transform="translate(38.774 1.147)" fill="#1e1e23"/>
          <g id="그룹_2588" data-name="그룹 2588" transform="translate(41.217 6.551)">
            <rect id="사각형_3695" data-name="사각형 3695" width="2.235" height="7.264" rx="1.118" transform="translate(4.657 0) rotate(39.873)" fill="#efb250"/>
            <rect id="사각형_3696" data-name="사각형 3696" width="2.235" height="7.264" rx="1.118" transform="translate(4.657 8.941) rotate(39.873)" fill="#efb250"/>
            <rect id="사각형_3697" data-name="사각형 3697" width="2.235" height="7.264" rx="1.118" transform="matrix(0.767, 0.641, -0.641, 0.767, 4.657, 17.043)" fill="#efb250"/>
          </g>
          <path id="패스_3521" data-name="패스 3521" d="M317.063,320.071" transform="translate(-282.221 -270.372)" fill="#292434"/>
          <path id="패스_3522" data-name="패스 3522" d="M283.928,241.606v8.123a2.268,2.268,0,0,1-.033.391,2.547,2.547,0,0,1-1.552,1.826v-6.689a1.065,1.065,0,0,0-1.061-1.066h-.425a4.437,4.437,0,0,1-4.422,4.143h-.547c-.123,0-.24-.006-.357-.017h-.006A4.431,4.431,0,0,1,272.3,246.5c-.089-.128-.173-.257-.251-.4a4.385,4.385,0,0,1-.575-1.915h-6.046V242.2q0-.184.017-.368a3.724,3.724,0,0,1,5.963-2.485,6.313,6.313,0,0,1,5.851-3.892h.38a6.265,6.265,0,0,1,6.214,5.215A5.1,5.1,0,0,1,283.928,241.606Z" transform="translate(-254.515 -224.975)" fill="url(#linear-gradient)"/>
          <path id="패스_3523" data-name="패스 3523" d="M268.651,254.3h-.425a4.437,4.437,0,0,1-4.422,4.143h-.547c-.123,0-.24-.006-.357-.017h-.006a4.431,4.431,0,0,1-3.227-1.814c-.089-.128-.173-.257-.251-.4a4.384,4.384,0,0,1-.575-1.915h-11.4a.155.155,0,0,0-.051.006,1.058,1.058,0,0,0-1.01,1.061v5.8h-1.859a2.643,2.643,0,0,0-2.641,2.641v8.905a2.643,2.643,0,0,0,2.641,2.641h1.859v3.83h.006v.078s20.4.393,20.4.024c0-.006,2.822-.861,2.822-.861s.1-11.19.1-11.19v-11.87A1.065,1.065,0,0,0,268.651,254.3Zm-22.992,18.989H244.5a.262.262,0,0,1-.1-.011.576.576,0,0,1-.458-.564v-8.905a.574.574,0,0,1,.575-.575h1.134Z" transform="translate(-241.885 -235.084)" fill="#fcd165"/>
          <path id="패스_3524" data-name="패스 3524" d="M273.541,312.27H254.868A3.277,3.277,0,0,1,251.583,309v-.664h18.206c0,.006,1.549.006,1.549.006C271.513,308.858,273.653,312.27,273.541,312.27Z" transform="translate(-247.088 -264.078)" fill="#f9f7ef"/>
          <path id="패스_3525" data-name="패스 3525" d="M315.829,316.029a9.726,9.726,0,0,1-1.664,1.234c-.223.134-.458.262-.7.38A10.119,10.119,0,0,1,309,318.675h-1.988a10.2,10.2,0,0,1-4.332-.96q-.352-.159-.687-.352-.259-.143-.5-.3c-.123-.078-.246-.156-.363-.24-.006-.006-.017-.011-.022-.017l-.2-.145c-.123-.089-.246-.184-.363-.285s-.257-.212-.38-.324q.343-.058.7-.1c.2-.028.4-.05.6-.073.307-.033.62-.067.944-.095q.7-.059,1.457-.1c.028,0,.05-.006.078-.006.3-.017.6-.028.916-.045h.033c.352-.017.7-.028,1.066-.033q.419-.017.855-.017c.217-.006.441-.006.67-.006s.452-.006.681-.006.458,0,.681.006c.206,0,.407,0,.609.006h.061l.742.017c.078,0,.157,0,.229.006.218.006.43.011.642.022.044,0,.095.006.139.006.179.006.357.011.536.023.034,0,.067.006.1.006.062,0,.128.006.19.011l.341.017c.033,0,.067.006.1.006l.664.05c.313.022.614.051.91.078C314.718,315.878,315.287,315.945,315.829,316.029Z" transform="translate(-273.156 -267.958)" fill="#292434"/>
          <ellipse id="타원_968" data-name="타원 968" cx="13.113" cy="3.751" rx="13.113" ry="3.751" transform="translate(21.888 47.369)" fill="#341e84"/>
          <ellipse id="타원_969" data-name="타원 969" cx="7.95" cy="1.859" rx="7.95" ry="1.859" transform="translate(27.051 48.987)" fill="#efb250"/>
          <path id="패스_3526" data-name="패스 3526" d="M310.224,318.438a32.136,32.136,0,0,0-6.292.463q.335.193.687.352a35.975,35.975,0,0,1,5.605-.335,40.8,40.8,0,0,1,5.181.262c.24-.117.475-.246.7-.38A35.924,35.924,0,0,0,310.224,318.438Z" transform="translate(-275.176 -269.496)" fill="#c0c0ff"/>
          <path id="사각형_3698" data-name="사각형 3698" d="M0,0H16.325a0,0,0,0,1,0,0V0a2,2,0,0,1-2,2H1.948A1.948,1.948,0,0,1,0,.053V0A0,0,0,0,1,0,0Z" transform="translate(8.098 44.267)" fill="#e5a739"/>
          <path id="패스_3527" data-name="패스 3527" d="M315.3,287.375v-2.25a1.831,1.831,0,0,0-1.833-1.833h-19.9a1.985,1.985,0,0,0-.7.135l-.006.006a2.121,2.121,0,0,0-.305.165.006.006,0,0,0-.006.006,1.674,1.674,0,0,0-.27.223,1.583,1.583,0,0,0-.317.423,1.731,1.731,0,0,0-.141.323,1.9,1.9,0,0,0-.082.552v6.151c0,.235.006.464.024.693.012.206.029.411.059.617a10.341,10.341,0,0,0,.288,1.486,9.782,9.782,0,0,0,.329,1.016c0,.006.006.018.006.023a.006.006,0,0,0,.006.006c.094.259.211.517.329.77.006.012.006.018.012.029l.018.035a10.776,10.776,0,0,0,1.974,2.82c.076.076.147.153.223.229.1.1.205.194.311.288.129.117.264.235.4.341s.252.205.381.3l.206.153c.006.006.018.012.024.018.123.088.253.17.382.253.17.112.347.217.528.317q.352.2.723.37a10.727,10.727,0,0,0,4.559,1.01h2.091a10.646,10.646,0,0,0,4.7-1.087c.253-.123.5-.259.735-.4a10.216,10.216,0,0,0,1.751-1.3c.182-.164.358-.335.523-.511a10.623,10.623,0,0,0,1.51-2,4.3,4.3,0,0,0,1.457.253,4.473,4.473,0,0,0,4.47-4.471v-.7A4.471,4.471,0,0,0,315.3,287.375Zm1.8,5.164a1.812,1.812,0,0,1-1.815,1.815,1.914,1.914,0,0,1-.405-.047,10.608,10.608,0,0,0,.423-2.943V290.03a1.811,1.811,0,0,1,1.8,1.809Z" transform="translate(-268.634 -250.639)" fill="#fff"/>
          <g id="그룹_2589" data-name="그룹 2589" transform="translate(24.939 35.265)">
            <rect id="사각형_3699" data-name="사각형 3699" width="2.772" height="1.469" rx="0.735" fill="#fad46c"/>
            <rect id="사각형_3700" data-name="사각형 3700" width="2.772" height="1.469" rx="0.735" transform="translate(4.284)" fill="#fad46c"/>
            <rect id="사각형_3701" data-name="사각형 3701" width="2.772" height="1.469" rx="0.735" transform="translate(8.568)" fill="#fad46c"/>
            <rect id="사각형_3702" data-name="사각형 3702" width="2.772" height="1.469" rx="0.735" transform="translate(12.852)" fill="#fad46c"/>
            <rect id="사각형_3703" data-name="사각형 3703" width="2.772" height="1.469" rx="0.735" transform="translate(17.061)" fill="#fad46c"/>
          </g>
          <g id="그룹_2590" data-name="그룹 2590" transform="translate(9.887 25.262)">
            <circle id="타원_970" data-name="타원 970" cx="1.904" cy="1.904" r="1.904" fill="#fff"/>
            <circle id="타원_971" data-name="타원 971" cx="1.166" cy="1.166" r="1.166" transform="translate(4.764 2.628)" fill="#fff"/>
            <circle id="타원_972" data-name="타원 972" cx="0.782" cy="0.782" r="0.782" transform="translate(2.165 5.984)" fill="#fff"/>
          </g>
          <path id="패스_3528" data-name="패스 3528" d="M249.3,259.154a.02.02,0,0,0-.017.006v-3h.028c-.006.067-.011.139-.011.206Z" transform="translate(-245.854 -236.079)" fill="#77f"/>
          <path id="사각형_3704" data-name="사각형 3704" d="M0,0H1.262A5.341,5.341,0,0,1,6.6,5.341V17.85a6.6,6.6,0,0,1-6.6,6.6H0a0,0,0,0,1,0,0V0A0,0,0,0,1,0,0Z" transform="translate(50.989 8.818)" fill="#77f"/>
        </g>
      </g>
    </g>
  </g>
</svg>
