<svg xmlns="http://www.w3.org/2000/svg" width="13.814" height="16.834" viewBox="0 0 13.814 16.834">
  <g id="bookmark" transform="translate(-4.25 0.25)" fill="#77f">
    <path d="M 16.81445693969727 14.69086647033691 L 15.0732364654541 13.94675636291504 L 11.1572265625 12.27323150634766 L 7.241216659545898 13.94675636291504 L 5.499996662139893 14.69086647033691 L 5.499996662139893 12.7973165512085 L 5.499996662139893 3.003376483917236 C 5.499996662139893 1.898706316947937 6.456156730651855 0.9999963641166687 7.631446361541748 0.9999963641166687 L 14.68300628662109 0.9999963641166687 C 15.85829639434814 0.9999963641166687 16.81445693969727 1.898706316947937 16.81445693969727 3.003376483917236 L 16.81445693969727 12.7973165512085 L 16.81445693969727 14.69086647033691 Z" stroke="none"/>
    <path d="M 7.631446838378906 2.249996185302734 C 7.144636154174805 2.249996185302734 6.749996185302734 2.587296485900879 6.749996185302734 3.003376007080078 L 6.749996185302734 12.7973165512085 L 11.1572265625 10.91386604309082 L 15.56445693969727 12.7973165512085 L 15.56445693969727 3.003376007080078 C 15.56445693969727 2.587296485900879 15.1698169708252 2.249996185302734 14.68300628662109 2.249996185302734 L 7.631446838378906 2.249996185302734 M 7.631446838378906 -0.2500038146972656 L 14.68300628662109 -0.2500038146972656 C 16.54754638671875 -0.2500038146972656 18.06445693969727 1.209456443786621 18.06445693969727 3.003376007080078 L 18.06445693969727 16.58442687988281 L 11.1572265625 13.63258266448975 L 4.249996185302734 16.58442687988281 L 4.249996185302734 3.003376007080078 C 4.249996185302734 1.209456443786621 5.76690673828125 -0.2500038146972656 7.631446838378906 -0.2500038146972656 Z" stroke="none" fill="#77f"/>
  </g>
</svg>
