<svg xmlns="http://www.w3.org/2000/svg" width="35" height="37.568" viewBox="0 0 35 37.568">
  <g id="MY_Bookmark_버튼_아이콘" data-name="MY_Bookmark 버튼 아이콘" transform="translate(-919 -119)">
    <g id="패스_2007" data-name="패스 2007" fill="none" stroke-miterlimit="10">
      <path d="M945.8,155.364l-11.446-6.474a.741.741,0,0,0-.707-.01l-12.325,6.505A1.577,1.577,0,0,1,919,154.008v-28.74A6.319,6.319,0,0,1,925.333,119h16.334A6.319,6.319,0,0,1,948,125.268V154.1A1.472,1.472,0,0,1,945.8,155.364Z" stroke="none"/>
      <path d="M 922.68505859375 150.4973754882813 L 931.9224243164063 145.6216430664063 C 932.5560913085938 145.2868194580078 933.270263671875 145.1098327636719 933.9876708984375 145.1098327636719 C 934.7440185546875 145.1098327636719 935.4924926757813 145.3052368164063 936.1522827148438 145.6748962402344 L 936.1587524414063 145.6785125732422 L 936.1651611328125 145.6821746826172 L 944.31494140625 150.2916564941406 L 944.31494140625 125.2679443359375 C 944.31494140625 124.5922088623047 944.0423583984375 123.9502792358398 943.5474243164063 123.4603958129883 C 943.042236328125 122.9603958129883 942.3743896484375 122.6850357055664 941.6669921875 122.6850357055664 L 925.3330078125 122.6850357055664 C 924.6256103515625 122.6850357055664 923.957763671875 122.9603958129883 923.4525756835938 123.4603958129883 C 922.9576416015625 123.9502792358398 922.68505859375 124.5922088623047 922.68505859375 125.2679443359375 L 922.68505859375 150.4973754882813 M 920.57861328125 155.5709533691406 C 919.7528076171875 155.5709991455078 919 154.9155426025391 919 154.0075836181641 L 919 125.2679443359375 C 919 121.8207168579102 921.8499755859375 119 925.3330078125 119 L 941.6669921875 119 C 945.1500244140625 119 948 121.8207168579102 948 125.2679443359375 L 948 154.09765625 C 948 154.9482574462891 947.294921875 155.5576782226563 946.5255126953125 155.5576782226563 C 946.2823486328125 155.5576782226563 946.0327758789063 155.4968414306641 945.7969970703125 155.3635101318359 L 934.3510131835938 148.8897094726563 C 934.2383422851563 148.8265838623047 934.1129760742188 148.7948760986328 933.9876708984375 148.7948760986328 C 933.8694458007813 148.7948760986328 933.7512817382813 148.8231201171875 933.6439819335938 148.8798217773438 L 921.3189697265625 155.3852844238281 C 921.0777587890625 155.5126190185547 920.8248901367188 155.5709381103516 920.57861328125 155.5709533691406 Z" stroke="none" fill="#77f"/>
    </g>
    <path id="패스_2008" data-name="패스 2008" d="M934.35,149.2l3.45,1.97-10.48,5.59a1.577,1.577,0,0,1-2.32-1.39V153.8l8.64-4.61A.745.745,0,0,1,934.35,149.2Z" transform="translate(0 -0.38)" fill="#e2e2e2"/>
    <path id="패스_2009" data-name="패스 2009" d="M954,126.265V155.1a1.472,1.472,0,0,1-2.2,1.267l-3.81-2.158a.333.333,0,0,0,.01-.1V125.275A6.258,6.258,0,0,0,945.07,120h2.6A6.318,6.318,0,0,1,954,126.265Z" fill="#e2e2e2"/>
  </g>
</svg>
