<svg xmlns="http://www.w3.org/2000/svg" width="26.6" height="26.6" viewBox="0 0 26.6 26.6">
  <g id="그룹_1840" data-name="그룹 1840" transform="translate(-358.7 -170.7)">
    <g id="타원_553" data-name="타원 553" transform="translate(360 172)" fill="#fff" stroke="#fff" stroke-width="1.3">
      <circle cx="12" cy="12" r="12" stroke="none"/>
      <circle cx="12" cy="12" r="12.65" fill="none"/>
    </g>
    <path id="패스_2280" data-name="패스 2280" d="M12,0A12,12,0,1,1,0,12,12,12,0,0,1,12,0Z" transform="translate(359.99 171.99)" fill="#77f"/>
    <g id="Camera" transform="translate(365.993 177.393)">
      <rect id="사각형_252" data-name="사각형 252" width="12.005" height="12.005" transform="translate(0)" fill="none"/>
      <path id="패스_110" data-name="패스 110" d="M5.908,7.107A1.454,1.454,0,0,0,7.385,5.686a1.478,1.478,0,0,0-2.954,0A1.454,1.454,0,0,0,5.908,7.107Zm0-4.264A2.909,2.909,0,0,1,8.862,5.686,2.909,2.909,0,0,1,5.908,8.529,2.909,2.909,0,0,1,2.954,5.686,2.909,2.909,0,0,1,5.908,2.843Zm4.431,7.818H1.477a1.487,1.487,0,0,1-1.034-.426A1.378,1.378,0,0,1,0,9.24v-6.4A1.454,1.454,0,0,1,1.477,1.421H2.659L3.767.355A1.247,1.247,0,0,1,4.653,0H7.238A1.207,1.207,0,0,1,8.05.355L9.158,1.421H10.34a1.454,1.454,0,0,1,1.477,1.421v6.4A1.454,1.454,0,0,1,10.34,10.661Z" transform="translate(0 1.156)" fill="#fff" fill-rule="evenodd"/>
    </g>
  </g>
</svg>
