<svg xmlns="http://www.w3.org/2000/svg" xmlns:xlink="http://www.w3.org/1999/xlink" width="53.5" height="40" viewBox="0 0 53.5 40">
  <defs>
    <clipPath id="clip">
      <use xlink:href="#fill"/>
    </clipPath>
    <clipPath id="clip-2">
      <use xlink:href="#fill-2"/>
    </clipPath>
  </defs>
  <g id="MY_Comment_버튼_아이콘" data-name="MY_Comment 버튼 아이콘" transform="translate(-824.5 -116)">
    <path id="패스_2006" data-name="패스 2006" d="M878,128.63v25.75a1.628,1.628,0,0,1-1.63,1.62H835.62a7.643,7.643,0,0,1-7.15-5h37.9a7.648,7.648,0,0,0,7.63-7.63V123.62a7.735,7.735,0,0,0-.22-1.81A7.652,7.652,0,0,1,878,128.63Z" fill="#e2e2e2"/>
    <g id="사각형_2436" data-name="사각형 2436" transform="translate(824.5 116)" fill="none" stroke="#77f" stroke-miterlimit="10" stroke-width="3.685">
      <path d="M7.625,0h34.75A7.625,7.625,0,0,1,50,7.625v19.75A7.625,7.625,0,0,1,42.375,35H1.625A1.625,1.625,0,0,1,0,33.375V7.625A7.625,7.625,0,0,1,7.625,0Z" stroke="none"/>
      <path d="M7.625,1.843h34.75a5.782,5.782,0,0,1,5.782,5.782v19.75a5.782,5.782,0,0,1-5.782,5.782H2.06a.218.218,0,0,1-.218-.218V7.625A5.782,5.782,0,0,1,7.625,1.843Z" fill="none"/>
    </g>
    <g id="사각형_2437" data-name="사각형 2437" transform="translate(840.5 128)" fill="none" stroke="#77f" stroke-miterlimit="10" stroke-width="4.252">
      <rect id="fill" width="18" height="3" rx="1.5" stroke="none"/>
      <path d="M0,0.8740158081054688h18M15.874015808105469,0v3M18,2.1259841918945312h-18M2.1259841918945312,3v-3" fill="none" clip-path="url(#clip)"/>
    </g>
    <g id="사각형_2438" data-name="사각형 2438" transform="translate(835 136)" fill="none" stroke="#77f" stroke-miterlimit="10" stroke-width="5.397">
      <rect id="fill-2" width="29" height="3" rx="1.5" stroke="none"/>
      <path d="M0,0.3014976978302002h29M26.3014976978302,0v3M29,2.6985023021698h-29M2.6985023021698,3v-3" fill="none" clip-path="url(#clip-2)"/>
    </g>
  </g>
</svg>
