<svg xmlns="http://www.w3.org/2000/svg" width="141.561" height="144.261" viewBox="0 0 141.561 144.261">
  <g id="그룹_2476" data-name="그룹 2476" transform="matrix(0.966, 0.259, -0.259, 0.966, -78.947, -105.109)" style="mix-blend-mode: multiply;isolation: isolate">
    <path id="패스_3090" data-name="패스 3090" d="M395.461,166.668l.745,12.59-1.146,15.86,7.69,13.281s3.955,14.284,2.926,20.621-.425,6.17-.425,6.17l-3.264,7.868-4.784,6.035-7.332,5.007-9.88,3.979-14.44.358-8.9-2.057-10.64-6.617s-6.356-9.409-6.576-13.355.719-17.338.719-17.338l-.005-2.164,1-12.5-.99.783s-10.561-5.557-12.393-9.35-4.209-6.7-2.931-14.881,7.645-20.452,14.61-24.711,18.921-12.772,35.5-9.052,16.576,11.1,16.621,10.918S395.461,166.668,395.461,166.668Z" transform="translate(-161.571 -68.42)" fill="#fff"/>
    <path id="패스_3091" data-name="패스 3091" d="M487.991,602.577q-.011-.222-.023-.444a1.945,1.945,0,0,1-.053-.245c-.2-1.4-.273-2.834-.573-4.215-.26-1.2-.5-2.421-.725-3.634-.368,1.091-1.653,3.383-6.143,5.7-6.2,3.2-11.324-4.338-28.8-8.127a33.176,33.176,0,0,0-8.3-.726c-7.83.366-14.9,3.411-21.189,7.935,0,.007,0,.015,0,.022.012.954-.139,1.91-.188,2.862-.058,1.124-.153,2.245-.179,3.371a48.819,48.819,0,0,0,.463,5.841,32.487,32.487,0,0,0,4.628,12.4,25.709,25.709,0,0,0,7.384,7.3,23.683,23.683,0,0,0,3.189,1.712l.1.049c11.8,5.5,24.989,1.764,33.307-1.864l.411-.127c1-.552,2.183-.836,3.283-1.41q.208-.115.42-.224a32.461,32.461,0,0,0,4.25-2.647c.595-.5,1.167-1.019,1.71-1.572a21.712,21.712,0,0,0,1.528-1.731q.609-.77,1.142-1.6c.288-.448.557-.908.8-1.38.185-.353.384-.594.539-.961.1-.229.272-.531.377-.757.18-.391.379-.815.538-1.216s.318-.805.463-1.214c.3-.838.545-1.68.766-2.542a30.111,30.111,0,0,0,.828-5.344A44.088,44.088,0,0,0,487.991,602.577Z" transform="translate(-243.942 -444.675)" fill="#ebebeb" opacity="0.59"/>
    <path id="패스_3092" data-name="패스 3092" d="M330.242,182.35s-11.3,8.581-14.4,15.487-3.741,5.145-3.741,5.145-7.486-9.423.325-16.4S327.857,179.556,330.242,182.35Z" transform="translate(-148.361 -97.48)" fill="#acacac"/>
    <path id="패스_3093" data-name="패스 3093" d="M673.981,128.942s10.5,8.343,8.144,17.2-8.728,10.593-8.728,10.593-17.416-9.509-18.568-21.218l-.595-5.439S663.769,122.268,673.981,128.942Z" transform="translate(-440.647 -51.462)" fill="#acacac"/>
    <path id="패스_3094" data-name="패스 3094" d="M613.952,411.317a7.85,7.85,0,0,0,.966.7c.1-.512.214-1.021.317-1.533a2.877,2.877,0,0,1,.571-1.258c-.661.4-1.335.779-2.012,1.154a5.144,5.144,0,0,0-.678.452A3.7,3.7,0,0,1,613.952,411.317Z" transform="translate(-405.849 -290.951)" fill="#e9e9e9"/>
    <path id="패스_3095" data-name="패스 3095" d="M649.757,340.908a6.139,6.139,0,0,0-7.413,4.209q-.373,1.349-.874,2.65a13.265,13.265,0,0,1-.823,1.509,13.022,13.022,0,0,1-1.073,1.037l-.114.078.02,0a.6.6,0,0,1,.683.388,3.217,3.217,0,0,1,1.886.777c.946.814,1.116,1.908,1.538,2.957a6.383,6.383,0,0,1,.341.7,12.762,12.762,0,0,1,.889,2.455A11.235,11.235,0,0,0,646.3,360.3a17.562,17.562,0,0,0,2.918-2.55,23.067,23.067,0,0,0,4.745-9.43A6.1,6.1,0,0,0,649.757,340.908Z" transform="translate(-428.144 -232.995)" fill="#e9e9e9"/>
    <path id="패스_3096" data-name="패스 3096" d="M344.23,426.988a6.09,6.09,0,0,0-1.765-4.261,6.965,6.965,0,0,0-4.261-1.765q-.429-.049-.858-.1a21.568,21.568,0,0,1-3.828-.905,11.182,11.182,0,0,1-1.6-.99l.735.568c-1.716-1.314-3.5-2.5-5.821-2.35.069.361.113.73.159,1.093.009.067.062.49.066.543q.11.74.271,1.472.208.95.5,1.88.146.466.313.925.084.23.173.457c.049.12.079.193.089.221l.032.073q.1.223.205.443.21.44.443.869a17.553,17.553,0,0,0,1.019,1.655q.137.2.278.388l.051.064c.155.186.309.371.471.551a11.815,11.815,0,0,0,1.323,1.3c-.043-.049.534.351.6.393.294.182.6.352.893.527a15.589,15.589,0,0,1,1.818,1.239,8.25,8.25,0,0,0,1.407,1.052,11.869,11.869,0,0,1,1.171.674l.085.01a6.014,6.014,0,0,0,4.261-1.765A6.124,6.124,0,0,0,344.23,426.988Z" transform="translate(-163.563 -297.679)" fill="#e9e9e9"/>
    <path id="패스_3097" data-name="패스 3097" d="M335.289,138.109a.688.688,0,0,1-.259-.051,36.319,36.319,0,0,1-11.474-7.182c-8.749-8.292-5.154-20.356-3.844-23.856l.046-.124a44.836,44.836,0,0,1,21.118-24.672A39.3,39.3,0,0,1,360.7,77.17a31.971,31.971,0,0,1,7.714,1.038,40.844,40.844,0,0,1,.692-12.241.692.692,0,0,1,1.345.324,40.612,40.612,0,0,0-.678,11.307,19.247,19.247,0,0,1,5.1-2.47c3.786-1.582,8.939-1.186,13.461,1.038a17.7,17.7,0,0,1,9.508,11.49,15.843,15.843,0,0,1-2.445,13.464,19.031,19.031,0,0,1-4.723,4.733.692.692,0,0,1-.265.1,4.224,4.224,0,0,1-.671.051c-2.323,0-5.7-1.648-9.042-4.452a36,36,0,0,1-9.709-12.986,33.139,33.139,0,0,1-2.4-8.867,29.586,29.586,0,0,0-7.968-1.148,37.912,37.912,0,0,0-19.065,4.883,43.741,43.741,0,0,0-20.493,23.947l-.046.124c-1.235,3.3-4.632,14.661,3.5,22.367a34.949,34.949,0,0,0,11.04,6.9.692.692,0,0,1-.259,1.333ZM369.932,79.2a31.692,31.692,0,0,0,2.32,8.818,34.591,34.591,0,0,0,9.329,12.477c3.247,2.724,6.539,4.32,8.459,4.115a18.3,18.3,0,0,0,4.248-4.323A14.284,14.284,0,0,0,396.5,88.007a16.338,16.338,0,0,0-8.78-10.6c-4.124-2.028-8.971-2.417-12.35-.989a.679.679,0,0,1-.081.028A17.863,17.863,0,0,0,369.932,79.2Z" transform="translate(-155.969)" fill="#909090"/>
    <path id="패스_3098" data-name="패스 3098" d="M310.584,202.638a.688.688,0,0,1-.289-.064c-1.743-.8-3.065-3.345-3.21-3.633-.009-.017-.016-.034-.023-.051-3.077-7.57-.842-13.487,6.831-18.09,6.2-3.716,14.019-.995,14.349-.877a.692.692,0,0,1-.464,1.3h0c-.075-.026-7.545-2.615-13.174.76-7.078,4.245-9.072,9.443-6.272,16.356a7.6,7.6,0,0,0,2.543,2.976.692.692,0,0,1-.29,1.32Z" transform="translate(-145.699 -95.985)" fill="#909090"/>
    <path id="패스_3099" data-name="패스 3099" d="M446.225,406.842h-.16a36.364,36.364,0,0,1-16.457-3.861A25.76,25.76,0,0,1,417.462,389.9a33.491,33.491,0,0,1-.907-24.512.692.692,0,0,1,1.307.453,32.111,32.111,0,0,0,.867,23.5,24.426,24.426,0,0,0,11.513,12.406,34.978,34.978,0,0,0,15.829,3.707h.154a44.1,44.1,0,0,0,17.412-3.78,31.553,31.553,0,0,0,7-3.726c13.18-10.4,11-24.008,9.412-33.941l-.144-.9c-1.51-9.523-9.017-20.346-9.093-20.454a.692.692,0,0,1-.091-.609c2.042-6.32.817-21.008.8-21.156a.692.692,0,1,1,1.378-.118c.051.6,1.221,14.647-.765,21.371,1.232,1.814,7.692,11.664,9.133,20.75l.143.9c.783,4.893,1.758,10.982.817,17.182A27.431,27.431,0,0,1,471.5,399.038a32.573,32.573,0,0,1-7.313,3.911A45.472,45.472,0,0,1,446.225,406.842Z" transform="translate(-237.893 -215.562)" fill="#909090"/>
    <path id="패스_3100" data-name="패스 3100" d="M792.453,385.233s10-13.981,16.342-16.1c0,0,4.828-2.793,6.706,3.252s-3.114,12.2-3.114,12.2-3.764,6-13.589,9.736l-.824.989Z" transform="translate(-557.625 -256.481)" fill="#909090"/>
    <g id="그룹_2474" data-name="그룹 2474" transform="translate(240.583 138.88)">
      <path id="패스_3101" data-name="패스 3101" d="M833.782,546.427s12.121.294,13.289,1.556,2.53,1.542-1.207,7-9.067,5.038-9.851,4.15l-1.61-10.274Z" transform="translate(-833.185 -545.951)" fill="#acacac"/>
      <path id="패스_3102" data-name="패스 3102" d="M834.751,557.51a3.356,3.356,0,0,1-2.372-.688l-.089-.1-1.628-10.386-.766-3,.608.015c.03,0,3.078.076,6.229.306,5.792.422,6.99.969,7.388,1.4.113.122.232.238.346.35,1.276,1.246,1.885,2.262-1.512,7.226-2.831,4.137-6.373,4.783-7.764,4.869C835.042,557.505,834.895,557.51,834.751,557.51Zm-1.6-1.232a3.677,3.677,0,0,0,1.981.3c1.256-.077,4.458-.668,7.06-4.47,3.132-4.576,2.534-5.161,1.628-6.045-.123-.12-.25-.245-.379-.384-.626-.676-6.661-1.227-12.354-1.392l.479,1.886Z" transform="translate(-829.896 -543.332)" fill="#909090"/>
    </g>
    <path id="패스_3103" data-name="패스 3103" d="M678.659,485.41" transform="translate(-461.318 -355.431)" fill="none" stroke="#7a7a7a" stroke-linecap="round" stroke-linejoin="round" stroke-width="9"/>
    <path id="패스_3104" data-name="패스 3104" d="M630,412.132a.689.689,0,0,1-.354-.1c-.978-.584-1.759-2.724-2.838-5.922a24.868,24.868,0,0,0-1.1-2.926c-.6-1.077-1.777-1.85-2.884-1.246-.846.462-1.159,2.156-1.2,2.713a.692.692,0,0,1-1.379-.1c.022-.3.262-2.919,1.919-3.824,1.677-.916,3.677-.162,4.757,1.791a24.222,24.222,0,0,1,1.2,3.153c.568,1.681,1.624,4.811,2.237,5.178a.692.692,0,0,1-.355,1.285Z" transform="translate(-411.877 -283.434)" fill="#909090"/>
    <path id="패스_3105" data-name="패스 3105" d="M529.206,235.8a5.884,5.884,0,0,1,6.488,1.9.534.534,0,0,0,.786-.1.654.654,0,0,0-.107-.847,7.482,7.482,0,0,0-7.608-2.076.615.615,0,0,0-.3.785.569.569,0,0,0,.736.332Z" transform="translate(-334.176 -142.967)" fill="#b4b4b4"/>
    <path id="패스_3106" data-name="패스 3106" d="M392.414,284.18a4.507,4.507,0,0,1,2.82-4.059.606.606,0,0,0-.421-1.135,5.752,5.752,0,0,0-3.6,5.308.61.61,0,0,0,.66.545.619.619,0,0,0,.545-.66Z" transform="translate(-218.044 -180.693)" fill="#b4b4b4"/>
    <path id="패스_3107" data-name="패스 3107" d="M553.095,322.518h0a3.682,3.682,0,0,0-.165-.77,4.136,4.136,0,0,0-.448-.932,2.707,2.707,0,0,0-.623-.724,1.842,1.842,0,0,0-.319-.2,1.508,1.508,0,0,0-.4-.135,2.6,2.6,0,0,0-.5-.013l-.312.007-.013-.013a2.165,2.165,0,0,0-.24.028,1.918,1.918,0,0,0-.3.048,1.4,1.4,0,0,0-.3.113,2.35,2.35,0,0,0-1.487,2.771c0,.046-.006.091-.006.137a3,3,0,0,0,.295,1.307c.514,1.68,1.507,2.158,2.888,1.886l.035-.009c.02,0,.04-.005.06-.009a1.3,1.3,0,0,0,.15-.043C552.927,325.538,553.362,324.06,553.095,322.518Z" transform="translate(-350.703 -215.224)" fill="#909090"/>
    <path id="패스_3108" data-name="패스 3108" d="M430.257,361.8l-.015-.031c-.027-.054-.046-.089-.053-.1a1.471,1.471,0,0,0-1.277-.92h0a1.3,1.3,0,0,0-.35,0s-2.021.03-1.985,2.506a.014.014,0,0,0,0,0,3.506,3.506,0,0,0,.633,2.17,1.808,1.808,0,0,0,1.681.954h0c.682-.04,1.5-.682,1.782-1.985,0-.01,0-.02.007-.029l0-.007c.01-.048.018-.1.026-.144,0-.005,0-.011,0-.016s0-.015,0-.022A4.438,4.438,0,0,0,430.257,361.8Z" transform="translate(-247.972 -249.922)" fill="#909090"/>
    <path id="패스_3109" data-name="패스 3109" d="M10.026,45.818a.538.538,0,0,1-.467-.27,2.448,2.448,0,0,1-.238-.577l-.6-2.21a.538.538,0,0,1,1.038-.282l.6,2.21a1.37,1.37,0,0,0,.133.324.538.538,0,0,1-.466.806Zm3.186-.029a.538.538,0,0,1-.463-.811l1.323-2.424a.538.538,0,1,1,.944.516L13.7,45.486l-.022.038A.537.537,0,0,1,13.213,45.789Zm3.181-5.826a.538.538,0,0,1-.472-.8l1.332-2.439a.538.538,0,1,1,.944.516l-1.332,2.439A.538.538,0,0,1,16.394,39.964ZM36.6,39.939a2.318,2.318,0,0,1-.677-.1.538.538,0,0,1,.315-1.029,1.235,1.235,0,0,0,.363.055A1.332,1.332,0,0,0,37.831,38a.538.538,0,1,1,1.01.371A2.4,2.4,0,0,1,36.6,39.939ZM8.228,39.433a.538.538,0,0,1-.519-.4l-.728-2.682a.538.538,0,0,1,1.038-.282l.728,2.681a.538.538,0,0,1-.519.679Zm24.521-1.508a.535.535,0,0,1-.276-.077l-2.383-1.43a.538.538,0,0,1,.554-.922l2.383,1.43a.538.538,0,0,1-.277,1Zm4.913-2.945a.538.538,0,0,1-.519-.4L36.413,31.9a.538.538,0,1,1,1.038-.282L38.18,34.3a.538.538,0,0,1-.519.679Zm-10.6-.469a.536.536,0,0,1-.276-.077L24.4,33a.538.538,0,1,1,.554-.922l2.383,1.43a.538.538,0,0,1-.277,1Zm-7.481-.373a.538.538,0,0,1-.472-.8l.776-1.421a2.357,2.357,0,0,1,1.074-1.011.538.538,0,0,1,.457.974,1.288,1.288,0,0,0-.587.553l-.776,1.421A.538.538,0,0,1,19.575,34.138ZM6.487,33.028a.538.538,0,0,1-.519-.4L5.24,29.949a.538.538,0,0,1,1.038-.282l.729,2.681a.538.538,0,0,1-.519.679ZM35.92,28.575a.538.538,0,0,1-.519-.4L34.673,25.5a.538.538,0,1,1,1.038-.282L36.44,27.9a.538.538,0,0,1-.378.66A.544.544,0,0,1,35.92,28.575ZM4.747,26.622a.538.538,0,0,1-.519-.4L3.5,23.544a.538.538,0,1,1,1.038-.282l.728,2.682a.538.538,0,0,1-.378.66A.545.545,0,0,1,4.747,26.622ZM34.18,22.169a.538.538,0,0,1-.519-.4l-.728-2.681a.538.538,0,0,1,1.038-.282L34.7,21.49a.538.538,0,0,1-.519.679ZM3.007,20.216a.538.538,0,0,1-.519-.4l-.729-2.681A.538.538,0,0,1,2.8,16.856l.729,2.681a.538.538,0,0,1-.519.679ZM32.44,15.763a.538.538,0,0,1-.519-.4l-.729-2.681A.538.538,0,0,1,32.23,12.4l.729,2.681a.538.538,0,0,1-.378.66A.544.544,0,0,1,32.44,15.763ZM1.266,13.811a.538.538,0,0,1-.519-.4L.019,10.732a.538.538,0,1,1,1.038-.282l.728,2.681a.538.538,0,0,1-.378.66A.544.544,0,0,1,1.266,13.811ZM30.7,9.358a.538.538,0,0,1-.519-.4l-.728-2.682A.538.538,0,1,1,30.49,6l.728,2.682a.538.538,0,0,1-.519.679ZM1.557,7.926a.538.538,0,0,1-.138-1.058l.138.52-.136-.52,2.69-.731a.538.538,0,1,1,.282,1.038L1.712,7.9l-.016,0A.541.541,0,0,1,1.557,7.926ZM7.976,6.182a.538.538,0,0,1-.141-1.057L10.517,4.4A.538.538,0,1,1,10.8,5.435l-2.681.728A.542.542,0,0,1,7.976,6.182Zm6.406-1.74a.538.538,0,0,1-.141-1.057l2.682-.729A.538.538,0,0,1,17.2,3.694l-2.681.729A.541.541,0,0,1,14.381,4.442Zm14.577-1.49a.538.538,0,0,1-.519-.4L28.3,2.027a1.306,1.306,0,0,0-1.136-.954A.538.538,0,0,1,27.259,0a2.386,2.386,0,0,1,2.076,1.743l.144.528a.539.539,0,0,1-.519.679ZM20.787,2.7a.538.538,0,0,1-.141-1.057L23.328.916a.538.538,0,0,1,.282,1.038l-2.681.728A.541.541,0,0,1,20.787,2.7Z" transform="matrix(0.956, -0.292, 0.292, 0.956, 120.407, 144.334)" fill="#969696"/>
    <g id="그룹_2475" data-name="그룹 2475" transform="matrix(0.956, -0.292, 0.292, 0.956, 135.026, 149.911)">
      <path id="패스_3110" data-name="패스 3110" d="M8.221,1.4C5.976-1.3,1.606.289.121,2.935c-.554.987.935,1.931,1.492.939A4.005,4.005,0,0,1,4.575,1.813,2.256,2.256,0,0,1,7.268,3.4c.227,1.335-.577,2.64-1.134,3.789a6.978,6.978,0,0,0-.9,3.965c.136,1.125,1.853.726,1.719-.391C6.767,9.18,7.917,7.7,8.5,6.314,9.16,4.728,9.4,2.808,8.221,1.4Z" transform="translate(0 0)" fill="#969696"/>
      <path id="패스_3111" data-name="패스 3111" d="M1.883.138A1.217,1.217,0,0,0,1.732.072,1.315,1.315,0,0,0,.19.607.932.932,0,0,0,.118.762C.107.784.1.806.086.829A1.259,1.259,0,0,0,.141,1.861,2.146,2.146,0,0,0,.262,2.2a.982.982,0,0,0,.82.485,1.339,1.339,0,0,0,.325-.009.945.945,0,0,0,.623-.236.8.8,0,0,0,.062-.066A1.462,1.462,0,0,0,2.652.812.933.933,0,0,0,1.883.138Z" transform="translate(5.686 12.947)" fill="#969696"/>
    </g>
    <path id="패스_3112" data-name="패스 3112" d="M469.1,581.279a2.305,2.305,0,0,0-4.547.18c-.054.2-.7,2.219-5.221,4.351-2.307,1.089-4.352.128-9.167-2.348a79.7,79.7,0,0,0-17.8-7.046,35.473,35.473,0,0,0-13.677-.764,20.707,20.707,0,0,1-2.819,3.962,11.511,11.511,0,0,1-1.134.966c-.227.175-.453.345-.691.506l-.031.021c-.169.15-.34.3-.515.437a31.249,31.249,0,0,1,17.719-.663,74.626,74.626,0,0,1,16.839,6.681c5.1,2.624,8.788,4.519,13.243,2.417a21.7,21.7,0,0,0,3.972-2.37c.389,5.017.3,12.44-2.754,17.44a2.3,2.3,0,0,0-.231.508c-.042.135-4.514,13.481-28.154,12.977a2.406,2.406,0,0,0-.653.08,26.524,26.524,0,0,1-9.559.374,21.966,21.966,0,0,1-16.109-10.617c-.032-.051-.048-.077-.082-.122-.163-.24-4.6-6.921-4.414-21.572a36.333,36.333,0,0,1,5.769-3.381c-.126.008-.252.013-.376.013-.029,0-.192-.017-.293-.03-.1.021-.551.056-.525.053-1.859.25-3.285-.946-4.344-2.314a31.8,31.8,0,0,0-4,2.745,2.305,2.305,0,0,0-.816,1.7c-.459,16.626,4.577,24.493,5.2,25.406a26.714,26.714,0,0,0,19.531,12.713,31.413,31.413,0,0,0,4.216.281,30.162,30.162,0,0,0,6.664-.711,48.6,48.6,0,0,0,16.031-2.175,30,30,0,0,0,10.012-5.468,21.2,21.2,0,0,0,6.19-8.264C472.327,597.531,469.239,581.942,469.1,581.279Z" transform="translate(-224.388 -431.519)" fill="#f4f4f4" opacity="0.46"/>
    <path id="패스_3113" data-name="패스 3113" d="M457.492,789.66h0Z" transform="translate(-274.14 -612.924)" fill="#f4f4f4" opacity="0.46"/>
    <path id="패스_3114" data-name="패스 3114" d="M827.123,616.152v0Z" transform="translate(-586.966 -466.081)" fill="#f4f4f4" opacity="0.46"/>
    <path id="패스_3115" data-name="패스 3115" d="M827.124,616.132v0Z" transform="translate(-586.967 -466.064)" fill="#f4f4f4" opacity="0.46"/>
    <ellipse id="타원_908" data-name="타원 908" cx="15.976" cy="24.219" rx="15.976" ry="24.219" transform="matrix(0.036, -0.999, 0.999, 0.036, 182.068, 187.451)" fill="#ebebeb" opacity="0.75"/>
    <ellipse id="타원_909" data-name="타원 909" cx="9.284" cy="13.483" rx="9.284" ry="13.483" transform="matrix(0.036, -0.999, 0.999, 0.036, 189.316, 183.055)" fill="#e1e1e1"/>
    <path id="패스_3116" data-name="패스 3116" d="M558.789,438a11.817,11.817,0,0,1-3.746-.6,10.406,10.406,0,0,1-3.714-2.116c-1.1-.613-11.338-6.451-17.63-15.365-2.764-3.915-3.735-7.21-2.887-9.793a5.614,5.614,0,0,1,3.425-3.479c.113-.038.283-.117.479-.208,1.894-.885,6.331-2.958,13.6,5.4a.692.692,0,1,1-1.043.908c-6.587-7.57-10.226-5.871-11.974-5.054a6.183,6.183,0,0,1-.627.267,4.222,4.222,0,0,0-2.549,2.6c-.694,2.114.241,5.076,2.7,8.564,6.326,8.962,17.137,14.935,17.246,14.995a.7.7,0,0,1,.162.122c.188.189,4.735,4.625,12.511.911a.692.692,0,0,1,.6,1.248A15.136,15.136,0,0,1,558.789,438Z" transform="translate(-335.941 -287.852)" fill="#909090"/>
    <path id="패스_3117" data-name="패스 3117" d="M426.658,455.533c-.08,0-.159,0-.239,0-2.458-.1-4.287-.783-5.435-2.042-2.127-2.334-1.169-5.744-.95-6.419.042-1.449.606-14.873,6.905-20.7a9.643,9.643,0,0,1,7.341-2.645l.021,0c1.272.111,3.44.822,3.493,2.786a.691.691,0,0,1-.673.71H437.1a.691.691,0,0,1-.691-.673c-.032-1.173-2.082-1.428-2.225-1.444a8.31,8.31,0,0,0-6.307,2.279c-6.092,5.636-6.463,19.686-6.466,19.827a.694.694,0,0,1-.041.221c-.011.031-1.119,3.206.633,5.129.889.976,2.392,1.511,4.466,1.592,3.975.155,7.5-4.707,9.76-8.812a61.348,61.348,0,0,0,4.077-9.327.692.692,0,0,1,1.316.427C441.37,437.221,435.329,455.533,426.658,455.533Z" transform="translate(-242.096 -303.205)" fill="#909090"/>
    <path id="패스_3118" data-name="패스 3118" d="M209.4,323.151c-3.008-4.273-5.723-8.946-8.118-13.07a1.5,1.5,0,0,0-1.314-.785h0a1.786,1.786,0,0,0-1.5.871,1.508,1.508,0,0,0,.029,1.541c2.4,4.134,5.123,8.819,8.147,13.115a1.734,1.734,0,0,0,1.406.773,1.553,1.553,0,0,0,.787-.216,1.7,1.7,0,0,0,.77-1.1A1.42,1.42,0,0,0,209.4,323.151Z" transform="translate(-54.751 -206.382)" fill="#969696"/>
    <path id="패스_3119" data-name="패스 3119" d="M275.168,422.842a1.957,1.957,0,1,0-1.893,2.994,1.8,1.8,0,0,0,2.027-.787A2.1,2.1,0,0,0,275.168,422.842Z" transform="translate(-116.836 -301.695)" fill="#969696"/>
    <path id="패스_3120" data-name="패스 3120" d="M704.817,148.434a14.854,14.854,0,0,1,2.31-.059c.181.011.361.024.541.045.443.051-.306-.062.13.026a10.872,10.872,0,0,1,1.179.292c.171.055.343.111.509.18-.241-.1.064.038.134.075.317.168.627.344.929.539a13.875,13.875,0,0,1,1.632,1.234,2.6,2.6,0,0,0,3.586,0,2.565,2.565,0,0,0,0-3.586,17.417,17.417,0,0,0-5.185-3.247,13.6,13.6,0,0,0-5.764-.572,2.592,2.592,0,0,0-2.536,2.536,2.564,2.564,0,0,0,2.536,2.536Z" transform="translate(-481.308 -65.882)" fill="#cecece"/>
    <path id="패스_3121" data-name="패스 3121" d="M353.706,197.008a15.419,15.419,0,0,0-3.371,1.255,9.443,9.443,0,0,0-2.558,2.337,1.893,1.893,0,0,0,0,2.608,1.86,1.86,0,0,0,2.608,0,7.042,7.042,0,0,1,1.812-1.76,11.3,11.3,0,0,1,2.489-.883c2.291-.611,1.319-4.17-.98-3.557Z" transform="translate(-180.845 -111.291)" fill="#cecece"/>
    <path id="패스_3122" data-name="패스 3122" d="M401.981,145.389a.692.692,0,0,1-.68-.572c-.067-.381-1.6-9.388,2.725-14.272a.692.692,0,1,1,1.036.917c-3.883,4.389-2.414,13.028-2.4,13.115a.692.692,0,0,1-.561.8A.7.7,0,0,1,401.981,145.389Z" transform="translate(-226.317 -54.905)" fill="#909090"/>
  </g>
</svg>
