<svg xmlns="http://www.w3.org/2000/svg" width="144" height="144" viewBox="0 0 144 144">
  <g id="그룹_2198" data-name="그룹 2198" transform="translate(-135 -665)">
    <circle id="타원_824" data-name="타원 824" cx="72" cy="72" r="72" transform="translate(135 665)" fill="#efefef"/>
    <g id="image" transform="translate(180.141 707.5)">
      <path id="패스_2595" data-name="패스 2595" d="M22.715,18.43A4.715,4.715,0,1,0,18,13.715,4.715,4.715,0,0,0,22.715,18.43Zm0-6.286a1.572,1.572,0,1,1-1.572,1.572A1.572,1.572,0,0,1,22.715,12.143Z" transform="translate(5.359 1.786)" fill="#e3e0e0"/>
      <path id="패스_2596" data-name="패스 2596" d="M39.075,4.5H7.643A3.143,3.143,0,0,0,4.5,7.643V39.075a3.143,3.143,0,0,0,3.143,3.143H39.075a3.143,3.143,0,0,0,3.143-3.143V7.643A3.143,3.143,0,0,0,39.075,4.5Zm0,34.575H7.643v-9.43L15.5,21.788l8.786,8.786a3.143,3.143,0,0,0,4.431,0l2.5-2.5,7.858,7.858Zm0-7.591-5.642-5.642a3.143,3.143,0,0,0-4.431,0l-2.5,2.5-8.786-8.786a3.143,3.143,0,0,0-4.431,0L7.643,25.2V7.643H39.075Z" transform="translate(0 0)" fill="#e3e0e0"/>
    </g>
  </g>
</svg>
