<svg xmlns="http://www.w3.org/2000/svg" width="15.755" height="19.156" viewBox="0 0 15.755 19.156">
  <g id="MY_Bookmark_라인_아이콘" data-name="MY_Bookmark 라인 아이콘" transform="translate(-4.25 0.25)" fill="#fff">
    <path d="M 18.7545166015625 17.01233673095703 L 17.01329612731934 16.26821708679199 L 12.12725639343262 14.18014240264893 L 7.24121618270874 16.26821708679199 L 5.499996185302734 17.01233673095703 L 5.499996185302734 15.11877727508545 L 5.499996185302734 3.16919732093811 C 5.499996185302734 1.973097205162048 6.543186187744141 0.9999971985816956 7.825446605682373 0.9999971985816956 L 16.4290657043457 0.9999971985816956 C 17.71132659912109 0.9999971985816956 18.7545166015625 1.973097205162048 18.7545166015625 3.16919732093811 L 18.7545166015625 15.11877727508545 L 18.7545166015625 17.01233673095703 Z" stroke="none"/>
    <path d="M 7.825447082519531 2.249997138977051 C 7.231496810913086 2.249997138977051 6.749996185302734 2.661537170410156 6.749996185302734 3.169197082519531 L 6.749996185302734 15.11877727508545 L 12.12725639343262 12.82077789306641 L 17.5045166015625 15.11877727508545 L 17.5045166015625 3.169197082519531 C 17.5045166015625 2.661537170410156 17.02301597595215 2.249997138977051 16.4290657043457 2.249997138977051 L 7.825447082519531 2.249997138977051 M 7.825447082519531 -0.2500019073486328 L 16.4290657043457 -0.2500019073486328 C 18.40057754516602 -0.2500019073486328 20.0045166015625 1.283847808837891 20.0045166015625 3.169197082519531 L 20.0045166015625 15.11877727508545 L 20.0045166015625 18.90588760375977 L 16.52207565307617 17.41764640808105 L 12.12725639343262 15.5394983291626 L 7.732437133789063 17.41764640808105 L 4.249996185302734 18.90588760375977 L 4.249996185302734 15.11877727508545 L 4.249996185302734 3.169197082519531 C 4.249996185302734 1.283847808837891 5.853937149047852 -0.2500019073486328 7.825447082519531 -0.2500019073486328 Z" stroke="none" fill="#77f"/>
  </g>
</svg>
