<svg xmlns="http://www.w3.org/2000/svg" xmlns:xlink="http://www.w3.org/1999/xlink" width="26.75" height="18.725" viewBox="0 0 26.75 18.725">
  <defs>
    <clipPath id="clip">
      <use xlink:href="#fill"/>
    </clipPath>
    <clipPath id="clip-2">
      <use xlink:href="#fill-2"/>
    </clipPath>
  </defs>
  <g id="MY_Comment_List" data-name="MY_Comment List" transform="translate(-824.5 -116)">
    <g id="사각형_2436" data-name="사각형 2436" transform="translate(824.5 116)" fill="none" stroke="#77f" stroke-miterlimit="10" stroke-width="2.5">
      <path d="M7.625,0h11.5A7.625,7.625,0,0,1,26.75,7.625V11.1a7.625,7.625,0,0,1-7.625,7.625H1.625A1.625,1.625,0,0,1,0,17.1V7.625A7.625,7.625,0,0,1,7.625,0Z" stroke="none"/>
      <path d="M7.625,1.25h11.5A6.375,6.375,0,0,1,25.5,7.625V11.1a6.375,6.375,0,0,1-6.375,6.375H1.625A.375.375,0,0,1,1.25,17.1V7.625A6.375,6.375,0,0,1,7.625,1.25Z" fill="none"/>
    </g>
    <g id="사각형_2437" data-name="사각형 2437" transform="translate(833.06 122.42)" fill="none" stroke="#77f" stroke-miterlimit="10" stroke-width="2.5">
      <rect id="fill" width="9.63" height="1.605" rx="0.802" stroke="none"/>
      <path d="M0,0.3549998998641968h9.630000114440918M8.380000114440918,0v1.6049998998641968M9.630000114440918,1.25h-9.630000114440918M1.25,1.6049998998641968v-1.6049998998641968" fill="none" clip-path="url(#clip)"/>
    </g>
    <g id="사각형_2438" data-name="사각형 2438" transform="translate(830.117 126.7)" fill="none" stroke="#77f" stroke-miterlimit="10" stroke-width="2.5">
      <rect id="fill-2" width="15.515" height="1.605" rx="0.802" stroke="none"/>
      <path d="M0,0.3549998998641968h15.514999389648438M14.264999389648438,0v1.6049998998641968M15.514999389648438,1.25h-15.514999389648438M1.25,1.6049998998641968v-1.6049998998641968" fill="none" clip-path="url(#clip-2)"/>
    </g>
  </g>
</svg>
