<svg xmlns="http://www.w3.org/2000/svg" width="58.627" height="55.189" viewBox="0 0 58.627 55.189">
  <g id="MY__Paid_list_라인" data-name="MY_ Paid list 라인" transform="translate(2.375 1.251)">
    <g id="패스_1803" data-name="패스 1803" transform="translate(4.767 0)" fill="none">
      <path d="M46.676,2.3a1.751,1.751,0,0,0-1.208.147l-2.645,1.32L40.155,2.433a1.721,1.721,0,0,0-1.539,0l-2.7,1.335L33.25,2.434a1.721,1.721,0,0,0-1.545,0L29.055,3.764l-2.63-1.328a1.721,1.721,0,0,0-1.543-.006L22.171,3.77,19.5,2.433a1.727,1.727,0,0,0-1.542,0L15.288,3.767,12.615,2.431a1.721,1.721,0,0,0-2.082.424A1.748,1.748,0,0,0,10.125,4V29.785l.006.006H30.776a3.442,3.442,0,0,1,3.442,3.442V44.414c0,3.327,3.557,6.024,6.884,6.024h1.291a5.593,5.593,0,0,0,5.593-5.593V3.972A1.721,1.721,0,0,0,46.676,2.3Zm-7.3,22.323H25.667a1.756,1.756,0,0,1-1.773-1.643,1.721,1.721,0,0,1,1.719-1.8H39.327A1.756,1.756,0,0,1,41.1,22.824a1.721,1.721,0,0,1-1.719,1.8Zm0-8.6h-20.6a1.756,1.756,0,0,1-1.773-1.643,1.721,1.721,0,0,1,1.719-1.8h20.6A1.756,1.756,0,0,1,41.1,14.219a1.721,1.721,0,0,1-1.719,1.8Z" stroke="none"/>
      <path d="M 11.84517669677734 2.248737335205078 C 11.35257339477539 2.248737335205078 10.86914443969727 2.460178375244141 10.53347396850586 2.854896545410156 C 10.26459503173828 3.175624847412109 10.11967468261719 3.582157135009766 10.12504577636719 4.000644683837891 L 10.12504577636719 29.78530502319336 L 10.13116455078125 29.79141616821289 L 30.77602386474609 29.79141616821289 C 32.67689514160156 29.79141616821289 34.21785736083984 31.33237648010254 34.21785736083984 33.23324584960938 L 34.21785736083984 44.41384506225586 C 34.21785736083984 47.74093627929688 37.7744140625 50.43780517578125 41.10151672363281 50.43780517578125 L 42.39258575439453 50.43780517578125 C 45.48128509521484 50.43780517578125 47.98517608642578 47.93391418457031 47.98517608642578 44.84521484375 L 47.98517608642578 3.971576690673828 C 47.98561477661133 3.179286956787109 47.44506454467773 2.489067077636719 46.67574310302734 2.299613952636719 C 46.54179000854492 2.267684936523438 46.40547943115234 2.251888275146484 46.26967620849609 2.251884460449219 C 45.99244689941406 2.251876831054688 45.71717834472656 2.31768798828125 45.46728515625 2.446464538574219 L 42.82242584228516 3.766593933105469 L 40.15462493896484 2.432697296142578 C 39.91243743896484 2.311634063720703 39.64881134033203 2.251106262207031 39.38518905639648 2.251106262207031 C 39.12156677246094 2.251106262207031 38.85794067382813 2.311634063720703 38.61574554443359 2.432697296142578 L 35.9142951965332 3.76812744140625 L 33.24955749511719 2.434226989746094 C 33.00653076171875 2.312145233154297 32.74179458618164 2.251106262207031 32.47705841064453 2.251106262207031 C 32.21232223510742 2.251106262207031 31.94758415222168 2.312145233154297 31.70455551147461 2.434226989746094 L 29.05511474609375 3.763545989990234 L 26.4255542755127 2.435756683349609 C 26.18114852905273 2.311916351318359 25.91443634033203 2.24993896484375 25.6477165222168 2.24993896484375 C 25.38551712036133 2.24993896484375 25.12331008911133 2.309803009033203 24.88208389282227 2.429634094238281 L 22.17145538330078 3.769657135009766 L 19.50365447998047 2.432697296142578 C 19.26095581054688 2.311618804931641 18.99677658081055 2.251060485839844 18.73268890380859 2.251060485839844 C 18.46853637695313 2.251060485839844 18.2044677734375 2.311595916748047 17.96171569824219 2.432704925537109 L 15.28779602050781 3.766593933105469 L 12.61540603637695 2.431163787841797 C 12.36991500854492 2.308162689208984 12.10622406005859 2.248737335205078 11.84517669677734 2.248737335205078 M 39.380859375 16.01798629760742 C 39.38077545166016 16.01798629760742 39.38069152832031 16.01798629760742 39.3806037902832 16.01798629760742 L 18.78316497802734 16.01798629760742 C 17.85310363769531 16.01798629760742 17.05153656005859 15.30361557006836 17.01023483276367 14.37508392333984 C 16.98893356323242 13.90557479858398 17.16057586669922 13.44777679443359 17.48531341552734 13.10801696777344 C 17.80999374389648 12.76831817626953 18.25949859619141 12.57615661621094 18.72939300537109 12.57615661621094 C 18.7294807434082 12.57615661621094 18.72953033447266 12.57615661621094 18.7296142578125 12.57615661621094 L 39.32705688476563 12.57615661621094 C 40.25711441040039 12.57615661621094 41.05869293212891 13.29052734375 41.09998321533203 14.21905517578125 C 41.12128448486328 14.68856430053711 40.94964599609375 15.14636611938477 40.62490463256836 15.48612594604492 C 40.30021667480469 15.82582473754883 39.85075759887695 16.01798629760742 39.380859375 16.01798629760742 M 39.380859375 24.62255477905273 C 39.38077545166016 24.62255477905273 39.38069152832031 24.62255477905273 39.3806037902832 24.62255477905273 L 25.66682434082031 24.62255477905273 C 24.73675537109375 24.62255477905273 23.93519592285156 23.90819549560547 23.89389419555664 22.97966575622559 C 23.87258529663086 22.51015472412109 24.04423522949219 22.05235481262207 24.36897659301758 21.71259498596191 C 24.69365692138672 21.37289810180664 25.14311981201172 21.18073463439941 25.61302947998047 21.18073463439941 C 25.61311340332031 21.18073463439941 25.61319732666016 21.18073463439941 25.61328506469727 21.18073463439941 L 39.32705688476563 21.18073463439941 C 40.25711441040039 21.18073463439941 41.05869293212891 21.89510536193848 41.09998321533203 22.82363510131836 C 41.12128448486328 23.29314613342285 40.94964599609375 23.75093650817871 40.62490463256836 24.09070587158203 C 40.30021667480469 24.4304027557373 39.85075759887695 24.62255477905273 39.380859375 24.62255477905273 M 11.84517288208008 -1.251262664794922 C 12.65239334106445 -1.251262664794922 13.46089553833008 -1.059955596923828 14.18325424194336 -0.6980247497558594 L 15.28914260864258 -0.1453971862792969 L 16.39934539794922 -0.6992225646972656 C 17.12011337280273 -1.058822631835938 17.9270133972168 -1.248935699462891 18.73268508911133 -1.248935699462891 C 19.53833389282227 -1.248935699462891 20.3452262878418 -1.058834075927734 21.06611633300781 -0.6991958618164063 L 21.06894302368164 -0.697784423828125 L 21.07177352905273 -0.6963653564453125 L 22.18209838867188 -0.1399307250976563 L 23.33101654052734 -0.7079048156738281 C 24.04739761352539 -1.062591552734375 24.84835433959961 -1.250053405761719 25.6477165222168 -1.250053405761719 C 26.46366500854492 -1.250053405761719 27.27965545654297 -1.055126190185547 28.00748443603516 -0.6863441467285156 L 29.06013488769531 -0.1548118591308594 L 30.13496398925781 -0.6940956115722656 C 30.85700416564941 -1.056793212890625 31.66739463806152 -1.248893737792969 32.47705459594727 -1.248893737792969 C 33.28671264648438 -1.248893737792969 34.09710693359375 -1.056793212890625 34.82061386108398 -0.6933555603027344 L 35.92406463623047 -0.1410026550292969 L 37.05842590332031 -0.7017593383789063 C 37.77754211425781 -1.059738159179688 38.58189010620117 -1.248893737792969 39.38518524169922 -1.248893737792969 C 40.1912841796875 -1.248893737792969 40.99848556518555 -1.058395385742188 41.71951293945313 -0.6979827880859375 L 42.82379531860352 -0.145843505859375 L 43.88916397094727 -0.6776008605957031 C 44.62344741821289 -1.050933837890625 45.44587326049805 -1.248115539550781 46.26961517333984 -1.248115539550781 C 46.67921447753906 -1.248115539550781 47.08890533447266 -1.199962615966797 47.4873161315918 -1.104995727539063 L 47.49998474121094 -1.101974487304688 L 47.51264572143555 -1.098854064941406 C 49.85294342041016 -0.5225448608398438 51.48651504516602 1.563297271728516 51.48517608642578 3.973514556884766 L 51.48517608642578 44.84521484375 C 51.48517608642578 49.85888671875 47.40625381469727 53.93780517578125 42.39258575439453 53.93780517578125 L 41.10151672363281 53.93780517578125 C 38.65681457519531 53.93780517578125 36.12973403930664 52.99810409545898 34.16824340820313 51.35964584350586 C 33.14734649658203 50.50687408447266 32.33008575439453 49.51421356201172 31.73916435241699 48.40922546386719 C 31.06147384643555 47.14197540283203 30.71785545349121 45.79773712158203 30.71785545349121 44.41384506225586 L 30.71785545349121 33.29141616821289 L 10.13116455078125 33.29141616821289 L 8.683094024658203 33.29141616821289 L 7.658313751220703 32.26831817626953 L 7.652194976806641 32.26220703125 L 6.625045776367188 31.23672485351563 L 6.625045776367188 29.78530502319336 L 6.625045776367188 4.01678466796875 C 6.615890502929688 2.771331787109375 7.050769805908203 1.561252593994141 7.851314544677734 0.6063346862792969 L 7.859233856201172 0.5968971252441406 L 7.867214202880859 0.5875053405761719 C 8.860965728759766 -0.5810546875 10.31087493896484 -1.251262664794922 11.84517288208008 -1.251262664794922 Z" stroke="none" fill="#8797ff"/>
    </g>
    <g id="패스_1804" data-name="패스 1804" transform="translate(0 10.727)" fill="none">
      <path d="M35.524,34.365l.019-10.144A1.721,1.721,0,0,0,33.822,22.5H4.567a3.453,3.453,0,0,0-3.442,3.448c0,5.437.621,7.7,1.556,9.418,1.583,2.922,4.453,4.343,8.77,4.343h26.92S35.524,36.191,35.524,34.365Z" stroke="none"/>
      <path d="M 38.37060165405273 39.70914077758789 C 38.37060165405273 39.70914077758789 35.52392196655273 36.19121170043945 35.52392196655273 34.36499404907227 L 35.54329299926758 24.22091293334961 C 35.54329299926758 23.27048301696777 34.77281188964844 22.50000190734863 33.82238388061523 22.50000190734863 L 4.566832542419434 22.50000190734863 C 2.666022777557373 22.50588226318359 1.127522706985474 24.04712295532227 1.12500274181366 25.94794273376465 C 1.12500274181366 31.38450241088867 1.746062755584717 33.64540100097656 2.680702686309814 35.3663215637207 C 4.263952732086182 38.28805160522461 7.133672714233398 39.70914077758789 11.45049285888672 39.70914077758789 L 38.37060165405273 39.70914077758789 M 45.70513153076172 43.20914077758789 L 38.37060165405273 43.20914077758789 L 11.45049285888672 43.20914077758789 C 8.720712661743164 43.20914077758789 6.443042755126953 42.73835372924805 4.487312793731689 41.76987075805664 C 2.385582685470581 40.72909164428711 0.7424127459526062 39.13566207885742 -0.3965372741222382 37.03384399414063 C -1.819847226142883 34.41314315795898 -2.37499737739563 31.30414199829102 -2.37499737739563 25.94794273376465 C -2.37253737449646 24.09202194213867 -1.650897264480591 22.35091209411621 -0.3430072665214539 21.04069137573242 C 0.9648827314376831 19.73047256469727 2.70472264289856 19.0057430267334 4.556002616882324 19.00002288818359 L 4.561422824859619 19.00000190734863 L 4.566832542419434 19.00000190734863 L 33.82238388061523 19.00000190734863 C 36.70120239257813 19.00000190734863 39.04329299926758 21.34209251403809 39.04329299926758 24.22091293334961 L 39.04329299926758 24.22425270080566 L 39.04328155517578 24.22759246826172 L 39.02423477172852 34.20398330688477 C 39.2154426574707 34.8252067565918 40.20409393310547 36.41096115112305 41.09140396118164 37.50749206542969 L 45.70513153076172 43.20914077758789 Z" stroke="none" fill="#8797ff"/>
    </g>
  </g>
</svg>
