<svg xmlns="http://www.w3.org/2000/svg" width="32.475" height="30.646" viewBox="0 0 32.475 30.646">
  <g id="MY__Paid_list_라인" data-name="MY_ Paid list 라인" transform="translate(1.375 0.251)">
    <g id="패스_1803" data-name="패스 1803" transform="translate(-1.673 0)" fill="none">
      <path d="M29.577,2.276a.932.932,0,0,0-.643.078l-1.408.7-1.42-.71a.916.916,0,0,0-.819,0l-1.438.711-1.418-.71a.916.916,0,0,0-.822,0l-1.41.707-1.4-.707a.916.916,0,0,0-.821,0l-1.443.713-1.42-.712a.919.919,0,0,0-.821,0l-1.423.71L11.45,2.346a.916.916,0,0,0-1.108.226.93.93,0,0,0-.217.61V16.9l0,0H21.115a1.832,1.832,0,0,1,1.832,1.832v5.95c0,1.771,1.893,3.206,3.663,3.206H27.3a2.976,2.976,0,0,0,2.976-2.976V3.166a.916.916,0,0,0-.7-.89Zm-3.882,11.88H18.4a.935.935,0,0,1-.944-.874.916.916,0,0,1,.915-.957h7.3a.935.935,0,0,1,.944.874.916.916,0,0,1-.915.957Zm0-4.579H14.733a.935.935,0,0,1-.944-.874.916.916,0,0,1,.915-.957H25.666a.935.935,0,0,1,.944.874.916.916,0,0,1-.915.957Z" stroke="none"/>
      <path d="M 11.04040908813477 2.248737335205078 C 10.77825164794922 2.248737335205078 10.52098083496094 2.361261367797852 10.34234428405762 2.571323394775391 C 10.19924354553223 2.742013931274414 10.12212371826172 2.958364486694336 10.12498474121094 3.181083679199219 L 10.12498474121094 16.90333366394043 L 10.12823486328125 16.90658378601074 L 21.11515426635742 16.90658378601074 C 22.12677383422852 16.90658378601074 22.94685363769531 17.72666358947754 22.94685363769531 18.73828506469727 L 22.94685363769531 24.68844413757324 C 22.94685363769531 26.45908355712891 24.83960342407227 27.89431381225586 26.61024475097656 27.89431381225586 L 27.29733467102051 27.89431381225586 C 28.94109344482422 27.89431381225586 30.27363395690918 26.56178283691406 30.27363395690918 24.91801452636719 L 30.27363395690918 3.165613174438477 C 30.27386474609375 2.743963241577148 29.9861946105957 2.37663459777832 29.57677459716797 2.275814056396484 C 29.35995483398438 2.224132537841797 29.13178443908691 2.251865386962891 28.93364334106445 2.353963851928711 L 27.52608489990234 3.056524276733398 L 26.1063232421875 2.346643447875977 C 25.84853363037109 2.217782974243164 25.54513359069824 2.217784881591797 25.28734397888184 2.346643447875977 L 23.84967422485352 3.057332992553711 L 22.43153381347656 2.347454071044922 C 22.17286109924316 2.217514038085938 21.86797332763672 2.217514038085938 21.60930442810059 2.347454071044922 L 20.19930458068848 3.054893493652344 L 18.79989433288574 2.348274230957031 C 18.54195594787598 2.217573165893555 18.23744201660156 2.216360092163086 17.97848510742188 2.345014572143555 L 16.53591346740723 3.05815315246582 L 15.11614418029785 2.346643447875977 C 14.85779190063477 2.217752456665039 14.55390357971191 2.217752456665039 14.2955436706543 2.346643447875977 L 12.87252426147461 3.056524276733398 L 11.45031356811523 2.345823287963867 C 11.31966781616211 2.280363082885742 11.1793327331543 2.248737335205078 11.04040908813477 2.248737335205078 M 25.69454193115234 9.576543807983398 C 25.69448089599609 9.576543807983398 25.69445419311523 9.576543807983398 25.69439315795898 9.576543807983398 L 14.73271369934082 9.576543807983398 C 14.23774337768555 9.576543807983398 13.81116485595703 9.196372985839844 13.7891845703125 8.702213287353516 C 13.7778434753418 8.452354431152344 13.86919403076172 8.208713531494141 14.04201507568359 8.027904510498047 C 14.21480178833008 7.847127914428711 14.45401382446289 7.744853973388672 14.70406723022461 7.744853973388672 C 14.70412826538086 7.744853973388672 14.70415306091309 7.744853973388672 14.70421409606934 7.744853973388672 L 25.6658935546875 7.744853973388672 C 26.16086387634277 7.744853973388672 26.58745384216309 8.125034332275391 26.60942459106445 8.619184494018555 C 26.62076377868652 8.869052886962891 26.52941513061523 9.11268424987793 26.35659408569336 9.293493270874023 C 26.18381500244141 9.474269866943359 25.94459533691406 9.576543807983398 25.69454193115234 9.576543807983398 M 25.69454193115234 14.15578365325928 C 25.69448089599609 14.15578365325928 25.69445419311523 14.15578365325928 25.69439315795898 14.15578365325928 L 18.39610481262207 14.15578365325928 C 17.9011344909668 14.15578365325928 17.47456359863281 13.77561378479004 17.45257377624512 13.28145408630371 C 17.44123458862305 13.03159332275391 17.53258514404297 12.78795433044434 17.70540428161621 12.60714340209961 C 17.87819290161133 12.42636871337891 18.11740303039551 12.32409286499023 18.36746788024902 12.32409286499023 C 18.36752891540527 12.32409286499023 18.3675537109375 12.32409286499023 18.36761474609375 12.32409286499023 L 25.6658935546875 12.32409286499023 C 26.16086387634277 12.32409286499023 26.58745384216309 12.70427322387695 26.60942459106445 13.19842338562012 C 26.62076377868652 13.44829368591309 26.52941513061523 13.69192314147949 26.35659408569336 13.87274360656738 C 26.18381500244141 14.05350971221924 25.94459533691406 14.15578365325928 25.69454193115234 14.15578365325928 M 11.04041481018066 -0.2512664794921875 C 11.568603515625 -0.2512664794921875 12.09759330749512 -0.1261062622070312 12.57019424438477 0.1106834411621094 L 12.87348556518555 0.2622432708740234 L 13.17956352233887 0.1095542907714844 C 13.65102386474609 -0.1256656646728516 14.17883491516113 -0.2500267028808594 14.70584487915039 -0.2500267028808594 C 15.23285484313965 -0.2500267028808594 15.76066398620605 -0.1256656646728516 16.23223495483398 0.1096038818359375 L 16.54350662231445 0.2655963897705078 L 16.87058448791504 0.1039028167724609 C 17.33583450317383 -0.1272563934326172 17.86138343811035 -0.2506160736083984 18.38593482971191 -0.2506160736083984 C 18.91980361938477 -0.2506160736083984 19.45370483398438 -0.1230659484863281 19.9299144744873 0.1182346343994141 L 20.20288848876953 0.2560691833496094 L 20.48817443847656 0.1129341125488281 C 20.96043395996094 -0.1243057250976562 21.49066352844238 -0.2500057220458984 22.02041435241699 -0.2500057220458984 C 22.55013465881348 -0.2500057220458984 23.08034515380859 -0.1243171691894531 23.55371475219727 0.11346435546875 L 23.85665893554688 0.2651081085205078 L 24.17430686950684 0.1080837249755859 C 24.64487075805664 -0.1262111663818359 25.17118453979492 -0.2500057220458984 25.69683456420898 -0.2500057220458984 C 26.22421455383301 -0.2500057220458984 26.75232315063477 -0.1253662109375 27.22408294677734 0.1104335784912109 L 27.52706146240234 0.2619228363037109 L 27.80674743652344 0.1223220825195312 C 28.28615379333496 -0.1210403442382812 28.82297897338867 -0.2495861053466797 29.36061477661133 -0.2495861053466797 C 29.62827301025391 -0.2495861053466797 29.89599418640137 -0.2181262969970703 30.15634536743164 -0.1560764312744141 L 30.17454528808594 -0.1516666412353516 C 31.70571517944336 0.2253837585449219 32.77449417114258 1.590063095092773 32.77363586425781 3.166973114013672 L 32.77363586425781 24.91801452636719 C 32.77363586425781 27.93765449523926 30.31697463989258 30.39431381225586 27.29733467102051 30.39431381225586 L 26.61024475097656 30.39431381225586 C 25.16229438781738 30.39431381225586 23.66849517822266 29.8402042388916 22.51186370849609 28.87405395507812 C 21.19952392578125 27.7778434753418 20.44685363769531 26.25224304199219 20.44685363769531 24.68844413757324 L 20.44685363769531 19.40658378601074 L 9.092704772949219 19.40658378601074 L 7.62823486328125 17.94211387634277 L 7.624984741210938 16.90333366394043 L 7.624984741210938 3.191343307495117 C 7.619712829589844 2.378320693969727 7.903911590576172 1.588577270507812 8.426534652709961 0.9651832580566406 L 8.437894821166992 0.9517345428466797 C 9.088064193725586 0.1872138977050781 10.03664398193359 -0.2512664794921875 11.04041481018066 -0.2512664794921875 Z" stroke="none" fill="#77f"/>
    </g>
    <g id="패스_1804" data-name="패스 1804" transform="translate(0 -3.064)" fill="none">
      <path d="M18.632,28.331l.01-4.985a.861.861,0,0,0-.876-.846H2.877a1.728,1.728,0,0,0-1.752,1.694c0,2.672.316,3.783.792,4.628.806,1.436,2.266,2.134,4.463,2.134h13.7S18.632,29.228,18.632,28.331Z" stroke="none"/>
      <path d="M 20.08125877380371 30.95709609985352 C 20.08125877380371 30.95709609985352 18.6324291229248 29.22827529907227 18.6324291229248 28.3308162689209 L 18.64228820800781 23.34570693969727 C 18.64228820800781 22.87863540649414 18.25014877319336 22.49999618530273 17.76642799377441 22.49999618530273 L 2.876728534698486 22.49999618530273 C 1.909308433532715 22.50289535522461 1.126278400421143 23.26030540466309 1.124998450279236 24.19442558288574 C 1.124998450279236 26.86611557006836 1.441088438034058 27.97718620300293 1.916778445243835 28.82289695739746 C 2.722578525543213 30.25872611999512 4.183128356933594 30.95709609985352 6.380188465118408 30.95709609985352 L 20.08125877380371 30.95709609985352 M 25.43819808959961 33.45709609985352 L 6.380188465118408 33.45709609985352 C 4.889888286590576 33.45709609985352 3.636478424072266 33.20416641235352 2.548318386077881 32.68385696411133 C 1.340738415718079 32.1064567565918 0.3947484195232391 31.21908569335938 -0.2633615732192993 30.04640579223633 C -1.06300151348114 28.62477684020996 -1.375001549720764 26.98344612121582 -1.375001549720764 24.19442558288574 C -1.371841549873352 21.88708686828613 0.5321084260940552 20.00701522827148 2.869238376617432 20.0000057220459 L 2.876728534698486 19.99999618530273 L 17.76642799377441 19.99999618530273 C 19.62788772583008 19.99999618530273 21.14228820800781 21.50087547302246 21.14228820800781 23.34570693969727 L 21.13292503356934 28.08452033996582 C 21.28701782226562 28.40254402160645 21.69954109191895 28.99594306945801 21.99736785888672 29.35131645202637 L 25.43819808959961 33.45709609985352 Z" stroke="none" fill="#77f"/>
    </g>
  </g>
</svg>
