<svg xmlns="http://www.w3.org/2000/svg" width="20.892" height="19.5" viewBox="0 0 20.892 19.5">
  <g id="receipt" transform="translate(-1.125 -2.249)">
    <path id="패스_1803" data-name="패스 1803" d="M24.916,2.269a.709.709,0,0,0-.489.059l-1.07.534-1.08-.54a.7.7,0,0,0-.623,0l-1.093.54-1.078-.54a.7.7,0,0,0-.625,0l-1.072.538-1.064-.537a.7.7,0,0,0-.625,0L15,2.864l-1.08-.541a.7.7,0,0,0-.624,0l-1.082.54-1.081-.54a.7.7,0,0,0-.842.171.708.708,0,0,0-.165.464V13.392l0,0h8.354a1.393,1.393,0,0,1,1.393,1.393v4.524a2.759,2.759,0,0,0,2.786,2.438h.522a2.263,2.263,0,0,0,2.263-2.263V2.946a.7.7,0,0,0-.53-.677ZM21.964,11.3H16.414a.711.711,0,0,1-.717-.665.7.7,0,0,1,.7-.728h5.549a.711.711,0,0,1,.717.665.7.7,0,0,1-.7.728Zm0-3.482H13.629a.711.711,0,0,1-.717-.665.7.7,0,0,1,.7-.728h8.335a.711.711,0,0,1,.717.665.7.7,0,0,1-.7.728Z" transform="translate(-3.429 0)" fill="#8797ff"/>
    <path id="패스_1804" data-name="패스 1804" d="M15.053,27.027V23.2a.7.7,0,0,0-.7-.7H2.518a1.4,1.4,0,0,0-1.393,1.4,7.568,7.568,0,0,0,.63,3.811A3.64,3.64,0,0,0,5.3,29.464H16a.174.174,0,0,0,.124-.3A2.767,2.767,0,0,1,15.053,27.027Z" transform="translate(0 -7.716)" fill="#8797ff"/>
  </g>
</svg>
