<svg xmlns="http://www.w3.org/2000/svg" width="41.761" height="40.788" viewBox="0 0 41.761 40.788">
  <g id="MY_Setting_버튼_아이콘" data-name="MY_Setting 버튼 아이콘" transform="translate(-686.083 -113.083)">
    <path id="패스_2001" data-name="패스 2001" d="M713.726,118.305v.36a1.582,1.582,0,0,0-.194.165l-1.409,1.41a12.247,12.247,0,0,0-1.682-.7v-1.983A3.066,3.066,0,0,0,709.06,115h1.371A3.307,3.307,0,0,1,713.726,118.305Z" transform="translate(-0.601 -0.014)" fill="#e2e2e2"/>
    <g id="그룹_1346" data-name="그룹 1346" transform="translate(692.701 118.714)">
      <path id="패스_2002" data-name="패스 2002" d="M701.239,148.263a3.019,3.019,0,0,0,.136.894v.01l-.894.885a3.309,3.309,0,0,1-4.666,0l-2.022-2.022A3.242,3.242,0,0,1,692.85,146l.982.992a3.075,3.075,0,0,0,4.326,0l1.41-1.41a14.1,14.1,0,0,0,1.672.7Z" transform="translate(-692.85 -119.58)" fill="#e2e2e2"/>
      <path id="패스_2003" data-name="패스 2003" d="M719.982,120.8l-1.682-1.672a3.3,3.3,0,0,1,3.694.661l2.022,2.022a3.309,3.309,0,0,1,0,4.666l-1.526,1.526c.107.2.2.418.292.632a2.932,2.932,0,0,0-1.526-.428h-1.983a14.963,14.963,0,0,0-.7-1.682l1.41-1.4A3.075,3.075,0,0,0,719.982,120.8Z" transform="translate(-693.559 -118.835)" fill="#e2e2e2"/>
      <path id="패스_2004" data-name="패스 2004" d="M728.307,133.435v2.858a3.307,3.307,0,0,1-3.305,3.3h-2.148a13.01,13.01,0,0,1-.758,1.818l1.526,1.526a3.309,3.309,0,0,1,0,4.666l-2.022,2.022a3.309,3.309,0,0,1-4.666,0l-1.526-1.526a13.015,13.015,0,0,1-1.818.758V151a3.307,3.307,0,0,1-3.3,3.305h-2.858a3.307,3.307,0,0,1-3.3-3.305v-.156a2.556,2.556,0,0,0,.476.039h2.634a3.058,3.058,0,0,0,3.052-3.052V145.85a13.593,13.593,0,0,0,1.682-.7l1.409,1.41a3.063,3.063,0,0,0,4.316,0l1.876-1.876a3.063,3.063,0,0,0,0-4.316l-1.41-1.41a13.568,13.568,0,0,0,.7-1.682h1.983a3.058,3.058,0,0,0,3.052-3.052v-2.634a2.918,2.918,0,0,0-.369-1.448H725A3.307,3.307,0,0,1,728.307,133.435Z" transform="translate(-693.165 -119.15)" fill="#e2e2e2"/>
    </g>
    <g id="그룹_1347" data-name="그룹 1347" transform="translate(687.5 114.5)">
      <path id="패스_2005" data-name="패스 2005" d="M720.415,128.11h-1.988a13.512,13.512,0,0,0-.7-1.681l1.41-1.41a3.062,3.062,0,0,0,0-4.317l-1.869-1.869a3.062,3.062,0,0,0-4.317,0l-1.409,1.41a13.518,13.518,0,0,0-1.681-.7v-1.988a3.062,3.062,0,0,0-3.053-3.053h-2.642a3.062,3.062,0,0,0-3.054,3.053v1.988a13.517,13.517,0,0,0-1.681.7l-1.41-1.41a3.062,3.062,0,0,0-4.317,0l-1.869,1.869a3.062,3.062,0,0,0,0,4.317l1.41,1.41a13.531,13.531,0,0,0-.7,1.681h-1.988a3.062,3.062,0,0,0-3.053,3.053v2.642a3.062,3.062,0,0,0,3.053,3.053h1.988a13.531,13.531,0,0,0,.7,1.681l-1.41,1.41a3.062,3.062,0,0,0,0,4.317l1.869,1.869a3.062,3.062,0,0,0,4.317,0l1.41-1.41a13.511,13.511,0,0,0,1.681.7v1.988a3.062,3.062,0,0,0,3.054,3.053h2.642a3.062,3.062,0,0,0,3.053-3.053v-1.988a13.512,13.512,0,0,0,1.681-.7l1.409,1.41a3.062,3.062,0,0,0,4.317,0l1.869-1.869a3.062,3.062,0,0,0,0-4.317l-1.41-1.41a13.513,13.513,0,0,0,.7-1.681h1.988a3.062,3.062,0,0,0,3.053-3.053v-2.642A3.062,3.062,0,0,0,720.415,128.11Z" transform="translate(-687.5 -114.5)" fill="none" stroke="#77f" stroke-miterlimit="10" stroke-width="2.835"/>
      <circle id="타원_554" data-name="타원 554" cx="7.291" cy="7.291" r="7.291" transform="translate(10.693 10.693)" fill="none" stroke="#77f" stroke-miterlimit="10" stroke-width="2.835"/>
    </g>
  </g>
</svg>
