<svg xmlns="http://www.w3.org/2000/svg" width="28" height="28" viewBox="0 0 28 28">
  <g id="MY_Setting_profile" data-name="MY_Setting profile" transform="translate(-34 -132)">
    <g id="타원_553" data-name="타원 553" transform="translate(34 132)" fill="none" stroke="#77f" stroke-width="2">
      <circle cx="14" cy="14" r="14" stroke="none"/>
      <circle cx="14" cy="14" r="13" fill="none"/>
    </g>
    <g id="_ver2_MY_PAGE_아이콘_면_" data-name="(ver2) MY PAGE 아이콘 면 " transform="translate(38.337 137.573)">
      <g id="패스_1869" data-name="패스 1869" transform="translate(-174.223 -751.491)" fill="none" stroke-linejoin="round">
        <path d="M188.925,772.964a22.5,22.5,0,0,1-4.971.843,24.125,24.125,0,0,1-5.085-.843s-4.932-1.967-4.634-4.393,2.115-5.311,6.746-5.311h5.945c4.632,0,6.954,2.647,7.135,5.311C194.062,770.312,188.925,772.964,188.925,772.964Z" stroke="none"/>
        <path d="M 183.954345703125 771.8073120117188 C 185.290283203125 771.8073120117188 187.2994384765625 771.3355712890625 188.1780242919922 771.0964965820313 C 188.5022430419922 770.9215087890625 189.2434692382813 770.510009765625 190.0257110595703 769.9968872070313 C 191.3172302246094 769.1497802734375 191.8362274169922 768.6094360351563 192.0253143310547 768.373779296875 C 191.8930969238281 767.6407470703125 191.4928283691406 766.9659423828125 190.8757781982422 766.4467163085938 C 189.9531097412109 765.6703491210938 188.5876007080078 765.2599487304688 186.9268646240234 765.2599487304688 L 183.954345703125 765.2599487304688 L 180.9818267822266 765.2599487304688 C 177.1368713378906 765.2599487304688 176.3745574951172 767.672607421875 176.2272644042969 768.7662963867188 C 176.2715606689453 768.8722534179688 176.5382232666016 769.3840942382813 177.7784729003906 770.1602783203125 C 178.5310668945313 770.6312866210938 179.2699737548828 770.9614868164063 179.5208740234375 771.06884765625 C 180.3853454589844 771.3011474609375 182.5594024658203 771.8073120117188 183.954345703125 771.8073120117188 M 183.954345703125 773.8073120117188 C 181.8994903564453 773.8073120117188 178.8697967529297 772.9642333984375 178.8697967529297 772.9642333984375 C 178.8697967529297 772.9642333984375 173.9381256103516 770.9972534179688 174.2359161376953 768.5712280273438 C 174.5337066650391 766.1451416015625 176.3509979248047 763.2599487304688 180.9818267822266 763.2599487304688 L 183.954345703125 763.2599487304688 L 186.9268646240234 763.2599487304688 C 191.5586090087891 763.2599487304688 193.8810729980469 765.90673828125 194.0619049072266 768.5712280273438 C 194.0619049072266 770.3121948242188 188.9252471923828 772.9642333984375 188.9252471923828 772.9642333984375 C 188.9252471923828 772.9642333984375 186.0092010498047 773.8073120117188 183.954345703125 773.8073120117188 Z" stroke="none" fill="#77f"/>
      </g>
      <g id="타원_481" data-name="타원 481" transform="translate(4.295)" fill="none" stroke="#77f" stroke-linejoin="round" stroke-width="2">
        <circle cx="5.437" cy="5.437" r="5.437" stroke="none"/>
        <circle cx="5.437" cy="5.437" r="4.437" fill="none"/>
      </g>
    </g>
  </g>
</svg>
