<svg xmlns="http://www.w3.org/2000/svg" width="34.555" height="34.555" viewBox="0 0 34.555 34.555">
  <g id="MY_Setting_버튼_아이콘" data-name="MY_Setting 버튼 아이콘" transform="translate(1.25 1.25)">
    <g id="그룹_1347" data-name="그룹 1347" transform="translate(0 0)">
      <path id="패스_2005" data-name="패스 2005" d="M716.833,126.629h-1.772a12.042,12.042,0,0,0-.625-1.5l1.256-1.256a2.729,2.729,0,0,0,0-3.847l-1.666-1.666a2.729,2.729,0,0,0-3.848,0l-1.256,1.256a12.04,12.04,0,0,0-1.5-.625v-1.772A2.729,2.729,0,0,0,704.7,114.5H702.35a2.729,2.729,0,0,0-2.721,2.721v1.772a12.041,12.041,0,0,0-1.5.625l-1.256-1.256a2.729,2.729,0,0,0-3.847,0l-1.666,1.666a2.729,2.729,0,0,0,0,3.847l1.256,1.256a12.06,12.06,0,0,0-.625,1.5h-1.772a2.729,2.729,0,0,0-2.721,2.721V131.7a2.729,2.729,0,0,0,2.721,2.721h1.772a12.06,12.06,0,0,0,.625,1.5l-1.256,1.256a2.729,2.729,0,0,0,0,3.847l1.666,1.666a2.729,2.729,0,0,0,3.847,0l1.256-1.256a12.038,12.038,0,0,0,1.5.625v1.772a2.729,2.729,0,0,0,2.721,2.721H704.7a2.729,2.729,0,0,0,2.721-2.721v-1.772a12.037,12.037,0,0,0,1.5-.625l1.256,1.256a2.729,2.729,0,0,0,3.848,0l1.666-1.666a2.729,2.729,0,0,0,0-3.847l-1.256-1.256a12.042,12.042,0,0,0,.625-1.5h1.772a2.729,2.729,0,0,0,2.721-2.721V129.35A2.729,2.729,0,0,0,716.833,126.629Z" transform="translate(-687.5 -114.5)" fill="none" stroke="#77f" stroke-miterlimit="10" stroke-width="2.5"/>
      <circle id="타원_554" data-name="타원 554" cx="6.498" cy="6.498" r="6.498" transform="translate(9.53 9.53)" fill="none" stroke="#77f" stroke-miterlimit="10" stroke-width="2.5"/>
    </g>
  </g>
</svg>
