<svg xmlns="http://www.w3.org/2000/svg" width="20" height="20" viewBox="0 0 20 20">
  <g id="MY__Refund_Policy" data-name="MY_ Refund Policy" transform="translate(-104 -673)">
    <g id="그룹_1356" data-name="그룹 1356" transform="translate(-967.76 546)">
      <g id="타원_555" data-name="타원 555" transform="translate(1071.76 127)" fill="none" stroke="#77f" stroke-miterlimit="10" stroke-width="1">
        <circle cx="10" cy="10" r="10" stroke="none"/>
        <circle cx="10" cy="10" r="9.5" fill="none"/>
      </g>
      <g id="그룹_1355" data-name="그룹 1355">
        <path id="패스_2017" data-name="패스 2017" d="M1080.829,138.752v-2.226a3.3,3.3,0,0,0,1.743-.483,1.446,1.446,0,0,0,.609-1.267v-.2a1.284,1.284,0,0,0-.392-1,1.5,1.5,0,0,0-1.05-.358,1.545,1.545,0,0,0-1.12.406,2.091,2.091,0,0,0-.574,1.037l-1.33-.533a3.505,3.505,0,0,1,.371-.84,2.875,2.875,0,0,1,.622-.721,3,3,0,0,1,.9-.5,3.469,3.469,0,0,1,1.191-.189,3.774,3.774,0,0,1,1.246.2,2.752,2.752,0,0,1,.952.553,2.39,2.39,0,0,1,.6.868,2.943,2.943,0,0,1,.21,1.128,2.806,2.806,0,0,1-.217,1.127,2.665,2.665,0,0,1-.574.846,3.026,3.026,0,0,1-.806.568,3.522,3.522,0,0,1-.923.3v1.288Zm.742,3.234a1.028,1.028,0,0,1-.777-.258.928.928,0,0,1-.245-.665v-.239a.928.928,0,0,1,.245-.665,1.3,1.3,0,0,1,1.554,0,.932.932,0,0,1,.245.665v.239a.932.932,0,0,1-.245.665A1.031,1.031,0,0,1,1081.571,141.986Z" fill="#77f"/>
      </g>
    </g>
  </g>
</svg>
