<svg xmlns="http://www.w3.org/2000/svg" width="67" height="20" viewBox="0 0 67 20">
  <g id="Profile__Resident" data-name="Profile_ Resident" transform="translate(-1163.562 -182.162)">
    <g id="사각형_2447" data-name="사각형 2447" transform="translate(1163.562 182.162)" fill="none" stroke="#beb0ff" stroke-miterlimit="10" stroke-width="1.031">
      <rect width="67" height="20" rx="10" stroke="none"/>
      <rect x="0.516" y="0.516" width="65.969" height="18.969" rx="9.484" fill="none"/>
    </g>
    <g id="그룹_1359" data-name="그룹 1359">
      <path id="패스_2024" data-name="패스 2024" d="M1171.72,197.052v-9.929a.28.28,0,0,1,.285-.285h4.29a3.177,3.177,0,0,1,2.31.944,3.089,3.089,0,0,1,.96,2.281,2.94,2.94,0,0,1-.608,1.822,3.718,3.718,0,0,1-1.612,1.207l2.055,3.81a.271.271,0,0,1,.007.293.28.28,0,0,1-.262.143h-1.576a.254.254,0,0,1-.239-.135l-1.995-3.975h-1.665v3.824a.285.285,0,0,1-.083.2.265.265,0,0,1-.2.09h-1.379a.282.282,0,0,1-.285-.286Zm1.965-5.429h2.445a1.416,1.416,0,0,0,1.042-.451,1.483,1.483,0,0,0,.442-1.08,1.378,1.378,0,0,0-.442-1.027,1.452,1.452,0,0,0-1.042-.428h-2.445Z" fill="#beb0ff"/>
      <path id="패스_2025" data-name="패스 2025" d="M1180.33,194.338a3.141,3.141,0,0,1,.869-2.221,2.875,2.875,0,0,1,2.19-.929,2.744,2.744,0,0,1,1.988.795,2.665,2.665,0,0,1,.817,1.995,3,3,0,0,1-.029.4.258.258,0,0,1-.285.255h-3.84a1.416,1.416,0,0,0,1.44,1.306,1.971,1.971,0,0,0,1.17-.375q.253-.15.39,0l.614.705a.228.228,0,0,1-.015.39,3.149,3.149,0,0,1-2.235.824,2.909,2.909,0,0,1-2.205-.915A3.12,3.12,0,0,1,1180.33,194.338Zm1.844-.75h2.266a1.119,1.119,0,0,0-1.1-1.02,1.135,1.135,0,0,0-.779.292A1.15,1.15,0,0,0,1182.174,193.588Z" fill="#beb0ff"/>
      <path id="패스_2026" data-name="패스 2026" d="M1187.214,196.933a.236.236,0,0,1-.09-.316l.405-.809c.06-.16.175-.2.345-.1a2.873,2.873,0,0,0,1.365.36q.51,0,.51-.375a.433.433,0,0,0-.21-.36,4.443,4.443,0,0,0-.795-.39q-1.7-.66-1.7-1.98a1.637,1.637,0,0,1,.563-1.261,2.372,2.372,0,0,1,1.643-.509,3.3,3.3,0,0,1,1.844.464.288.288,0,0,1,.135.406l-.375.764c-.07.131-.19.165-.36.1a2.97,2.97,0,0,0-1.244-.315c-.341,0-.511.116-.511.346a.3.3,0,0,0,.143.27,4.519,4.519,0,0,0,.577.27q.075.03.1.045a4.985,4.985,0,0,1,1.515.847,1.728,1.728,0,0,1-.135,2.573,2.675,2.675,0,0,1-1.74.524A3.243,3.243,0,0,1,1187.214,196.933Z" fill="#beb0ff"/>
      <path id="패스_2027" data-name="패스 2027" d="M1193.8,189.208a.979.979,0,0,1-.72-.3,1.049,1.049,0,0,1,0-1.469.979.979,0,0,1,.72-.3,1.023,1.023,0,0,1,.743.3,1.032,1.032,0,0,1,0,1.469A1.023,1.023,0,0,1,1193.8,189.208Zm-.885,7.844v-5.429a.277.277,0,0,1,.083-.2.272.272,0,0,1,.2-.082h1.245a.28.28,0,0,1,.285.285v5.429a.283.283,0,0,1-.082.2.265.265,0,0,1-.2.09H1193.2a.313.313,0,0,1-.285-.286Z" fill="#beb0ff"/>
      <path id="패스_2028" data-name="패스 2028" d="M1196.08,194.338a3.213,3.213,0,0,1,.824-2.243,2.765,2.765,0,0,1,2.145-.907,3.635,3.635,0,0,1,1.335.27v-4.335a.286.286,0,0,1,.083-.2.263.263,0,0,1,.2-.089h1.274a.27.27,0,0,1,.2.089.276.276,0,0,1,.091.2v9.929a.274.274,0,0,1-.091.2.271.271,0,0,1-.2.09h-.585c-.14,0-.234-.1-.285-.286l-.15-.464a1.842,1.842,0,0,1-.232.254,2.952,2.952,0,0,1-.667.4,2.417,2.417,0,0,1-1.065.247,2.652,2.652,0,0,1-2.048-.922A3.207,3.207,0,0,1,1196.08,194.338Zm2.152-1.088a1.537,1.537,0,0,0-.413,1.088,1.581,1.581,0,0,0,.391,1.087,1.244,1.244,0,0,0,.975.442,1.152,1.152,0,0,0,.84-.307,1.536,1.536,0,0,0,.419-.667v-1.741a1.788,1.788,0,0,0-1.169-.344A1.364,1.364,0,0,0,1198.232,193.25Z" fill="#beb0ff"/>
      <path id="패스_2029" data-name="패스 2029" d="M1203.58,194.338a3.141,3.141,0,0,1,.869-2.221,2.875,2.875,0,0,1,2.19-.929,2.744,2.744,0,0,1,1.988.795,2.665,2.665,0,0,1,.817,1.995,3,3,0,0,1-.029.4.258.258,0,0,1-.285.255h-3.84a1.416,1.416,0,0,0,1.44,1.306,1.971,1.971,0,0,0,1.17-.375q.253-.15.39,0l.614.705a.228.228,0,0,1-.015.39,3.149,3.149,0,0,1-2.235.824,2.909,2.909,0,0,1-2.205-.915A3.12,3.12,0,0,1,1203.58,194.338Zm1.844-.75h2.266a1.119,1.119,0,0,0-1.1-1.02,1.135,1.135,0,0,0-.779.292A1.15,1.15,0,0,0,1205.424,193.588Z" fill="#beb0ff"/>
      <path id="패스_2030" data-name="패스 2030" d="M1210.7,197.052v-5.429a.277.277,0,0,1,.083-.2.272.272,0,0,1,.2-.082h.57a.26.26,0,0,1,.255.18l.211.554a2.762,2.762,0,0,1,2.114-.884,2.381,2.381,0,0,1,2.011.855,3.385,3.385,0,0,1,.659,2.129v2.88a.284.284,0,0,1-.082.2.266.266,0,0,1-.2.09h-1.23a.283.283,0,0,1-.286-.286v-2.969a1.394,1.394,0,0,0-.292-.931,1.032,1.032,0,0,0-.833-.344,1.412,1.412,0,0,0-.907.292,1.525,1.525,0,0,0-.5.653v3.3q0,.286-.375.286h-1.11a.313.313,0,0,1-.285-.286Z" fill="#beb0ff"/>
      <path id="패스_2031" data-name="패스 2031" d="M1218.759,195.552v-2.639h-.509a.258.258,0,0,1-.188-.083.274.274,0,0,1-.082-.2v-1.005a.3.3,0,0,1,.074-.2.255.255,0,0,1,.2-.082h.509v-1.666a.284.284,0,0,1,.083-.194.264.264,0,0,1,.2-.091l1.23-.014a.259.259,0,0,1,.187.082.276.276,0,0,1,.083.2v1.681h1.319a.253.253,0,0,1,.286.285v1.005a.283.283,0,0,1-.286.285h-1.319v2.4a.417.417,0,0,0,.464.48,2.26,2.26,0,0,0,.736-.165.222.222,0,0,1,.329.165l.3.944a.245.245,0,0,1-.165.36,3.42,3.42,0,0,1-.323.12,5.9,5.9,0,0,1-.7.181,3.835,3.835,0,0,1-.766.089Q1218.76,197.487,1218.759,195.552Z" fill="#beb0ff"/>
    </g>
  </g>
</svg>
