<svg xmlns="http://www.w3.org/2000/svg" width="67" height="20" viewBox="0 0 67 20">
  <g id="Profile__Traveler" data-name="Profile_ Traveler" transform="translate(-1234.887 -182.162)">
    <g id="패스_2040" data-name="패스 2040" transform="translate(1234.887 182.162)" fill="none">
      <path d="M10,0H57A10,10,0,0,1,67,10h0A10,10,0,0,1,57,20H10A10,10,0,0,1,0,10H0A10,10,0,0,1,10,0Z" stroke="none"/>
      <path d="M 9.999988555908203 1.031259536743164 C 5.054611206054688 1.031259536743164 1.031257629394531 5.054619789123535 1.031257629394531 10.00000953674316 C 1.031257629394531 14.94539070129395 5.054611206054688 18.96874046325684 9.999988555908203 18.96874046325684 L 57.00000762939453 18.96874046325684 C 61.94538879394531 18.96874046325684 65.96874237060547 14.94538021087646 65.96874237060547 9.999990463256836 C 65.96874237060547 5.054610252380371 61.94538879394531 1.031259536743164 57.00000762939453 1.031259536743164 L 9.999988555908203 1.031259536743164 M 9.999988555908203 0 L 57.00000762939453 0 C 62.52285003662109 0 67 4.477149963378906 67 9.999990463256836 L 67 10.00000953674316 C 67 15.52285003662109 62.52285003662109 20 57.00000762939453 20 L 9.999988555908203 20 C 4.477149963378906 20 0 15.52285003662109 0 10.00000953674316 L 0 9.999990463256836 C 0 4.477149963378906 4.477149963378906 0 9.999988555908203 0 Z" stroke="none" fill="#71efb0"/>
    </g>
    <g id="그룹_1361" data-name="그룹 1361">
      <path id="패스_2032" data-name="패스 2032" d="M1247.8,197.052v-8.415h-2.295a.282.282,0,0,1-.285-.284v-1.23a.277.277,0,0,1,.083-.2.274.274,0,0,1,.2-.082h6.555a.28.28,0,0,1,.285.285v1.23a.28.28,0,0,1-.285.284h-2.295v8.415a.311.311,0,0,1-.285.286h-1.4a.262.262,0,0,1-.2-.09A.285.285,0,0,1,1247.8,197.052Z" fill="#71efb0"/>
      <path id="패스_2033" data-name="패스 2033" d="M1252.559,197.052v-5.429a.282.282,0,0,1,.285-.285h.57a.27.27,0,0,1,.27.194l.21.585a1.977,1.977,0,0,1,1.695-.929,2.246,2.246,0,0,1,.93.165q.36.165.225.435l-.555.974q-.135.24-.345.136a1.457,1.457,0,0,0-.435-.09,1.125,1.125,0,0,0-.682.2,1.207,1.207,0,0,0-.383.412v3.63q0,.286-.345.286h-1.155a.311.311,0,0,1-.285-.286Z" fill="#71efb0"/>
      <path id="패스_2034" data-name="패스 2034" d="M1257.239,195.433a1.683,1.683,0,0,1,.645-1.358,2.674,2.674,0,0,1,1.755-.532,3.917,3.917,0,0,1,.54.037,2.324,2.324,0,0,1,.405.083l.15.045a1.251,1.251,0,0,0-.173-.8.735.735,0,0,0-.607-.233,5.74,5.74,0,0,0-1.68.226c-.19.06-.305-.031-.345-.27l-.135-.781a.289.289,0,0,1,.21-.375c.06-.019.18-.05.36-.09s.432-.082.758-.127a6.72,6.72,0,0,1,.922-.067,2.179,2.179,0,0,1,1.822.637,3.244,3.244,0,0,1,.488,1.972v3.255a.31.31,0,0,1-.285.286h-.54q-.165,0-.255-.21l-.18-.406a2.663,2.663,0,0,1-1.83.765,1.991,1.991,0,0,1-1.47-.554A2.027,2.027,0,0,1,1257.239,195.433Zm1.65,0a.745.745,0,0,0,.78.78,1.117,1.117,0,0,0,.638-.21,1.278,1.278,0,0,0,.4-.375V194.8a2.062,2.062,0,0,0-.84-.179,1.064,1.064,0,0,0-.7.224A.729.729,0,0,0,1258.889,195.433Z" fill="#71efb0"/>
      <path id="패스_2035" data-name="패스 2035" d="M1266.014,197.338l-2.73-5.641a.254.254,0,0,1-.015-.254.236.236,0,0,1,.225-.1h1.3a.29.29,0,0,1,.27.165l1.215,2.79h.029l1.29-2.79c.051-.11.17-.165.361-.165h1.17a.236.236,0,0,1,.225.1.262.262,0,0,1-.015.254l-2.745,5.641a.283.283,0,0,1-.255.149h-.075A.283.283,0,0,1,1266.014,197.338Z" fill="#71efb0"/>
      <path id="패스_2036" data-name="패스 2036" d="M1269.9,194.338a3.137,3.137,0,0,1,.87-2.221,2.873,2.873,0,0,1,2.189-.929,2.744,2.744,0,0,1,1.988.795,2.666,2.666,0,0,1,.818,1.995,2.988,2.988,0,0,1-.03.4.257.257,0,0,1-.285.255h-3.84a1.416,1.416,0,0,0,1.44,1.306,1.968,1.968,0,0,0,1.17-.375q.255-.15.39,0l.615.705a.229.229,0,0,1-.016.39,3.146,3.146,0,0,1-2.234.824,2.907,2.907,0,0,1-2.2-.915A3.116,3.116,0,0,1,1269.9,194.338Zm1.845-.75h2.265a1.119,1.119,0,0,0-1.1-1.02,1.135,1.135,0,0,0-.78.292A1.153,1.153,0,0,0,1271.744,193.588Z" fill="#71efb0"/>
      <path id="패스_2037" data-name="패스 2037" d="M1277.024,197.052v-9.929a.274.274,0,0,1,.09-.2.271.271,0,0,1,.195-.089h1.26a.271.271,0,0,1,.2.089.275.275,0,0,1,.09.2v9.929a.31.31,0,0,1-.285.286h-1.26a.31.31,0,0,1-.285-.286Z" fill="#71efb0"/>
      <path id="패스_2038" data-name="패스 2038" d="M1280.2,194.338a3.141,3.141,0,0,1,.869-2.221,2.874,2.874,0,0,1,2.19-.929,2.746,2.746,0,0,1,1.988.795,2.665,2.665,0,0,1,.817,1.995,2.983,2.983,0,0,1-.029.4.258.258,0,0,1-.286.255h-3.839a1.416,1.416,0,0,0,1.439,1.306,1.966,1.966,0,0,0,1.17-.375q.255-.15.391,0l.614.705a.229.229,0,0,1-.015.39,3.148,3.148,0,0,1-2.235.824,2.908,2.908,0,0,1-2.2-.915A3.12,3.12,0,0,1,1280.2,194.338Zm1.844-.75h2.265a1.117,1.117,0,0,0-1.095-1.02,1.137,1.137,0,0,0-.78.292A1.153,1.153,0,0,0,1282.048,193.588Z" fill="#71efb0"/>
      <path id="패스_2039" data-name="패스 2039" d="M1287.329,197.052v-5.429a.28.28,0,0,1,.285-.285h.57a.272.272,0,0,1,.27.194l.21.585a1.977,1.977,0,0,1,1.7-.929,2.245,2.245,0,0,1,.93.165c.24.11.314.255.225.435l-.556.974c-.089.16-.2.205-.344.136a1.458,1.458,0,0,0-.435-.09,1.128,1.128,0,0,0-.683.2,1.213,1.213,0,0,0-.382.412v3.63c0,.191-.116.286-.345.286h-1.155a.269.269,0,0,1-.2-.09A.273.273,0,0,1,1287.329,197.052Z" fill="#71efb0"/>
    </g>
  </g>
</svg>
