<svg xmlns="http://www.w3.org/2000/svg" width="20" height="20" viewBox="0 0 20 20">
  <g id="Profile__R" data-name="Profile_ R" transform="translate(-1136.556 -204.316)">
    <g id="타원_557" data-name="타원 557" transform="translate(1136.556 204.316)" fill="none" stroke="#beb0ff" stroke-miterlimit="10" stroke-width="1">
      <circle cx="10" cy="10" r="10" stroke="none"/>
      <circle cx="10" cy="10" r="9.5" fill="none"/>
    </g>
    <path id="패스_2042" data-name="패스 2042" d="M1142.634,219.28v-9.929a.28.28,0,0,1,.284-.285h4.29a3.181,3.181,0,0,1,2.311.944,3.091,3.091,0,0,1,.96,2.281,2.94,2.94,0,0,1-.608,1.822,3.72,3.72,0,0,1-1.612,1.208l2.054,3.81a.267.267,0,0,1,.008.292.281.281,0,0,1-.262.143h-1.576a.253.253,0,0,1-.239-.135l-1.995-3.975h-1.666v3.824a.283.283,0,0,1-.082.2.265.265,0,0,1-.2.09h-1.38a.282.282,0,0,1-.284-.286Zm1.965-5.429h2.444a1.42,1.42,0,0,0,1.043-.45,1.487,1.487,0,0,0,.442-1.08,1.378,1.378,0,0,0-.442-1.028,1.453,1.453,0,0,0-1.043-.428H1144.6Z" fill="#beb0ff"/>
  </g>
</svg>
