<svg xmlns="http://www.w3.org/2000/svg" width="20" height="20" viewBox="0 0 20 20">
  <g id="Profile__K" data-name="Profile_ K" transform="translate(-1087.47 -204.544)">
    <g id="타원_556" data-name="타원 556" transform="translate(1087.47 204.544)" fill="none" stroke="#fec286" stroke-miterlimit="10" stroke-width="1">
      <circle cx="10" cy="10" r="10" stroke="none"/>
      <circle cx="10" cy="10" r="9.5" fill="none"/>
    </g>
    <path id="패스_2041" data-name="패스 2041" d="M1093.371,219.434v-9.78a.358.358,0,0,1,.36-.36h1.32a.347.347,0,0,1,.255.1.351.351,0,0,1,.1.255v4.05l3.78-4.26a.356.356,0,0,1,.285-.15h1.5a.309.309,0,0,1,.3.187.3.3,0,0,1-.06.353l-3.915,4.41,4.2,5.025a.3.3,0,0,1,.03.337.31.31,0,0,1-.3.188H1099.6a.31.31,0,0,1-.27-.105l-3.915-4.83v4.575a.351.351,0,0,1-.1.255.347.347,0,0,1-.255.105h-1.32a.358.358,0,0,1-.36-.36Z" fill="#fec286"/>
  </g>
</svg>
