<svg xmlns="http://www.w3.org/2000/svg" width="63" height="20" viewBox="0 0 63 20">
  <g id="Profile__Korean_" data-name="Profile_ Korean " transform="translate(-1087.441 -182.162)">
    <g id="사각형_2446" data-name="사각형 2446" transform="translate(1087.441 182.162)" fill="none" stroke="#fec286" stroke-miterlimit="10" stroke-width="1">
      <rect width="63" height="20" rx="10" stroke="none"/>
      <rect x="0.5" y="0.5" width="62" height="19" rx="9.5" fill="none"/>
    </g>
    <g id="그룹_1357" data-name="그룹 1357">
      <path id="패스_2018" data-name="패스 2018" d="M1098.841,196.978V187.2a.359.359,0,0,1,.36-.359h1.32a.358.358,0,0,1,.36.359v4.051l3.78-4.261a.358.358,0,0,1,.285-.149h1.5a.308.308,0,0,1,.3.187.3.3,0,0,1-.06.353l-3.915,4.41,4.2,5.025a.3.3,0,0,1,.03.337.309.309,0,0,1-.3.188h-1.635a.313.313,0,0,1-.27-.1l-3.915-4.831v4.576a.358.358,0,0,1-.36.36h-1.32a.351.351,0,0,1-.255-.1A.347.347,0,0,1,1098.841,196.978Z" fill="#fec286"/>
      <path id="패스_2019" data-name="패스 2019" d="M1107.3,194.322a3.053,3.053,0,0,1,.907-2.205,2.994,2.994,0,0,1,4.336,0,3.057,3.057,0,0,1,.907,2.205,3.106,3.106,0,0,1-.9,2.228,2.993,2.993,0,0,1-4.35,0A3.106,3.106,0,0,1,1107.3,194.322Zm1.635,0a1.549,1.549,0,0,0,.42,1.1,1.383,1.383,0,0,0,2.04,0,1.548,1.548,0,0,0,.42-1.1,1.5,1.5,0,0,0-.42-1.072,1.4,1.4,0,0,0-2.04,0A1.5,1.5,0,0,0,1108.936,194.322Z" fill="#fec286"/>
      <path id="패스_2020" data-name="패스 2020" d="M1114.785,197.052v-5.429a.282.282,0,0,1,.286-.285h.569a.27.27,0,0,1,.27.194l.21.585a1.978,1.978,0,0,1,1.7-.929,2.237,2.237,0,0,1,.929.165c.241.11.315.255.225.435l-.555.974q-.135.24-.344.136a1.469,1.469,0,0,0-.436-.09,1.125,1.125,0,0,0-.682.2,1.2,1.2,0,0,0-.382.412v3.63c0,.191-.116.286-.346.286h-1.154a.269.269,0,0,1-.2-.09A.274.274,0,0,1,1114.785,197.052Z" fill="#fec286"/>
      <path id="패스_2021" data-name="패스 2021" d="M1119.406,194.338a3.142,3.142,0,0,1,.87-2.221,2.874,2.874,0,0,1,2.19-.929,2.744,2.744,0,0,1,1.987.795,2.666,2.666,0,0,1,.818,1.995,2.988,2.988,0,0,1-.03.4.257.257,0,0,1-.285.255h-3.84a1.416,1.416,0,0,0,1.44,1.306,1.966,1.966,0,0,0,1.17-.375q.255-.15.39,0l.615.705a.229.229,0,0,1-.015.39,3.148,3.148,0,0,1-2.235.824,2.908,2.908,0,0,1-2.2-.915A3.12,3.12,0,0,1,1119.406,194.338Zm1.845-.75h2.265a1.119,1.119,0,0,0-1.095-1.02,1.137,1.137,0,0,0-.78.292A1.153,1.153,0,0,0,1121.251,193.588Z" fill="#fec286"/>
      <path id="패스_2022" data-name="패스 2022" d="M1126.095,195.433a1.683,1.683,0,0,1,.645-1.358,2.679,2.679,0,0,1,1.756-.532,3.9,3.9,0,0,1,.539.037,2.323,2.323,0,0,1,.406.083l.15.045a1.258,1.258,0,0,0-.173-.8.735.735,0,0,0-.607-.233,5.731,5.731,0,0,0-1.68.226c-.19.06-.306-.031-.346-.27l-.134-.781a.289.289,0,0,1,.21-.375c.06-.019.18-.05.359-.09s.433-.082.758-.127a6.742,6.742,0,0,1,.923-.067,2.179,2.179,0,0,1,1.822.637,3.245,3.245,0,0,1,.488,1.972v3.255a.311.311,0,0,1-.285.286h-.541c-.109,0-.194-.07-.254-.21l-.181-.406a2.661,2.661,0,0,1-1.829.765,1.987,1.987,0,0,1-1.47-.554A2.028,2.028,0,0,1,1126.095,195.433Zm1.651,0a.746.746,0,0,0,.78.78,1.116,1.116,0,0,0,.637-.21,1.273,1.273,0,0,0,.4-.375V194.8a2.067,2.067,0,0,0-.841-.179,1.066,1.066,0,0,0-.7.224A.731.731,0,0,0,1127.746,195.433Z" fill="#fec286"/>
      <path id="패스_2023" data-name="패스 2023" d="M1132.935,197.052v-5.429a.277.277,0,0,1,.083-.2.274.274,0,0,1,.2-.082h.57a.26.26,0,0,1,.255.18l.211.554a2.762,2.762,0,0,1,2.114-.884,2.38,2.38,0,0,1,2.011.855,3.378,3.378,0,0,1,.659,2.129v2.88a.284.284,0,0,1-.082.2.265.265,0,0,1-.2.09h-1.23a.283.283,0,0,1-.286-.286v-2.969a1.394,1.394,0,0,0-.292-.931,1.032,1.032,0,0,0-.833-.344,1.412,1.412,0,0,0-.907.292,1.526,1.526,0,0,0-.5.653v3.3q0,.286-.375.286h-1.11a.269.269,0,0,1-.194-.09A.274.274,0,0,1,1132.935,197.052Z" fill="#fec286"/>
    </g>
  </g>
</svg>
