<svg xmlns="http://www.w3.org/2000/svg" width="20" height="20" viewBox="0 0 20 20">
  <g id="Profile__T" data-name="Profile_ T" transform="translate(-1176.893 -206.044)">
    <g id="타원_558" data-name="타원 558" transform="translate(1176.893 206.044)" fill="none" stroke="#71efb0" stroke-miterlimit="10" stroke-width="1">
      <circle cx="10" cy="10" r="10" stroke="none"/>
      <circle cx="10" cy="10" r="9.5" fill="none"/>
    </g>
    <path id="패스_2043" data-name="패스 2043" d="M1185.911,221.009v-8.415h-2.3a.282.282,0,0,1-.285-.285v-1.23a.28.28,0,0,1,.285-.285h6.555a.282.282,0,0,1,.285.285v1.23a.283.283,0,0,1-.285.285h-2.3v8.415a.311.311,0,0,1-.285.285H1186.2a.265.265,0,0,1-.2-.09A.283.283,0,0,1,1185.911,221.009Z" fill="#71efb0"/>
  </g>
</svg>
