<svg xmlns="http://www.w3.org/2000/svg" width="12.543" height="10.084" viewBox="0 0 12.543 10.084">
  <g id="Board_댓글_아이콘" data-name="Board 댓글 아이콘" fill="#fff">
    <path d="M 11.52282905578613 9.333703994750977 L 3.859365224838257 9.333703994750977 C 2.144855260848999 9.333703994750977 0.750005304813385 7.659694194793701 0.750005304813385 5.602064609527588 L 0.750005304813385 4.481644153594971 C 0.750005304813385 2.424014329910278 2.144855260848999 0.7500044107437134 3.859365224838257 0.7500044107437134 L 8.683565139770508 0.7500044107437134 C 10.39807510375977 0.7500044107437134 11.79293537139893 2.424014329910278 11.79293537139893 4.481644153594971 L 11.79293537139893 5.977194309234619 C 11.79293537139893 7.486173152923584 11.63564491271973 8.675088882446289 11.52282905578613 9.333703994750977 Z" stroke="none"/>
    <path d="M 3.859365463256836 1.500004768371582 C 3.272035598754883 1.500004768371582 2.706524848937988 1.781084060668945 2.26700496673584 2.291454315185547 C 1.772395133972168 2.865824222564697 1.499995231628418 3.643644332885742 1.499995231628418 4.481644153594971 L 1.499995231628418 5.602064609527588 C 1.499995231628418 6.440064430236816 1.772395133972168 7.217884063720703 2.26700496673584 7.792254447937012 C 2.706524848937988 8.302624702453613 3.272035598754883 8.583703994750977 3.859365463256836 8.583703994750977 L 10.8773136138916 8.583703994750977 C 10.96234226226807 7.93437671661377 11.04292488098145 7.038946628570557 11.04292488098145 5.977194309234619 L 11.04292488098145 4.481644153594971 C 11.04292488098145 3.643644332885742 10.7705249786377 2.865824222564697 10.27591514587402 2.291454315185547 C 9.836404800415039 1.781084060668945 9.270895004272461 1.500004768371582 8.683565139770508 1.500004768371582 L 3.859365463256836 1.500004768371582 M 3.859365463256836 4.76837158203125e-06 L 8.683565139770508 4.76837158203125e-06 C 10.81503486633301 4.76837158203125e-06 12.54292488098145 2.006504058837891 12.54292488098145 4.481644153594971 L 12.54292488098145 5.977194309234619 C 12.54292488098145 8.45234489440918 12.1388053894043 10.08370399475098 12.1388053894043 10.08370399475098 L 3.859365463256836 10.08370399475098 C 1.727895736694336 10.08370399475098 -4.76837158203125e-06 8.077204704284668 -4.76837158203125e-06 5.602064609527588 L -4.76837158203125e-06 4.481644153594971 C -4.76837158203125e-06 2.006504058837891 1.727895736694336 4.76837158203125e-06 3.859365463256836 4.76837158203125e-06 Z" stroke="none" fill="#9fdfff"/>
  </g>
</svg>
