<svg xmlns="http://www.w3.org/2000/svg" width="12.7" height="12.7" viewBox="0 0 12.7 12.7">
  <g id="이미지_여러장_아이콘" data-name="이미지 여러장  아이콘" transform="translate(-278.75 -366.75)">
    <g id="패스_1681" data-name="패스 1681" fill="#cbcbcb">
      <path d="M 288.1622314453125 378.7846069335938 C 289.4432678222656 378.4538269042969 290.4538269042969 377.4432678222656 290.7846069335938 376.1622314453125 C 290.6430053710938 377.5425720214844 289.5425720214844 378.6430053710938 288.1622314453125 378.7846069335938 Z" stroke="none"/>
      <path d="M 290.25 369.75 C 290.9800109863281 370.2999877929688 291.4500122070313 371.1700134277344 291.4500122070313 372.1499938964844 L 291.4500122070313 375.8599853515625 C 291.4500122070313 377.8399963378906 289.8399963378906 379.4500122070313 287.8599853515625 379.4500122070313 L 284.1499938964844 379.4500122070313 C 283.1700134277344 379.4500122070313 282.2999877929688 378.9800109863281 281.75 378.25 L 287.25 378.25 C 288.9100036621094 378.25 290.25 376.9100036621094 290.25 375.25 L 290.25 369.75 Z" stroke="none" fill="#cbcbcb"/>
    </g>
    <g id="사각형_2052" data-name="사각형 2052" transform="translate(278.75 366.75)" fill="none" stroke="#cbcbcb" stroke-width="1.3">
      <rect width="11" height="11" rx="3" stroke="none"/>
      <rect x="0.65" y="0.65" width="9.7" height="9.7" rx="2.35" fill="none"/>
    </g>
  </g>
</svg>
