<svg xmlns="http://www.w3.org/2000/svg" width="18.38" height="14.431" viewBox="0 0 18.38 14.431">
  <path id="Board_수정_아이콘_내글상단_" data-name="Board 수정 아이콘 (내글상단)" d="M330.7,25.62l-.06-.06a1.924,1.924,0,0,0-.14-.15l-4.18-4.04-.21-.18-.03-.02a2.81,2.81,0,0,0-1.82-.6,2.766,2.766,0,0,0-1.3.34,2.521,2.521,0,0,0-.72.54l-6.82,7.06a2.876,2.876,0,0,0-.8,2.06,2.809,2.809,0,0,0,.88,2.02l.83.8H313V35h12.26l.95-.99.6-.62.33-.34,3.44-3.56a3.411,3.411,0,0,0,.37-.48,2.913,2.913,0,0,0,.43-1.58A2.836,2.836,0,0,0,330.7,25.62Zm-12.09,7.77-2.01-1.94a1.3,1.3,0,0,1-.4-.91,1.251,1.251,0,0,1,.37-.93l2.248-2.389h0l6.125,5.829h0l-.333.34Zm10.82-5-3.39,3.52-.03.04-6.05-5.86.02-.02,3.4-3.52a1.3,1.3,0,0,1,.91-.4,1.341,1.341,0,0,1,.93.36l4.18,4.04a1.3,1.3,0,0,1,.4.91A1.251,1.251,0,0,1,329.43,28.39Z" transform="translate(-313 -20.569)" fill="#afafaf"/>
</svg>
