<svg xmlns="http://www.w3.org/2000/svg" width="69" height="69" viewBox="0 0 69 69">
  <g id="Board_글쓰기_아이콘" data-name="Board 글쓰기 아이콘" transform="translate(-304 -761)">
    <g id="타원_352" data-name="타원 352" transform="translate(304 761)" fill="#fff" stroke="#ffd774" stroke-width="6">
      <circle cx="34.5" cy="34.5" r="34.5" stroke="none"/>
      <circle cx="34.5" cy="34.5" r="31.5" fill="none"/>
    </g>
    <g id="그룹_646" data-name="그룹 646" transform="translate(346.115 781.049) rotate(45)">
      <g id="패스_1606" data-name="패스 1606" transform="translate(-548.985 -396.035)" fill="none" stroke-miterlimit="10">
        <path d="M548.916,422.665V402.316h9.84v20.349l-4.72,7.441Z" stroke="none"/>
        <path d="M 553.95166015625 425.5724792480469 L 556.2564697265625 421.9390563964844 L 556.2564697265625 404.815673828125 L 551.4161987304688 404.815673828125 L 551.4161987304688 421.8880310058594 L 553.95166015625 425.5724792480469 M 554.0364990234375 430.1058349609375 L 548.9161987304688 422.6651000976563 L 548.9161987304688 402.315673828125 L 558.7564697265625 402.315673828125 L 558.7564697265625 422.6651000976563 L 554.0364990234375 430.1058349609375 Z" stroke="none" fill="#ffcb63"/>
      </g>
      <path id="사각형_1899" data-name="사각형 1899" d="M2,0H7.533a2,2,0,0,1,2,2V4.38a1,1,0,0,1-1,1H1a1,1,0,0,1-1-1V2A2,2,0,0,1,2,0Z" transform="translate(0 0)" fill="#ffcb63"/>
      <path id="패스_1607" data-name="패스 1607" d="M2.291,0,4.582,3.877a4.668,4.668,0,0,1-2.291.811A4.668,4.668,0,0,1,0,3.877Z" transform="translate(7.049 31.756) rotate(180)" fill="#ffcb63"/>
    </g>
  </g>
</svg>
