<svg xmlns="http://www.w3.org/2000/svg" width="21" height="20" viewBox="0 0 21 20">
  <g id="Resident_미니" data-name="Resident 미니" transform="translate(-219 -741)">
    <g id="패스_1655" data-name="패스 1655" transform="translate(219 741)" fill="#fff">
      <path d="M 11 19.5 L 10 19.5 C 4.761680126190186 19.5 0.5 15.23832035064697 0.5 10 C 0.5 4.761680126190186 4.761680126190186 0.5 10 0.5 L 11 0.5 C 16.23831939697266 0.5 20.5 4.761680126190186 20.5 10 C 20.5 15.23832035064697 16.23831939697266 19.5 11 19.5 Z" stroke="none"/>
      <path d="M 10 1 C 5.037380218505859 1 1 5.037380218505859 1 10 C 1 14.96261978149414 5.037380218505859 19 10 19 L 11 19 C 15.96261978149414 19 20 14.96261978149414 20 10 C 20 5.037380218505859 15.96261978149414 1 11 1 L 10 1 M 10 0 L 11 0 C 16.52285003662109 0 21 4.477149963378906 21 10 C 21 15.52285003662109 16.52285003662109 20 11 20 L 10 20 C 4.477149963378906 20 0 15.52285003662109 0 10 C 0 4.477149963378906 4.477149963378906 0 10 0 Z" stroke="none" fill="#9df37e"/>
    </g>
    <text id="R" transform="translate(229.5 756)" fill="#9df37e" font-size="13" font-family="NotoSansCJKkr-Bold, Noto Sans CJK KR" font-weight="700"><tspan x="-4.433" y="0">R</tspan></text>
  </g>
</svg>
