<svg xmlns="http://www.w3.org/2000/svg" width="12.706" height="12.706" viewBox="0 0 12.706 12.706">
  <g id="출처_인스타_아이콘" data-name="출처 인스타 아이콘" transform="translate(-2240.466 -534.49)">
    <path id="패스_2089" data-name="패스 2089" d="M2240.466,540.566c.017-.666.03-1.616.071-2.566a3.723,3.723,0,0,1,.6-1.954,3.232,3.232,0,0,1,2.155-1.406,7.23,7.23,0,0,1,1.21-.124q1.739-.034,3.479-.024c.646,0,1.293.02,1.936.077a3.409,3.409,0,0,1,2.4,1.19,3.265,3.265,0,0,1,.742,1.648,9.251,9.251,0,0,1,.1,1.3c.013,1.415.008,2.831,0,4.247a6.366,6.366,0,0,1-.144,1.488,3.246,3.246,0,0,1-2.422,2.53,4.587,4.587,0,0,1-1.016.158q-2.781.12-5.562,0a3.734,3.734,0,0,1-2.114-.7,3.236,3.236,0,0,1-1.275-2.055,7.919,7.919,0,0,1-.125-1.2C2240.48,542.405,2240.481,541.628,2240.466,540.566Zm6.365,5.495v-.02c.465,0,.931.012,1.4,0a17.794,17.794,0,0,0,1.786-.1,2.107,2.107,0,0,0,1.829-1.492,3.887,3.887,0,0,0,.176-1.252q.009-2.346,0-4.692a5.019,5.019,0,0,0-.094-.94,2.125,2.125,0,0,0-1.745-1.786,6.706,6.706,0,0,0-1.42-.117q-1.724-.014-3.448-.006a9.241,9.241,0,0,0-1.713.1,2.142,2.142,0,0,0-1.809,1.65,5.374,5.374,0,0,0-.137,1.342q-.016,1.862-.009,3.725a8.8,8.8,0,0,0,.108,1.638,2.188,2.188,0,0,0,.847,1.41,2.626,2.626,0,0,0,1.5.473C2245,546.029,2245.918,546.039,2246.831,546.061Z" transform="translate(0)" fill="#fff"/>
    <path id="패스_2090" data-name="패스 2090" d="M2250.948,548.429a3.5,3.5,0,1,1,3.5-3.5A3.509,3.509,0,0,1,2250.948,548.429Zm-.005-1.232a2.269,2.269,0,1,0-2.271-2.276A2.268,2.268,0,0,0,2250.943,547.2Z" transform="translate(-4.11 -4.09)" fill="#fff"/>
    <path id="패스_2091" data-name="패스 2091" d="M2262.086,540.141a.7.7,0,1,1-.689-.712A.7.7,0,0,1,2262.086,540.141Z" transform="translate(-11.119 -2.719)" fill="#fff"/>
  </g>
</svg>
