<svg xmlns="http://www.w3.org/2000/svg" width="12.7" height="12.7" viewBox="0 0 12.7 12.7">
  <g id="출처_네이버_아이콘" data-name="출처 네이버 아이콘" transform="translate(-2199 -535)" style="isolation: isolate">
    <path id="패스_2087" data-name="패스 2087" d="M2209.51,536.029a1.162,1.162,0,0,1,1.161,1.161v8.32a1.162,1.162,0,0,1-1.161,1.161h-8.321a1.162,1.162,0,0,1-1.161-1.161v-8.32a1.162,1.162,0,0,1,1.161-1.161h8.321m0-1.029h-8.321a2.189,2.189,0,0,0-2.19,2.19v8.32a2.19,2.19,0,0,0,2.19,2.19h8.321a2.189,2.189,0,0,0,2.19-2.19v-8.32a2.189,2.189,0,0,0-2.19-2.19Z" fill="#fff"/>
    <g id="그룹_1446" data-name="그룹 1446" transform="translate(2201.929 538.21)">
      <path id="패스_2088" data-name="패스 2088" d="M2208.8,546.129v3.139h-2.336v-6.256c.039,0,.079-.008.12-.008.7,0,1.406,0,2.109,0a.2.2,0,0,1,.182.1q.993,1.454,1.99,2.905c.028.04.056.079.105.146v-3.14h2.336v6.259c-.044,0-.084.007-.125.007-.7,0-1.4,0-2.1,0a.2.2,0,0,1-.193-.1q-1-1.471-2.01-2.938C2208.862,546.209,2208.84,546.182,2208.8,546.129Z" transform="translate(-2206.464 -543.001)" fill="#fff"/>
    </g>
  </g>
</svg>
