<svg id="BOARD_아이콘_라인" data-name="BOARD 아이콘 라인" xmlns="http://www.w3.org/2000/svg" width="25.654" height="25.647" viewBox="0 0 25.654 25.647">
  <path id="패스_1599" data-name="패스 1599" d="M776.06,345.418v8.839a7.2,7.2,0,0,1-7.2,7.193h-8.828c-1.774,0-3.741-1.785-3.335-1.785H767.36a6.9,6.9,0,0,0,6.9-6.9V342.084C774.265,341.667,776.06,343.623,776.06,345.418Z" transform="translate(-750.406 -335.803)" fill="#b4b4b4"/>
  <g id="패스_1600" data-name="패스 1600" transform="translate(-750.807 -336.204)" fill="none">
    <path d="M773.252,342.585v9.651a6.411,6.411,0,0,1-6.413,6.413h-9.651a6.1,6.1,0,0,1-1.828-.278,6.4,6.4,0,0,1-4.553-6.135v-9.619a6.418,6.418,0,0,1,6.413-6.413h9.619a6.41,6.41,0,0,1,6.135,4.553A6.107,6.107,0,0,1,773.252,342.585Z" stroke="none"/>
    <path d="M 757.2197875976563 338.2040100097656 C 754.7865600585938 338.2040100097656 752.8070068359375 340.18359375 752.8070068359375 342.6168518066406 L 752.8070068359375 352.2361450195313 C 752.8070068359375 353.2059631347656 753.1134643554688 354.1241760253906 753.6932983398438 354.8915100097656 C 754.2542724609375 355.6339721679688 755.0508422851563 356.1895446777344 755.9361572265625 356.4558715820313 L 755.9484252929688 356.4595642089844 L 755.9606323242188 356.4634094238281 C 756.351806640625 356.5865478515625 756.7646484375 356.6489868164063 757.1876831054688 356.6489868164063 L 766.8390502929688 356.6489868164063 C 769.2723388671875 356.6489868164063 771.251953125 354.6694030761719 771.251953125 352.2361450195313 L 771.251953125 342.5847778320313 C 771.251953125 342.1618347167969 771.1895141601563 341.7489318847656 771.0662841796875 341.3575134277344 L 771.0625 341.3454284667969 L 771.058837890625 341.333251953125 C 770.79296875 340.4494934082031 770.236328125 339.6531677246094 769.4913940429688 339.0910034179688 C 768.7224731445313 338.5107421875 767.8052978515625 338.2040100097656 766.8390502929688 338.2040100097656 L 757.2197875976563 338.2040100097656 M 757.2197875976563 336.2040100097656 L 766.8390502929688 336.2040100097656 C 769.735595703125 336.2040100097656 772.18310546875 338.1278381347656 772.9740600585938 340.7571105957031 C 773.1557006835938 341.3342590332031 773.251953125 341.9541931152344 773.251953125 342.5847778320313 L 773.251953125 352.2361450195313 C 773.251953125 355.7845458984375 770.3768310546875 358.6489868164063 766.8390502929688 358.6489868164063 L 757.1876831054688 358.6489868164063 C 756.55712890625 358.6489868164063 755.9371948242188 358.5527954101563 755.3600463867188 358.37109375 C 752.7308349609375 357.5802001953125 750.8070068359375 355.1432800292969 750.8070068359375 352.2361450195313 L 750.8070068359375 342.6168518066406 C 750.8070068359375 339.0790710449219 753.6820068359375 336.2040100097656 757.2197875976563 336.2040100097656 Z" stroke="none" fill="#b4b4b4"/>
  </g>
  <path id="패스_1601" data-name="패스 1601" d="M766.588,343.675h-5.344a.8.8,0,0,1,0-1.6h5.344a.8.8,0,1,1,0,1.6Z" transform="translate(-750.144 -335.8)" fill="#b4b4b4"/>
  <path id="패스_1602" data-name="패스 1602" d="M766.588,350.675h-5.344a.8.8,0,0,1,0-1.6h5.344a.8.8,0,1,1,0,1.6Z" transform="translate(-750.144 -335.319)" fill="#b4b4b4"/>
  <circle id="타원_351" data-name="타원 351" cx="1.603" cy="1.603" r="1.603" transform="translate(5.221 5.47)" fill="#b4b4b4"/>
  <circle id="타원_352" data-name="타원 352" cx="1.603" cy="1.603" r="1.603" transform="translate(5.221 12.952)" fill="#b4b4b4"/>
</svg>
