<svg id="TRAVEL_아이콘_라인" data-name="TRAVEL 아이콘 라인" xmlns="http://www.w3.org/2000/svg" width="16.293" height="22" viewBox="0 0 16.293 22">
  <g id="패스_1571" data-name="패스 1571" transform="translate(-799.38 598.769)" fill="none">
    <path d="M815.166-590.5l-14.02,6.371-1.766.81v-15.025a.421.421,0,0,1,.6-.39l.624.273.293.127.254.107,14.01,6.137A.873.873,0,0,1,815.166-590.5Z" stroke="none"/>
    <path d="M 801.3800048828125 -586.4290771484375 L 812.0345458984375 -591.2706909179688 L 801.3800048828125 -595.9376220703125 L 801.3800048828125 -586.4290771484375 M 799.3800048828125 -583.3160400390625 L 799.3800048828125 -598.3406372070313 C 799.3800048828125 -598.5887451171875 799.5770263671875 -598.7689819335938 799.7999267578125 -598.7689819335938 C 799.8576049804688 -598.7689819335938 799.9169311523438 -598.7569580078125 799.97509765625 -598.7308959960938 L 800.5994873046875 -598.457763671875 L 800.8922119140625 -598.3309936523438 L 801.1458740234375 -598.2236328125 L 815.1558837890625 -592.0869140625 C 815.8387451171875 -591.7844848632813 815.8486328125 -590.8088989257813 815.16552734375 -590.4966430664063 L 801.1458740234375 -584.1258544921875 L 799.3800048828125 -583.3160400390625 Z" stroke="none" fill="#b4b4b4"/>
  </g>
  <rect id="사각형_1861" data-name="사각형 1861" width="1.636" height="21.809" rx="0.818" transform="translate(0 0.191)" fill="#b4b4b4"/>
</svg>
