<svg xmlns="http://www.w3.org/2000/svg" width="24.654" height="24.647" viewBox="0 0 24.654 24.647">
  <g id="그룹_626" data-name="그룹 626" transform="translate(-750.807 -336.204)">
    <path id="패스_1599" data-name="패스 1599" d="M775.3,345.286v8.494a6.917,6.917,0,0,1-6.923,6.913H759.9c-1.705,0-3.6-1.715-3.2-1.715h10.251a6.632,6.632,0,0,0,6.635-6.635V342.081C773.577,341.681,775.3,343.56,775.3,345.286Z" transform="translate(0.158 0.158)" fill="#fff"/>
    <g id="패스_1600" data-name="패스 1600" fill="#fff">
      <path d="M 766.2139892578125 356.7738647460938 L 756.9389038085938 356.7738647460938 C 756.4382934570313 356.7738647460938 755.9484252929688 356.6995544433594 755.4828491210938 356.5529479980469 L 755.4767456054688 356.551025390625 L 755.4706420898438 356.5491943359375 C 754.4337768554688 356.2373046875 753.5013427734375 355.5872192382813 752.8450927734375 354.7187194824219 C 752.1659545898438 353.8199157714844 751.8070068359375 352.7453002929688 751.8070068359375 351.6110534667969 L 751.8070068359375 342.3668212890625 C 751.8070068359375 339.5200500488281 754.123046875 337.2040100097656 756.9697875976563 337.2040100097656 L 766.2139892578125 337.2040100097656 C 767.3446044921875 337.2040100097656 768.4180908203125 337.5631103515625 769.3182983398438 338.2424621582031 C 770.1893920898438 338.8998413085938 770.8406982421875 339.8321533203125 771.1521606445313 340.86767578125 L 771.1539916992188 340.8737487792969 L 771.1559448242188 340.8797912597656 C 771.302490234375 341.3455505371094 771.3768310546875 341.8354797363281 771.3768310546875 342.3359985351563 L 771.3768310546875 351.6110534667969 C 771.3768310546875 354.4578247070313 769.060791015625 356.7738647460938 766.2139892578125 356.7738647460938 Z" stroke="none"/>
      <path d="M 756.9697875976563 338.2040100097656 C 754.6744384765625 338.2040100097656 752.8070068359375 340.0714416503906 752.8070068359375 342.3668212890625 L 752.8070068359375 351.6110534667969 C 752.8070068359375 352.5259399414063 753.0960693359375 353.39208984375 753.6429443359375 354.1158752441406 C 754.1721801757813 354.8162841796875 754.923583984375 355.3403625488281 755.7586669921875 355.5915832519531 L 755.7709350585938 355.5952758789063 L 755.783203125 355.59912109375 C 756.1514892578125 355.715087890625 756.540283203125 355.7738647460938 756.9389038085938 355.7738647460938 L 766.2139892578125 355.7738647460938 C 768.5093994140625 355.7738647460938 770.3768310546875 353.9064331054688 770.3768310546875 351.6110534667969 L 770.3768310546875 342.3359985351563 C 770.3768310546875 341.9374389648438 770.3180541992188 341.5484924316406 770.2020263671875 341.1799926757813 L 770.1982421875 341.1679077148438 L 770.194580078125 341.15576171875 C 769.6717529296875 339.4178161621094 768.0348510742188 338.2040100097656 766.2139892578125 338.2040100097656 L 756.9697875976563 338.2040100097656 M 756.9697875976563 336.2040100097656 L 766.2139892578125 336.2040100097656 C 768.99755859375 336.2040100097656 771.3496704101563 338.0528259277344 772.1098022460938 340.57958984375 C 772.2843627929688 341.1342468261719 772.3768310546875 341.7300109863281 772.3768310546875 342.3359985351563 L 772.3768310546875 351.6110534667969 C 772.3768310546875 355.0210876464844 769.6138305664063 357.7738647460938 766.2139892578125 357.7738647460938 L 756.9389038085938 357.7738647460938 C 756.3329467773438 357.7738647460938 755.7371826171875 357.6814270019531 755.1825561523438 357.5068054199219 C 752.6558227539063 356.7467346191406 750.8070068359375 354.4048461914063 750.8070068359375 351.6110534667969 L 750.8070068359375 342.3668212890625 C 750.8070068359375 338.9669799804688 753.5699462890625 336.2040100097656 756.9697875976563 336.2040100097656 Z" stroke="none" fill="#fff"/>
    </g>
    <path id="패스_1601" data-name="패스 1601" d="M766.348,343.613h-5.136a.77.77,0,0,1,0-1.541h5.136a.77.77,0,1,1,0,1.541Z" transform="translate(0.262 0.159)" fill="#ffd774"/>
    <path id="패스_1602" data-name="패스 1602" d="M766.348,350.613h-5.136a.77.77,0,0,1,0-1.541h5.136a.77.77,0,1,1,0,1.541Z" transform="translate(0.262 0.349)" fill="#ffd774"/>
    <circle id="타원_351" data-name="타원 351" cx="1.541" cy="1.541" r="1.541" transform="translate(755.824 341.461)" fill="#ffd774"/>
    <circle id="타원_352" data-name="타원 352" cx="1.541" cy="1.541" r="1.541" transform="translate(755.824 348.651)" fill="#ffd774"/>
  </g>
</svg>
