<svg xmlns="http://www.w3.org/2000/svg" xmlns:xlink="http://www.w3.org/1999/xlink" width="9.771" height="8.275" viewBox="0 0 9.771 8.275">
  <defs>
    <clipPath id="clip">
      <use xlink:href="#fill"/>
    </clipPath>
    <clipPath id="clip-2">
      <use xlink:href="#fill-2"/>
    </clipPath>
  </defs>
  <g id="그룹_523" data-name="그룹 523" transform="translate(-23 -160.747)">
    <g id="그룹_499" data-name="그룹 499" transform="translate(-673.75 747.122)">
      <g id="패스_1565" data-name="패스 1565" transform="translate(696.75 -585.638)" fill="none">
        <path d="M.674,0H9.1a.674.674,0,0,1,.674.674V6.863a.674.674,0,0,1-.674.674H.674A.674.674,0,0,1,0,6.863V.674A.674.674,0,0,1,.674,0Z" stroke="none"/>
        <path d="M 0.6742076873779297 0.499995231628418 C 0.5781478881835938 0.499995231628418 0.4999980926513672 0.5781450271606445 0.4999980926513672 0.6742053031921387 L 0.4999980926513672 6.863255023956299 C 0.4999980926513672 6.959275245666504 0.5781078338623047 7.037384986877441 0.674128532409668 7.037384986877441 L 9.096907615661621 7.037384986877441 C 9.19290828704834 7.037384986877441 9.271018028259277 6.959285259246826 9.271018028259277 6.863285064697266 L 9.271018028259277 0.6741352081298828 C 9.271018028259277 0.5781149864196777 9.19290828704834 0.499995231628418 9.096887588500977 0.499995231628418 L 0.6742076873779297 0.499995231628418 M 0.6742076873779297 -4.76837158203125e-06 L 9.096887588500977 -4.76837158203125e-06 C 9.469198226928711 -4.76837158203125e-06 9.771018028259277 0.3018150329589844 9.771018028259277 0.6741352081298828 L 9.771018028259277 6.863285064697266 C 9.771018028259277 7.23558521270752 9.469207763671875 7.537384986877441 9.096907615661621 7.537384986877441 L 0.674128532409668 7.537384986877441 C 0.3018178939819336 7.537384986877441 -1.9073486328125e-06 7.235575199127197 -1.9073486328125e-06 6.863255023956299 L -1.9073486328125e-06 0.6742053031921387 C -1.9073486328125e-06 0.3018550872802734 0.3018484115600586 -4.76837158203125e-06 0.6742076873779297 -4.76837158203125e-06 Z" stroke="none" fill="#ffd774"/>
      </g>
      <g id="패스_1559" data-name="패스 1559" transform="translate(0 -1.078)" fill="none" stroke-miterlimit="10">
        <path d="M706.521-583.886v1.076H696.75v-1.076a.672.672,0,0,1,.674-.674h8.423A.672.672,0,0,1,706.521-583.886Z" stroke="none"/>
        <path d="M 697.5499877929688 -583.7599487304688 L 697.5499877929688 -583.6096801757813 L 705.7210083007813 -583.6096801757813 L 705.7210083007813 -583.7599487304688 L 697.5499877929688 -583.7599487304688 M 697.4241333007813 -584.5599365234375 L 705.8468017578125 -584.5599365234375 C 706.220458984375 -584.5599365234375 706.52099609375 -584.2594604492188 706.52099609375 -583.8858642578125 L 706.52099609375 -582.8096923828125 L 696.75 -582.8096923828125 L 696.75 -583.8858642578125 C 696.75 -584.2594604492188 697.050537109375 -584.5599365234375 697.4241333007813 -584.5599365234375 Z" stroke="none" fill="#ffd774"/>
      </g>
      <g id="패스_1560" data-name="패스 1560" transform="translate(-6.64 -4.9)" fill="none" stroke-miterlimit="10">
        <path d="M708.925-577.475a.65.65,0,0,1-.65.65.65.65,0,0,1-.65-.65.65.65,0,0,1,.65-.65A.65.65,0,0,1,708.925-577.475Z" stroke="none"/>
        <path d="M 708.275146484375 -577.1249389648438 C 708.468017578125 -577.1249389648438 708.6249389648438 -577.2818603515625 708.6249389648438 -577.4746704101563 C 708.6249389648438 -577.6678466796875 708.468017578125 -577.8250122070313 708.275146484375 -577.8250122070313 C 708.0820922851563 -577.8250122070313 707.9249877929688 -577.6678466796875 707.9249877929688 -577.4746704101563 C 707.9249877929688 -577.2818603515625 708.0820922851563 -577.1249389648438 708.275146484375 -577.1249389648438 M 708.275146484375 -576.824951171875 C 707.9161376953125 -576.824951171875 707.625 -577.1161499023438 707.625 -577.4746704101563 C 707.625 -577.8338012695313 707.9161376953125 -578.125 708.275146484375 -578.125 C 708.6336669921875 -578.125 708.9249267578125 -577.8338012695313 708.9249267578125 -577.4746704101563 C 708.9249267578125 -577.1161499023438 708.6336669921875 -576.824951171875 708.275146484375 -576.824951171875 Z" stroke="none" fill="#ffd774"/>
      </g>
      <g id="패스_1561" data-name="패스 1561" transform="translate(-9.906 -4.9)" fill="none" stroke-miterlimit="10">
        <path d="M714.425-577.475a.65.65,0,0,1-.65.65.65.65,0,0,1-.65-.65.65.65,0,0,1,.65-.65A.65.65,0,0,1,714.425-577.475Z" stroke="none"/>
        <path d="M 713.7752685546875 -577.1249389648438 C 713.9681396484375 -577.1249389648438 714.1250610351563 -577.2818603515625 714.1250610351563 -577.4746704101563 C 714.1250610351563 -577.6678466796875 713.9681396484375 -577.8250122070313 713.7752685546875 -577.8250122070313 C 713.5822143554688 -577.8250122070313 713.4251098632813 -577.6678466796875 713.4251098632813 -577.4746704101563 C 713.4251098632813 -577.2818603515625 713.5822143554688 -577.1249389648438 713.7752685546875 -577.1249389648438 M 713.7752685546875 -576.824951171875 C 713.416259765625 -576.824951171875 713.1251220703125 -577.1161499023438 713.1251220703125 -577.4746704101563 C 713.1251220703125 -577.8338012695313 713.416259765625 -578.125 713.7752685546875 -578.125 C 714.1337890625 -578.125 714.425048828125 -577.8338012695313 714.425048828125 -577.4746704101563 C 714.425048828125 -577.1161499023438 714.1337890625 -576.824951171875 713.7752685546875 -576.824951171875 Z" stroke="none" fill="#ffd774"/>
      </g>
      <g id="패스_1562" data-name="패스 1562" transform="translate(-9.906 -7.869)" fill="none" stroke-miterlimit="10">
        <path d="M714.425-572.475a.65.65,0,0,1-.65.65.65.65,0,0,1-.65-.65.65.65,0,0,1,.65-.65A.65.65,0,0,1,714.425-572.475Z" stroke="none"/>
        <path d="M 713.7752685546875 -572.1250610351563 C 713.9681396484375 -572.1250610351563 714.1250610351563 -572.2819213867188 714.1250610351563 -572.4747314453125 C 714.1250610351563 -572.6679077148438 713.9681396484375 -572.8251342773438 713.7752685546875 -572.8251342773438 C 713.5822143554688 -572.8251342773438 713.4251098632813 -572.6679077148438 713.4251098632813 -572.4747314453125 C 713.4251098632813 -572.2819213867188 713.5822143554688 -572.1250610351563 713.7752685546875 -572.1250610351563 M 713.7752685546875 -571.8250732421875 C 713.416259765625 -571.8250732421875 713.1251220703125 -572.1162109375 713.1251220703125 -572.4747314453125 C 713.1251220703125 -572.8338623046875 713.416259765625 -573.1251220703125 713.7752685546875 -573.1251220703125 C 714.1337890625 -573.1251220703125 714.425048828125 -572.8338623046875 714.425048828125 -572.4747314453125 C 714.425048828125 -572.1162109375 714.1337890625 -571.8250732421875 713.7752685546875 -571.8250732421875 Z" stroke="none" fill="#ffd774"/>
      </g>
      <g id="패스_1563" data-name="패스 1563" transform="translate(-6.64 -7.869)" fill="none" stroke-miterlimit="10">
        <path d="M708.925-572.475a.65.65,0,0,1-.65.65.65.65,0,0,1-.65-.65.65.65,0,0,1,.65-.65A.65.65,0,0,1,708.925-572.475Z" stroke="none"/>
        <path d="M 708.275146484375 -572.1250610351563 C 708.468017578125 -572.1250610351563 708.6249389648438 -572.2819213867188 708.6249389648438 -572.4747314453125 C 708.6249389648438 -572.6679077148438 708.468017578125 -572.8251342773438 708.275146484375 -572.8251342773438 C 708.0820922851563 -572.8251342773438 707.9249877929688 -572.6679077148438 707.9249877929688 -572.4747314453125 C 707.9249877929688 -572.2819213867188 708.0820922851563 -572.1250610351563 708.275146484375 -572.1250610351563 M 708.275146484375 -571.8250732421875 C 707.9161376953125 -571.8250732421875 707.625 -572.1162109375 707.625 -572.4747314453125 C 707.625 -572.8338623046875 707.9161376953125 -573.1251220703125 708.275146484375 -573.1251220703125 C 708.6336669921875 -573.1251220703125 708.9249267578125 -572.8338623046875 708.9249267578125 -572.4747314453125 C 708.9249267578125 -572.1162109375 708.6336669921875 -571.8250732421875 708.275146484375 -571.8250732421875 Z" stroke="none" fill="#ffd774"/>
      </g>
      <g id="패스_1564" data-name="패스 1564" transform="translate(-3.373 -7.869)" fill="none" stroke-miterlimit="10">
        <path d="M703.425-572.475a.65.65,0,0,1-.65.65.65.65,0,0,1-.65-.65.65.65,0,0,1,.65-.65A.65.65,0,0,1,703.425-572.475Z" stroke="none"/>
        <path d="M 702.775390625 -572.1250610351563 C 702.9682006835938 -572.1250610351563 703.1250610351563 -572.2819213867188 703.1250610351563 -572.4747314453125 C 703.1250610351563 -572.6679077148438 702.9682006835938 -572.8251342773438 702.775390625 -572.8251342773438 C 702.582275390625 -572.8251342773438 702.4251098632813 -572.6679077148438 702.4251098632813 -572.4747314453125 C 702.4251098632813 -572.2819213867188 702.582275390625 -572.1250610351563 702.775390625 -572.1250610351563 M 702.775390625 -571.8250732421875 C 702.416259765625 -571.8250732421875 702.1251220703125 -572.1162109375 702.1251220703125 -572.4747314453125 C 702.1251220703125 -572.8338623046875 702.416259765625 -573.1251220703125 702.775390625 -573.1251220703125 C 703.1339111328125 -573.1251220703125 703.425048828125 -572.8338623046875 703.425048828125 -572.4747314453125 C 703.425048828125 -572.1162109375 703.1339111328125 -571.8250732421875 702.775390625 -571.8250732421875 Z" stroke="none" fill="#ffd774"/>
      </g>
      <g id="사각형_1856" data-name="사각형 1856" transform="translate(698.298 -586.375)" stroke="#ffd774" stroke-miterlimit="10" stroke-width="3.652">
        <rect id="fill" width="0.761" height="1.168" rx="0.381" stroke="none"/>
        <path d="M0,-0.6585919857025146h0.7614551782608032M1.8261566162109375,0v1.1675646305084229M0.7614551782608032,1.8261566162109375h-0.7614551782608032M-1.0647014379501343,1.1675646305084229v-1.1675646305084229" fill="none" clip-path="url(#clip)"/>
      </g>
      <g id="사각형_1857" data-name="사각형 1857" transform="translate(703.882 -586.375)" stroke="#ffd774" stroke-miterlimit="10" stroke-width="3.652">
        <rect id="fill-2" width="0.761" height="1.168" rx="0.381" stroke="none"/>
        <path d="M0,-0.6585919857025146h0.7614551782608032M1.8261566162109375,0v1.1675646305084229M0.7614551782608032,1.8261566162109375h-0.7614551782608032M-1.0647014379501343,1.1675646305084229v-1.1675646305084229" fill="none" clip-path="url(#clip-2)"/>
      </g>
    </g>
  </g>
</svg>
