<svg xmlns="http://www.w3.org/2000/svg" width="16.547" height="22.343" viewBox="0 0 16.547 22.343">
  <g id="그룹_518" data-name="그룹 518" transform="translate(-280 -851.825)" opacity="0.4">
    <g id="패스_1571" data-name="패스 1571" transform="translate(-519.38 1450.594)" fill="none">
      <path d="M815.412-590.368l-14.238,6.47-1.793.822v-15.259a.428.428,0,0,1,.6-.4l.634.277.3.129.258.109,14.229,6.232A.887.887,0,0,1,815.412-590.368Z" stroke="none"/>
      <path d="M 800.8800048828125 -585.4116821289063 L 813.5355224609375 -591.16259765625 L 800.8800048828125 -596.7060546875 L 800.8800048828125 -585.4116821289063 M 799.3800048828125 -583.0750122070313 L 799.3800048828125 -598.333984375 C 799.3800048828125 -598.5858764648438 799.5801391601563 -598.7689819335938 799.8064575195313 -598.7689819335938 C 799.864990234375 -598.7689819335938 799.92529296875 -598.7567749023438 799.984375 -598.7302856445313 L 800.6185302734375 -598.452880859375 L 800.915771484375 -598.3240966796875 L 801.1734619140625 -598.215087890625 L 815.4019775390625 -591.982666015625 C 816.095458984375 -591.675537109375 816.10546875 -590.6846923828125 815.4117431640625 -590.3676147460938 L 801.1734619140625 -583.8974609375 L 799.3800048828125 -583.0750122070313 Z" stroke="none" fill="#707070"/>
    </g>
    <rect id="사각형_1861" data-name="사각형 1861" width="1.661" height="22.149" rx="0.831" transform="translate(280 852.019)" fill="#707070"/>
  </g>
</svg>
