<svg xmlns="http://www.w3.org/2000/svg" width="22.987" height="20.541" viewBox="0 0 22.987 20.541">
  <g id="구성_요소_33_126" data-name="구성 요소 33 – 126" transform="translate(0.75 0.756)" opacity="0.21">
    <path id="패스_249" data-name="패스 249" d="M-1066.824-981.8a5.706,5.706,0,0,0-3.684-4.34,5.092,5.092,0,0,0-4.152.217,6.256,6.256,0,0,0-2.557,2.5c-.055.093-.108.187-.172.3-.175-.276-.321-.53-.489-.769a5.446,5.446,0,0,0-4.03-2.539,5.3,5.3,0,0,0-3.907,1.131,6.093,6.093,0,0,0-2.283,4.3,7.059,7.059,0,0,0,1.251,4.744,15.427,15.427,0,0,0,2.675,3.054c2.1,1.87,4.229,3.7,6.35,5.55a.638.638,0,0,0,.908-.044c1.694-1.462,3.393-2.919,5.08-4.389a24.023,24.023,0,0,0,3.447-3.542,8.241,8.241,0,0,0,1.552-3.13c.081-.353.124-.714.185-1.071v-.924C-1066.706-981.1-1066.741-981.459-1066.824-981.8Z" transform="translate(1088.136 986.483)" fill="none" stroke="#000" stroke-linecap="round" stroke-linejoin="round" stroke-miterlimit="10" stroke-width="1.5"/>
  </g>
</svg>
