<svg xmlns="http://www.w3.org/2000/svg" width="7.861" height="10" viewBox="0 0 7.861 10">
  <g id="그룹_524" data-name="그룹 524" transform="translate(0)">
    <path id="패스_250" data-name="패스 250" d="M-1563.393-1199.734c.157.024.315.04.469.074a3.874,3.874,0,0,1,2.872,2.33,3.86,3.86,0,0,1,.171,2.6,8.561,8.561,0,0,1-3.217,4.8.9.9,0,0,1-1.122.01,8.528,8.528,0,0,1-2.511-2.919,8.24,8.24,0,0,1-.766-2.078,3.876,3.876,0,0,1,.27-2.532,3.875,3.875,0,0,1,1.676-1.793,3.791,3.791,0,0,1,1.536-.468.543.543,0,0,0,.074-.017Zm-.39.588c-.124.016-.366.032-.6.082a3.221,3.221,0,0,0-1.609.867,3.287,3.287,0,0,0-1,2.093,3.789,3.789,0,0,0,.156,1.407,7.965,7.965,0,0,0,2.93,4.273.338.338,0,0,0,.478,0,8,8,0,0,0,2.954-4.369,3.477,3.477,0,0,0-.066-2.175A3.4,3.4,0,0,0-1563.783-1199.146Z" transform="translate(1567.596 1199.734)" fill="#ffd774"/>
    <path id="패스_251" data-name="패스 251" d="M-1540.347-1174.2a1.685,1.685,0,0,0-1.685,1.679,1.679,1.679,0,0,0,1.679,1.682,1.68,1.68,0,0,0,1.681-1.681A1.685,1.685,0,0,0-1540.347-1174.2Zm-.01,2.773a1.093,1.093,0,0,1-1.089-1.1,1.1,1.1,0,0,1,1.1-1.09,1.1,1.1,0,0,1,1.089,1.1A1.093,1.093,0,0,1-1540.356-1171.425Z" transform="translate(1544.281 1176.445)" fill="#ffd774"/>
  </g>
</svg>
