<svg xmlns="http://www.w3.org/2000/svg" width="357.45" height="63" viewBox="0 0 357.45 63">
  <g id="그룹_2318" data-name="그룹 2318" transform="translate(-28 -511.212)">
    <rect id="사각형_3025" data-name="사각형 3025" width="354" height="63" rx="6" transform="translate(28 511.212)" fill="#f2f2ff"/>
    <text id="Grand_opening_sale_" data-name="Grand opening sale!" transform="translate(46 537.212)" fill="#343791" font-size="16" font-family="Helvetica"><tspan x="0" y="0">Grand opening sale!</tspan></text>
    <text id="Discounts_for_everyone_" data-name="Discounts for everyone!" transform="translate(46 559.212)" fill="#343791" font-size="16" font-family="Helvetica"><tspan x="0" y="0">Discounts for everyone!</tspan></text>
    <g id="그룹_1959" data-name="그룹 1959" transform="translate(299.963 464.754)">
      <path id="패스_2615" data-name="패스 2615" d="M78.283,84.51,35.529,109.193a1.175,1.175,0,0,1-1.568-.527L21.68,87.394a1.174,1.174,0,0,1,.328-1.622L64.761,61.089c.524-.3,14.336,4.669,14.336,4.669a2.558,2.558,0,0,1,1.688,2.752S78.806,84.208,78.283,84.51Z" transform="translate(0 -10.867)" fill="#fff"/>
      <path id="패스_2620" data-name="패스 2620" d="M230.906,87.137a1.907,1.907,0,0,1-.053.456,1.986,1.986,0,1,1,.053-.456Z" transform="translate(-153.122 -28.809)" fill="#f2f2ff"/>
      <path id="패스_2621" data-name="패스 2621" d="M243.047,67.029a7.592,7.592,0,0,1-.435,2.635,4.9,4.9,0,0,1-3.242,3.087l-.092.023a6.448,6.448,0,0,1-4.265-.417c-.107-.051-.214-.107-.318-.166a3.262,3.262,0,0,1-1.747-3.415,1.976,1.976,0,0,1,1.154.1.673.673,0,0,1-.018.094,2.017,2.017,0,0,0,1.207,2.205,4.073,4.073,0,0,0,.792.352,5.286,5.286,0,0,0,3.2.025c.059-.018.117-.038.176-.061a3.878,3.878,0,0,0,2.238-2.742,4.064,4.064,0,0,0-.336-3.415,2.57,2.57,0,0,0-2.086-1.054,6.317,6.317,0,0,0-.158-1.154,3.725,3.725,0,0,1,3.4,1.872A4.061,4.061,0,0,1,243.047,67.029Z" transform="translate(-157.56 -12.394)" fill="#666"/>
    </g>
    <g id="그룹_1960" data-name="그룹 1960" transform="translate(276.766 435.514)">
      <path id="패스_2622" data-name="패스 2622" d="M56.548,165.471a7.753,7.753,0,0,0,1.226-.158q.7-.14,1.371-.277l1.558-.261,1.192-.156q.466-.056,1.011-.069a4.853,4.853,0,0,1,1.069.093,3.47,3.47,0,0,1,1,.367,2.234,2.234,0,0,1,.792.752,2.336,2.336,0,0,1,.414,1.791,4.8,4.8,0,0,1-.711,1.694,13.949,13.949,0,0,1-2.054,2.543,9.625,9.625,0,0,1-.787.67,8.2,8.2,0,0,1-.849.563,12.915,12.915,0,0,1-1.38.692,1.941,1.941,0,0,1-.983.178.7.7,0,0,1-.635-.451q-.256-.564.058-.853a2.508,2.508,0,0,1,.745-.467,4.185,4.185,0,0,0,.6-.257q.3-.156.515-.28a5.329,5.329,0,0,0,.748-.522q.348-.29.622-.556a10,10,0,0,0,1.152-1.362,9.457,9.457,0,0,0,.876-1.593,2.473,2.473,0,0,0,.164-.486.521.521,0,0,0-.008-.352q-.124-.213-.689-.206a11.519,11.519,0,0,0-1.246.063q-.57.062-1.444.213l-1.627.266q-.657.1-1.216.206t-.93.147a5.177,5.177,0,0,1-1.331-.084,1.732,1.732,0,0,1-1.063-.667,2.174,2.174,0,0,1-.462-1.228,2.371,2.371,0,0,1,.306-1.317q.326-.544.795-1.333a7.382,7.382,0,0,1,1.173-1.48,11.4,11.4,0,0,1,.9-.787,9.224,9.224,0,0,1,1.146-.788c.124-.072.26-.156.406-.253a2.433,2.433,0,0,1,.421-.226,1.457,1.457,0,0,1,.885-.1.851.851,0,0,1,.616.48q.406.762-.525,1.123-.229.1-.437.2a2.558,2.558,0,0,0-.406.253,11.013,11.013,0,0,0-1.035.8,8.877,8.877,0,0,0-.938,1.024q-.33.476-.658.986a7.474,7.474,0,0,0-.558,1.035.406.406,0,0,0-.008.325A.194.194,0,0,0,56.548,165.471Z" transform="translate(0 -55.061)" fill="#bebeff" stroke="#bebeff" stroke-miterlimit="10" stroke-width="0.29"/>
      <path id="패스_2623" data-name="패스 2623" d="M104.9,152.058a.739.739,0,0,1,.009.6.631.631,0,0,1-.394.335,1.033,1.033,0,0,1-.855-.093,1.543,1.543,0,0,1-.478-.488l-.185-.32a24.538,24.538,0,0,1-1.1-2.853q-.512-1.591-.918-3.03-.467-1.974-.751-3.91a16.854,16.854,0,0,1-.187-3.489.72.72,0,0,1,.345-.573,1.208,1.208,0,0,1,.63-.2.832.832,0,0,1,.5.28,1,1,0,0,1,.223.477,17.579,17.579,0,0,0,.2,3.143q.244,1.622.632,3.214.215.8.476,1.683t.564,1.774q.3.893.628,1.791T104.9,152.058Zm-1.916-12.1a.614.614,0,0,1,.3-.371.942.942,0,0,1,.422-.1,1.1,1.1,0,0,1,.427.091,1.319,1.319,0,0,1,.359.22,17.976,17.976,0,0,1,1.553,1.451q.884.912,1.639,1.722.654.762,1.264,1.352t1.067,1.074l1.508,1.62a1.3,1.3,0,0,1,.229.58.635.635,0,0,1-.295.6.751.751,0,0,1-.708.161,1.687,1.687,0,0,1-.673-.394l-2.434-2.543q-.663.456-1.441,1.048t-1.277,1.024a.955.955,0,0,1-.635.226q-.373,0-.6-.509a1,1,0,0,1,.2-1.255q.434-.358,1.14-.891t1.342-.973l-.858-.928q-.474-.509-.985-1.086a11.451,11.451,0,0,0-1.08-1.066,2.423,2.423,0,0,1-.477-.454A.575.575,0,0,1,102.984,139.955Z" transform="translate(-34.629 -39.123)" fill="#bebeff" stroke="#bebeff" stroke-miterlimit="10" stroke-width="0.29"/>
      <path id="패스_2624" data-name="패스 2624" d="M143.449,132.444a.767.767,0,0,1,.084.7,1.394,1.394,0,0,1-.394.549,9.131,9.131,0,0,1-1.324,1.034q-.751.488-1.481.947l-.347.2q-.918.567-1.882,1.055t-1.944.948a1.157,1.157,0,0,1-1.084,0,1.861,1.861,0,0,1-.775-.816q-.642-1.231-1.266-2.4t-1.319-2.37l-.448-.773q-.54-.933-1.04-1.766t-1.125-1.788a1.67,1.67,0,0,1-.3-.7q-.04-.315.36-.547a.752.752,0,0,1,.707-.071,1.586,1.586,0,0,1,.6.488q.6.792,1.145,1.669t1.081,1.743l1,1.734q.54.934,1.031,1.842t.978,1.873q.938-.471,1.8-.918t1.717-.941q.746-.432,1.478-.892t1.474-.96a1.739,1.739,0,0,1,.669-.227Q143.2,132.017,143.449,132.444Z" transform="translate(-56.401 -30.469)" fill="#bebeff" stroke="#bebeff" stroke-miterlimit="10" stroke-width="0.29"/>
      <path id="패스_2625" data-name="패스 2625" d="M171.016,90.409q1-.434,1.957-.956t1.816-1.016q1.12-.649,2.114-1.331l.689-.47a1.7,1.7,0,0,1,.933-.326.829.829,0,0,1,.693.489q.309.534.085.823a3.474,3.474,0,0,1-.7.637q-.968.667-2.2,1.433t-2.206,1.3a16.619,16.619,0,0,0,.528,3.772,12.95,12.95,0,0,0,1.289,3.118,2.821,2.821,0,0,0,1.318,1.231,1.978,1.978,0,0,0,.971.078,3.4,3.4,0,0,0,1.228-.462,10.693,10.693,0,0,0,2.382-1.914,3.616,3.616,0,0,0,.335-.5,3.121,3.121,0,0,1,.362-.513.324.324,0,0,1,.332-.1,1.252,1.252,0,0,1,.4.162,1.941,1.941,0,0,1,.371.3,1.7,1.7,0,0,1,.239.289.906.906,0,0,1,.091.588,2.017,2.017,0,0,1-.378.824,10.163,10.163,0,0,1-1.472,1.333,16.7,16.7,0,0,1-1.717,1.155,5.374,5.374,0,0,1-2.148.781,3.8,3.8,0,0,1-1.84-.287A4.416,4.416,0,0,1,175.2,99.9a7.02,7.02,0,0,1-1.059-1.4,15.4,15.4,0,0,1-1.11-2.562,17.269,17.269,0,0,1-.8-3.879.853.853,0,0,1-.661.027,1.289,1.289,0,0,1-.546-.574,2.4,2.4,0,0,1-.206-.54A.478.478,0,0,1,171.016,90.409Zm4.86,3.6a10.224,10.224,0,0,1,1.1-.813q.571-.366,1.329-.841a6.858,6.858,0,0,1,.659-.4c.2-.1.408-.219.621-.342l.933-.541a1.094,1.094,0,0,1,1.074-.052,1.659,1.659,0,0,1,.757.63.618.618,0,0,1,.06.535.766.766,0,0,1-.43.427,1.589,1.589,0,0,0-.282.128l-.267.154-.827.479-.227.131a1.525,1.525,0,0,0-.238.173c-.089.052-.175.107-.259.168s-.188.127-.312.2q-.571.367-1.226.835t-1.447,1.069a.946.946,0,0,1-.747.094,1.387,1.387,0,0,1-.755-.72.658.658,0,0,1-.033-.764A3.1,3.1,0,0,1,175.876,94Z" transform="translate(-88.158 0)" fill="#bebeff" stroke="#bebeff" stroke-miterlimit="10" stroke-width="0.29"/>
    </g>
  </g>
</svg>
