<svg xmlns="http://www.w3.org/2000/svg" xmlns:xlink="http://www.w3.org/1999/xlink" width="78.479" height="64.402" viewBox="0 0 78.479 64.402">
  <defs>
    <filter id="합치기_1" x="0" y="0" width="56.611" height="56.611" filterUnits="userSpaceOnUse">
      <feOffset dy="2" input="SourceAlpha"/>
      <feGaussianBlur stdDeviation="1.5" result="blur"/>
      <feFlood flood-color="#7a7aa8" flood-opacity="0.322"/>
      <feComposite operator="in" in2="blur"/>
      <feComposite in="SourceGraphic"/>
    </filter>
    <linearGradient id="linear-gradient" x1="0.195" y1="0.157" x2="0.572" y2="0.969" gradientUnits="objectBoundingBox">
      <stop offset="0" stop-color="#9b9bfd"/>
      <stop offset="1" stop-color="#8585f8"/>
    </linearGradient>
    <filter id="타원_104" x="0.887" y="1.737" width="55.136" height="55.136" filterUnits="userSpaceOnUse">
      <feOffset dy="3" input="SourceAlpha"/>
      <feGaussianBlur stdDeviation="3" result="blur-2"/>
      <feFlood flood-opacity="0.161"/>
      <feComposite operator="in" in2="blur-2"/>
      <feComposite in="SourceGraphic"/>
    </filter>
    <linearGradient id="linear-gradient-2" x1="0.212" y1="0.19" x2="1.24" y2="1" gradientUnits="objectBoundingBox">
      <stop offset="0" stop-color="#8787ff"/>
      <stop offset="1" stop-color="#b7c0fc"/>
    </linearGradient>
    <filter id="합치기_9" x="12.24" y="20.305" width="66.239" height="44.096" filterUnits="userSpaceOnUse">
      <feOffset dy="3" input="SourceAlpha"/>
      <feGaussianBlur stdDeviation="3" result="blur-3"/>
      <feFlood flood-color="#5f5f5f" flood-opacity="0.271"/>
      <feComposite operator="in" in2="blur-3"/>
      <feComposite in="SourceGraphic"/>
    </filter>
  </defs>
  <g id="그룹_2310" data-name="그룹 2310" transform="translate(-319.521 -45.222)">
    <g id="그룹_1765" data-name="그룹 1765" transform="translate(324.021 47.722)">
      <g id="그룹_636" data-name="그룹 636" transform="translate(0 0)">
        <g transform="matrix(1, 0, 0, 1, -4.5, -2.5)" filter="url(#합치기_1)">
          <path id="합치기_1-2" data-name="합치기 1" d="M23.805,0A23.805,23.805,0,1,1,0,23.805,23.805,23.805,0,0,1,23.805,0Z" transform="translate(4.5 2.5)" fill="#fff"/>
        </g>
        <path id="합치기_8" data-name="합치기 8" d="M20.338,0A20.338,20.338,0,1,1,0,20.338,20.338,20.338,0,0,1,20.338,0Z" transform="translate(3.467 3.467)" opacity="0.84" fill="url(#linear-gradient)"/>
      </g>
      <g transform="matrix(1, 0, 0, 1, -4.5, -2.5)" filter="url(#타원_104)">
        <ellipse id="타원_104-2" data-name="타원 104" cx="18.568" cy="18.568" rx="18.568" ry="18.568" transform="translate(9.89 7.74)" fill="#fff"/>
      </g>
    </g>
    <g transform="matrix(1, 0, 0, 1, 319.52, 45.22)" filter="url(#합치기_9)">
      <path id="합치기_9-2" data-name="합치기 9" d="M29.655,24.226a11.629,11.629,0,0,1-11.862.467,11.609,11.609,0,0,1-5.536,1.4C5.488,26.1,0,20.255,0,13.048S5.488,0,12.257,0a11.609,11.609,0,0,1,5.536,1.4,11.629,11.629,0,0,1,11.862.467A11.652,11.652,0,0,1,35.981,0c6.77,0,12.257,5.842,12.257,13.048S42.751,26.1,35.981,26.1A11.651,11.651,0,0,1,29.655,24.226Z" transform="translate(21.24 26.31)" fill="url(#linear-gradient-2)"/>
    </g>
  </g>
</svg>
