<svg xmlns="http://www.w3.org/2000/svg" xmlns:xlink="http://www.w3.org/1999/xlink" width="79.979" height="64.902" viewBox="0 0 79.979 64.902">
  <defs>
    <filter id="합치기_1" x="0" y="0" width="59.611" height="59.611" filterUnits="userSpaceOnUse">
      <feOffset dy="3" input="SourceAlpha"/>
      <feGaussianBlur stdDeviation="2" result="blur"/>
      <feFlood flood-opacity="0.09"/>
      <feComposite operator="in" in2="blur"/>
      <feComposite in="SourceGraphic"/>
    </filter>
    <filter id="타원_104" x="2.387" y="2.237" width="55.136" height="55.136" filterUnits="userSpaceOnUse">
      <feOffset dy="3" input="SourceAlpha"/>
      <feGaussianBlur stdDeviation="3" result="blur-2"/>
      <feFlood flood-opacity="0.161"/>
      <feComposite operator="in" in2="blur-2"/>
      <feComposite in="SourceGraphic"/>
    </filter>
    <filter id="합치기_9" x="13.74" y="20.805" width="66.239" height="44.096" filterUnits="userSpaceOnUse">
      <feOffset dy="3" input="SourceAlpha"/>
      <feGaussianBlur stdDeviation="3" result="blur-3"/>
      <feFlood flood-color="#5f5f5f" flood-opacity="0.271"/>
      <feComposite operator="in" in2="blur-3"/>
      <feComposite in="SourceGraphic"/>
    </filter>
  </defs>
  <g id="그룹_2517" data-name="그룹 2517" transform="translate(-318.021 -44.722)">
    <g id="그룹_1765" data-name="그룹 1765" transform="translate(324.021 47.722)">
      <g id="그룹_636" data-name="그룹 636" transform="translate(0 0)">
        <g transform="matrix(1, 0, 0, 1, -6, -3)" filter="url(#합치기_1)">
          <path id="합치기_1-2" data-name="합치기 1" d="M23.805,0A23.805,23.805,0,1,1,0,23.805,23.805,23.805,0,0,1,23.805,0Z" transform="translate(6 3)" fill="#fff"/>
        </g>
        <path id="합치기_8" data-name="합치기 8" d="M20.338,0A20.338,20.338,0,1,1,0,20.338,20.338,20.338,0,0,1,20.338,0Z" transform="translate(3.467 3.467)" fill="#8d9cfe" opacity="0.84"/>
      </g>
      <g transform="matrix(1, 0, 0, 1, -6, -3)" filter="url(#타원_104)">
        <ellipse id="타원_104-2" data-name="타원 104" cx="18.568" cy="18.568" rx="18.568" ry="18.568" transform="translate(11.39 8.24)" fill="#fff"/>
      </g>
    </g>
    <g transform="matrix(1, 0, 0, 1, 318.02, 44.72)" filter="url(#합치기_9)">
      <path id="합치기_9-2" data-name="합치기 9" d="M29.655,24.226a11.629,11.629,0,0,1-11.862.467,11.609,11.609,0,0,1-5.536,1.4C5.488,26.1,0,20.255,0,13.048S5.488,0,12.257,0a11.609,11.609,0,0,1,5.536,1.4,11.629,11.629,0,0,1,11.862.467A11.652,11.652,0,0,1,35.981,0c6.77,0,12.257,5.842,12.257,13.048S42.751,26.1,35.981,26.1A11.651,11.651,0,0,1,29.655,24.226Z" transform="translate(22.74 26.81)" fill="#8797ff"/>
    </g>
  </g>
</svg>
