<svg xmlns="http://www.w3.org/2000/svg" xmlns:xlink="http://www.w3.org/1999/xlink" width="75.045" height="53.428" viewBox="0 0 75.045 53.428">
  <defs>
    <filter id="합치기_9" x="0" y="0" width="62.008" height="39.031" filterUnits="userSpaceOnUse">
      <feOffset dy="2" input="SourceAlpha"/>
      <feGaussianBlur stdDeviation="2" result="blur"/>
      <feFlood flood-color="#3b4b9b" flood-opacity="0.349"/>
      <feComposite operator="in" in2="blur"/>
      <feComposite in="SourceGraphic"/>
    </filter>
    <linearGradient id="linear-gradient" x1="0.892" y1="0.771" x2="0.227" y2="0.436" gradientUnits="objectBoundingBox">
      <stop offset="0" stop-color="#8e9dff"/>
      <stop offset="1" stop-color="#8787ff"/>
    </linearGradient>
    <filter id="합치기_9-2" x="19.713" y="9.671" width="55.332" height="34.065" filterUnits="userSpaceOnUse">
      <feOffset dy="2" input="SourceAlpha"/>
      <feGaussianBlur stdDeviation="1.5" result="blur-2"/>
      <feFlood flood-color="#303bab" flood-opacity="0.251"/>
      <feComposite operator="in" in2="blur-2"/>
      <feComposite in="SourceGraphic"/>
    </filter>
  </defs>
  <g id="그룹_2521" data-name="그룹 2521" transform="translate(-318.455 -215.122)">
    <g id="그룹_2495" data-name="그룹 2495" transform="translate(-2)">
      <g id="그룹_1407" data-name="그룹 1407" transform="translate(326.455 219.122)">
        <g transform="matrix(1, 0, 0, 1, -6, -4)" filter="url(#합치기_9)">
          <path id="합치기_9-3" data-name="합치기 9" d="M30.742,25.094a12.063,12.063,0,0,1-12.3.484,12.043,12.043,0,0,1-5.739,1.454C5.689,27.031,0,20.98,0,13.515S5.689,0,12.707,0a12.043,12.043,0,0,1,5.739,1.454,12.064,12.064,0,0,1,12.3.483A12.086,12.086,0,0,1,37.3,0c7.018,0,12.707,6.051,12.707,13.515S44.319,27.031,37.3,27.031A12.086,12.086,0,0,1,30.742,25.094Z" transform="translate(6 4)" fill="#fff"/>
        </g>
      </g>
      <g id="그룹_1406" data-name="그룹 1406" transform="translate(324.021 244.032)">
        <line id="선_395" data-name="선 395" x1="1.648" y2="3.379" transform="translate(42.831 7.413)" fill="none" stroke="#c1c9fc" stroke-linecap="round" stroke-width="2.5"/>
        <line id="선_144" data-name="선 144" x1="3.641" y2="7.282" transform="translate(4 3)" fill="none" stroke="#c1c9fc" stroke-linecap="round" stroke-width="2.5"/>
        <line id="선_145" data-name="선 145" x1="5.462" y2="10.923" transform="translate(11.372 9.103)" fill="none" stroke="#c1c9fc" stroke-linecap="round" stroke-width="2.5"/>
        <line id="선_146" data-name="선 146" x1="2.731" y2="5.462" transform="translate(29.462 11.833)" fill="none" stroke="#c1c9fc" stroke-linecap="round" stroke-width="2.5"/>
        <line id="선_147" data-name="선 147" x1="1.648" y2="3.379" transform="translate(37.831 19.468)" fill="none" stroke="#c1c9fc" stroke-linecap="round" stroke-width="2.5"/>
        <line id="선_148" data-name="선 148" x1="4.551" y2="10.013" transform="translate(51.212 11.833)" fill="none" stroke="#c1c9fc" stroke-linecap="round" stroke-width="2.5"/>
      </g>
      <g id="그룹_1405" data-name="그룹 1405" transform="translate(344.668 227.292)">
        <g transform="matrix(1, 0, 0, 1, -24.21, -12.17)" filter="url(#합치기_9-2)">
          <path id="합치기_9-4" data-name="합치기 9" d="M28.483,23.269a11.169,11.169,0,0,1-11.393.448,11.15,11.15,0,0,1-5.317,1.348C5.271,25.065,0,19.454,0,12.532S5.271,0,11.773,0A11.15,11.15,0,0,1,17.09,1.348,11.169,11.169,0,0,1,28.483,1.8,11.191,11.191,0,0,1,34.559,0c6.5,0,11.773,5.611,11.773,12.532S41.061,25.065,34.559,25.065A11.191,11.191,0,0,1,28.483,23.269Z" transform="translate(24.21 12.17)" fill="url(#linear-gradient)"/>
        </g>
      </g>
    </g>
  </g>
</svg>
