<svg xmlns="http://www.w3.org/2000/svg" xmlns:xlink="http://www.w3.org/1999/xlink" width="61.974" height="63.037" viewBox="0 0 61.974 63.037">
  <defs>
    <filter id="타원_665" x="1.734" y="8.834" width="53.266" height="53.266" filterUnits="userSpaceOnUse">
      <feOffset dy="2" input="SourceAlpha"/>
      <feGaussianBlur stdDeviation="1.5" result="blur"/>
      <feFlood flood-color="#233c91" flood-opacity="0.349"/>
      <feComposite operator="in" in2="blur"/>
      <feComposite in="SourceGraphic"/>
    </filter>
    <linearGradient id="linear-gradient" x1="0.288" y1="0.273" x2="0.762" y2="0.881" gradientUnits="objectBoundingBox">
      <stop offset="0" stop-color="#bec2ef"/>
      <stop offset="1" stop-color="#8787ff"/>
    </linearGradient>
    <filter id="타원_104" x="3.164" y="11.264" width="50.406" height="50.406" filterUnits="userSpaceOnUse">
      <feOffset dy="3" input="SourceAlpha"/>
      <feGaussianBlur stdDeviation="3" result="blur-2"/>
      <feFlood flood-opacity="0.161"/>
      <feComposite operator="in" in2="blur-2"/>
      <feComposite in="SourceGraphic"/>
    </filter>
  </defs>
  <g id="그룹_2520" data-name="그룹 2520" transform="translate(-324.021 -128.453)">
    <g id="그룹_2496" data-name="그룹 2496">
      <ellipse id="타원_674" data-name="타원 674" cx="4.038" cy="4.038" rx="4.038" ry="4.038" transform="translate(324.021 183.413)" fill="#8797ff" opacity="0.15"/>
      <g id="그룹_1783" data-name="그룹 1783" transform="translate(330.255 128.453)">
        <ellipse id="타원_669" data-name="타원 669" cx="3.439" cy="3.439" rx="3.439" ry="3.439" transform="translate(48.863 0)" fill="#fff"/>
        <g id="그룹_1403" data-name="그룹 1403" transform="translate(0 11.334)">
          <g id="그룹_636" data-name="그룹 636" transform="translate(0 0)">
            <ellipse id="타원_664" data-name="타원 664" cx="19.281" cy="19.281" rx="19.281" ry="19.281" transform="translate(2.852 2.852)" fill="#fff" opacity="0.84"/>
            <g transform="matrix(1, 0, 0, 1, -6.23, -11.33)" filter="url(#타원_665)">
              <ellipse id="타원_665-2" data-name="타원 665" cx="22.133" cy="22.133" rx="22.133" ry="22.133" transform="translate(6.23 11.33)" fill="#fff" opacity="0.84"/>
            </g>
            <ellipse id="타원_666" data-name="타원 666" cx="19.28" cy="19.28" rx="19.28" ry="19.28" transform="translate(2.852 2.852)" fill="url(#linear-gradient)"/>
          </g>
          <g transform="matrix(1, 0, 0, 1, -6.23, -11.33)" filter="url(#타원_104)">
            <ellipse id="타원_104-2" data-name="타원 104" cx="16.203" cy="16.203" rx="16.203" ry="16.203" transform="translate(12.16 17.26)" fill="#fff"/>
          </g>
        </g>
        <ellipse id="타원_591" data-name="타원 591" cx="10.566" cy="10.566" rx="10.566" ry="10.566" transform="translate(27.73 9.275)" fill="#d9d8ff" opacity="0.48"/>
        <ellipse id="타원_670" data-name="타원 670" cx="4.597" cy="4.597" rx="4.597" ry="4.597" transform="translate(42.107 7.275)" fill="#e8e6ff" opacity="0.48"/>
      </g>
    </g>
  </g>
</svg>
