<svg xmlns="http://www.w3.org/2000/svg" width="16" height="17" viewBox="0 0 16 17">
  <path id="calendar" d="M6.694,3.2h7.111V1.5h1.778V3.2h.889A1.74,1.74,0,0,1,18.25,4.9V16.8a1.74,1.74,0,0,1-1.778,1.7H4.028A1.74,1.74,0,0,1,2.25,16.8V4.9A1.74,1.74,0,0,1,4.028,3.2h.889V1.5H6.694ZM3.7,5.127V16.8H16.8V5.127ZM9.361,9.15h1.778v1.7H9.361Zm3.556,0h1.778v1.7H12.917Zm0,3.4h1.778v1.7H12.917Zm-3.556,0h1.778v1.7H9.361Zm-3.556,0H7.583v1.7H5.806Z" transform="translate(-2.25 -1.5)" fill="#77f" fill-rule="evenodd" opacity="0.69"/>
</svg>
