<svg xmlns="http://www.w3.org/2000/svg" width="18" height="18" viewBox="0 0 18 18">
  <g id="_ver2_SERIES_아이콘_선_" data-name="(ver2) SERIES 아이콘 선 " transform="translate(714.824 -998.047)">
    <g id="사각형_2268" data-name="사각형 2268" transform="translate(-714.824 998.047)" fill="none" stroke="#000" stroke-linecap="round" stroke-miterlimit="10" stroke-width="1.3">
      <rect width="8.423" height="8.423" rx="4.212" stroke="none"/>
      <rect x="0.65" y="0.65" width="7.123" height="7.123" rx="3.562" fill="none"/>
    </g>
    <g id="패스_1891" data-name="패스 1891" transform="translate(-705.247 998.047)" fill="none" stroke-linecap="round">
      <path d="M1.716,0H6.707A1.715,1.715,0,0,1,8.423,1.715v4.99A1.715,1.715,0,0,1,6.707,8.42H1.716A1.715,1.715,0,0,1,0,6.705V1.715A1.715,1.715,0,0,1,1.716,0Z" stroke="none"/>
      <path d="M 1.715746879577637 1.299999237060547 C 1.486496925354004 1.299999237060547 1.299996852874756 1.486269474029541 1.299996852874756 1.715219497680664 L 1.299996852874756 6.705259323120117 C 1.299996852874756 6.93420934677124 1.486496925354004 7.120479583740234 1.715746879577637 7.120479583740234 L 6.707326889038086 7.120479583740234 C 6.936576843261719 7.120479583740234 7.123076915740967 6.93420934677124 7.123076915740967 6.705259323120117 L 7.123076915740967 1.715219497680664 C 7.123076915740967 1.486269474029541 6.936576843261719 1.299999237060547 6.707326889038086 1.299999237060547 L 1.715746879577637 1.299999237060547 M 1.715746879577637 -9.5367431640625e-07 L 6.707326889038086 -9.5367431640625e-07 C 7.654906749725342 -9.5367431640625e-07 8.423076629638672 0.7679295539855957 8.423076629638672 1.715219497680664 L 8.423076629638672 6.705259323120117 C 8.423076629638672 7.652549266815186 7.654906749725342 8.420479774475098 6.707326889038086 8.420479774475098 L 1.715746879577637 8.420479774475098 C 0.7681670188903809 8.420479774475098 -2.86102294921875e-06 7.652549266815186 -2.86102294921875e-06 6.705259323120117 L -2.86102294921875e-06 1.715219497680664 C -2.86102294921875e-06 0.7679295539855957 0.7681670188903809 -9.5367431640625e-07 1.715746879577637 -9.5367431640625e-07 Z" stroke="none" fill="#000"/>
    </g>
    <g id="사각형_2270" data-name="사각형 2270" transform="translate(-714.824 1007.624)" fill="none" stroke="#000" stroke-linecap="round" stroke-miterlimit="10" stroke-width="1.3">
      <rect width="8.423" height="8.423" rx="2.431" stroke="none"/>
      <rect x="0.65" y="0.65" width="7.123" height="7.123" rx="1.781" fill="none"/>
    </g>
    <g id="패스_1892" data-name="패스 1892" transform="translate(-705.247 1007.624)" fill="none" stroke-linecap="round">
      <path d="M1.716,0H6.707A1.716,1.716,0,0,1,8.423,1.716V6.707A1.716,1.716,0,0,1,6.707,8.423H1.716A1.716,1.716,0,0,1,0,6.707V1.716A1.716,1.716,0,0,1,1.716,0Z" stroke="none"/>
      <path d="M 1.715746879577637 1.299996852874756 C 1.486496925354004 1.299996852874756 1.299996852874756 1.486496925354004 1.299996852874756 1.715746879577637 L 1.299996852874756 6.707326889038086 C 1.299996852874756 6.936576843261719 1.486496925354004 7.123076915740967 1.715746879577637 7.123076915740967 L 6.707326889038086 7.123076915740967 C 6.936576843261719 7.123076915740967 7.123076915740967 6.936576843261719 7.123076915740967 6.707326889038086 L 7.123076915740967 1.715746879577637 C 7.123076915740967 1.486496925354004 6.936576843261719 1.299996852874756 6.707326889038086 1.299996852874756 L 1.715746879577637 1.299996852874756 M 1.715746879577637 -2.86102294921875e-06 L 6.707326889038086 -2.86102294921875e-06 C 7.654906749725342 -2.86102294921875e-06 8.423076629638672 0.7681670188903809 8.423076629638672 1.715746879577637 L 8.423076629638672 6.707326889038086 C 8.423076629638672 7.654906749725342 7.654906749725342 8.423076629638672 6.707326889038086 8.423076629638672 L 1.715746879577637 8.423076629638672 C 0.7681670188903809 8.423076629638672 -2.86102294921875e-06 7.654906749725342 -2.86102294921875e-06 6.707326889038086 L -2.86102294921875e-06 1.715746879577637 C -2.86102294921875e-06 0.7681670188903809 0.7681670188903809 -2.86102294921875e-06 1.715746879577637 -2.86102294921875e-06 Z" stroke="none" fill="#000"/>
    </g>
  </g>
</svg>
