<svg xmlns="http://www.w3.org/2000/svg" width="21.406" height="21.381" viewBox="0 0 21.406 21.381">
  <g id="그룹_1495" data-name="그룹 1495" transform="translate(-32 -207.818)">
    <g id="그룹_1435" data-name="그룹 1435" transform="translate(-804.132 -178.182)">
      <g id="그룹_1433" data-name="그룹 1433" transform="translate(836.132 388.673)">
        <g id="그룹_1432" data-name="그룹 1432">
          <path id="패스_2072" data-name="패스 2072" d="M840,389.025a2.927,2.927,0,0,1,1.426,1.188,18.95,18.95,0,0,1,1.321,1.972c.161.257.286.537.439.8a2.057,2.057,0,0,1-.25,2.674,1.116,1.116,0,0,0-.126,1.492,9.828,9.828,0,0,0,3.924,3.886,1.1,1.1,0,0,0,1.449-.113,1.984,1.984,0,0,1,2.7-.266c1.111.73,2.257,1.42,3.3,2.242.873.69.873,1.094.379,2.094a4.927,4.927,0,0,1-2.176,2.466,4.008,4.008,0,0,1-3.171-.2,22.112,22.112,0,0,1-6.033-3.762,23,23,0,0,1-5.78-7.155c-.512-1.049-.85-2.183-1.267-3.278a3.309,3.309,0,0,1,1.007-2.652,7.706,7.706,0,0,1,2-1.26A1.31,1.31,0,0,1,840,389.025Z" transform="translate(-836.132 -389)" fill="#8797ff"/>
        </g>
      </g>
      <path id="패스_2073" data-name="패스 2073" d="M849.32,386a8.938,8.938,0,0,0-6.45,2.753c.089.116.187.232.276.339.223.276.428.561.615.846a7.489,7.489,0,1,1,10.53,10.619c.41.276.811.57,1.212.873A8.954,8.954,0,0,0,849.32,386Z" transform="translate(-0.735)" fill="#8797ff"/>
      <g id="그룹_1434" data-name="그룹 1434" transform="translate(847.532 389.712)">
        <path id="패스_2074" data-name="패스 2074" d="M849.227,398.723a.986.986,0,0,1-.3-.723,1.006,1.006,0,0,1,.3-.73.961.961,0,0,1,.711-.306A1.043,1.043,0,0,1,850.973,398a.975.975,0,0,1-.306.723,1.006,1.006,0,0,1-.73.3A.971.971,0,0,1,849.227,398.723Zm.524-3.218a.226.226,0,0,1-.156-.062.24.24,0,0,1-.081-.137l-.486-3.481V390.4a.236.236,0,0,1,.069-.162.216.216,0,0,1,.168-.075h1.372a.216.216,0,0,1,.168.075.236.236,0,0,1,.069.162v1.4l-.486,3.5a.239.239,0,0,1-.081.137.224.224,0,0,1-.156.062Z" transform="translate(-848.928 -390.167)" fill="#8797ff"/>
      </g>
    </g>
  </g>
</svg>
