<svg xmlns="http://www.w3.org/2000/svg" width="22.818" height="22.818" viewBox="0 0 22.818 22.818">
  <g id="x-square" opacity="0.572">
    <path id="패스_2750" data-name="패스 2750" d="M19.966,1.426H2.852A1.426,1.426,0,0,0,1.426,2.852V19.966a1.426,1.426,0,0,0,1.426,1.426H19.966a1.426,1.426,0,0,0,1.426-1.426V2.852A1.426,1.426,0,0,0,19.966,1.426ZM2.852,0A2.852,2.852,0,0,0,0,2.852V19.966a2.852,2.852,0,0,0,2.852,2.852H19.966a2.852,2.852,0,0,0,2.852-2.852V2.852A2.852,2.852,0,0,0,19.966,0Z" fill-rule="evenodd"/>
    <path id="패스_2751" data-name="패스 2751" d="M20.2,9.208a.713.713,0,0,1,0,1.01L10.217,20.2a.714.714,0,1,1-1.01-1.01L19.19,9.208a.713.713,0,0,1,1.01,0Z" transform="translate(-3.295 -3.295)" fill-rule="evenodd"/>
    <path id="패스_2752" data-name="패스 2752" d="M9.208,9.208a.713.713,0,0,0,0,1.01L19.191,20.2a.714.714,0,1,0,1.01-1.01L10.218,9.208a.713.713,0,0,0-1.01,0Z" transform="translate(-3.295 -3.295)" fill-rule="evenodd"/>
  </g>
</svg>
