<svg xmlns="http://www.w3.org/2000/svg" width="17" height="17" viewBox="0 0 17 17">
  <path id="time" d="M8.5.125a8.181,8.181,0,0,1,6.012,2.494A8.2,8.2,0,0,1,17,8.625a8.2,8.2,0,0,1-2.488,6.006A8.181,8.181,0,0,1,8.5,17.125a8.181,8.181,0,0,1-6.012-2.494A8.2,8.2,0,0,1,0,8.625,8.2,8.2,0,0,1,2.488,2.619,8.181,8.181,0,0,1,8.5.125Zm0,15.324a6.531,6.531,0,0,0,4.8-1.995,6.585,6.585,0,0,0,1.99-4.829A6.585,6.585,0,0,0,13.3,3.8,6.531,6.531,0,0,0,8.5,1.8,6.531,6.531,0,0,0,3.7,3.8a6.585,6.585,0,0,0-1.99,4.829A6.585,6.585,0,0,0,3.7,13.454,6.531,6.531,0,0,0,8.5,15.449ZM8.918,4.355v4.47L12.739,11.1,12.1,12.177,7.643,9.464V4.355H8.917Z" transform="translate(0 -0.125)" fill="#77f" opacity="0.69"/>
</svg>
