<svg xmlns="http://www.w3.org/2000/svg" width="21" height="27.389" viewBox="0 0 21 27.389">
  <g id="Map_어트랙션_아이콘" data-name="Map 어트랙션 아이콘" transform="translate(-1913 -3944)">
    <g id="그룹_1470" data-name="그룹 1470" transform="translate(-54 133.768)">
      <path id="합치기_37" data-name="합치기 37" d="M-11-122.407c0-.145,0-.289.009-.432s-.009-.285-.009-.428a10.5,10.5,0,0,1,10.5-10.5,10.5,10.5,0,0,1,10.5,10.5c0,.143,0,.286-.009.428s.009.287.009.432c0,5.85-8.961,16.028-10.5,16.028S-11-116.557-11-122.407Z" transform="translate(1978 3944)" fill="#ab9bf7"/>
    </g>
    <g id="그룹_1471" data-name="그룹 1471" transform="translate(-1844.832 1068.401)">
      <g id="그룹_906" data-name="그룹 906" transform="translate(3762.711 2879.979)">
        <g id="패스_1743" data-name="패스 1743" transform="translate(0.289 4.4)" fill="#fff">
          <path d="M 0.985011875629425 2.765514850616455 C 0.7134570479393005 2.125592470169067 0.3290801644325256 0.9614127278327942 0.506543755531311 -0.1935890465974808 C 0.6258037686347961 -0.969709038734436 1.027283787727356 -2.774899005889893 2.176813840866089 -2.774899005889893 C 2.38693380355835 -2.774899005889893 2.665363788604736 -2.717499017715454 2.955793857574463 -2.269938945770264 C 3.183843851089478 -1.918509006500244 3.361783742904663 -1.407449007034302 3.470383644104004 -0.7920090556144714 C 3.597148895263672 -0.07363198697566986 3.362098932266235 1.372184038162231 3.188163757324219 2.228824138641357 L 0.985011875629425 2.765514850616455 Z" stroke="none"/>
          <path d="M 2.17681360244751 -2.024899244308472 C 2.116103649139404 -2.024899244308472 2.003093719482422 -2.024899244308472 1.822973728179932 -1.779819250106812 C 1.674753665924072 -1.578169226646423 1.402953863143921 -1.089139342308044 1.247843742370605 -0.07968927919864655 C 1.141246318817139 0.6140797138214111 1.280723333358765 1.325700640678406 1.455113172531128 1.879065752029419 L 2.542007446289062 1.614296793937683 C 2.69352388381958 0.7617658972740173 2.810376644134521 -0.2163209021091461 2.731793880462646 -0.6616693139076233 C 2.57769250869751 -1.534981966018677 2.298500537872314 -1.957897424697876 2.188677310943604 -2.024490833282471 C 2.18599796295166 -2.024702310562134 2.182087182998657 -2.024899244308472 2.17681360244751 -2.024899244308472 M 2.17681360244751 -3.524899244308472 C 3.43618369102478 -3.524899244308472 3.995063781738281 -2.134549379348755 4.20897388458252 -0.9223393201828003 C 4.422873497009277 0.2898707091808319 3.821513652801514 2.846470832824707 3.821513652801514 2.846470832824707 L 0.5723936557769775 3.63796067237854 C 0.5723936557769775 3.63796067237854 -0.5428664684295654 1.697760701179504 -0.2347562313079834 -0.307489275932312 C 0.0733637809753418 -2.312739372253418 0.9174537658691406 -3.524899244308472 2.17681360244751 -3.524899244308472 Z" stroke="none" fill="#fff"/>
        </g>
        <g id="패스_1744" data-name="패스 1744" transform="translate(1.377 8.952) rotate(-16)" fill="#fff">
          <path d="M 1.66293728351593 1.385468482971191 C 1.489187359809875 1.385468482971191 1.235837340354919 1.351488590240479 1.015517354011536 1.189578533172607 C 0.8716590404510498 1.083860516548157 0.8021014332771301 0.9174606800079346 0.7715335488319397 0.7499985098838806 L 2.531893491744995 0.7499985098838806 C 2.506340742111206 0.9363516569137573 2.467842578887939 1.087633371353149 2.423009157180786 1.15076208114624 C 2.320064306259155 1.249832034111023 2.021621465682983 1.385468482971191 1.66293728351593 1.385468482971191 Z" stroke="none"/>
          <path d="M 0.05180740356445312 -1.430511474609375e-06 L 3.307007312774658 -1.430511474609375e-06 C 3.307007312774658 -1.430511474609375e-06 3.392097234725952 1.237108588218689 2.961327314376831 1.673148512840271 C 2.53055739402771 2.10917854309082 1.385187387466431 2.39197850227356 0.5713872909545898 1.793938517570496 C -0.2424025535583496 1.195888519287109 0.05180740356445312 -1.430511474609375e-06 0.05180740356445312 -1.430511474609375e-06 Z" stroke="none" fill="#fff"/>
        </g>
      </g>
      <g id="그룹_907" data-name="그룹 907" transform="translate(3768.811 2882.075)">
        <g id="패스_1743-2" data-name="패스 1743" transform="translate(0.879 4.548)" fill="#fff">
          <path d="M 2.827404022216797 2.624432802200317 L 0.6304620504379272 2.042103052139282 C 0.5191456079483032 1.237765312194824 0.3866414427757263 -0.07539192587137222 0.5130908489227295 -0.7920085787773132 C 0.6216908693313599 -1.407448530197144 0.799630880355835 -1.918508529663086 1.02768087387085 -2.269938468933105 C 1.318110823631287 -2.717498540878296 1.596540808677673 -2.774898529052734 1.806660890579224 -2.774898529052734 C 2.956190824508667 -2.774898529052734 3.357670783996582 -0.9697085618972778 3.476930856704712 -0.1935785561800003 C 3.65198540687561 0.9457165598869324 3.15396785736084 2.048840284347534 2.827404022216797 2.624432802200317 Z" stroke="none"/>
          <path d="M 1.806660890579224 -2.024898767471313 C 1.801387548446655 -2.024898767471313 1.797476768493652 -2.024702072143555 1.794797420501709 -2.024490356445312 C 1.684973955154419 -1.957896947860718 1.405782222747803 -1.534981608390808 1.251680850982666 -0.6616787910461426 C 1.171479940414429 -0.2071555852890015 1.222473382949829 0.6643169522285461 1.310790777206421 1.44653046131134 L 2.431364059448242 1.743552923202515 C 2.647243738174438 1.243972897529602 2.837038516998291 0.5803027153015137 2.735630989074707 -0.07967880368232727 C 2.580520868301392 -1.089138746261597 2.308720827102661 -1.578168749809265 2.160501003265381 -1.779818773269653 C 1.980380773544312 -2.024898767471313 1.867370843887329 -2.024898767471313 1.806660890579224 -2.024898767471313 M 1.806660890579224 -3.524898767471313 C 3.066020965576172 -3.524898767471313 3.910110950469971 -2.31273889541626 4.218230724334717 -0.3074887990951538 C 4.526340961456299 1.697761178016663 3.164960861206055 3.489801168441772 3.164960861206055 3.489801168441772 L -0.03676891326904297 2.641141176223755 C -0.03676891326904297 2.641141176223755 -0.439399242401123 0.2898711860179901 -0.225499153137207 -0.9223387837409973 C -0.01158905029296875 -2.134548902511597 0.5472908020019531 -3.524898767471313 1.806660890579224 -3.524898767471313 Z" stroke="none" fill="#fff"/>
        </g>
        <g id="패스_1744-2" data-name="패스 1744" transform="translate(3.185 11.004) rotate(-164)" fill="#fff">
          <path d="M 2.531860589981079 1.385473608970642 L 0.7714326977729797 1.385473608970642 C 0.8019168972969055 1.21789562702179 0.8715037107467651 1.051724433898926 1.015527486801147 0.9458836317062378 C 1.235837459564209 0.7839836478233337 1.489187479019165 0.7500036358833313 1.66293740272522 0.7500036358833313 C 2.021621465682983 0.7500036358833313 2.320064544677734 0.8856402039527893 2.423009157180786 0.9847100377082825 C 2.467830896377563 1.047822237014771 2.506319284439087 1.199051260948181 2.531860589981079 1.385473608970642 Z" stroke="none"/>
          <path d="M 3.306997537612915 2.135473728179932 L 0.0518074594438076 2.135473728179932 C 0.0518074594438076 2.135473728179932 -0.2424025386571884 0.9395836591720581 0.5713874697685242 0.3415336310863495 C 1.38518750667572 -0.2565063834190369 2.53055739402771 0.02629366517066956 2.96132755279541 0.4623236358165741 C 3.392097473144531 0.8983636498451233 3.306997537612915 2.135473728179932 3.306997537612915 2.135473728179932 Z" stroke="none" fill="#fff"/>
        </g>
      </g>
    </g>
  </g>
</svg>
