<svg xmlns="http://www.w3.org/2000/svg" width="21" height="27.389" viewBox="0 0 21 27.389">
  <g id="Map_카페_아이콘" data-name="Map 카페 아이콘" transform="translate(-1971.864 -3944)">
    <g id="그룹_1473" data-name="그룹 1473" transform="translate(4.863 133.768)">
      <path id="합치기_37" data-name="합치기 37" d="M-11-122.407c0-.145,0-.289.009-.432s-.009-.285-.009-.428a10.5,10.5,0,0,1,10.5-10.5,10.5,10.5,0,0,1,10.5,10.5c0,.143,0,.286-.009.428s.009.287.009.432c0,5.85-8.961,16.028-10.5,16.028S-11-116.557-11-122.407Z" transform="translate(1978 3944)" fill="#fec286"/>
    </g>
    <g id="cafe" transform="translate(1973.444 3945.963)">
      <path id="패스_1821" data-name="패스 1821" d="M15.008,4.5H6.051a.426.426,0,0,0-.426.426v5.118A2.562,2.562,0,0,0,8.184,12.6h2.985a2.562,2.562,0,0,0,2.559-2.559V7.912h.48a1.654,1.654,0,0,0,1.653-1.653V5.353A.853.853,0,0,0,15.008,4.5Zm0,1.759a.8.8,0,0,1-.8.8h-.48V5.353h1.279Z" transform="translate(-1.397)" fill="#fff"/>
      <path id="패스_1822" data-name="패스 1822" d="M12.758,28.125H3.8a.426.426,0,1,0,0,.853h8.956a.426.426,0,0,0,0-.853Z" transform="translate(0 -14.669)" fill="#fff"/>
    </g>
  </g>
</svg>
