<svg xmlns="http://www.w3.org/2000/svg" width="22.151" height="28.89" viewBox="0 0 22.151 28.89">
  <g id="Map_장소_아이콘" data-name="Map 장소 아이콘" transform="translate(-1992 -3987.318)">
    <path id="합치기_37" data-name="합치기 37" d="M0,11.983c0-.153,0-.3.009-.456S0,11.227,0,11.076a11.075,11.075,0,1,1,22.151,0c0,.151,0,.3-.009.452s.009.3.009.456c0,6.171-9.452,16.906-11.076,16.906S0,18.154,0,11.983Z" transform="translate(1992 3987.318)" fill="#77f"/>
    <path id="패스_2096" data-name="패스 2096" d="M377.731,610.394a8.077,8.077,0,1,1-.394-2.495h-2.291a5.943,5.943,0,1,0,.285,4.239h-5.441v-2.3l7.813.01A5.178,5.178,0,0,1,377.731,610.394Z" transform="translate(1633.424 3387.585)" fill="#fff"/>
  </g>
</svg>
