<svg xmlns="http://www.w3.org/2000/svg" width="21" height="27.389" viewBox="0 0 21 27.389">
  <g id="Map_식당_아이콘" data-name="Map 식당 아이콘" transform="translate(-1942 -3944)">
    <g id="그룹_1472" data-name="그룹 1472" transform="translate(-25 133.768)">
      <path id="합치기_37" data-name="합치기 37" d="M-11-122.407c0-.145,0-.289.009-.432s-.009-.285-.009-.428a10.5,10.5,0,0,1,10.5-10.5,10.5,10.5,0,0,1,10.5,10.5c0,.143,0,.286-.009.428s.009.287.009.432c0,5.85-8.961,16.028-10.5,16.028S-11-116.557-11-122.407Z" transform="translate(1978 3944)" fill="#fe8686"/>
    </g>
    <g id="md-restaurant" transform="translate(1942.606 3944.756)">
      <path id="패스_1819" data-name="패스 1819" d="M7.046,11.549,8.978,9.666,4.2,5.042a2.6,2.6,0,0,0,0,3.732l2.848,2.775Z" transform="translate(0 -0.302)" fill="#fff"/>
      <path id="패스_1820" data-name="패스 1820" d="M12.472,10.058a3.325,3.325,0,0,0,3.559-.925c1.288-1.255,1.559-3.072.543-4.03-.983-.991-2.848-.726-4.136.529A3.154,3.154,0,0,0,11.489,9.1C10,10.587,4.878,15.574,4.878,15.574l.949.925,4.678-4.558L15.184,16.5l.949-.925-4.678-4.558,1.017-.958Z" transform="translate(-0.816)" fill="#fff"/>
    </g>
  </g>
</svg>
