<svg xmlns="http://www.w3.org/2000/svg" width="88.689" height="83.357" viewBox="0 0 88.689 83.357">
  <path id="warning" d="M91.229,77.645,53.895,8.31a7.009,7.009,0,0,0-12.344,0L4.216,77.645a7.01,7.01,0,0,0,6.163,10.334H85.057a7.01,7.01,0,0,0,6.172-10.334Zm-43.506-.4A4.381,4.381,0,1,1,52.1,72.862,4.381,4.381,0,0,1,47.723,77.243ZM52.48,33.179,51.221,59.9a3.505,3.505,0,0,1-7.01,0L42.953,33.188a4.761,4.761,0,0,1,4.711-4.969h.047a4.764,4.764,0,0,1,4.761,4.973Z" transform="translate(-3.378 -4.622)" fill="#fe8686"/>
</svg>
