<svg xmlns="http://www.w3.org/2000/svg" width="83" height="80.045" viewBox="0 0 83 80.045">
  <path id="thumbs-up" d="M73.342,28.951H55.569V14.14a10.782,10.782,0,0,0-9.6-11.849,9.539,9.539,0,0,0-2.251,0H39.07a4.474,4.474,0,0,0-4.237,3.465v.355L31.872,24.893,21.387,40.8H2.25v41.47H58.531c22.038,0,26.659-12.886,26.659-23.7V40.8a10.782,10.782,0,0,0-9.6-11.849,9.54,9.54,0,0,0-2.251,0ZM20.023,76.345H8.174V46.724H20.023ZM79.266,58.572c0,12.115-6.577,17.773-20.735,17.773H25.947V44.651L37.8,27.087,39.958,11.18l.416-2.962H43.72c4.265,0,5.924,1.659,5.924,5.924V34.878h23.7c4.266,0,5.924,1.659,5.924,5.924Z" transform="translate(-2.25 -2.225)" fill="#77f"/>
</svg>
