<svg xmlns="http://www.w3.org/2000/svg" width="23.956" height="19.467" viewBox="0 0 23.956 19.467">
  <g id="그룹_1880" data-name="그룹 1880" transform="translate(-254.129 -38.027)">
    <g id="Board_댓글_아이콘_회색" data-name="Board 댓글 아이콘 회색" transform="translate(254.129 38.027)" fill="none">
      <path d="M7.371,0h9.214c4.071,0,7.371,3.874,7.371,8.652v2.887a36.645,36.645,0,0,1-.772,7.928H7.371C3.3,19.467,0,15.593,0,10.815V8.652C0,3.874,3.3,0,7.371,0Z" stroke="none"/>
      <path d="M 7.371170043945312 1.499998092651367 C 4.133798599243164 1.499998092651367 1.5 4.708368301391602 1.5 8.651998519897461 L 1.5 10.81499862670898 C 1.5 14.75862884521484 4.133798599243164 17.96699905395508 7.371170043945312 17.96699905395508 L 21.94867706298828 17.96699905395508 C 22.16322898864746 16.68830490112305 22.456298828125 14.41511344909668 22.456298828125 11.53920841217041 L 22.456298828125 8.651998519897461 C 22.456298828125 4.708368301391602 19.8224983215332 1.499998092651367 16.58512878417969 1.499998092651367 L 7.371170043945312 1.499998092651367 M 7.371170043945312 -1.9073486328125e-06 L 16.58512878417969 -1.9073486328125e-06 C 20.65610885620117 -1.9073486328125e-06 23.956298828125 3.873628616333008 23.956298828125 8.651998519897461 L 23.956298828125 11.53920841217041 C 23.956298828125 16.31757926940918 23.18445014953613 19.46699905395508 23.18445014953613 19.46699905395508 L 7.371170043945312 19.46699905395508 C 3.300178527832031 19.46699905395508 0 15.59335899353027 0 10.81499862670898 L 0 8.651998519897461 C 0 3.873628616333008 3.300178527832031 -1.9073486328125e-06 7.371170043945312 -1.9073486328125e-06 Z" stroke="none" fill="#d2d2d2"/>
    </g>
    <circle id="타원_719" data-name="타원 719" cx="1" cy="1" r="1" transform="translate(260 47)" fill="#d2d2d2"/>
    <circle id="타원_720" data-name="타원 720" cx="1" cy="1" r="1" transform="translate(265 47)" fill="#d2d2d2"/>
    <circle id="타원_721" data-name="타원 721" cx="1" cy="1" r="1" transform="translate(270 47)" fill="#d2d2d2"/>
  </g>
</svg>
