<svg id="그룹_1127" data-name="그룹 1127" xmlns="http://www.w3.org/2000/svg" width="18.859" height="11.866" viewBox="0 0 18.859 11.866">
  <g id="패스_1818" data-name="패스 1818" transform="translate(0 0)" fill="none">
    <path d="M9.429,0c5.208,0,9.429,4.335,9.429,5.933s-4.222,5.933-9.429,5.933S0,7.912,0,5.933,4.222,0,9.429,0Z" stroke="none"/>
    <path d="M 9.429404258728027 1.5 C 6.752894401550293 1.5 4.685033798217773 2.692970275878906 3.690614700317383 3.40408992767334 C 2.05889892578125 4.570956230163574 1.515478134155273 5.662534713745117 1.500093460083008 5.933189868927002 C 1.515478134155273 6.203845024108887 2.05889892578125 7.29542350769043 3.690614700317383 8.462289810180664 C 4.685033798217773 9.173410415649414 6.752894401550293 10.366379737854 9.429404258728027 10.366379737854 C 11.93978404998779 10.366379737854 13.98863410949707 9.167940139770508 14.98649406433105 8.453559875488281 C 16.52449989318848 7.352489471435547 17.21089553833008 6.296502590179443 17.34345245361328 5.933189868927002 C 17.21089553833008 5.569877147674561 16.52449989318848 4.513890266418457 14.98649406433105 3.412819862365723 C 13.98863410949707 2.698439598083496 11.93978404998779 1.5 9.429404258728027 1.5 M 9.429404258728027 0 C 14.63712406158447 0 18.85880470275879 4.335149765014648 18.85880470275879 5.933189868927002 C 18.85880470275879 7.531229972839355 14.63712406158447 11.866379737854 9.429404258728027 11.866379737854 C 4.221684455871582 11.866379737854 3.814697265625e-06 7.912169933319092 3.814697265625e-06 5.933189868927002 C 3.814697265625e-06 3.954209804534912 4.221684455871582 0 9.429404258728027 0 Z" stroke="none" fill="#8797ff"/>
  </g>
  <g id="타원_409" data-name="타원 409" transform="translate(5.279 1.783)" fill="none" stroke="#8797ff" stroke-width="1.5">
    <circle cx="4.15" cy="4.15" r="4.15" stroke="none"/>
    <circle cx="4.15" cy="4.15" r="3.4" fill="none"/>
  </g>
</svg>
