<svg id="arrow-right-circle" xmlns="http://www.w3.org/2000/svg" width="24" height="24" viewBox="0 0 24 24">
  <path id="패스_3326" data-name="패스 3326" d="M12,22.5A10.5,10.5,0,1,0,1.5,12,10.5,10.5,0,0,0,12,22.5ZM12,24A12,12,0,1,0,0,12,12,12,0,0,0,12,24Z" fill="#77f" fill-rule="evenodd"/>
  <path id="합치기_10" data-name="합치기 10" d="M-1235.5-3101.93a.76.76,0,0,1-.248-.556.762.762,0,0,1,.248-.557l3.528-3.286h-7.187a.857.857,0,0,1-.843-.87.857.857,0,0,1,.843-.871h7.186l-3.527-3.287a.749.749,0,0,1,0-1.113.89.89,0,0,1,1.193,0l5.057,4.714a.759.759,0,0,1,.248.556.762.762,0,0,1-.248.557l-5.057,4.713a.876.876,0,0,1-.6.231A.875.875,0,0,1-1235.5-3101.93Z" transform="translate(1246.642 3119.2)" fill="#77f"/>
</svg>
