<svg xmlns="http://www.w3.org/2000/svg" width="54" height="33" viewBox="0 0 54 33">
  <g id="그룹_642" data-name="그룹 642" transform="translate(-339.984 -46)">
    <g id="사각형_1880" data-name="사각형 1880" transform="translate(339.984 46)" fill="none" stroke="#8797ff" stroke-width="1.5">
      <rect width="54" height="33" rx="16.5" stroke="none"/>
      <rect x="0.75" y="0.75" width="52.5" height="31.5" rx="15.75" fill="none"/>
    </g>
    <g id="그룹_556" data-name="그룹 556" transform="translate(356.955 53.857)" style="isolation: isolate">
      <g id="패스_1574" data-name="패스 1574" transform="translate(-3.684)" fill="none">
        <path d="M3.684,0l7.068,2.29L17.222,0l6.21,2.29V17.019L16.97,14.571l-6.219,2.716L3.684,14.571Z" stroke="none"/>
        <path d="M 17.21151542663574 1.594869613647461 L 11.25201511383057 3.703982353210449 L 10.7728157043457 3.87357234954834 L 10.28924560546875 3.716901779174805 L 5.183595657348633 2.062745094299316 L 5.183595657348633 13.54045486450195 L 10.71517562866211 15.66589641571045 L 16.36992645263672 13.19639205932617 L 16.93004608154297 12.95177268981934 L 17.50162506103516 13.16829204559326 L 21.93229484558105 14.84670257568359 L 21.93229484558105 3.335548400878906 L 17.21151542663574 1.594869613647461 M 3.683595657348633 1.9073486328125e-06 L 10.75156593322754 2.289921760559082 L 17.22195434570313 1.9073486328125e-06 L 23.43229484558105 2.289921760559082 L 23.43229484558105 17.01895141601563 L 16.97024536132813 14.57102203369141 L 10.75156593322754 17.28680229187012 L 3.683595657348633 14.57102203369141 L 3.683595657348633 1.9073486328125e-06 Z" stroke="none" fill="#8797ff"/>
      </g>
      <line id="선_118" data-name="선 118" y2="14.571" transform="translate(6.852 2.448)" fill="none" stroke="#8797ff" stroke-width="1.5"/>
      <line id="선_120" data-name="선 120" y2="14.254" transform="translate(13.188 0.317)" fill="none" stroke="#8797ff" stroke-width="1.5"/>
    </g>
  </g>
</svg>
