<svg xmlns="http://www.w3.org/2000/svg" width="24" height="24" viewBox="0 0 24 24">
  <g id="그룹_2448" data-name="그룹 2448" transform="translate(-191 -307)">
    <path id="패스_2997" data-name="패스 2997" d="M12,0A12,12,0,1,1,0,12,12,12,0,0,1,12,0Z" transform="translate(191 307)" fill="#e8e8e8"/>
    <path id="user" d="M12.073,11.769A2.963,2.963,0,0,1,9.037,8.884,2.963,2.963,0,0,1,12.073,6,2.963,2.963,0,0,1,15.11,8.884,2.963,2.963,0,0,1,12.073,11.769Zm0,1.341c5.642,0,7.591,3.527,6.073,4.428s-10.628.9-12.146,0S6.432,13.11,12.073,13.11Z" transform="translate(190.927 306)" fill="#adadad"/>
  </g>
</svg>
