<svg xmlns="http://www.w3.org/2000/svg" width="24" height="24" viewBox="0 0 24 24">
  <g id="그룹_2446" data-name="그룹 2446" transform="translate(0 0.09)">
    <g id="그룹_2327" data-name="그룹 2327">
      <rect id="사각형_3323" data-name="사각형 3323" width="24" height="24" rx="12" transform="translate(0 -0.09)" fill="#fff9f1"/>
      <g id="그룹_2326" data-name="그룹 2326" transform="translate(3 6.175)">
        <g id="그룹_2440" data-name="그룹 2440" transform="translate(4.438 -3.134)">
          <path id="Board_댓글_아이콘_회색" data-name="Board 댓글 아이콘 회색" d="M7.138,0H3.172A3.013,3.013,0,0,0,0,2.823v.942A9.265,9.265,0,0,0,.834,7.087L1.9,6.351H7.138a3.013,3.013,0,0,0,3.172-2.823V2.823A3.013,3.013,0,0,0,7.138,0Z" transform="translate(0)" fill="#f1ae81"/>
        </g>
        <g id="그룹_1880" data-name="그룹 1880" transform="translate(0 1.083)">
          <g id="Board_댓글_아이콘_회색-2" data-name="Board 댓글 아이콘 회색" transform="translate(0)" fill="none">
            <path d="M8.738,0H3.883A3.944,3.944,0,0,0,0,4V5.338a14.788,14.788,0,0,0,1.021,4.711L2.329,9.006H8.738a3.944,3.944,0,0,0,3.883-4V4A3.944,3.944,0,0,0,8.738,0Z" stroke="none"/>
            <path d="M 3.883417129516602 1.000003814697266 C 2.293497085571289 1.000003814697266 0.9999971389770508 2.346983432769775 0.9999971389770508 4.0026535987854 L 0.9999971389770508 5.338353633880615 C 0.9999971389770508 6.385766983032227 1.261903762817383 7.530292987823486 1.510197639465332 8.379984855651855 L 1.979156494140625 8.005973815917969 L 8.737676620483398 8.005973815917969 C 10.32759666442871 8.005973815917969 11.62109661102295 6.65898323059082 11.62109661102295 5.003313541412354 L 11.62109661102295 4.0026535987854 C 11.62109661102295 2.346983432769775 10.32759666442871 1.000003814697266 8.737676620483398 1.000003814697266 L 3.883417129516602 1.000003814697266 M 3.883417129516602 3.814697265625e-06 L 8.737676620483398 3.814697265625e-06 C 10.88242721557617 3.814697265625e-06 12.62109661102295 1.79205322265625 12.62109661102295 4.0026535987854 L 12.62109661102295 5.003313541412354 C 12.62109661102295 7.213923454284668 10.88242721557617 9.005973815917969 8.737676620483398 9.005973815917969 L 2.329096794128418 9.005973815917969 L 1.020676612854004 10.04948329925537 C 1.020676612854004 10.04948329925537 -2.86102294921875e-06 7.54896354675293 -2.86102294921875e-06 5.338353633880615 L -2.86102294921875e-06 4.0026535987854 C -2.86102294921875e-06 1.79205322265625 1.738666534423828 3.814697265625e-06 3.883417129516602 3.814697265625e-06 Z" stroke="none" fill="#f1ae81"/>
          </g>
        </g>
        <g id="그룹_2324" data-name="그룹 2324" transform="translate(5.671 4.239)">
          <path id="Board_댓글_아이콘_회색-3" data-name="Board 댓글 아이콘 회색" d="M3.793,0H8.535a3.725,3.725,0,0,1,3.793,3.653V4.873A8.5,8.5,0,0,1,10.6,9.116l-1.1-.9h-5.7A3.725,3.725,0,0,1,0,4.567V3.653A3.725,3.725,0,0,1,3.793,0Z" fill="#f1ae81"/>
        </g>
      </g>
    </g>
    <line id="선_314" data-name="선 314" x2="6.501" transform="translate(11.5 13.843)" fill="none" stroke="#fff" stroke-linecap="round" stroke-width="0.8"/>
    <line id="선_315" data-name="선 315" x2="4" transform="translate(14.001 15.843)" fill="none" stroke="#fff" stroke-linecap="round" stroke-width="0.8"/>
  </g>
</svg>
