<svg xmlns="http://www.w3.org/2000/svg" width="24" height="24" viewBox="0 0 24 24">
  <g id="그룹_2498" data-name="그룹 2498" transform="translate(-44 -635)">
    <g id="그룹_2443" data-name="그룹 2443" transform="translate(-2 328)">
      <g id="그룹_2327" data-name="그룹 2327" transform="translate(-24)">
        <g id="사각형_3323" data-name="사각형 3323" transform="translate(70 307)" fill="#f3eeff" stroke="#f3eeff" stroke-width="1.5">
          <rect width="24" height="24" rx="12" stroke="none"/>
          <rect x="0.75" y="0.75" width="22.5" height="22.5" rx="11.25" fill="none"/>
        </g>
        <g id="그룹_2326" data-name="그룹 2326" transform="translate(32.799 -3.619)">
          <g id="그룹_1880" data-name="그룹 1880" transform="translate(40.354 315.049)">
            <g id="Board_댓글_아이콘_회색" data-name="Board 댓글 아이콘 회색" transform="translate(0 0)" fill="#f3eeff">
              <path d="M 1.332507252693176 10.02215671539307 C 1.019267201423645 9.104841232299805 0.5000032186508179 7.345197200775146 0.5000032186508179 5.761413097381592 L 0.5000032186508179 4.31985330581665 C 0.5000032186508179 2.21358323097229 2.155853271484375 0.5000030994415283 4.191163063049316 0.5000030994415283 L 9.430123329162598 0.5000030994415283 C 11.46543312072754 0.5000030994415283 13.12128353118896 2.21358323097229 13.12128353118896 4.31985330581665 L 13.12128353118896 5.399823188781738 C 13.12128353118896 7.50609302520752 11.46543312072754 9.219673156738281 9.430123329162598 9.219673156738281 L 2.513673305511475 9.219673156738281 L 2.338703155517578 9.219673156738281 L 2.201913118362427 9.328773498535156 L 1.332507252693176 10.02215671539307 Z" stroke="none"/>
              <path d="M 4.191163063049316 1.000002861022949 C 2.431552886962891 1.000002861022949 1.000002861022949 2.489283561706543 1.000002861022949 4.31985330581665 L 1.000002861022949 5.761413097381592 C 1.000002861022949 6.947698593139648 1.308436393737793 8.24702262878418 1.587325096130371 9.179379463195801 L 2.16373348236084 8.719673156738281 L 9.430123329162598 8.719673156738281 C 11.18973350524902 8.719673156738281 12.62128353118896 7.230393409729004 12.62128353118896 5.399823188781738 L 12.62128353118896 4.31985330581665 C 12.62128353118896 2.489283561706543 11.18973350524902 1.000002861022949 9.430123329162598 1.000002861022949 L 4.191163063049316 1.000002861022949 M 4.191163063049316 2.86102294921875e-06 L 9.430123329162598 2.86102294921875e-06 C 11.74484348297119 2.86102294921875e-06 13.62128353118896 1.934062957763672 13.62128353118896 4.31985330581665 L 13.62128353118896 5.399823188781738 C 13.62128353118896 7.785613059997559 11.74484348297119 9.719673156738281 9.430123329162598 9.719673156738281 L 2.513672828674316 9.719673156738281 L 1.101563453674316 10.8458833694458 C 1.101563453674316 10.8458833694458 2.86102294921875e-06 8.14720344543457 2.86102294921875e-06 5.761413097381592 L 2.86102294921875e-06 4.31985330581665 C 2.86102294921875e-06 1.934062957763672 1.876453399658203 2.86102294921875e-06 4.191163063049316 2.86102294921875e-06 Z" stroke="none" fill="#a287fc"/>
            </g>
          </g>
          <g id="그룹_2324" data-name="그룹 2324" transform="translate(44.615 318.085)">
            <path id="Board_댓글_아이콘_회색-2" data-name="Board 댓글 아이콘 회색" d="M4.133,0H9.3c2.283,0,4.133,2.172,4.133,4.851V6.47A12.609,12.609,0,0,1,11.546,12.1l-1.2-1.189H4.133C1.85,10.915,0,8.743,0,6.064V4.851C0,2.172,1.85,0,4.133,0Z" transform="translate(0 0)" fill="#a287fc"/>
          </g>
        </g>
      </g>
      <line id="선_314" data-name="선 314" x2="7" transform="translate(56.5 319)" fill="none" stroke="#fff" stroke-linecap="round" stroke-width="0.8"/>
      <line id="선_315" data-name="선 315" x2="4" transform="translate(59.5 321)" fill="none" stroke="#fff" stroke-linecap="round" stroke-width="0.8"/>
    </g>
  </g>
</svg>
