<svg xmlns="http://www.w3.org/2000/svg" xmlns:xlink="http://www.w3.org/1999/xlink" width="414" height="134.628" viewBox="0 0 414 134.628">
  <defs>
    <clipPath id="clip-path">
      <rect id="사각형_2776" data-name="사각형 2776" width="414" height="134.628" fill="#f8f8f8"/>
    </clipPath>
    <filter id="합치기_38" x="-23.764" y="85.5" width="66.647" height="36.056" filterUnits="userSpaceOnUse">
      <feOffset dy="3" input="SourceAlpha"/>
      <feGaussianBlur stdDeviation="3" result="blur"/>
      <feFlood flood-opacity="0.161" result="color"/>
      <feComposite operator="out" in="SourceGraphic" in2="blur"/>
      <feComposite operator="in" in="color"/>
      <feComposite operator="in" in2="SourceGraphic"/>
    </filter>
    <filter id="합치기_47" x="280" y="63.816" width="64.74" height="64.74" filterUnits="userSpaceOnUse">
      <feOffset dy="3" input="SourceAlpha"/>
      <feGaussianBlur stdDeviation="2" result="blur-2"/>
      <feFlood flood-opacity="0.09"/>
      <feComposite operator="in" in2="blur-2"/>
      <feComposite in="SourceGraphic"/>
    </filter>
    <filter id="타원_647" x="282.968" y="66.617" width="59.137" height="59.137" filterUnits="userSpaceOnUse">
      <feOffset dy="3" input="SourceAlpha"/>
      <feGaussianBlur stdDeviation="3" result="blur-3"/>
      <feFlood flood-opacity="0.161"/>
      <feComposite operator="in" in2="blur-3"/>
      <feComposite in="SourceGraphic"/>
    </filter>
    <filter id="합치기_52" x="302.627" y="91.018" width="64.352" height="43.076" filterUnits="userSpaceOnUse">
      <feOffset dy="3" input="SourceAlpha"/>
      <feGaussianBlur stdDeviation="3" result="blur-4"/>
      <feFlood flood-color="#5f5f5f" flood-opacity="0.271"/>
      <feComposite operator="in" in2="blur-4"/>
      <feComposite in="SourceGraphic"/>
    </filter>
  </defs>
  <g id="Chat___흐림_위젯" data-name="Chat _ 흐림 위젯" clip-path="url(#clip-path)">
    <g id="그룹_1772" data-name="그룹 1772">
      <rect id="사각형_2775" data-name="사각형 2775" width="414" height="134.628" fill="#f8f8f8"/>
      <g id="그룹_1767" data-name="그룹 1767" transform="translate(-23.764 85.5)" opacity="0.75">
        <g data-type="innerShadowGroup">
          <path id="합치기_38-2" data-name="합치기 38" d="M40.972,33.472a16.066,16.066,0,0,1-16.389.645,16.04,16.04,0,0,1-7.648,1.939C7.583,36.056,0,27.985,0,18.027S7.583,0,16.935,0a16.04,16.04,0,0,1,7.648,1.939,16.066,16.066,0,0,1,16.389.645A16.1,16.1,0,0,1,49.713,0c9.353,0,16.935,8.071,16.935,18.027S59.066,36.056,49.713,36.056A16.1,16.1,0,0,1,40.972,33.472Z" fill="#8797ff"/>
          <g transform="matrix(1, 0, 0, 1, 23.76, -85.5)" filter="url(#합치기_38)">
            <path id="합치기_38-3" data-name="합치기 38" d="M40.972,33.472a16.066,16.066,0,0,1-16.389.645,16.04,16.04,0,0,1-7.648,1.939C7.583,36.056,0,27.985,0,18.027S7.583,0,16.935,0a16.04,16.04,0,0,1,7.648,1.939,16.066,16.066,0,0,1,16.389.645A16.1,16.1,0,0,1,49.713,0c9.353,0,16.935,8.071,16.935,18.027S59.066,36.056,49.713,36.056A16.1,16.1,0,0,1,40.972,33.472Z" transform="translate(-23.76 85.5)" fill="#fff"/>
          </g>
        </g>
      </g>
      <g id="그룹_1768" data-name="그룹 1768" transform="translate(363.74 110.376)">
        <path id="합치기_42" data-name="합치기 42" d="M40.7,33.252a15.961,15.961,0,0,1-16.281.641,15.934,15.934,0,0,1-7.6,1.926C7.533,35.819,0,27.8,0,17.909S7.533,0,16.824,0a15.934,15.934,0,0,1,7.6,1.926A15.961,15.961,0,0,1,40.7,2.567,15.992,15.992,0,0,1,49.387,0C58.678,0,66.21,8.018,66.21,17.909s-7.532,17.91-16.824,17.91A15.992,15.992,0,0,1,40.7,33.252Z" transform="translate(0 0)" fill="#8797ff"/>
      </g>
      <g id="그룹_1769" data-name="그룹 1769" transform="translate(334.803 44.312)" opacity="0.8">
        <path id="합치기_46" data-name="합치기 46" d="M42.049,34.352a16.489,16.489,0,0,1-16.82.662A16.461,16.461,0,0,1,17.38,37C7.782,37,0,28.72,0,18.5S7.782,0,17.38,0A16.462,16.462,0,0,1,25.23,1.99a16.489,16.489,0,0,1,16.82.662A16.521,16.521,0,0,1,51.02,0c9.6,0,17.38,8.283,17.38,18.5S60.619,37,51.02,37A16.521,16.521,0,0,1,42.049,34.352Z" transform="translate(0 0)" fill="#8797ff"/>
      </g>
      <g id="그룹_1771" data-name="그룹 1771" transform="translate(4.738 4.738)">
        <g id="그룹_1770" data-name="그룹 1770" transform="translate(281.262 62.078)">
          <g transform="matrix(1, 0, 0, 1, -286, -66.82)" filter="url(#합치기_47)">
            <path id="합치기_47-2" data-name="합치기 47" d="M26.37,0A26.37,26.37,0,1,1,0,26.37,26.37,26.37,0,0,1,26.37,0Z" transform="translate(286 66.82)" fill="#fff"/>
          </g>
          <path id="합치기_48" data-name="합치기 48" d="M22.529,0A22.529,22.529,0,1,1,0,22.529,22.529,22.529,0,0,1,22.529,0Z" transform="translate(3.841 3.841)" fill="#8d9cfe" opacity="0.84"/>
        </g>
        <g transform="matrix(1, 0, 0, 1, -4.74, -4.74)" filter="url(#타원_647)">
          <ellipse id="타원_647-2" data-name="타원 647" cx="20.568" cy="20.568" rx="20.568" ry="20.568" transform="translate(291.97 72.62)" fill="#fff"/>
        </g>
      </g>
      <g transform="matrix(1, 0, 0, 1, 0, 0)" filter="url(#합치기_52)">
        <path id="합치기_52-2" data-name="합치기 52" d="M28.5,23.279a11.174,11.174,0,0,1-11.4.449,11.155,11.155,0,0,1-5.319,1.348C5.274,25.076,0,19.463,0,12.538S5.274,0,11.778,0A11.155,11.155,0,0,1,17.1,1.348,11.174,11.174,0,0,1,28.5,1.8,11.2,11.2,0,0,1,34.574,0c6.5,0,11.778,5.613,11.778,12.538S41.079,25.076,34.574,25.076A11.2,11.2,0,0,1,28.5,23.279Z" transform="translate(311.63 97.02)" fill="#8797ff"/>
      </g>
    </g>
  </g>
</svg>
