<svg xmlns="http://www.w3.org/2000/svg" xmlns:xlink="http://www.w3.org/1999/xlink" width="414" height="144" viewBox="0 0 414 144">
  <defs>
    <clipPath id="clip-path">
      <rect id="사각형_2475" data-name="사각형 2475" width="414" height="144" transform="translate(0 528)" fill="#fff"/>
    </clipPath>
    <filter id="합치기_9" x="263.655" y="37.88" width="99.325" height="61.996" filterUnits="userSpaceOnUse">
      <feOffset dy="3" input="SourceAlpha"/>
      <feGaussianBlur stdDeviation="3" result="blur"/>
      <feFlood flood-color="#101010" flood-opacity="0.271"/>
      <feComposite operator="in" in2="blur"/>
      <feComposite in="SourceGraphic"/>
    </filter>
    <filter id="합치기_9-2" x="289.01" y="50.707" width="106.664" height="65.966" filterUnits="userSpaceOnUse">
      <feOffset dy="3" input="SourceAlpha"/>
      <feGaussianBlur stdDeviation="3" result="blur-2"/>
      <feFlood flood-opacity="0.271"/>
      <feComposite operator="in" in2="blur-2"/>
      <feComposite in="SourceGraphic"/>
    </filter>
    <filter id="선_144" x="278.002" y="88.664" width="19.964" height="24.574" filterUnits="userSpaceOnUse">
      <feOffset dy="2" input="SourceAlpha"/>
      <feGaussianBlur stdDeviation="2" result="blur-3"/>
      <feFlood flood-opacity="0.141"/>
      <feComposite operator="in" in2="blur-3"/>
      <feComposite in="SourceGraphic"/>
    </filter>
    <filter id="선_145" x="286.069" y="100.188" width="22.269" height="29.184" filterUnits="userSpaceOnUse">
      <feOffset dy="2" input="SourceAlpha"/>
      <feGaussianBlur stdDeviation="2" result="blur-4"/>
      <feFlood flood-opacity="0.141"/>
      <feComposite operator="in" in2="blur-4"/>
      <feComposite in="SourceGraphic"/>
    </filter>
    <filter id="선_146" x="318.338" y="103.646" width="18.812" height="22.269" filterUnits="userSpaceOnUse">
      <feOffset dy="2" input="SourceAlpha"/>
      <feGaussianBlur stdDeviation="2" result="blur-5"/>
      <feFlood flood-opacity="0.141"/>
      <feComposite operator="in" in2="blur-5"/>
      <feComposite in="SourceGraphic"/>
    </filter>
    <filter id="선_147" x="329.863" y="107.103" width="19.964" height="24.574" filterUnits="userSpaceOnUse">
      <feOffset dy="2" input="SourceAlpha"/>
      <feGaussianBlur stdDeviation="2" result="blur-6"/>
      <feFlood flood-opacity="0.141"/>
      <feComposite operator="in" in2="blur-6"/>
      <feComposite in="SourceGraphic"/>
    </filter>
    <filter id="선_148" x="348.324" y="103.668" width="21.073" height="27.988" filterUnits="userSpaceOnUse">
      <feOffset dy="2" input="SourceAlpha"/>
      <feGaussianBlur stdDeviation="2" result="blur-7"/>
      <feFlood flood-opacity="0.141"/>
      <feComposite operator="in" in2="blur-7"/>
      <feComposite in="SourceGraphic"/>
    </filter>
  </defs>
  <g id="날씨위젯_비_" data-name="날씨위젯(비)" transform="translate(0 -528)" clip-path="url(#clip-path)">
    <g id="그룹_1415" data-name="그룹 1415">
      <rect id="사각형_2470" data-name="사각형 2470" width="414" height="143.628" transform="translate(0 528)" fill="#f8f8f8"/>
      <g id="그룹_1407" data-name="그룹 1407" transform="translate(272.655 571.88)">
        <g transform="matrix(1, 0, 0, 1, -272.66, -43.88)" filter="url(#합치기_9)">
          <path id="합치기_9-3" data-name="합치기 9" d="M50,40.843a19.6,19.6,0,0,1-20,.787A19.572,19.572,0,0,1,20.664,44C9.252,44,0,34.147,0,22S9.252,0,20.664,0A19.572,19.572,0,0,1,30,2.366a19.6,19.6,0,0,1,20,.787A19.643,19.643,0,0,1,60.661,0C72.074,0,81.325,9.849,81.325,22S72.074,44,60.661,44A19.643,19.643,0,0,1,50,40.843Z" transform="translate(272.66 43.88)" fill="#fff"/>
        </g>
      </g>
      <g id="그룹_1410" data-name="그룹 1410" transform="translate(-21.459 615.557)">
        <path id="합치기_9-4" data-name="합치기 9" d="M40.636,33.2a15.934,15.934,0,0,1-16.254.64A15.908,15.908,0,0,1,16.8,35.76c-9.276,0-16.8-8-16.8-17.88S7.52,0,16.8,0a15.908,15.908,0,0,1,7.586,1.923,15.935,15.935,0,0,1,16.254.64A15.966,15.966,0,0,1,49.305,0c9.276,0,16.8,8,16.8,17.88s-7.52,17.88-16.8,17.88A15.966,15.966,0,0,1,40.636,33.2Z" transform="translate(-3 -7)" fill="#fff"/>
      </g>
      <g id="그룹_1405" data-name="그룹 1405" transform="translate(298.01 584.707)">
        <g transform="matrix(1, 0, 0, 1, -298.01, -56.71)" filter="url(#합치기_9-2)">
          <path id="합치기_9-5" data-name="합치기 9" d="M54.507,44.529a21.374,21.374,0,0,1-21.8.858,21.338,21.338,0,0,1-10.175,2.579C10.087,47.966,0,37.229,0,23.983S10.087,0,22.529,0A21.338,21.338,0,0,1,32.7,2.579a21.374,21.374,0,0,1,21.8.858A21.416,21.416,0,0,1,66.135,0C78.578,0,88.664,10.737,88.664,23.983S78.578,47.966,66.135,47.966A21.416,21.416,0,0,1,54.507,44.529Z" transform="translate(298.01 56.71)" fill="#8e9dff"/>
        </g>
      </g>
      <g id="그룹_1406" data-name="그룹 1406" transform="translate(285.679 622.341)">
        <g transform="matrix(1, 0, 0, 1, -285.68, -94.34)" filter="url(#선_144)">
          <line id="선_144-2" data-name="선 144" x1="4.61" y2="9.22" transform="translate(285.68 94.34)" fill="none" stroke="#8e9dff" stroke-linecap="round" stroke-width="2.5"/>
        </g>
        <g transform="matrix(1, 0, 0, 1, -285.68, -94.34)" filter="url(#선_145)">
          <line id="선_145-2" data-name="선 145" x1="6.915" y2="13.83" transform="translate(293.75 105.87)" fill="none" stroke="#8e9dff" stroke-linecap="round" stroke-width="2.5"/>
        </g>
        <g transform="matrix(1, 0, 0, 1, -285.68, -94.34)" filter="url(#선_146)">
          <line id="선_146-2" data-name="선 146" x1="3.457" y2="6.915" transform="translate(326.02 109.32)" fill="none" stroke="#8e9dff" stroke-linecap="round" stroke-width="2.5"/>
        </g>
        <g transform="matrix(1, 0, 0, 1, -285.68, -94.34)" filter="url(#선_147)">
          <line id="선_147-2" data-name="선 147" x1="4.61" y2="9.22" transform="translate(337.54 112.78)" fill="none" stroke="#8e9dff" stroke-linecap="round" stroke-width="2.5"/>
        </g>
        <g transform="matrix(1, 0, 0, 1, -285.68, -94.34)" filter="url(#선_148)">
          <line id="선_148-2" data-name="선 148" x1="5.762" y2="12.677" transform="translate(355.98 109.32)" fill="none" stroke="#8e9dff" stroke-linecap="round" stroke-width="2.5"/>
        </g>
      </g>
      <line id="선_203" data-name="선 203" x1="16.532" y2="27.659" transform="translate(397.468 549.735)" fill="none" stroke="#fff" stroke-linecap="round" stroke-width="3" opacity="0.91"/>
      <line id="선_202" data-name="선 202" x1="6.915" y2="11.525" transform="translate(397.468 592.376)" fill="none" stroke="#fff" stroke-linecap="round" stroke-width="3" opacity="0.91"/>
      <line id="선_204" data-name="선 204" x1="19" y2="33" transform="translate(20.578 564.817)" fill="none" stroke="#8e9dff" stroke-linecap="round" stroke-width="3" opacity="0.59"/>
      <line id="선_209" data-name="선 209" x1="25.5" y2="42.622" transform="translate(-3.217 554.505)" fill="none" stroke="#8e9dff" stroke-linecap="round" stroke-width="3" opacity="0.59"/>
      <line id="선_208" data-name="선 208" x1="19" y2="33" transform="translate(397.468 618.883)" fill="none" stroke="#8e9dff" stroke-linecap="round" stroke-width="3" opacity="0.59"/>
      <line id="선_205" data-name="선 205" x1="9" y2="16" transform="translate(35.078 575.817)" fill="none" stroke="#8e9dff" stroke-linecap="round" stroke-width="3" opacity="0.59"/>
      <line id="선_207" data-name="선 207" x1="9" y2="16" transform="translate(411.968 629.883)" fill="none" stroke="#8e9dff" stroke-linecap="round" stroke-width="3" opacity="0.59"/>
      <line id="선_206" data-name="선 206" x1="9.5" y2="16.133" transform="translate(29.578 637.05)" fill="none" stroke="#8e9dff" stroke-linecap="round" stroke-width="3"/>
    </g>
  </g>
</svg>
