<svg xmlns="http://www.w3.org/2000/svg" xmlns:xlink="http://www.w3.org/1999/xlink" width="414" height="144" viewBox="0 0 414 144">
  <defs>
    <clipPath id="clip-path">
      <rect id="사각형_2473" data-name="사각형 2473" width="414" height="144" transform="translate(0 176)" fill="#fff"/>
    </clipPath>
    <filter id="합치기_9" x="257.078" y="32.327" width="100.068" height="62.398" filterUnits="userSpaceOnUse">
      <feOffset dy="3" input="SourceAlpha"/>
      <feGaussianBlur stdDeviation="3" result="blur"/>
      <feFlood flood-color="#474747" flood-opacity="0.271"/>
      <feComposite operator="in" in2="blur"/>
      <feComposite in="SourceGraphic"/>
    </filter>
    <filter id="합치기_9-2" x="282.664" y="45.271" width="107.474" height="66.405" filterUnits="userSpaceOnUse">
      <feOffset dy="3" input="SourceAlpha"/>
      <feGaussianBlur stdDeviation="3" result="blur-2"/>
      <feFlood flood-color="#6b6b6b" flood-opacity="0.271"/>
      <feComposite operator="in" in2="blur-2"/>
      <feComposite in="SourceGraphic"/>
    </filter>
    <filter id="타원_577" x="275.301" y="89.343" width="20.63" height="20.63" filterUnits="userSpaceOnUse">
      <feOffset dy="1" input="SourceAlpha"/>
      <feGaussianBlur stdDeviation="1.5" result="blur-3"/>
      <feFlood flood-opacity="0.149"/>
      <feComposite operator="in" in2="blur-3"/>
      <feComposite in="SourceGraphic"/>
    </filter>
    <filter id="타원_576" x="286.931" y="104.462" width="20.63" height="20.63" filterUnits="userSpaceOnUse">
      <feOffset dy="1" input="SourceAlpha"/>
      <feGaussianBlur stdDeviation="1.5" result="blur-4"/>
      <feFlood flood-opacity="0.149"/>
      <feComposite operator="in" in2="blur-4"/>
      <feComposite in="SourceGraphic"/>
    </filter>
    <filter id="타원_578" x="316.006" y="98.647" width="18.304" height="18.304" filterUnits="userSpaceOnUse">
      <feOffset dy="1" input="SourceAlpha"/>
      <feGaussianBlur stdDeviation="1.5" result="blur-5"/>
      <feFlood flood-opacity="0.149"/>
      <feComposite operator="in" in2="blur-5"/>
      <feComposite in="SourceGraphic"/>
    </filter>
    <filter id="타원_579" x="333.451" y="106.788" width="18.304" height="18.304" filterUnits="userSpaceOnUse">
      <feOffset dy="1" input="SourceAlpha"/>
      <feGaussianBlur stdDeviation="1.5" result="blur-6"/>
      <feFlood flood-opacity="0.149"/>
      <feComposite operator="in" in2="blur-6"/>
      <feComposite in="SourceGraphic"/>
    </filter>
    <filter id="타원_580" x="353.222" y="102.136" width="19.467" height="19.467" filterUnits="userSpaceOnUse">
      <feOffset dy="1" input="SourceAlpha"/>
      <feGaussianBlur stdDeviation="1.5" result="blur-7"/>
      <feFlood flood-opacity="0.149"/>
      <feComposite operator="in" in2="blur-7"/>
      <feComposite in="SourceGraphic"/>
    </filter>
  </defs>
  <g id="마스크_그룹_102" data-name="마스크 그룹 102" transform="translate(0 -176)" clip-path="url(#clip-path)">
    <g id="그룹_1413" data-name="그룹 1413">
      <rect id="사각형_2468" data-name="사각형 2468" width="414" height="143.628" transform="translate(0 176)" fill="#f8f8f8"/>
      <g id="그룹_1382" data-name="그룹 1382" transform="translate(-29.234 258.465)" opacity="0.8">
        <path id="합치기_9-3" data-name="합치기 9" d="M46.508,37.994a18.237,18.237,0,0,1-18.6.732,18.207,18.207,0,0,1-8.682,2.2C8.607,40.927,0,31.765,0,20.463S8.607,0,19.223,0A18.207,18.207,0,0,1,27.9,2.2a18.237,18.237,0,0,1,18.6.732A18.273,18.273,0,0,1,56.429,0C67.046,0,75.652,9.162,75.652,20.463S67.046,40.927,56.429,40.927A18.273,18.273,0,0,1,46.508,37.994Z" fill="#8e9dff"/>
      </g>
      <g id="그룹_1399" data-name="그룹 1399" transform="translate(266.078 214.327)">
        <g transform="matrix(1, 0, 0, 1, -266.08, -38.33)" filter="url(#합치기_9)">
          <path id="합치기_9-4" data-name="합치기 9" d="M50.452,41.216a19.784,19.784,0,0,1-20.181.794A19.751,19.751,0,0,1,20.853,44.4C9.337,44.4,0,34.459,0,22.2S9.337,0,20.853,0a19.751,19.751,0,0,1,9.418,2.387,19.784,19.784,0,0,1,20.181.794A19.823,19.823,0,0,1,61.215,0C72.732,0,82.068,9.939,82.068,22.2S72.732,44.4,61.215,44.4A19.822,19.822,0,0,1,50.452,41.216Z" transform="translate(266.08 38.33)" fill="#fff"/>
        </g>
      </g>
      <g id="그룹_1400" data-name="그룹 1400" transform="translate(353.134 189.862)" opacity="0.8">
        <path id="합치기_9-5" data-name="합치기 9" d="M53.026,43.319a20.793,20.793,0,0,1-21.211.835,20.758,20.758,0,0,1-9.9,2.509C9.813,46.663,0,36.218,0,23.331S9.813,0,21.917,0a20.759,20.759,0,0,1,9.9,2.509,20.793,20.793,0,0,1,21.211.835A20.834,20.834,0,0,1,64.339,0c12.1,0,21.917,10.446,21.917,23.331S76.443,46.663,64.339,46.663A20.834,20.834,0,0,1,53.026,43.319Z" transform="translate(0 0)" fill="#8e9dff"/>
      </g>
      <g id="그룹_1398" data-name="그룹 1398" transform="translate(291.664 227.271)">
        <g transform="matrix(1, 0, 0, 1, -291.66, -51.27)" filter="url(#합치기_9-2)">
          <path id="합치기_9-6" data-name="합치기 9" d="M55,44.936A21.569,21.569,0,0,1,33,45.8a21.533,21.533,0,0,1-10.268,2.6C10.18,48.4,0,37.569,0,24.2S10.18,0,22.735,0A21.533,21.533,0,0,1,33,2.6a21.569,21.569,0,0,1,22,.866A21.612,21.612,0,0,1,66.739,0C79.3,0,89.474,10.835,89.474,24.2S79.3,48.4,66.739,48.4A21.611,21.611,0,0,1,55,44.936Z" transform="translate(291.66 51.27)" fill="#8e9dff"/>
        </g>
      </g>
      <g transform="matrix(1, 0, 0, 1, 0, 176)" filter="url(#타원_577)">
        <g id="타원_577-2" data-name="타원 577" transform="translate(279.8 92.84)" fill="none" stroke="#8e9dff" stroke-width="2">
          <ellipse cx="5.815" cy="5.815" rx="5.815" ry="5.815" stroke="none"/>
          <ellipse cx="5.815" cy="5.815" rx="4.815" ry="4.815" fill="none"/>
        </g>
      </g>
      <g id="타원_585" data-name="타원 585" transform="translate(21.566 231.724)" fill="none" stroke="#fff" stroke-width="2">
        <circle cx="5" cy="5" r="5" stroke="none"/>
        <circle cx="5" cy="5" r="4" fill="none"/>
      </g>
      <g transform="matrix(1, 0, 0, 1, 0, 176)" filter="url(#타원_576)">
        <g id="타원_576-2" data-name="타원 576" transform="translate(291.43 107.96)" fill="none" stroke="#8e9dff" stroke-width="2">
          <ellipse cx="5.815" cy="5.815" rx="5.815" ry="5.815" stroke="none"/>
          <ellipse cx="5.815" cy="5.815" rx="4.815" ry="4.815" fill="none"/>
        </g>
      </g>
      <g id="타원_584" data-name="타원 584" transform="translate(8.592 217.271)" fill="none" stroke="#fff" stroke-width="2">
        <circle cx="5" cy="5" r="5" stroke="none"/>
        <circle cx="5" cy="5" r="4" fill="none"/>
      </g>
      <g id="타원_587" data-name="타원 587" transform="translate(395.115 255.974)" fill="none" stroke="#fff" stroke-width="2">
        <circle cx="4.024" cy="4.024" r="4.024" stroke="none"/>
        <circle cx="4.024" cy="4.024" r="3.024" fill="none"/>
      </g>
      <g transform="matrix(1, 0, 0, 1, 0, 176)" filter="url(#타원_578)">
        <g id="타원_578-2" data-name="타원 578" transform="translate(320.51 102.15)" fill="#8e9dff" stroke="#8e9dff" stroke-width="2">
          <ellipse cx="4.652" cy="4.652" rx="4.652" ry="4.652" stroke="none"/>
          <ellipse cx="4.652" cy="4.652" rx="3.652" ry="3.652" fill="none"/>
        </g>
      </g>
      <g transform="matrix(1, 0, 0, 1, 0, 176)" filter="url(#타원_579)">
        <g id="타원_579-2" data-name="타원 579" transform="translate(337.95 110.29)" fill="#8e9dff" stroke="#8e9dff" stroke-width="2">
          <ellipse cx="4.652" cy="4.652" rx="4.652" ry="4.652" stroke="none"/>
          <ellipse cx="4.652" cy="4.652" rx="3.652" ry="3.652" fill="none"/>
        </g>
      </g>
      <g transform="matrix(1, 0, 0, 1, 0, 176)" filter="url(#타원_580)">
        <g id="타원_580-2" data-name="타원 580" transform="translate(357.72 105.64)" fill="none" stroke="#8e9dff" stroke-width="2">
          <ellipse cx="5.234" cy="5.234" rx="5.234" ry="5.234" stroke="none"/>
          <ellipse cx="5.234" cy="5.234" rx="4.234" ry="4.234" fill="none"/>
        </g>
      </g>
      <g id="타원_586" data-name="타원 586" transform="translate(386.115 246.974)" fill="#fff" stroke="#fff" stroke-width="2">
        <circle cx="4.5" cy="4.5" r="4.5" stroke="none"/>
        <circle cx="4.5" cy="4.5" r="3.5" fill="none"/>
      </g>
    </g>
  </g>
</svg>
