<svg xmlns="http://www.w3.org/2000/svg" xmlns:xlink="http://www.w3.org/1999/xlink" width="414" height="134.63" viewBox="0 0 414 134.63">
  <defs>
    <clipPath id="clip-path">
      <rect id="사각형_2778" data-name="사각형 2778" width="414" height="134.63" fill="#fff"/>
    </clipPath>
    <filter id="타원_665" x="292.003" y="64.439" width="64.088" height="65.088" filterUnits="userSpaceOnUse">
      <feOffset dy="4" input="SourceAlpha"/>
      <feGaussianBlur stdDeviation="1" result="blur"/>
      <feFlood flood-opacity="0.102"/>
      <feComposite operator="in" in2="blur"/>
      <feComposite in="SourceGraphic"/>
    </filter>
    <filter id="타원_667" x="293.784" y="66.22" width="60.525" height="60.525" filterUnits="userSpaceOnUse">
      <feOffset dy="3" input="SourceAlpha"/>
      <feGaussianBlur stdDeviation="3" result="blur-2"/>
      <feFlood flood-opacity="0.161"/>
      <feComposite operator="in" in2="blur-2"/>
      <feComposite in="SourceGraphic"/>
    </filter>
  </defs>
  <g id="Chat___맑음_위젯" data-name="Chat _ 맑음 위젯" clip-path="url(#clip-path)">
    <g id="그룹_1776" data-name="그룹 1776">
      <rect id="사각형_2777" data-name="사각형 2777" width="414" height="143.628" fill="#f8f8f8"/>
      <circle id="타원_651" data-name="타원 651" cx="12.414" cy="12.414" r="12.414" transform="translate(-11 83)" fill="#8797ff" opacity="0.43"/>
      <circle id="타원_652" data-name="타원 652" cx="7.501" cy="7.501" r="7.501" transform="translate(14.781 120)" fill="#fff"/>
      <circle id="타원_653" data-name="타원 653" cx="3.501" cy="3.501" r="3.501" transform="translate(31.356 114.553)" fill="#fff"/>
      <circle id="타원_654" data-name="타원 654" cx="23.076" cy="23.076" r="23.076" transform="translate(-16.368 64)" fill="#8797ff" opacity="0.12"/>
      <circle id="타원_655" data-name="타원 655" cx="11.68" cy="11.68" r="11.68" transform="translate(14.998 61.532)" fill="#8797ff" opacity="0.12"/>
      <circle id="타원_656" data-name="타원 656" cx="10.793" cy="10.793" r="10.793" transform="translate(402.32 48.64)" fill="#8797ff" opacity="0.12"/>
      <circle id="타원_657" data-name="타원 657" cx="18.828" cy="18.828" r="18.828" transform="translate(382.071 115.38)" fill="#8797ff"/>
      <circle id="타원_658" data-name="타원 658" cx="26.418" cy="26.418" r="26.418" transform="translate(371.071 103.072)" fill="#8797ff" opacity="0.22"/>
      <ellipse id="타원_659" data-name="타원 659" cx="10.287" cy="10.287" rx="10.287" ry="10.287" transform="translate(295.003 104.556)" fill="#8797ff" opacity="0.22"/>
      <ellipse id="타원_660" data-name="타원 660" cx="5.299" cy="5.299" rx="5.299" ry="5.299" transform="translate(286.823 121.687)" fill="#8797ff" opacity="0.12"/>
      <g id="타원_661" data-name="타원 661" transform="translate(281.748 96.072) rotate(31)" fill="none" stroke="#fff" stroke-width="2" opacity="0.75">
        <ellipse cx="6.831" cy="6.831" rx="6.831" ry="6.831" stroke="none"/>
        <ellipse cx="6.831" cy="6.831" rx="5.831" ry="5.831" fill="none"/>
      </g>
      <ellipse id="타원_662" data-name="타원 662" cx="3.768" cy="3.768" rx="3.768" ry="3.768" transform="translate(284.577 98.556) rotate(31)" fill="#fff"/>
      <g id="그룹_1775" data-name="그룹 1775" transform="translate(295.003 49.566)">
        <ellipse id="타원_663" data-name="타원 663" cx="4.512" cy="4.512" rx="4.512" ry="4.512" transform="translate(64.121 0)" fill="#fff"/>
        <g id="그룹_1774" data-name="그룹 1774" transform="translate(0 14.873)">
          <g id="그룹_1773" data-name="그룹 1773" transform="translate(0 0)">
            <ellipse id="타원_664" data-name="타원 664" cx="25.301" cy="25.301" rx="25.301" ry="25.301" transform="translate(3.743 3.743)" fill="#fff" opacity="0.84"/>
            <g transform="matrix(1, 0, 0, 1, -295, -64.44)" filter="url(#타원_665)">
              <ellipse id="타원_665-2" data-name="타원 665" cx="29.044" cy="29.044" rx="29.044" ry="29.044" transform="translate(295 64.44)" fill="#fff" opacity="0.84"/>
            </g>
            <ellipse id="타원_666" data-name="타원 666" cx="25.301" cy="25.301" rx="25.301" ry="25.301" transform="translate(3.743 3.743)" fill="#8e9dff"/>
          </g>
          <g transform="matrix(1, 0, 0, 1, -295, -64.44)" filter="url(#타원_667)">
            <ellipse id="타원_667-2" data-name="타원 667" cx="21.263" cy="21.263" rx="21.263" ry="21.263" transform="translate(302.78 72.22)" fill="#fff"/>
          </g>
        </g>
        <ellipse id="타원_668" data-name="타원 668" cx="13.866" cy="13.866" rx="13.866" ry="13.866" transform="translate(38.19 8.234)" fill="#fff" opacity="0.48"/>
        <ellipse id="타원_669" data-name="타원 669" cx="6.033" cy="6.033" rx="6.033" ry="6.033" transform="translate(51.034 11.275)" fill="#fff"/>
      </g>
    </g>
  </g>
</svg>
