<svg xmlns="http://www.w3.org/2000/svg" width="20" height="18" viewBox="0 0 20 18">
  <g id="_ver2_MY_PAGE_아이콘_선_" data-name="(ver2) MY PAGE 아이콘 선 " transform="translate(675.462 -1049)">
    <g id="패스_1869" data-name="패스 1869" transform="translate(-847.884 295.74)" fill="none" stroke-linejoin="round">
      <path d="M191.5,771.26H173.344a.859.859,0,0,1-.922-.777v-1.006c0-3.433,3.306-6.217,7.383-6.217h5.234c4.078,0,7.383,2.784,7.383,6.217v1.006A.86.86,0,0,1,191.5,771.26Z" stroke="none"/>
      <path d="M 190.4148406982422 769.2598876953125 C 190.3496856689453 768.2781372070312 189.8429260253906 767.3446044921875 188.9713134765625 766.6107177734375 C 187.9367828369141 765.7396240234375 186.5401153564453 765.2598876953125 185.0386199951172 765.2598876953125 L 179.8046112060547 765.2598876953125 C 178.3034820556641 765.2598876953125 176.9071044921875 765.7396240234375 175.8726806640625 766.6106567382812 C 175.0011138916016 767.3445434570312 174.4943695068359 768.2781372070312 174.4292144775391 769.2598876953125 L 190.4148406982422 769.2598876953125 M 191.4987945556641 771.2598876953125 L 173.3444366455078 771.2598876953125 C 172.8347015380859 771.2598876953125 172.4220275878906 770.911865234375 172.4220275878906 770.48291015625 L 172.4220275878906 769.4765625 C 172.4220275878906 766.0433959960938 175.7276306152344 763.2598876953125 179.8046112060547 763.2598876953125 L 185.0386199951172 763.2598876953125 C 189.1163940429688 763.2598876953125 192.4220275878906 766.0433959960938 192.4220275878906 769.4765625 L 192.4220275878906 770.48291015625 C 192.4220275878906 770.911865234375 192.0085296630859 771.2598876953125 191.4987945556641 771.2598876953125 Z" stroke="none" fill="#d1d1d1"/>
    </g>
    <g id="타원_481" data-name="타원 481" transform="translate(-670.219 1049)" fill="none" stroke="#d1d1d1" stroke-linejoin="round" stroke-width="2">
      <circle cx="4.756" cy="4.756" r="4.756" stroke="none"/>
      <circle cx="4.756" cy="4.756" r="3.756" fill="none"/>
    </g>
  </g>
</svg>
