<svg xmlns="http://www.w3.org/2000/svg" width="27.997" height="23.743" viewBox="0 0 27.997 23.743">
  <g id="그룹_1500" data-name="그룹 1500" transform="translate(129.997 -357.257)">
    <path id="사각형_2530" data-name="사각형 2530" d="M6,0H16a6,6,0,0,1,6,6V20a2,2,0,0,1-2,2H6a6,6,0,0,1-6-6V6A6,6,0,0,1,6,0Z" transform="translate(-124 359)" fill="#80f2b9"/>
    <g id="그룹_1498" data-name="그룹 1498" transform="translate(-128.895 359.257)">
      <g id="그룹_906" data-name="그룹 906">
        <g id="패스_1743" data-name="패스 1743" transform="translate(0.289 3.525)" fill="#fff">
          <path d="M 1.642410635948181 8.344738960266113 C 1.155653357505798 7.310611724853516 0.1639170050621033 4.813674926757812 0.5484533905982971 2.311088800430298 C 0.8026334047317505 0.6568787693977356 1.27742338180542 -0.6807012557983398 1.921523332595825 -1.55704128742218 C 2.523833274841309 -2.376531362533569 3.235133409500122 -2.774901151657104 4.096063613891602 -2.774901151657104 C 5.982513427734375 -2.774901151657104 6.707403182983398 -0.2631812691688538 6.971603393554688 1.234018683433533 C 7.231823921203613 2.708715200424194 6.709035396575928 5.704052448272705 6.390978336334229 7.187970161437988 L 1.642410635948181 8.344738960266113 Z" stroke="none"/>
          <path d="M 4.096063613891602 -2.024901390075684 C 2.180323600769043 -2.024901390075684 1.495323181152344 1.087038516998291 1.289743423461914 2.424988746643066 C 0.9915957450866699 4.365364074707031 1.605185508728027 6.326345920562744 2.074733257293701 7.467491626739502 L 5.754096984863281 6.571184635162354 C 6.095881938934326 4.867717266082764 6.432840824127197 2.496776819229126 6.233013153076172 1.364358901977539 C 6.043703556060791 0.2915487289428711 5.735623359680176 -0.5960612297058105 5.342073440551758 -1.202541351318359 C 4.869093418121338 -1.931431293487549 4.427733421325684 -2.024901390075684 4.096063613891602 -2.024901390075684 M 4.096063613891602 -3.524901390075684 C 6.335803508758545 -3.524901390075684 7.329763412475586 -1.052191257476807 7.710193157196045 1.103688716888428 C 8.09061336517334 3.259578704833984 7.021113395690918 7.806398391723633 7.021113395690918 7.806398391723633 L 1.24263334274292 9.214058876037598 C 1.24263334274292 9.214058876037598 -0.7408266067504883 5.763458728790283 -0.1928567886352539 2.197178840637207 C 0.3551235198974609 -1.369091033935547 1.8563232421875 -3.524901390075684 4.096063613891602 -3.524901390075684 Z" stroke="none" fill="#fff"/>
        </g>
        <g id="패스_1744" data-name="패스 1744" transform="translate(2.448 14.364) rotate(-16)" fill="#fff">
          <path d="M 2.957492828369141 3.047873020172119 C 2.561152696609497 3.047873020172119 1.979682683944702 2.96776294708252 1.460332751274109 2.586102962493896 C 0.8243109583854675 2.118707895278931 0.7318622469902039 1.301754355430603 0.7530825138092041 0.7500029802322388 L 5.139188766479492 0.7500029802322388 C 5.110720634460449 1.441438913345337 4.984647750854492 2.193926572799683 4.733102798461914 2.448543071746826 C 4.438872814178467 2.746372938156128 3.734482765197754 3.047873020172119 2.957492828369141 3.047873020172119 Z" stroke="none"/>
          <path d="M 1.581131458282471 1.500003099441528 C 1.641476392745972 1.689368009567261 1.742122173309326 1.862448453903198 1.904452800750732 1.981743097305298 C 2.260012626647949 2.243022918701172 2.673352718353271 2.297873020172119 2.957492828369141 2.297873020172119 C 3.544235944747925 2.297873020172119 4.024024486541748 2.074669122695923 4.179429054260254 1.940181493759155 C 4.230122566223145 1.852737903594971 4.274970054626465 1.696030616760254 4.310504913330078 1.500003099441528 L 1.581131458282471 1.500003099441528 M 0.09214258193969727 2.86102294921875e-06 L 5.881412506103516 2.86102294921875e-06 C 5.881412506103516 2.86102294921875e-06 6.03276252746582 2.200162887573242 5.266642570495605 2.975643157958984 C 4.500533103942871 3.751122951507568 2.463522672653198 4.254063129425049 1.016202926635742 3.190463066101074 C -0.431117057800293 2.1268630027771 0.09214258193969727 2.86102294921875e-06 0.09214258193969727 2.86102294921875e-06 Z" stroke="none" fill="#fff"/>
        </g>
      </g>
      <g id="그룹_907" data-name="그룹 907" transform="translate(10.848 3.992)">
        <g id="패스_1743-2" data-name="패스 1743" transform="translate(1.338 3.525)" fill="#fff">
          <path d="M 5.530904769897461 8.089262962341309 L 0.8240467309951782 6.84163761138916 C 0.6557604670524597 5.710554599761963 0.2807347178459167 2.82711386680603 0.5618460178375244 1.234019637107849 C 0.8260360360145569 -0.2631904184818268 1.550926089286804 -2.774900436401367 3.437386035919189 -2.774900436401367 C 4.29831600189209 -2.774900436401367 5.009615898132324 -2.376540422439575 5.611926078796387 -1.557040452957153 C 6.256026268005371 -0.680700421333313 6.730825901031494 0.6568695902824402 6.98499584197998 2.311079502105713 C 7.371203899383545 4.824564933776855 6.110126495361328 7.171084403991699 5.530904769897461 8.089262962341309 Z" stroke="none"/>
          <path d="M 3.437386035919189 -2.024900436401367 C 3.105716228485107 -2.024900436401367 2.664346218109131 -1.931430339813232 2.191366195678711 -1.202540397644043 C 1.797815799713135 -0.5960602760314941 1.489736080169678 0.2915596961975098 1.300436019897461 1.364349365234375 C 1.084607601165771 2.587471485137939 1.301818370819092 4.817161083221436 1.495052337646484 6.243590354919434 L 5.171606063842773 7.218117713928223 C 5.739120006561279 6.190163135528564 6.537215232849121 4.335212707519531 6.243696212768555 2.424989700317383 C 6.038115978240967 1.087039470672607 5.35313606262207 -2.024900436401367 3.437386035919189 -2.024900436401367 M 3.437386035919189 -3.524900436401367 C 5.677125930786133 -3.524900436401367 7.17832612991333 -1.369100570678711 7.726295948028564 2.197179555892944 C 8.274275779724121 5.7634596824646 5.853096008300781 8.950559616088867 5.853096008300781 8.950559616088867 L 0.1589159965515137 7.441229820251465 C 0.1589159965515137 7.441229820251465 -0.5571637153625488 3.259579658508301 -0.1767439842224121 1.103689670562744 C 0.2036762237548828 -1.05219030380249 1.197646141052246 -3.524900436401367 3.437386035919189 -3.524900436401367 Z" stroke="none" fill="#fff"/>
        </g>
        <g id="패스_1744-2" data-name="패스 1744" transform="translate(5.665 17.751) rotate(-164)" fill="#fff">
          <path d="M 5.140162467956543 3.047875642776489 L 0.7529243230819702 3.047875642776489 C 0.7317946553230286 2.496884107589722 0.8240622878074646 1.679353594779968 1.460332751274109 1.211775779724121 C 1.979682683944702 0.8301157355308533 2.561152696609497 0.7500057220458984 2.957492828369141 0.7500057220458984 C 3.734482765197754 0.7500057220458984 4.438872814178467 1.05150580406189 4.733102798461914 1.349335789680481 C 4.986239910125732 1.605565071105957 5.112332820892334 2.357342958450317 5.140162467956543 3.047875642776489 Z" stroke="none"/>
          <path d="M 4.308541297912598 2.297875642776489 C 4.273021697998047 2.101033687591553 4.228690147399902 1.943402409553528 4.179336071014404 1.857616662979126 C 4.023836612701416 1.723120927810669 3.544123411178589 1.500005722045898 2.957492828369141 1.500005722045898 C 2.673352718353271 1.500005722045898 2.260012626647949 1.554855704307556 1.904462695121765 1.816135764122009 C 1.742129445075989 1.935430288314819 1.641481876373291 2.108510732650757 1.581135511398315 2.297875642776489 L 4.308541297912598 2.297875642776489 M 5.881412506103516 3.797875642776489 L 0.0921427384018898 3.797875642776489 C 0.0921427384018898 3.797875642776489 -0.4311172664165497 1.671015739440918 1.016202688217163 0.6074157357215881 C 2.463523149490356 -0.4561842381954193 4.500533580780029 0.04675576463341713 5.266642570495605 0.8222357630729675 C 6.03276252746582 1.597715735435486 5.881412506103516 3.797875642776489 5.881412506103516 3.797875642776489 Z" stroke="none" fill="#fff"/>
        </g>
      </g>
    </g>
    <g id="그룹_1499" data-name="그룹 1499" transform="translate(-129.997 357.257)">
      <g id="그룹_906-2" data-name="그룹 906">
        <g id="패스_1743-3" data-name="패스 1743" transform="translate(0.289 3.525)">
          <path d="M 1.642410635948181 8.344738960266113 C 1.155653357505798 7.310611724853516 0.1639170050621033 4.813674926757812 0.5484533905982971 2.311088800430298 C 0.8026334047317505 0.6568787693977356 1.27742338180542 -0.6807012557983398 1.921523332595825 -1.55704128742218 C 2.523833274841309 -2.376531362533569 3.235133409500122 -2.774901151657104 4.096063613891602 -2.774901151657104 C 5.982513427734375 -2.774901151657104 6.707403182983398 -0.2631812691688538 6.971603393554688 1.234018683433533 C 7.231823921203613 2.708715200424194 6.709035396575928 5.704052448272705 6.390978336334229 7.187970161437988 L 1.642410635948181 8.344738960266113 Z" stroke="none"/>
          <path d="M 4.096063613891602 -2.024901390075684 C 2.180323600769043 -2.024901390075684 1.495323181152344 1.087038516998291 1.289743423461914 2.424988746643066 C 0.9915957450866699 4.365364074707031 1.605185508728027 6.326345920562744 2.074733257293701 7.467491626739502 L 5.754096984863281 6.571184635162354 C 6.095881938934326 4.867717266082764 6.432840824127197 2.496776819229126 6.233013153076172 1.364358901977539 C 6.043703556060791 0.2915487289428711 5.735623359680176 -0.5960612297058105 5.342073440551758 -1.202541351318359 C 4.869093418121338 -1.931431293487549 4.427733421325684 -2.024901390075684 4.096063613891602 -2.024901390075684 M 4.096063613891602 -3.524901390075684 C 6.335803508758545 -3.524901390075684 7.329763412475586 -1.052191257476807 7.710193157196045 1.103688716888428 C 8.09061336517334 3.259578704833984 7.021113395690918 7.806398391723633 7.021113395690918 7.806398391723633 L 1.24263334274292 9.214058876037598 C 1.24263334274292 9.214058876037598 -0.7408266067504883 5.763458728790283 -0.1928567886352539 2.197178840637207 C 0.3551235198974609 -1.369091033935547 1.8563232421875 -3.524901390075684 4.096063613891602 -3.524901390075684 Z" stroke="none" fill="#000"/>
        </g>
        <g id="패스_1744-3" data-name="패스 1744" transform="translate(2.448 14.364) rotate(-16)">
          <path d="M 2.957492828369141 3.047873020172119 C 2.561152696609497 3.047873020172119 1.979682683944702 2.96776294708252 1.460332751274109 2.586102962493896 C 0.8243109583854675 2.118707895278931 0.7318622469902039 1.301754355430603 0.7530825138092041 0.7500029802322388 L 5.139188766479492 0.7500029802322388 C 5.110720634460449 1.441438913345337 4.984647750854492 2.193926572799683 4.733102798461914 2.448543071746826 C 4.438872814178467 2.746372938156128 3.734482765197754 3.047873020172119 2.957492828369141 3.047873020172119 Z" stroke="none"/>
          <path d="M 1.581131458282471 1.500003099441528 C 1.641476392745972 1.689368009567261 1.742122173309326 1.862448453903198 1.904452800750732 1.981743097305298 C 2.260012626647949 2.243022918701172 2.673352718353271 2.297873020172119 2.957492828369141 2.297873020172119 C 3.544235944747925 2.297873020172119 4.024024486541748 2.074669122695923 4.179429054260254 1.940181493759155 C 4.230122566223145 1.852737903594971 4.274970054626465 1.696030616760254 4.310504913330078 1.500003099441528 L 1.581131458282471 1.500003099441528 M 0.09214258193969727 2.86102294921875e-06 L 5.881412506103516 2.86102294921875e-06 C 5.881412506103516 2.86102294921875e-06 6.03276252746582 2.200162887573242 5.266642570495605 2.975643157958984 C 4.500533103942871 3.751122951507568 2.463522672653198 4.254063129425049 1.016202926635742 3.190463066101074 C -0.431117057800293 2.1268630027771 0.09214258193969727 2.86102294921875e-06 0.09214258193969727 2.86102294921875e-06 Z" stroke="none" fill="#000"/>
        </g>
      </g>
      <g id="그룹_907-2" data-name="그룹 907" transform="translate(10.848 3.992)">
        <g id="패스_1743-4" data-name="패스 1743" transform="translate(1.338 3.525)">
          <path d="M 5.530904769897461 8.089262962341309 L 0.8240467309951782 6.84163761138916 C 0.6557604670524597 5.710554599761963 0.2807347178459167 2.82711386680603 0.5618460178375244 1.234019637107849 C 0.8260360360145569 -0.2631904184818268 1.550926089286804 -2.774900436401367 3.437386035919189 -2.774900436401367 C 4.29831600189209 -2.774900436401367 5.009615898132324 -2.376540422439575 5.611926078796387 -1.557040452957153 C 6.256026268005371 -0.680700421333313 6.730825901031494 0.6568695902824402 6.98499584197998 2.311079502105713 C 7.371203899383545 4.824564933776855 6.110126495361328 7.171084403991699 5.530904769897461 8.089262962341309 Z" stroke="none"/>
          <path d="M 3.437386035919189 -2.024900436401367 C 3.105716228485107 -2.024900436401367 2.664346218109131 -1.931430339813232 2.191366195678711 -1.202540397644043 C 1.797815799713135 -0.5960602760314941 1.489736080169678 0.2915596961975098 1.300436019897461 1.364349365234375 C 1.084607601165771 2.587471485137939 1.301818370819092 4.817161083221436 1.495052337646484 6.243590354919434 L 5.171606063842773 7.218117713928223 C 5.739120006561279 6.190163135528564 6.537215232849121 4.335212707519531 6.243696212768555 2.424989700317383 C 6.038115978240967 1.087039470672607 5.35313606262207 -2.024900436401367 3.437386035919189 -2.024900436401367 M 3.437386035919189 -3.524900436401367 C 5.677125930786133 -3.524900436401367 7.17832612991333 -1.369100570678711 7.726295948028564 2.197179555892944 C 8.274275779724121 5.7634596824646 5.853096008300781 8.950559616088867 5.853096008300781 8.950559616088867 L 0.1589159965515137 7.441229820251465 C 0.1589159965515137 7.441229820251465 -0.5571637153625488 3.259579658508301 -0.1767439842224121 1.103689670562744 C 0.2036762237548828 -1.05219030380249 1.197646141052246 -3.524900436401367 3.437386035919189 -3.524900436401367 Z" stroke="none" fill="#000"/>
        </g>
        <g id="패스_1744-4" data-name="패스 1744" transform="translate(5.665 17.751) rotate(-164)">
          <path d="M 5.140162467956543 3.047875642776489 L 0.7529243230819702 3.047875642776489 C 0.7317946553230286 2.496884107589722 0.8240622878074646 1.679353594779968 1.460332751274109 1.211775779724121 C 1.979682683944702 0.8301157355308533 2.561152696609497 0.7500057220458984 2.957492828369141 0.7500057220458984 C 3.734482765197754 0.7500057220458984 4.438872814178467 1.05150580406189 4.733102798461914 1.349335789680481 C 4.986239910125732 1.605565071105957 5.112332820892334 2.357342958450317 5.140162467956543 3.047875642776489 Z" stroke="none"/>
          <path d="M 4.308541297912598 2.297875642776489 C 4.273021697998047 2.101033687591553 4.228690147399902 1.943402409553528 4.179336071014404 1.857616662979126 C 4.023836612701416 1.723120927810669 3.544123411178589 1.500005722045898 2.957492828369141 1.500005722045898 C 2.673352718353271 1.500005722045898 2.260012626647949 1.554855704307556 1.904462695121765 1.816135764122009 C 1.742129445075989 1.935430288314819 1.641481876373291 2.108510732650757 1.581135511398315 2.297875642776489 L 4.308541297912598 2.297875642776489 M 5.881412506103516 3.797875642776489 L 0.0921427384018898 3.797875642776489 C 0.0921427384018898 3.797875642776489 -0.4311172664165497 1.671015739440918 1.016202688217163 0.6074157357215881 C 2.463523149490356 -0.4561842381954193 4.500533580780029 0.04675576463341713 5.266642570495605 0.8222357630729675 C 6.03276252746582 1.597715735435486 5.881412506103516 3.797875642776489 5.881412506103516 3.797875642776489 Z" stroke="none" fill="#000"/>
        </g>
      </g>
    </g>
  </g>
</svg>
