<svg xmlns="http://www.w3.org/2000/svg" width="27.997" height="23.743" viewBox="0 0 27.997 23.743">
  <g id="Seires_Day_trip_아이콘" data-name="Seires_Day trip 아이콘" transform="translate(129.997 -357.257)">
    <path id="사각형_2530" data-name="사각형 2530" d="M6,0H16a6,6,0,0,1,6,6V20a2,2,0,0,1-2,2H6a6,6,0,0,1-6-6V6A6,6,0,0,1,6,0Z" transform="translate(-124 359)" fill="#80f2b9"/>
    <g id="그룹_1498" data-name="그룹 1498" transform="translate(-128.895 359.257)">
      <g id="그룹_906" data-name="그룹 906">
        <g id="패스_1743" data-name="패스 1743" transform="translate(0.289 3.525)" fill="#fff">
          <path d="M 1.642410635948181 8.344738960266113 C 1.155653357505798 7.310611724853516 0.1639170050621033 4.813674926757812 0.5484533905982971 2.311088800430298 C 0.8026334047317505 0.6568787693977356 1.27742338180542 -0.6807012557983398 1.921523332595825 -1.55704128742218 C 2.523833274841309 -2.376531362533569 3.235133409500122 -2.774901151657104 4.096063613891602 -2.774901151657104 C 5.982513427734375 -2.774901151657104 6.707403182983398 -0.2631812691688538 6.971603393554688 1.234018683433533 C 7.231823921203613 2.708715200424194 6.709035396575928 5.704052448272705 6.390978336334229 7.187970161437988 L 1.642410635948181 8.344738960266113 Z" stroke="none"/>
          <path d="M 4.096063613891602 -2.024901390075684 C 2.180323600769043 -2.024901390075684 1.495323181152344 1.087038516998291 1.289743423461914 2.424988746643066 C 0.9915957450866699 4.365364074707031 1.605185508728027 6.326345920562744 2.074733257293701 7.467491626739502 L 5.754096984863281 6.571184635162354 C 6.095881938934326 4.867717266082764 6.432840824127197 2.496776819229126 6.233013153076172 1.364358901977539 C 6.043703556060791 0.2915487289428711 5.735623359680176 -0.5960612297058105 5.342073440551758 -1.202541351318359 C 4.869093418121338 -1.931431293487549 4.427733421325684 -2.024901390075684 4.096063613891602 -2.024901390075684 M 4.096063613891602 -3.524901390075684 C 6.335803508758545 -3.524901390075684 7.329763412475586 -1.052191257476807 7.710193157196045 1.103688716888428 C 8.09061336517334 3.259578704833984 7.021113395690918 7.806398391723633 7.021113395690918 7.806398391723633 L 1.24263334274292 9.214058876037598 C 1.24263334274292 9.214058876037598 -0.7408266067504883 5.763458728790283 -0.1928567886352539 2.197178840637207 C 0.3551235198974609 -1.369091033935547 1.8563232421875 -3.524901390075684 4.096063613891602 -3.524901390075684 Z" stroke="none" fill="#fff"/>
        </g>
        <g id="패스_1744" data-name="패스 1744" transform="translate(2.448 14.364) rotate(-16)" fill="#fff">
          <path d="M 2.957492828369141 3.047873020172119 C 2.561152696609497 3.047873020172119 1.979682683944702 2.96776294708252 1.460332751274109 2.586102962493896 C 0.8243109583854675 2.118707895278931 0.7318622469902039 1.301754355430603 0.7530825138092041 0.7500029802322388 L 5.139188766479492 0.7500029802322388 C 5.110720634460449 1.441438913345337 4.984647750854492 2.193926572799683 4.733102798461914 2.448543071746826 C 4.438872814178467 2.746372938156128 3.734482765197754 3.047873020172119 2.957492828369141 3.047873020172119 Z" stroke="none"/>
          <path d="M 1.581131458282471 1.500003099441528 C 1.641476392745972 1.689368009567261 1.742122173309326 1.862448453903198 1.904452800750732 1.981743097305298 C 2.260012626647949 2.243022918701172 2.673352718353271 2.297873020172119 2.957492828369141 2.297873020172119 C 3.544235944747925 2.297873020172119 4.024024486541748 2.074669122695923 4.179429054260254 1.940181493759155 C 4.230122566223145 1.852737903594971 4.274970054626465 1.696030616760254 4.310504913330078 1.500003099441528 L 1.581131458282471 1.500003099441528 M 0.09214258193969727 2.86102294921875e-06 L 5.881412506103516 2.86102294921875e-06 C 5.881412506103516 2.86102294921875e-06 6.03276252746582 2.200162887573242 5.266642570495605 2.975643157958984 C 4.500533103942871 3.751122951507568 2.463522672653198 4.254063129425049 1.016202926635742 3.190463066101074 C -0.431117057800293 2.1268630027771 0.09214258193969727 2.86102294921875e-06 0.09214258193969727 2.86102294921875e-06 Z" stroke="none" fill="#fff"/>
        </g>
      </g>
      <g id="그룹_907" data-name="그룹 907" transform="translate(10.848 3.992)">
        <g id="패스_1743-2" data-name="패스 1743" transform="translate(1.338 3.525)" fill="#fff">
          <path d="M 5.530904769897461 8.089262962341309 L 0.8240467309951782 6.84163761138916 C 0.6557604670524597 5.710554599761963 0.2807347178459167 2.82711386680603 0.5618460178375244 1.234019637107849 C 0.8260360360145569 -0.2631904184818268 1.550926089286804 -2.774900436401367 3.437386035919189 -2.774900436401367 C 4.29831600189209 -2.774900436401367 5.009615898132324 -2.376540422439575 5.611926078796387 -1.557040452957153 C 6.256026268005371 -0.680700421333313 6.730825901031494 0.6568695902824402 6.98499584197998 2.311079502105713 C 7.371203899383545 4.824564933776855 6.110126495361328 7.171084403991699 5.530904769897461 8.089262962341309 Z" stroke="none"/>
          <path d="M 3.437386035919189 -2.024900436401367 C 3.105716228485107 -2.024900436401367 2.664346218109131 -1.931430339813232 2.191366195678711 -1.202540397644043 C 1.797815799713135 -0.5960602760314941 1.489736080169678 0.2915596961975098 1.300436019897461 1.364349365234375 C 1.084607601165771 2.587471485137939 1.301818370819092 4.817161083221436 1.495052337646484 6.243590354919434 L 5.171606063842773 7.218117713928223 C 5.739120006561279 6.190163135528564 6.537215232849121 4.335212707519531 6.243696212768555 2.424989700317383 C 6.038115978240967 1.087039470672607 5.35313606262207 -2.024900436401367 3.437386035919189 -2.024900436401367 M 3.437386035919189 -3.524900436401367 C 5.677125930786133 -3.524900436401367 7.17832612991333 -1.369100570678711 7.726295948028564 2.197179555892944 C 8.274275779724121 5.7634596824646 5.853096008300781 8.950559616088867 5.853096008300781 8.950559616088867 L 0.1589159965515137 7.441229820251465 C 0.1589159965515137 7.441229820251465 -0.5571637153625488 3.259579658508301 -0.1767439842224121 1.103689670562744 C 0.2036762237548828 -1.05219030380249 1.197646141052246 -3.524900436401367 3.437386035919189 -3.524900436401367 Z" stroke="none" fill="#fff"/>
        </g>
        <g id="패스_1744-2" data-name="패스 1744" transform="translate(5.665 17.751) rotate(-164)" fill="#fff">
          <path d="M 5.140162467956543 3.047875642776489 L 0.7529243230819702 3.047875642776489 C 0.7317946553230286 2.496884107589722 0.8240622878074646 1.679353594779968 1.460332751274109 1.211775779724121 C 1.979682683944702 0.8301157355308533 2.561152696609497 0.7500057220458984 2.957492828369141 0.7500057220458984 C 3.734482765197754 0.7500057220458984 4.438872814178467 1.05150580406189 4.733102798461914 1.349335789680481 C 4.986239910125732 1.605565071105957 5.112332820892334 2.357342958450317 5.140162467956543 3.047875642776489 Z" stroke="none"/>
          <path d="M 4.308541297912598 2.297875642776489 C 4.273021697998047 2.101033687591553 4.228690147399902 1.943402409553528 4.179336071014404 1.857616662979126 C 4.023836612701416 1.723120927810669 3.544123411178589 1.500005722045898 2.957492828369141 1.500005722045898 C 2.673352718353271 1.500005722045898 2.260012626647949 1.554855704307556 1.904462695121765 1.816135764122009 C 1.742129445075989 1.935430288314819 1.641481876373291 2.108510732650757 1.581135511398315 2.297875642776489 L 4.308541297912598 2.297875642776489 M 5.881412506103516 3.797875642776489 L 0.0921427384018898 3.797875642776489 C 0.0921427384018898 3.797875642776489 -0.4311172664165497 1.671015739440918 1.016202688217163 0.6074157357215881 C 2.463523149490356 -0.4561842381954193 4.500533580780029 0.04675576463341713 5.266642570495605 0.8222357630729675 C 6.03276252746582 1.597715735435486 5.881412506103516 3.797875642776489 5.881412506103516 3.797875642776489 Z" stroke="none" fill="#fff"/>
        </g>
      </g>
    </g>
    <g id="그룹_1499" data-name="그룹 1499" transform="translate(-129.997 357.257)">
      <g id="그룹_906-2" data-name="그룹 906">
        <g id="합치기_39" data-name="합치기 39" transform="translate(-129.997 357.257)">
          <path d="M 135.367431640625 -340.6688537597656 C 135.0865173339844 -340.6688537597656 134.8152313232422 -340.716552734375 134.5610809326172 -340.8106384277344 C 133.8224792480469 -341.0838317871094 133.5079040527344 -341.8445739746094 133.3757171630859 -342.3802795410156 L 137.5918426513672 -343.5890808105469 C 137.7548522949219 -342.9168395996094 137.8408660888672 -342.1589965820312 137.669189453125 -341.8449096679688 C 137.4000244140625 -341.3515930175781 136.4506072998047 -340.6688842773438 135.3674163818359 -340.6688537597656 L 135.367431640625 -340.6688537597656 Z M 131.9275665283203 -345.3875122070312 C 131.4407806396484 -346.4216613769531 130.448974609375 -348.918701171875 130.8336029052734 -351.4216003417969 C 131.0878448486328 -353.07568359375 131.5626983642578 -354.4132385253906 132.2068176269531 -355.2896423339844 C 132.8092498779297 -356.1092834472656 133.5206604003906 -356.5077209472656 134.3816986083984 -356.5077209472656 C 136.2684936523438 -356.5077209472656 136.9927825927734 -353.9960327148438 137.256591796875 -352.4988708496094 C 137.5170440673828 -351.0235595703125 136.9944915771484 -348.0281677246094 136.6765441894531 -346.5442504882812 L 131.9275665283203 -345.3875122070312 Z" stroke="none"/>
          <path d="M 135.367431640625 -341.4188537597656 L 135.3674011230469 -341.4188537597656 C 136.1303863525391 -341.4188842773438 136.8232879638672 -341.9072265625 136.9967346191406 -342.1803588867188 C 137.0215759277344 -342.2781677246094 137.0215911865234 -342.4412536621094 137.0017852783203 -342.6396789550781 L 134.3801879882812 -341.8880615234375 C 134.4902954101562 -341.7222290039062 134.6340789794922 -341.5833129882812 134.8214721679688 -341.5140075683594 C 134.9919891357422 -341.4508666992188 135.1756896972656 -341.4188537597656 135.367431640625 -341.4188537597656 M 132.3600311279297 -346.2647705078125 L 136.0396270751953 -347.1610412597656 C 136.3812713623047 -348.8645324707031 136.718017578125 -351.2355651855469 136.5179595947266 -352.3687133789062 C 136.3290252685547 -353.4410095214844 136.0210723876953 -354.3284912109375 135.6273956298828 -354.9352416992188 C 135.1543884277344 -355.6642150878906 134.7132110595703 -355.7577209472656 134.3816986083984 -355.7577209472656 C 132.4657592773438 -355.7577209472656 131.7805480957031 -352.6456298828125 131.5749053955078 -351.3076782226562 C 131.2767486572266 -349.367431640625 131.8899688720703 -347.406982421875 132.3600311279297 -346.2647705078125 M 135.367431640625 -339.9188537597656 C 135.0147399902344 -339.9188537597656 134.6547546386719 -339.9762268066406 134.3007049560547 -340.1072998046875 C 132.6168060302734 -340.7301025390625 132.5330963134766 -342.9189147949219 132.5330963134766 -342.9189147949219 L 138.0987091064453 -344.5146179199219 C 138.0987091064453 -344.5146179199219 138.8502044677734 -342.44189453125 138.3273010253906 -341.4851989746094 C 137.9149932861328 -340.7295532226562 136.6930084228516 -339.9188842773438 135.367431640625 -339.9188537597656 Z M 131.5278015136719 -344.5182189941406 C 131.5278015136719 -344.5182189941406 129.5442047119141 -347.9688110351562 130.0923004150391 -351.5355224609375 C 130.6403961181641 -355.101318359375 132.1416015625 -357.2577209472656 134.3816986083984 -357.2577209472656 C 136.6209106445312 -357.2577209472656 137.6154022216797 -354.7845153808594 137.9952087402344 -352.6289978027344 C 138.3759002685547 -350.4725952148438 137.3067016601562 -345.9258117675781 137.3067016601562 -345.9258117675781 L 131.5278015136719 -344.5182189941406 Z" stroke="none" fill="#000"/>
        </g>
      </g>
      <g id="그룹_907-2" data-name="그룹 907" transform="translate(10.848 3.992)">
        <g id="합치기_40" data-name="합치기 40" transform="translate(-119.149 361.249)">
          <path d="M 122.9380798339844 -344.924072265625 C 121.8555526733398 -344.924072265625 120.9056930541992 -345.6070556640625 120.6362228393555 -346.1001281738281 C 120.4634170532227 -346.416259765625 120.5492477416992 -347.173828125 120.7126922607422 -347.8454284667969 L 124.9302978515625 -346.63623046875 C 124.7986602783203 -346.1006164550781 124.4845581054688 -345.3400268554688 123.7442092895508 -345.0658264160156 C 123.4901580810547 -344.9717712402344 123.2189025878906 -344.924072265625 122.9380798339844 -344.924072265625 Z M 126.0179443359375 -349.6347351074219 L 121.3110046386719 -350.88232421875 C 121.1426696777344 -352.0133666992188 120.767448425293 -354.897216796875 121.0487670898438 -356.4900817871094 C 121.3131103515625 -357.9873962402344 122.0382232666016 -360.4992065429688 123.9246063232422 -360.4992065429688 C 124.7853088378906 -360.4992065429688 125.496452331543 -360.1008911132812 126.0986785888672 -359.2814636230469 C 126.7427597045898 -358.4051208496094 127.2175827026367 -357.0674438476562 127.4718017578125 -355.4130859375 C 127.8581008911133 -352.8999328613281 126.5971298217773 -350.5530700683594 126.0179443359375 -349.6347351074219 Z" stroke="none"/>
          <path d="M 122.9380798339844 -345.674072265625 C 123.1297378540039 -345.674072265625 123.3133926391602 -345.7060852050781 123.4837112426758 -345.7691345214844 C 123.672721862793 -345.8391418457031 123.8172302246094 -345.9779357910156 123.9274749755859 -346.1434936523438 L 121.3055725097656 -346.8952331542969 C 121.2854614257812 -346.6956787109375 121.2847137451172 -346.531494140625 121.308723449707 -346.4355163574219 C 121.4822463989258 -346.1629028320312 122.1755981445312 -345.674072265625 122.9380798339844 -345.674072265625 M 125.6585693359375 -350.505859375 C 126.2260589599609 -351.5339965820312 127.0240859985352 -353.3891906738281 126.7304992675781 -355.2991943359375 C 126.5248870849609 -356.6371765136719 125.8398895263672 -359.7492065429688 123.9246063232422 -359.7492065429688 C 123.5928192138672 -359.7492065429688 123.1513290405273 -359.65576171875 122.6784133911133 -358.9269714355469 C 122.2849426269531 -358.3206481933594 121.9768218994141 -357.4328918457031 121.7873382568359 -356.359619140625 C 121.5713577270508 -355.1367492675781 121.7886657714844 -352.9069213867188 121.9819869995117 -351.4803771972656 L 125.6585693359375 -350.505859375 M 122.9380798339844 -344.174072265625 C 121.6126937866211 -344.174072265625 120.3911209106445 -344.9847412109375 119.9781036376953 -345.7404174804688 C 119.4552001953125 -346.6971130371094 120.2067031860352 -348.7707214355469 120.2067031860352 -348.7707214355469 L 125.7723007202148 -347.1750183105469 C 125.7723007202148 -347.1750183105469 125.688606262207 -344.9862060546875 124.0046997070312 -344.3625183105469 C 123.6506500244141 -344.2314453125 123.2907028198242 -344.174072265625 122.9380798339844 -344.174072265625 Z M 126.340202331543 -348.7734069824219 L 120.6458969116211 -350.28271484375 C 120.6458969116211 -350.28271484375 119.9294967651367 -354.4649963378906 120.3102035522461 -356.6205139160156 C 120.6909027099609 -358.7769165039062 121.6845016479492 -361.2492065429688 123.9246063232422 -361.2492065429688 C 126.1638031005859 -361.2492065429688 127.6650009155273 -359.0937194824219 128.2131042480469 -355.5270080566406 C 128.7611999511719 -351.9612121582031 126.340202331543 -348.7734069824219 126.340202331543 -348.7734069824219 Z" stroke="none" fill="#000"/>
        </g>
      </g>
    </g>
  </g>
</svg>
