<svg xmlns="http://www.w3.org/2000/svg" width="17.86" height="21.554" viewBox="0 0 17.86 21.554">
  <g id="Content_북마크_면" data-name="Content 북마크 면" transform="translate(-5.25 -0.75)" fill="#77f">
    <path d="M 22.36015701293945 21.16768646240234 L 21.31542587280273 20.72121620178223 L 14.18007659912109 17.67189025878906 L 7.044726371765137 20.72121620178223 L 5.999996662139893 21.16768646240234 L 5.999996662139893 20.03155708312988 L 5.999996662139893 3.520106554031372 C 5.999996662139893 2.406216621398926 7.003066539764404 1.499996662139893 8.236016273498535 1.499996662139893 L 20.12413597106934 1.499996662139893 C 21.35708618164063 1.499996662139893 22.36015701293945 2.406216621398926 22.36015701293945 3.520106554031372 L 22.36015701293945 20.03155708312988 L 22.36015701293945 21.16768646240234 Z" stroke="none"/>
    <path d="M 8.236017227172852 2.249996185302734 C 7.415306091308594 2.249996185302734 6.749996185302734 2.818647384643555 6.749996185302734 3.520107269287109 L 6.749996185302734 20.03155708312988 L 14.18007659912109 16.85627746582031 L 21.61015701293945 20.03155708312988 L 21.61015701293945 3.520107269287109 C 21.61015701293945 2.818647384643555 20.9448356628418 2.249996185302734 20.12413787841797 2.249996185302734 L 8.236017227172852 2.249996185302734 M 8.236017227172852 0.7499961853027344 L 20.12413787841797 0.7499961853027344 C 21.77063751220703 0.7499961853027344 23.11015701293945 1.992666244506836 23.11015701293945 3.520107269287109 L 23.11015701293945 20.03155708312988 L 23.11015701293945 22.3038272857666 L 21.02069664001465 21.4108772277832 L 14.18007659912109 18.48750495910645 L 7.339456558227539 21.4108772277832 L 5.249996185302734 22.3038272857666 L 5.249996185302734 20.03155708312988 L 5.249996185302734 3.520107269287109 C 5.249996185302734 1.992666244506836 6.589515686035156 0.7499961853027344 8.236017227172852 0.7499961853027344 Z" stroke="none" fill="#77f"/>
  </g>
</svg>
