<svg xmlns="http://www.w3.org/2000/svg" width="16.027" height="12.885" viewBox="0 0 16.027 12.885">
  <g id="Board_댓글_아이콘_회색" data-name="Board 댓글 아이콘 회색" fill="#fff">
    <path d="M 14.89841842651367 12.13473987579346 L 4.931409358978271 12.13473987579346 C 2.625769376754761 12.13473987579346 0.7499992847442627 9.90226936340332 0.7499992847442627 7.158189296722412 L 0.7499992847442627 5.726549625396729 C 0.7499992847442627 2.98246955871582 2.625769376754761 0.749999463558197 4.931409358978271 0.749999463558197 L 11.09566974639893 0.749999463558197 C 13.4013090133667 0.749999463558197 15.27707958221436 2.98246955871582 15.27707958221436 5.726549625396729 L 15.27707958221436 7.637529373168945 C 15.27707958221436 9.718792915344238 15.04459857940674 11.32842826843262 14.89841842651367 12.13473987579346 Z" stroke="none"/>
    <path d="M 4.931408882141113 1.499999046325684 C 3.039319038391113 1.499999046325684 1.499999046325684 3.39601993560791 1.499999046325684 5.726549625396729 L 1.499999046325684 7.158189296722412 C 1.499999046325684 9.488719940185547 3.039319038391113 11.38473987579346 4.931408882141113 11.38473987579346 L 14.26142024993896 11.38473987579346 C 14.38855361938477 10.52426338195801 14.52707958221436 9.222897529602051 14.52707958221436 7.637529373168945 L 14.52707958221436 5.726549625396729 C 14.52707958221436 3.39601993560791 12.98775959014893 1.499999046325684 11.09566879272461 1.499999046325684 L 4.931408882141113 1.499999046325684 M 4.931408882141113 -9.5367431640625e-07 L 11.09566879272461 -9.5367431640625e-07 C 13.81920909881592 -9.5367431640625e-07 16.02707862854004 2.563858985900879 16.02707862854004 5.726549625396729 L 16.02707862854004 7.637529373168945 C 16.02707862854004 10.80020904541016 15.51069927215576 12.88473987579346 15.51069927215576 12.88473987579346 L 4.931408882141113 12.88473987579346 C 2.207869529724121 12.88473987579346 0 10.32086944580078 0 7.158189296722412 L 0 5.726549625396729 C 0 2.563858985900879 2.207869529724121 -9.5367431640625e-07 4.931408882141113 -9.5367431640625e-07 Z" stroke="none" fill="#c2c2c2"/>
  </g>
</svg>
