<svg xmlns="http://www.w3.org/2000/svg" width="43" height="43" viewBox="0 0 43 43">
  <g id="Series__Content_댓글_보내기_아이콘_" data-name="Series_ Content 댓글 보내기 아이콘 " transform="translate(-89 -30.933)">
    <g id="그룹_799" data-name="그룹 799" transform="translate(-258.64 -128.786)">
      <circle id="타원_371" data-name="타원 371" cx="21.5" cy="21.5" r="21.5" transform="translate(347.64 159.719)" fill="#77f"/>
      <g id="그룹_797" data-name="그룹 797" transform="translate(354.231 169.049)">
        <path id="패스_1682" data-name="패스 1682" d="M380.09,169.2l-25.718,11.152a.226.226,0,0,0,.009.422l10.76,3.527a.218.218,0,0,1,.14.14l3.527,10.76a.225.225,0,0,0,.421.009l11.153-25.718A.22.22,0,0,0,380.09,169.2Z" transform="translate(-354.231 -169.013)" fill="none" stroke="#fff" stroke-miterlimit="10" stroke-width="1.5"/>
        <line id="선_160" data-name="선 160" x1="15.616" y2="15.616" transform="translate(10.793)" fill="none" stroke="#fff" stroke-miterlimit="10" stroke-width="1.5"/>
      </g>
    </g>
    <g id="그룹_803" data-name="그룹 803" transform="translate(-258.64 -128.786)" opacity="0">
      <g id="그룹_797-2" data-name="그룹 797" transform="translate(354.231 169.049)">
        <path id="패스_1682-2" data-name="패스 1682" d="M380.09,169.2l-25.718,11.152a.226.226,0,0,0,.009.422l10.76,3.527a.218.218,0,0,1,.14.14l3.527,10.76a.225.225,0,0,0,.421.009l11.153-25.718A.22.22,0,0,0,380.09,169.2Z" transform="translate(-354.231 -169.013)" fill="none" stroke="#ffd774" stroke-miterlimit="10" stroke-width="1.5"/>
        <line id="선_160-2" data-name="선 160" x1="15.616" y2="15.616" transform="translate(10.793)" fill="none" stroke="#ffd774" stroke-miterlimit="10" stroke-width="1.5"/>
      </g>
    </g>
  </g>
</svg>
