<svg xmlns="http://www.w3.org/2000/svg" width="19.22" height="18.267" viewBox="0 0 19.22 18.267">
  <g id="BOARD_수정_아이콘" data-name="BOARD 수정 아이콘" transform="translate(-361.276 -460.779)">
    <g id="그룹_742" data-name="그룹 742" transform="translate(361.984 460.779)">
      <g id="패스_1658" data-name="패스 1658" transform="translate(11.189 0) rotate(47)" fill="#fff">
        <path d="M 5.04416561126709 14.54950046539307 L 2.294924974441528 14.54950046539307 C 1.443055033683777 14.54950046539307 0.7500050067901611 13.85645008087158 0.7500050067901611 13.0045804977417 L 0.7500050067901611 2.294930219650269 C 0.7500050067901611 1.443050265312195 1.443055033683777 0.7500002384185791 2.294924974441528 0.7500002384185791 L 8.414725303649902 0.7500002384185791 C 9.266605377197266 0.7500002384185791 9.959654808044434 1.443050265312195 9.959654808044434 2.294930219650269 L 9.959654808044434 9.63401985168457 L 5.04416561126709 14.54950046539307 Z" stroke="none"/>
        <path d="M 2.294924736022949 1.5 C 1.856595039367676 1.5 1.499995231628418 1.856599807739258 1.499995231628418 2.294919967651367 L 1.499995231628418 13.0045804977417 C 1.499995231628418 13.44289970397949 1.856595039367676 13.79950046539307 2.294924736022949 13.79950046539307 L 4.733505249023438 13.79950046539307 L 9.20964527130127 9.323360443115234 L 9.20964527130127 2.294919967651367 C 9.20964527130127 1.856599807739258 8.853044509887695 1.5 8.414725303649902 1.5 L 2.294924736022949 1.5 M 2.294924736022949 0 L 8.414725303649902 0 C 9.682174682617188 0 10.70964527130127 1.027470588684082 10.70964527130127 2.294919967651367 L 10.70964527130127 9.944680213928223 L 5.354825019836426 15.29950046539307 L 2.294924736022949 15.29950046539307 C 1.027475357055664 15.29950046539307 -4.76837158203125e-06 14.27202987670898 -4.76837158203125e-06 13.0045804977417 L -4.76837158203125e-06 2.294919967651367 C -4.76837158203125e-06 1.027470588684082 1.027475357055664 0 2.294924736022949 0 Z" stroke="none" fill="#707070"/>
      </g>
      <g id="사각형_2041" data-name="사각형 2041" transform="translate(11.225 0.04) rotate(47)" fill="#fff" stroke="#707070" stroke-width="1.5">
        <path d="M3,0H7.684a3,3,0,0,1,3,3V9.18a0,0,0,0,1,0,0H0a0,0,0,0,1,0,0V3A3,3,0,0,1,3,0Z" stroke="none"/>
        <path d="M3,.75H7.684A2.25,2.25,0,0,1,9.934,3V7.68a.75.75,0,0,1-.75.75H1.5a.75.75,0,0,1-.75-.75V3A2.25,2.25,0,0,1,3,.75Z" fill="none"/>
      </g>
    </g>
    <line id="선_156" data-name="선 156" x2="12.006" transform="translate(361.276 474.465)" fill="none" stroke="#707070" stroke-width="1.5"/>
  </g>
</svg>
