<svg xmlns="http://www.w3.org/2000/svg" width="23.5" height="20.994" viewBox="0 0 23.5 20.994">
  <g id="Content_좋아요_선" data-name="Content 좋아요 선" transform="translate(0.75 0.756)" style="isolation: isolate">
    <path id="패스_249" data-name="패스 249" d="M-1066.315-981.691a5.841,5.841,0,0,0-3.772-4.443,5.213,5.213,0,0,0-4.251.222,6.406,6.406,0,0,0-2.618,2.562c-.057.095-.111.191-.176.3-.179-.283-.328-.543-.5-.787a5.576,5.576,0,0,0-4.126-2.6,5.421,5.421,0,0,0-4,1.158,6.238,6.238,0,0,0-2.337,4.407,7.227,7.227,0,0,0,1.281,4.857,15.793,15.793,0,0,0,2.738,3.127c2.149,1.915,4.33,3.793,6.5,5.682a.653.653,0,0,0,.93-.045c1.735-1.5,3.474-2.988,5.2-4.494a24.587,24.587,0,0,0,3.53-3.626,8.438,8.438,0,0,0,1.589-3.205c.083-.361.127-.731.189-1.1v-.946C-1066.195-980.975-1066.23-981.339-1066.315-981.691Z" transform="translate(1088.136 986.483)" fill="none" stroke="#d2d2d2" stroke-linecap="round" stroke-linejoin="round" stroke-miterlimit="10" stroke-width="1.5"/>
  </g>
</svg>
