<svg xmlns="http://www.w3.org/2000/svg" width="17.86" height="21.554" viewBox="0 0 17.86 21.554">
  <g id="Content_북마크_흰선_가이드북_" data-name="Content 북마크 흰선 (가이드북) " transform="translate(-5.25 -0.75)" fill="none">
    <path d="M20.124,2.25H8.236A1.391,1.391,0,0,0,6.75,3.52V20.032l7.43-3.175,7.43,3.175V3.52A1.391,1.391,0,0,0,20.124,2.25Z" stroke="none"/>
    <path d="M 8.236017227172852 2.249996185302734 C 7.415306091308594 2.249996185302734 6.749996185302734 2.818647384643555 6.749996185302734 3.520107269287109 L 6.749996185302734 20.03155708312988 L 14.18007659912109 16.85627746582031 L 21.61015701293945 20.03155708312988 L 21.61015701293945 3.520107269287109 C 21.61015701293945 2.818647384643555 20.9448356628418 2.249996185302734 20.12413787841797 2.249996185302734 L 8.236017227172852 2.249996185302734 M 8.236017227172852 0.7499961853027344 L 20.12413787841797 0.7499961853027344 C 21.77063751220703 0.7499961853027344 23.11015701293945 1.992666244506836 23.11015701293945 3.520107269287109 L 23.11015701293945 20.03155708312988 L 23.11015701293945 22.3038272857666 L 21.02069664001465 21.4108772277832 L 14.18007659912109 18.48750495910645 L 7.339456558227539 21.4108772277832 L 5.249996185302734 22.3038272857666 L 5.249996185302734 20.03155708312988 L 5.249996185302734 3.520107269287109 C 5.249996185302734 1.992666244506836 6.589515686035156 0.7499961853027344 8.236017227172852 0.7499961853027344 Z" stroke="none" fill="#fff"/>
  </g>
</svg>
