<svg xmlns="http://www.w3.org/2000/svg" width="20.448" height="12.866" viewBox="0 0 20.448 12.866">
  <g id="그룹_1103" data-name="그룹 1103" style="isolation: isolate">
    <g id="패스_1818" data-name="패스 1818" transform="translate(0 0)" fill="none">
      <path d="M10.224,0c5.647,0,10.224,4.7,10.224,6.433s-4.577,6.433-10.224,6.433S0,8.579,0,6.433,4.577,0,10.224,0Z" stroke="none"/>
      <path d="M 10.22403621673584 1 C 7.113205909729004 1 4.726786613464355 2.392040252685547 3.581136703491211 3.221819877624512 C 1.700746536254883 4.583780288696289 0.9999961853027344 5.914390087127686 0.9999961853027344 6.433189868927002 C 0.9999961853027344 6.951989650726318 1.700746536254883 8.282600402832031 3.581136703491211 9.644559860229492 C 4.726786613464355 10.47434043884277 7.113205909729004 11.866379737854 10.22403621673584 11.866379737854 C 13.25014686584473 11.866379737854 15.67106628417969 10.3875904083252 16.84481620788574 9.506099700927734 C 18.69279670715332 8.118249893188477 19.44551658630371 6.764039993286133 19.44807624816895 6.433249950408936 C 19.44551658630371 6.102339744567871 18.69279670715332 4.748129844665527 16.84481620788574 3.36028003692627 C 15.67106628417969 2.478790283203125 13.25014686584473 1 10.22403621673584 1 M 10.22403621673584 0 C 15.8706169128418 0 20.44807624816895 4.700479507446289 20.44807624816895 6.433189868927002 C 20.44807624816895 8.165899276733398 15.8706169128418 12.866379737854 10.22403621673584 12.866379737854 C 4.577456474304199 12.866379737854 -3.814697265625e-06 8.578939437866211 -3.814697265625e-06 6.433189868927002 C -3.814697265625e-06 4.287440299987793 4.577456474304199 0 10.22403621673584 0 Z" stroke="none" fill="#d2d2d2"/>
    </g>
    <g id="타원_409" data-name="타원 409" transform="translate(5.724 1.933)" fill="none" stroke="#d2d2d2" stroke-width="1">
      <circle cx="4.5" cy="4.5" r="4.5" stroke="none"/>
      <circle cx="4.5" cy="4.5" r="4" fill="none"/>
    </g>
  </g>
</svg>
