<svg xmlns="http://www.w3.org/2000/svg" width="16.876" height="12.934" viewBox="0 0 16.876 12.934">
  <path id="Series__Content_에디터노트_체크_아이콘_" data-name="Series_ Content 에디터노트 체크 아이콘 " d="M17.438,4.281a1.008,1.008,0,0,1-.3.74L9.251,12.9,7.77,14.385a1.051,1.051,0,0,1-1.481,0L4.809,12.9.867,8.963a1.051,1.051,0,0,1,0-1.481L2.348,6a1.008,1.008,0,0,1,.74-.3,1.008,1.008,0,0,1,.74.3l3.2,3.212,7.142-7.153a1.051,1.051,0,0,1,1.481,0l1.481,1.481a1.008,1.008,0,0,1,.3.74Z" transform="translate(-0.562 -1.756)" fill="#8797ff"/>
</svg>
