<svg xmlns="http://www.w3.org/2000/svg" width="17" height="23" viewBox="0 0 17 23">
  <g id="Series__Content_에디터노트_아이콘_" data-name="Series_ Content 에디터노트 아이콘 " transform="translate(-1402 -330)">
    <g id="사각형_2420" data-name="사각형 2420" transform="translate(1402 337)" fill="none" stroke="#8797ff" stroke-miterlimit="10" stroke-width="1.5">
      <rect width="17" height="16" rx="2.219" stroke="none"/>
      <rect x="0.75" y="0.75" width="15.5" height="14.5" rx="1.469" fill="none"/>
    </g>
    <g id="패스_1991" data-name="패스 1991" fill="#8797ff" stroke-miterlimit="10">
      <path d="M 1417.5 346.8871765136719 L 1403.5 346.8871765136719 C 1403.063598632813 346.8871765136719 1402.708618164063 346.5085754394531 1402.708618164063 346.0432434082031 L 1402.708618164063 331.5525512695313 C 1402.708618164063 331.1642150878906 1402.955932617188 330.8363037109375 1403.291381835938 330.7384338378906 L 1403.291381835938 332.0700988769531 C 1403.291381835938 333.0315856933594 1404.057861328125 333.8137817382813 1405 333.8137817382813 C 1405.942138671875 333.8137817382813 1406.708618164063 333.0315856933594 1406.708618164063 332.0700988769531 L 1406.708618164063 330.7086486816406 L 1407.291381835938 330.7086486816406 L 1407.291381835938 332.0700988769531 C 1407.291381835938 333.0315856933594 1408.057861328125 333.8137817382813 1409 333.8137817382813 C 1409.942138671875 333.8137817382813 1410.708618164063 333.0315856933594 1410.708618164063 332.0700988769531 L 1410.708618164063 330.7086486816406 L 1411.291381835938 330.7086486816406 L 1411.291381835938 332.0700988769531 C 1411.291381835938 333.0315856933594 1412.057861328125 333.8137817382813 1413 333.8137817382813 C 1413.942138671875 333.8137817382813 1414.708618164063 333.0315856933594 1414.708618164063 332.0700988769531 L 1414.708618164063 330.7086486816406 L 1417.5 330.7086486816406 C 1417.936401367188 330.7086486816406 1418.291381835938 331.0872192382813 1418.291381835938 331.5525512695313 L 1418.291381835938 346.0432434082031 C 1418.291381835938 346.5085754394531 1417.936401367188 346.8871765136719 1417.5 346.8871765136719 Z" stroke="none"/>
      <path d="M 1415.417358398438 331.4173278808594 L 1415.417358398438 332.0700988769531 C 1415.417358398438 333.4223327636719 1414.332885742188 334.5224609375 1413 334.5224609375 C 1412.16943359375 334.5224609375 1411.435302734375 334.0952453613281 1411 333.4461364746094 C 1410.564697265625 334.0952453613281 1409.83056640625 334.5224609375 1409 334.5224609375 C 1408.16943359375 334.5224609375 1407.435302734375 334.0952453613281 1407 333.4461364746094 C 1406.564697265625 334.0952453613281 1405.83056640625 334.5224609375 1405 334.5224609375 C 1404.395263671875 334.5224609375 1403.841674804688 334.2959899902344 1403.417358398438 333.9223022460938 L 1403.417358398438 346.0432434082031 C 1403.417358398438 346.1270446777344 1403.465454101563 346.1784973144531 1403.5 346.1784973144531 L 1417.5 346.1784973144531 C 1417.534545898438 346.1784973144531 1417.582641601563 346.1270446777344 1417.582641601563 346.0432434082031 L 1417.582641601563 331.5525512695313 C 1417.582641601563 331.4687805175781 1417.534545898438 331.4173278808594 1417.5 331.4173278808594 L 1415.417358398438 331.4173278808594 M 1403.5 330 L 1404 330 L 1404 332.0700988769531 C 1404 332.6393432617188 1404.449951171875 333.1051330566406 1405 333.1051330566406 C 1405.550048828125 333.1051330566406 1406 332.6393432617188 1406 332.0700988769531 L 1406 330 L 1408 330 L 1408 332.0700988769531 C 1408 332.6393432617188 1408.449951171875 333.1051330566406 1409 333.1051330566406 C 1409.550048828125 333.1051330566406 1410 332.6393432617188 1410 332.0700988769531 L 1410 330 L 1412 330 L 1412 332.0700988769531 C 1412 332.6393432617188 1412.449951171875 333.1051330566406 1413 333.1051330566406 C 1413.550048828125 333.1051330566406 1414 332.6393432617188 1414 332.0700988769531 L 1414 330 L 1417.5 330 C 1418.329956054688 330 1419 330.6934814453125 1419 331.5525512695313 L 1419 346.0432434082031 C 1419 346.9023132324219 1418.329956054688 347.5958251953125 1417.5 347.5958251953125 L 1403.5 347.5958251953125 C 1402.670043945313 347.5958251953125 1402 346.9023132324219 1402 346.0432434082031 L 1402 331.5525512695313 C 1402 330.6934814453125 1402.670043945313 330 1403.5 330 Z" stroke="none" fill="#8797ff"/>
    </g>
  </g>
</svg>
