<svg xmlns="http://www.w3.org/2000/svg" width="19.005" height="16.548" viewBox="0 0 19.005 16.548">
  <g id="Series_가이드북__입장료_아이콘" data-name="Series 가이드북_ 입장료 아이콘" transform="translate(-159 -1157.786)">
    <g id="그룹_878" data-name="그룹 878" transform="translate(159 1157.786)">
      <g id="사각형_2101" data-name="사각형 2101" transform="translate(0 3.881)" fill="#fff" stroke="#8797ff" stroke-width="1.5">
        <rect width="19.005" height="12.667" rx="3" stroke="none"/>
        <rect x="0.75" y="0.75" width="17.505" height="11.167" rx="2.25" fill="none"/>
      </g>
      <g id="사각형_2402" data-name="사각형 2402" fill="#fff" stroke="#8797ff" stroke-width="1.5">
        <path d="M3,0H16.005a3,3,0,0,1,3,3V9.667a3,3,0,0,1-3,3H1a1,1,0,0,1-1-1V3A3,3,0,0,1,3,0Z" stroke="none"/>
        <path d="M3,.75H16.005A2.25,2.25,0,0,1,18.255,3V9.667a2.25,2.25,0,0,1-2.25,2.25H1a.25.25,0,0,1-.25-.25V3A2.25,2.25,0,0,1,3,.75Z" fill="none"/>
      </g>
      <g id="그룹_1277" data-name="그룹 1277" transform="translate(5.419)">
        <g id="그룹_877" data-name="그룹 877">
          <text id="W" transform="translate(0 1)" fill="#8797ff" font-size="9" font-family="BrandonGrotesque-Bold, Brandon Grotesque" font-weight="700"><tspan x="0" y="9">W</tspan></text>
        </g>
        <line id="선_163" data-name="선 163" x2="9" transform="translate(-0.347 6.047)" fill="none" stroke="#8797ff" stroke-width="1"/>
      </g>
    </g>
  </g>
</svg>
