<svg xmlns="http://www.w3.org/2000/svg" width="23.302" height="20.668" viewBox="0 0 23.302 20.668">
  <g id="Series__Content_글로챗서비스_아이콘_" data-name="Series_ Content 글로챗서비스 아이콘 " transform="translate(-91.946 -709.247)">
    <g id="그룹_1157" data-name="그룹 1157" transform="translate(91.946 712.042)">
      <g id="패스_1884" data-name="패스 1884" transform="translate(-93.251 -712.778)" fill="#8797ff" stroke-miterlimit="10">
        <path d="M 105.6006698608398 728.6019897460938 C 105.5769577026367 728.31640625 105.459228515625 728.0506591796875 105.2615127563477 727.841552734375 C 105.0347442626953 727.6016235351563 104.7288436889648 727.4646606445313 104.4001541137695 727.4559326171875 C 102.5061569213867 727.4008178710938 100.7347640991211 726.658935546875 99.41470336914063 725.3670654296875 C 98.10518646240234 724.0855102539063 97.38400268554688 722.3991088867188 97.38400268554688 720.6185913085938 C 97.38400268554688 716.8467407226563 100.6344223022461 713.7781372070313 104.6297225952148 713.7781372070313 C 106.348876953125 713.7781372070313 108.0152130126953 714.3561401367188 109.32177734375 715.4057006835938 C 110.9451065063477 716.7098388671875 111.8761444091797 718.60986328125 111.8761444091797 720.6185913085938 C 111.8761444091797 720.79443359375 111.7277297973633 721.841552734375 108.7977752685547 725.194580078125 C 107.7003555297852 726.450439453125 106.5181198120117 727.6787109375 105.6006698608398 728.6019897460938 Z" stroke="none"/>
        <path d="M 104.6297225952148 714.7781372070313 C 101.1858215332031 714.7781372070313 98.38400268554688 717.3981323242188 98.38400268554688 720.6185913085938 C 98.38400268554688 722.1279296875 98.99844360351563 723.5604858398438 100.114143371582 724.65234375 C 101.2539749145508 725.7678833007813 102.7873001098633 726.4085693359375 104.4268112182617 726.456298828125 C 104.9345321655273 726.4698486328125 105.4119644165039 726.651611328125 105.7960891723633 726.9735107421875 C 106.4438095092773 726.3026123046875 107.1523971557617 725.5466918945313 107.8354797363281 724.7745971679688 C 110.4397048950195 721.830810546875 110.8260803222656 720.7367553710938 110.8757858276367 720.5562133789063 C 110.8566513061523 718.8751220703125 110.0643997192383 717.2850341796875 108.6955108642578 716.185302734375 C 107.5658645629883 715.2778930664063 106.121940612793 714.7781372070313 104.6297225952148 714.7781372070313 M 104.6297225952148 712.7781372070313 C 106.6563873291016 712.7781372070313 108.5122222900391 713.4727172851563 109.9480361938477 714.6260986328125 C 111.7389297485352 716.0648193359375 112.8761444091797 718.2149658203125 112.8761444091797 720.6185913085938 C 112.8761444091797 722.8464965820313 106.6295623779297 729.0252685546875 105.0130310058594 730.5867309570313 C 104.9665679931641 730.6316528320313 104.9117965698242 730.65185546875 104.8581619262695 730.65185546875 C 104.7382431030273 730.65185546875 104.6239624023438 730.5509033203125 104.6205520629883 730.399658203125 C 104.6078414916992 729.8779907226563 104.5930099487305 729.1156005859375 104.6050109863281 728.7188720703125 C 104.6092529296875 728.5756225585938 104.5061798095703 728.4591064453125 104.3734817504883 728.45556640625 C 99.93754577636719 728.3264770507813 96.38400268554688 724.8668212890625 96.38400268554688 720.6185913085938 C 96.38400268554688 716.287841796875 100.0759048461914 712.7781372070313 104.6297225952148 712.7781372070313 Z" stroke="none" fill="#8797ff"/>
      </g>
      <g id="패스_1885" data-name="패스 1885" transform="translate(-91.946 -714.753)" fill="none" stroke-linejoin="round">
        <path d="M94.286,722.633a6.436,6.436,0,0,0,.643,2.824h0a2.975,2.975,0,1,1,.151-5.947A6.528,6.528,0,0,0,94.286,722.633Z" stroke="none"/>
        <path d="M 94.78286743164063 725.4608154296875 C 93.21892547607422 725.4608154296875 91.94599914550781 724.1290283203125 91.94599914550781 722.4808349609375 C 91.94599914550781 720.83203125 93.2196044921875 719.4944458007813 94.78350067138672 719.4944458007813 C 94.88137817382813 719.4944458007813 94.98033142089844 719.4996337890625 95.08024597167969 719.5103759765625 C 94.57691192626953 720.43798828125 94.28607940673828 721.5003662109375 94.28607940673828 722.6333618164063 C 94.28607940673828 723.649169921875 94.5155029296875 724.6056518554688 94.92917633056641 725.4569702148438 C 94.88022613525391 725.4595336914063 94.83128356933594 725.4608154296875 94.78286743164063 725.4608154296875 Z" stroke="none" fill="#8797ff"/>
      </g>
    </g>
    <g id="그룹_1158" data-name="그룹 1158" transform="translate(110.403 716.266)">
      <g id="패스_1886" data-name="패스 1886" transform="translate(-118.093 -718.763)" fill="none" stroke-linejoin="round">
        <path d="M122.938,722.6a3.762,3.762,0,0,1-3.764,3.763,3.057,3.057,0,0,1-1.081-.178,15.485,15.485,0,0,0,1.4-1.858,5.5,5.5,0,0,0,.712-1.735,5.422,5.422,0,0,0-.114-1.975,6.083,6.083,0,0,0-.236-.935c-.1-.282-.5-.882-.381-.9a3.085,3.085,0,0,1,2.5,1.09A4.142,4.142,0,0,1,122.938,722.6Z" stroke="none"/>
        <path d="M 119.1737518310547 726.3619384765625 C 118.8052673339844 726.3619384765625 118.4389038085938 726.3140258789063 118.0930023193359 726.18408203125 C 118.5920867919922 725.5883178710938 119.0932922363281 724.9896850585938 119.4970779418945 724.3261108398438 C 119.8217849731445 723.7904052734375 120.0836715698242 723.207275390625 120.2093276977539 722.5910034179688 C 120.3406219482422 721.94580078125 120.2071914672852 721.2568359375 120.0956726074219 720.6158447265625 C 120.0406036376953 720.2989501953125 119.9643783569336 719.9855346679688 119.8599014282227 719.6812744140625 C 119.7631988525391 719.39892578125 119.3615264892578 718.799560546875 119.4787063598633 718.7777099609375 C 119.5612182617188 718.7675170898438 119.6445617675781 718.7625732421875 119.7281112670898 718.7625732421875 C 120.5694885253906 718.7625732421875 121.4446487426758 719.2601318359375 121.9776229858398 719.8676147460938 C 122.6327056884766 720.61376953125 122.9376678466797 721.6161499023438 122.9376678466797 722.5988159179688 C 122.9376678466797 724.6754760742188 121.2568817138672 726.3619384765625 119.1737518310547 726.3619384765625 Z" stroke="none" fill="#8797ff"/>
      </g>
    </g>
    <g id="패스_1887" data-name="패스 1887" transform="translate(-1.755 -2.337)" fill="#c6c6c6" stroke-linejoin="round">
      <path d="M 98.86503601074219 718.5904541015625 L 97.17336273193359 718.0887451171875 L 97.91824340820313 717.3438110351563 L 98.89588165283203 718.4979248046875 C 98.88852691650391 718.525146484375 98.87853240966797 718.556640625 98.86503601074219 718.5904541015625 Z" stroke="none"/>
      <path d="M 97.91501617431641 718.3400268554688 C 97.92207336425781 718.2976684570313 97.92207336425781 718.25537109375 97.93619537353516 718.219970703125 C 97.92912292480469 718.25537109375 97.92912292480469 718.2976684570313 97.92912292480469 718.3329467773438 C 97.92207336425781 718.3329467773438 97.92207336425781 718.3400268554688 97.91501617431641 718.3400268554688 Z" stroke="none" fill="#c6c6c6"/>
    </g>
    <path id="패스_1888" data-name="패스 1888" d="M95.726,715.578c1.32-4.518,11.43-9.066,17.334-.378" transform="translate(-1.112 0)" fill="none" stroke="#8797ff" stroke-linecap="round" stroke-linejoin="round" stroke-width="2"/>
  </g>
</svg>
