<svg xmlns="http://www.w3.org/2000/svg" width="19.35" height="19.991" viewBox="0 0 19.35 19.991">
  <g id="Series__Content_메뉴_비건_아이콘_" data-name="Series_ Content 메뉴 비건 아이콘 " transform="translate(-178.007 -3331.608)">
    <g id="패스_1965" data-name="패스 1965" transform="translate(197.358 3339.045) rotate(129)" fill="none" stroke-linejoin="round">
      <path d="M9.091,0c5.021,0,7.063,2.955,7.063,5.909s-2.042,5.909-7.063,5.909S0,5.909,0,5.909,4.07,0,9.091,0Z" stroke="none"/>
      <path d="M 9.090787887573242 1.500002861022949 C 6.990818023681641 1.500002861022949 5.006377220153809 2.875223159790039 3.711427688598633 4.028892993927002 C 2.949771881103516 4.707445621490479 2.327674865722656 5.394613742828369 1.897501945495605 5.909963130950928 C 2.316604614257813 6.412109851837158 2.919882774353027 7.078523635864258 3.664817810058594 7.747452735900879 C 4.970757484436035 8.920132637023926 6.972197532653809 10.31802272796631 9.090787887573242 10.31802272796631 C 10.99308776855469 10.31802272796631 12.50350761413574 9.826513290405273 13.45876789093018 8.896622657775879 C 14.22939777374268 8.146462440490723 14.6537971496582 7.085443019866943 14.6537971496582 5.909012794494629 C 14.6537971496582 4.732582569122314 14.22939777374268 3.671563148498535 13.45876789093018 2.921402931213379 C 12.50350761413574 1.991513252258301 10.99308776855469 1.500002861022949 9.090787887573242 1.500002861022949 M 9.090787887573242 2.86102294921875e-06 C 14.11149787902832 2.86102294921875e-06 16.1537971496582 2.954503059387207 16.1537971496582 5.909012794494629 C 16.1537971496582 8.863522529602051 14.11149787902832 11.81802272796631 9.090787887573242 11.81802272796631 C 4.070087432861328 11.81802272796631 -1.9073486328125e-06 5.909012794494629 -1.9073486328125e-06 5.909012794494629 C -1.9073486328125e-06 5.909012794494629 4.070087432861328 2.86102294921875e-06 9.090787887573242 2.86102294921875e-06 Z" stroke="none" fill="#8797ff"/>
    </g>
    <path id="패스_1966" data-name="패스 1966" d="M6.143,0A59.81,59.81,0,0,1,2.57,5.76c-1.275,1.593-3.951.956-3.951.956" transform="translate(181.082 3341.948)" fill="none" stroke="#8797ff" stroke-linecap="round" stroke-width="1.5"/>
  </g>
</svg>
