<svg id="Series__Content_입장료_아이콘_" data-name="Series_ Content 입장료 아이콘 " xmlns="http://www.w3.org/2000/svg" width="19.005" height="16.548" viewBox="0 0 19.005 16.548">
  <g id="패스_1990" data-name="패스 1990" transform="translate(0 3.881)" fill="none">
    <path d="M19.005,6.153V9.667a3,3,0,0,1-3,3H3a3,3,0,0,1-3-3V6.153L1.361,7.3s10.509.005,13.741.005S19.005,6.153,19.005,6.153Z" stroke="none"/>
    <path d="M 17.50537490844727 8.569025039672852 C 16.85542678833008 8.715590476989746 16.06407356262207 8.808834075927734 15.10223579406738 8.808834075927734 C 12.10930633544922 8.808834075927734 2.759088516235352 8.804386138916016 1.499996185302734 8.803781509399414 L 1.499996185302734 9.666744232177734 C 1.499996185302734 10.4938440322876 2.172895431518555 11.16674423217773 2.999996185302734 11.16674423217773 L 16.00537490844727 11.16674423217773 C 16.83247566223145 11.16674423217773 17.50537490844727 10.4938440322876 17.50537490844727 9.666744232177734 L 17.50537490844727 8.569025039672852 M -3.814697265625e-06 6.153324127197266 L 1.360864639282227 7.303713798522949 C 1.360864639282227 7.303713798522949 11.87026596069336 7.308834075927734 15.10223579406738 7.308834075927734 C 18.33419609069824 7.308834075927734 19.00537490844727 6.153324127197266 19.00537490844727 6.153324127197266 L 19.00537490844727 9.666744232177734 C 19.00537490844727 11.32360458374023 17.6622257232666 12.66674423217773 16.00537490844727 12.66674423217773 L 2.999996185302734 12.66674423217773 C 1.343145370483398 12.66674423217773 -3.814697265625e-06 11.32360458374023 -3.814697265625e-06 9.666744232177734 L -3.814697265625e-06 6.153324127197266 Z" stroke="none" fill="#8797ff"/>
  </g>
  <g id="사각형_2402" data-name="사각형 2402" fill="none" stroke="#8797ff" stroke-width="1.5">
    <path d="M3,0H16.005a3,3,0,0,1,3,3V9.667a3,3,0,0,1-3,3H1a1,1,0,0,1-1-1V3A3,3,0,0,1,3,0Z" stroke="none"/>
    <path d="M3,.75H16.005A2.25,2.25,0,0,1,18.255,3V9.667a2.25,2.25,0,0,1-2.25,2.25H1a.25.25,0,0,1-.25-.25V3A2.25,2.25,0,0,1,3,.75Z" fill="none"/>
  </g>
  <g id="그룹_1277" data-name="그룹 1277" transform="translate(5.419)">
    <g id="그룹_877" data-name="그룹 877">
      <text id="W" fill="#8797ff" font-size="8" font-family="MalgunGothicBold, Malgun Gothic"><tspan x="0" y="9">W</tspan></text>
    </g>
    <line id="선_163" data-name="선 163" x2="8" transform="translate(0.167 6.047)" fill="none" stroke="#8797ff" stroke-width="1"/>
  </g>
</svg>
