<svg xmlns="http://www.w3.org/2000/svg" width="22.62" height="24.94" viewBox="0 0 22.62 24.94">
  <g id="Series__Content_포토스팟_아이콘_" data-name="Series_ Content 포토스팟 아이콘 " transform="translate(-1316.88 -325.92)">
    <g id="패스_1997" data-name="패스 1997" fill="#8797ff" stroke-miterlimit="10">
      <path d="M 1327.215454101563 344.2113647460938 L 1323.219970703125 344.2113647460938 C 1320.114868164063 344.2113647460938 1317.588623046875 341.6896362304688 1317.588623046875 338.5899963378906 L 1317.588623046875 332.25 C 1317.588623046875 329.150390625 1320.114868164063 326.628662109375 1323.219970703125 326.628662109375 L 1329.550048828125 326.628662109375 C 1332.649658203125 326.628662109375 1335.17138671875 329.150390625 1335.17138671875 332.25 L 1335.17138671875 338.5899963378906 C 1335.17138671875 338.6702575683594 1335.17138671875 338.7460327148438 1335.162719726563 338.7931518554688 L 1335.153564453125 338.8439636230469 L 1335.151733398438 338.8955688476563 C 1335.145263671875 339.0842590332031 1335.127563476563 339.2734375 1335.098999023438 339.46240234375 L 1334.690795898438 339.2023010253906 C 1334.316528320313 338.9656066894531 1334.016479492188 338.6220703125 1333.821044921875 338.2076721191406 L 1332.140869140625 334.6475524902344 L 1331.993041992188 334.3341979980469 C 1331.908813476563 333.8971252441406 1331.771118164063 333.4682006835938 1331.584350585938 333.0650634765625 C 1330.657470703125 331.025634765625 1328.616088867188 329.7080383300781 1326.383056640625 329.7080383300781 C 1326.080078125 329.7080383300781 1325.772827148438 329.7322387695313 1325.4697265625 329.7799682617188 C 1323.052368164063 330.1598205566406 1321.107177734375 332.1103210449219 1320.739379882813 334.5232238769531 C 1320.301513671875 337.4134216308594 1322.077880859375 340.1639099121094 1324.87158203125 340.9231262207031 C 1325.04541015625 340.971923828125 1325.222412109375 341.0121459960938 1325.401977539063 341.043701171875 L 1324.759765625 341.4519653320313 L 1323.81982421875 342.0495910644531 L 1324.759399414063 342.6477966308594 L 1327.215454101563 344.2113647460938 Z" stroke="none"/>
      <path d="M 1323.219970703125 327.3373413085938 C 1320.505615234375 327.3373413085938 1318.29736328125 329.5411682128906 1318.29736328125 332.25 L 1318.29736328125 338.5899963378906 C 1318.29736328125 341.2988586425781 1320.505615234375 343.502685546875 1323.219970703125 343.502685546875 L 1324.78271484375 343.502685546875 L 1324.37890625 343.2455749511719 L 1322.499633789063 342.0491943359375 L 1323.732666015625 341.2651977539063 C 1321.1513671875 340.1006469726563 1319.598754882813 337.3213500976563 1320.038818359375 334.4164428710938 C 1320.452514648438 331.7016296386719 1322.640747070313 329.5071716308594 1325.359497070313 329.0799560546875 C 1325.698974609375 329.0264892578125 1326.043334960938 328.9993896484375 1326.382934570313 328.9993896484375 C 1328.891967773438 328.9993591308594 1331.185302734375 330.478271484375 1332.227661132813 332.7679748535156 C 1332.429443359375 333.2034606933594 1332.578491210938 333.6542663574219 1332.673706054688 334.1161193847656 L 1332.78173828125 334.3451232910156 L 1334.4619140625 337.9053344726563 C 1334.462158203125 337.9058837890625 1334.46240234375 337.9064025878906 1334.462646484375 337.9069519042969 L 1334.462646484375 332.25 C 1334.462646484375 329.5411682128906 1332.258911132813 327.3373413085938 1329.550048828125 327.3373413085938 L 1323.219970703125 327.3373413085938 M 1323.219970703125 325.9200134277344 L 1329.550048828125 325.9200134277344 C 1333.050048828125 325.9200134277344 1335.880004882813 328.760009765625 1335.880004882813 332.25 L 1335.880004882813 338.5899963378906 C 1335.880004882813 338.7000122070313 1335.880004882813 338.8099975585938 1335.859985351563 338.9200134277344 C 1335.839965820313 339.5 1335.72998046875 340.0599975585938 1335.550048828125 340.5899963378906 L 1334.31005859375 339.7999877929688 C 1333.819946289063 339.489990234375 1333.430053710938 339.0400085449219 1333.180053710938 338.510009765625 L 1331.5 334.9500122070313 L 1331.380004882813 335.2099914550781 C 1331.359985351563 334.5499877929688 1331.199951171875 333.9200134277344 1330.93994140625 333.3599853515625 C 1330.152709960938 331.626220703125 1328.403076171875 330.4166870117188 1326.383056640625 330.4167175292969 C 1326.119384765625 330.4167175292969 1325.851196289063 330.4373168945313 1325.579956054688 330.4800109863281 C 1323.47998046875 330.8099975585938 1321.760009765625 332.5299987792969 1321.43994140625 334.6300048828125 C 1321.0400390625 337.2699890136719 1322.699951171875 339.6000061035156 1325.06005859375 340.239990234375 C 1325.481689453125 340.3586120605469 1325.929443359375 340.4207763671875 1326.394653320313 340.4207763671875 C 1326.635498046875 340.4207763671875 1326.880981445313 340.4041137695313 1327.130004882813 340.3699951171875 C 1327.52001953125 340.3099975585938 1327.910034179688 340.2099914550781 1328.27001953125 340.0599975585938 L 1325.140014648438 342.0499877929688 L 1328.68994140625 344.3099975585938 C 1328.949951171875 344.4800109863281 1329.18994140625 344.6799926757813 1329.380004882813 344.9200134277344 L 1323.219970703125 344.9200134277344 C 1319.719970703125 344.9200134277344 1316.880004882813 342.0799865722656 1316.880004882813 338.5899963378906 L 1316.880004882813 332.25 C 1316.880004882813 328.760009765625 1319.719970703125 325.9200134277344 1323.219970703125 325.9200134277344 Z" stroke="none" fill="#8797ff"/>
    </g>
    <g id="타원_550" data-name="타원 550" transform="translate(1323.13 332.167)" fill="#8797ff" stroke="#8797ff" stroke-miterlimit="10" stroke-width="1.316">
      <circle cx="3.25" cy="3.25" r="3.25" stroke="none"/>
      <circle cx="3.25" cy="3.25" r="2.592" fill="none"/>
    </g>
    <g id="패스_1998" data-name="패스 1998" fill="#8797ff" stroke-miterlimit="10">
      <path d="M 1327.215454101563 344.2113647460938 L 1323.219970703125 344.2113647460938 C 1320.114868164063 344.2113647460938 1317.588623046875 341.6896362304688 1317.588623046875 338.5899963378906 L 1317.588623046875 332.25 C 1317.588623046875 329.150390625 1320.114868164063 326.628662109375 1323.219970703125 326.628662109375 L 1329.550048828125 326.628662109375 C 1332.649658203125 326.628662109375 1335.17138671875 329.150390625 1335.17138671875 332.25 L 1335.17138671875 338.5899963378906 C 1335.17138671875 338.6702575683594 1335.17138671875 338.7460327148438 1335.162719726563 338.7931518554688 L 1335.153564453125 338.8439636230469 L 1335.151733398438 338.8955688476563 C 1335.145263671875 339.0842590332031 1335.127563476563 339.2734375 1335.098999023438 339.46240234375 L 1334.690795898438 339.2023010253906 C 1334.316528320313 338.9656066894531 1334.016479492188 338.6220703125 1333.821044921875 338.2076721191406 L 1332.140869140625 334.6475524902344 L 1331.993041992188 334.3341979980469 C 1331.908813476563 333.8971252441406 1331.771118164063 333.4682006835938 1331.584350585938 333.0650634765625 C 1330.657470703125 331.025634765625 1328.616088867188 329.7080383300781 1326.383056640625 329.7080383300781 C 1326.080078125 329.7080383300781 1325.772827148438 329.7322387695313 1325.4697265625 329.7799682617188 C 1323.052368164063 330.1598205566406 1321.107177734375 332.1103210449219 1320.739379882813 334.5232238769531 C 1320.301513671875 337.4134216308594 1322.077880859375 340.1639099121094 1324.87158203125 340.9231262207031 C 1325.04541015625 340.971923828125 1325.222412109375 341.0121459960938 1325.401977539063 341.043701171875 L 1324.759765625 341.4519653320313 L 1323.81982421875 342.0495910644531 L 1324.759399414063 342.6477966308594 L 1327.215454101563 344.2113647460938 Z" stroke="none"/>
      <path d="M 1323.219970703125 327.3373413085938 C 1320.505615234375 327.3373413085938 1318.29736328125 329.5411682128906 1318.29736328125 332.25 L 1318.29736328125 338.5899963378906 C 1318.29736328125 341.2988586425781 1320.505615234375 343.502685546875 1323.219970703125 343.502685546875 L 1324.78271484375 343.502685546875 L 1324.37890625 343.2455749511719 L 1322.499633789063 342.0491943359375 L 1323.732666015625 341.2651977539063 C 1321.1513671875 340.1006469726563 1319.598754882813 337.3213500976563 1320.038818359375 334.4164428710938 C 1320.452514648438 331.7016296386719 1322.640747070313 329.5071716308594 1325.359497070313 329.0799560546875 C 1325.698974609375 329.0264892578125 1326.043334960938 328.9993896484375 1326.382934570313 328.9993896484375 C 1328.891967773438 328.9993591308594 1331.185302734375 330.478271484375 1332.227661132813 332.7679748535156 C 1332.429443359375 333.2034606933594 1332.578491210938 333.6542663574219 1332.673706054688 334.1161193847656 L 1332.78173828125 334.3451232910156 L 1334.4619140625 337.9053344726563 C 1334.462158203125 337.9058837890625 1334.46240234375 337.9064025878906 1334.462646484375 337.9069519042969 L 1334.462646484375 332.25 C 1334.462646484375 329.5411682128906 1332.258911132813 327.3373413085938 1329.550048828125 327.3373413085938 L 1323.219970703125 327.3373413085938 M 1323.219970703125 325.9200134277344 L 1329.550048828125 325.9200134277344 C 1333.050048828125 325.9200134277344 1335.880004882813 328.760009765625 1335.880004882813 332.25 L 1335.880004882813 338.5899963378906 C 1335.880004882813 338.7000122070313 1335.880004882813 338.8099975585938 1335.859985351563 338.9200134277344 C 1335.839965820313 339.5 1335.72998046875 340.0599975585938 1335.550048828125 340.5899963378906 L 1334.31005859375 339.7999877929688 C 1333.819946289063 339.489990234375 1333.430053710938 339.0400085449219 1333.180053710938 338.510009765625 L 1331.5 334.9500122070313 L 1331.380004882813 335.2099914550781 C 1331.359985351563 334.5499877929688 1331.199951171875 333.9200134277344 1330.93994140625 333.3599853515625 C 1330.152709960938 331.626220703125 1328.403076171875 330.4166870117188 1326.383056640625 330.4167175292969 C 1326.119384765625 330.4167175292969 1325.851196289063 330.4373168945313 1325.579956054688 330.4800109863281 C 1323.47998046875 330.8099975585938 1321.760009765625 332.5299987792969 1321.43994140625 334.6300048828125 C 1321.0400390625 337.2699890136719 1322.699951171875 339.6000061035156 1325.06005859375 340.239990234375 C 1325.481689453125 340.3586120605469 1325.929443359375 340.4207763671875 1326.394653320313 340.4207763671875 C 1326.635498046875 340.4207763671875 1326.880981445313 340.4041137695313 1327.130004882813 340.3699951171875 C 1327.52001953125 340.3099975585938 1327.910034179688 340.2099914550781 1328.27001953125 340.0599975585938 L 1325.140014648438 342.0499877929688 L 1328.68994140625 344.3099975585938 C 1328.949951171875 344.4800109863281 1329.18994140625 344.6799926757813 1329.380004882813 344.9200134277344 L 1323.219970703125 344.9200134277344 C 1319.719970703125 344.9200134277344 1316.880004882813 342.0799865722656 1316.880004882813 338.5899963378906 L 1316.880004882813 332.25 C 1316.880004882813 328.760009765625 1319.719970703125 325.9200134277344 1323.219970703125 325.9200134277344 Z" stroke="none" fill="#8797ff"/>
    </g>
    <path id="패스_1999" data-name="패스 1999" d="M1338.81,340.79l-2.95-1.87-.7-.45a1.423,1.423,0,0,1-.56-.63l-1.76-3.74a1.467,1.467,0,0,0-1.34-.85,1.552,1.552,0,0,0-.56.11,1.439,1.439,0,0,0-.78.74l-1.9,4.04a.339.339,0,0,1-.14.15l-3.06,1.95-.87.55a1.5,1.5,0,0,0,0,2.53l2.52,1.6,1.14.72a1.437,1.437,0,0,1,.55.62l1.76,3.75a1.481,1.481,0,0,0,2.68,0l1.76-3.75a1.437,1.437,0,0,1,.55-.62l3.66-2.32A1.5,1.5,0,0,0,1338.81,340.79Zm-4.5,3.52a3.046,3.046,0,0,0-1.13,1.28l-1.68,3.56-1.68-3.56a2.772,2.772,0,0,0-.44-.67,2.881,2.881,0,0,0-.69-.61l-3.55-2.26,3.13-1.99.03-.01.67-.43a1.985,1.985,0,0,0,.71-.81l1.7-3.6.12-.26,1.68,3.56a3.072,3.072,0,0,0,1.13,1.29l1.24.79,2.31,1.46Z" fill="#8797ff"/>
    <circle id="타원_551" data-name="타원 551" cx="1.3" cy="1.3" r="1.3" transform="translate(1330.7 329.5)" fill="#fff"/>
  </g>
</svg>
