<svg xmlns="http://www.w3.org/2000/svg" width="18.311" height="18.311" viewBox="0 0 18.311 18.311">
  <g id="Series__Content_연락_아이콘_" data-name="Series_ Content 연락 아이콘 " transform="translate(0.75 0.75)">
    <rect id="사각형_320" data-name="사각형 320" width="16.811" height="16.811" fill="none"/>
    <path id="패스_110" data-name="패스 110" d="M9.757,12.008l1.8-1.651a.551.551,0,0,1,.45-.15l.3.15,4.2,1.951c.3.15.3.3.3.6a3.805,3.805,0,0,1-1.2,2.7,4.3,4.3,0,0,1-3.152,1.2,9.146,9.146,0,0,1-4.2-1.051,19.677,19.677,0,0,1-4.2-3A25.567,25.567,0,0,1,1.8,9.456a20.748,20.748,0,0,1-1.5-3.3A9.237,9.237,0,0,1,0,3.3,3.944,3.944,0,0,1,1.051,1.051,4.565,4.565,0,0,1,3.9,0a.78.78,0,0,1,.6.3L6.755,4.5a.524.524,0,0,0,.15.3.551.551,0,0,1-.15.45L4.8,7.055a.67.67,0,0,0,0,.751,14.334,14.334,0,0,0,1.8,2.4,15.155,15.155,0,0,0,2.4,1.951C9.306,12.308,9.606,12.308,9.757,12.008Z" transform="translate(0 0)" fill="none" stroke="#8797ff" stroke-width="1.5"/>
  </g>
</svg>
