<svg xmlns="http://www.w3.org/2000/svg" width="19.028" height="16.132" viewBox="0 0 19.028 16.132">
  <g id="Series__Content_메뉴_맵기_아이콘_" data-name="Series_ Content 메뉴 맵기 아이콘 " transform="matrix(0.966, 0.259, -0.259, 0.966, 664.069, -3282.813)">
    <g id="그룹_1303" data-name="그룹 1303" transform="translate(45.776 4.934)">
      <g id="그룹_1304" data-name="그룹 1304" transform="translate(2009.718 6144.971) rotate(150)">
        <path id="합치기_33" data-name="합치기 33" d="M-2830.875-2687.089l3.311-.8a2.088,2.088,0,0,1-.392-1.93,10.624,10.624,0,0,1,2.447-4.523,9.727,9.727,0,0,1,5.571-3.16,6.428,6.428,0,0,1,3.964.124,2.4,2.4,0,0,1-.5.793c-.417.516-1.032,1.14-1.743,1.863-.969.984-2.174,2.209-3.308,3.608a10.6,10.6,0,0,1-3.915,3.334,2.221,2.221,0,0,1-1.839.1,3.7,3.7,0,0,1-2.37.722A5.88,5.88,0,0,1-2830.875-2687.089Z" transform="translate(3012.575 6036.753)" fill="none" stroke="#8797ff" stroke-linejoin="round" stroke-width="1.5"/>
      </g>
    </g>
    <path id="패스_1968" data-name="패스 1968" d="M1.492-.318c.563-.073.762,2.494.762,2.494l-3.483-.061S.928-.245,1.492-.318Z" transform="matrix(-1, 0.017, -0.017, -1, 220.626, 3344.991)" fill="#8797ff"/>
    <path id="패스_1969" data-name="패스 1969" d="M1.492-.318c.563-.073,1.593,1.65,1.593,1.65S.367,2.583.177,1.96A2.656,2.656,0,0,1,1.492-.318Z" transform="matrix(-1, 0.017, -0.017, -1, 222.626, 3344.991)" fill="#8797ff"/>
  </g>
</svg>
