<svg xmlns="http://www.w3.org/2000/svg" width="104.12" height="16" viewBox="0 0 104.12 16">
  <g id="그룹_1520" data-name="그룹 1520" transform="translate(-155.284 -288)">
    <g id="그룹_1519" data-name="그룹 1519" transform="translate(155.284 288.249)">
      <path id="패스_2145" data-name="패스 2145" d="M162.006,304.253c-.367-.093-.734-.184-1.1-.281A7.5,7.5,0,0,1,155.3,297a7.6,7.6,0,0,1,3.4-7.209c3.491-2.316,8.749-1.4,11.034,1.9a19.082,19.082,0,0,1,1.053,2.012c-.843,0-1.505.01-2.167-.011-.095,0-.22-.137-.271-.24-1.236-2.468-3.372-3.183-5.925-2.969a5.489,5.489,0,0,0-4.981,4.785,5.9,5.9,0,0,0,2.987,6.463,6.016,6.016,0,0,0,6.95-1.017,4.794,4.794,0,0,0,1.344-2.926h-5.882v-1.775h8.028a7.247,7.247,0,0,1-4.58,7.651c-.635.248-1.31.394-1.966.587Z" transform="translate(-155.284 -288.503)" fill="#77f"/>
      <path id="패스_2146" data-name="패스 2146" d="M254.066,297.665c-.854.95-1.675,1.842-2.464,2.76a1.067,1.067,0,0,0-.167.637c-.016,1.056-.007,2.111-.007,3.187h-2V289.27h2.01v8.3l.124.046,2.936-3.3c1.408-1.582,2.809-3.171,4.235-4.737a1.169,1.169,0,0,1,.724-.329c.667-.045,1.34-.015,2.161-.015l-6.2,6.924,6.6,8.1c-.915,0-1.726.022-2.535-.019-.158-.008-.325-.242-.453-.4C257.387,301.806,255.749,299.763,254.066,297.665Z" transform="translate(-202.72 -288.867)" fill="#77f"/>
      <path id="패스_2147" data-name="패스 2147" d="M201.084,302.453v1.83H190.869V289.339h2.024v13.114Z" transform="translate(-173.215 -288.924)" fill="#77f"/>
      <path id="패스_2148" data-name="패스 2148" d="M346.621,302.45H354.8v1.834H344.611V289.323h2.01Z" transform="translate(-250.683 -288.916)" fill="#77f"/>
    </g>
    <path id="패스_2149" data-name="패스 2149" d="M282.426,288a8,8,0,1,0,8,8A8,8,0,0,0,282.426,288Zm0,13.966A5.966,5.966,0,1,1,288.392,296,5.966,5.966,0,0,1,282.426,301.966Z" transform="translate(-60.034)" fill="#77f"/>
    <path id="패스_2150" data-name="패스 2150" d="M317.409,288a8,8,0,1,0,8,8A8,8,0,0,0,317.409,288Zm0,13.966A5.966,5.966,0,1,1,323.375,296,5.966,5.966,0,0,1,317.409,301.966Z" transform="translate(-77.662)" fill="#77f"/>
    <path id="패스_2151" data-name="패스 2151" d="M220.113,288a8,8,0,1,0,8,8A8,8,0,0,0,220.113,288Zm0,13.966A5.966,5.966,0,1,1,226.079,296,5.966,5.966,0,0,1,220.113,301.966Z" transform="translate(-28.636)" fill="#77f"/>
  </g>
</svg>
