<svg id="Series__Content_조회수_파랑_아이콘" data-name="Series_ Content 조회수(파랑) 아이콘" xmlns="http://www.w3.org/2000/svg" width="20.448" height="12.866" viewBox="0 0 20.448 12.866">
  <g id="패스_1818" data-name="패스 1818" transform="translate(0 0)" fill="none">
    <path d="M10.224,0c5.647,0,10.224,4.7,10.224,6.433s-4.577,6.433-10.224,6.433S0,8.579,0,6.433,4.577,0,10.224,0Z" stroke="none"/>
    <path d="M 10.22403621673584 1.5 C 7.254196166992188 1.5 4.971066474914551 2.832479476928711 3.874435424804688 3.62675952911377 C 3.115137100219727 4.176719665527344 2.453695297241211 4.810480117797852 2.01197624206543 5.411289691925049 C 1.591976165771484 5.982549667358398 1.499996185302734 6.342649936676025 1.499996185302734 6.433189868927002 C 1.499996185302734 6.523729801177979 1.591976165771484 6.883830070495605 2.01197624206543 7.455090045928955 C 2.453695297241211 8.055900573730469 3.115137100219727 8.68966007232666 3.874435424804688 9.239620208740234 C 4.971066474914551 10.03389930725098 7.254196166992188 11.366379737854 10.22403621673584 11.366379737854 C 13.00223636627197 11.366379737854 15.26163673400879 10.03495979309082 16.36117553710938 9.241310119628906 C 17.96284866333008 8.085222244262695 18.81403923034668 6.867365837097168 18.93927955627441 6.433189868927002 C 18.81403923034668 5.999013900756836 17.96284866333008 4.781157493591309 16.36117553710938 3.625069618225098 C 15.26163673400879 2.831419944763184 13.00223636627197 1.5 10.22403621673584 1.5 M 10.22403621673584 0 C 15.8706169128418 0 20.44807624816895 4.700479507446289 20.44807624816895 6.433189868927002 C 20.44807624816895 8.165899276733398 15.8706169128418 12.866379737854 10.22403621673584 12.866379737854 C 4.577456474304199 12.866379737854 -3.814697265625e-06 8.578939437866211 -3.814697265625e-06 6.433189868927002 C -3.814697265625e-06 4.287440299987793 4.577456474304199 0 10.22403621673584 0 Z" stroke="none" fill="#8797ff"/>
  </g>
  <g id="타원_409" data-name="타원 409" transform="translate(5.724 1.933)" fill="none" stroke="#8797ff" stroke-width="1.5">
    <circle cx="4.5" cy="4.5" r="4.5" stroke="none"/>
    <circle cx="4.5" cy="4.5" r="3.75" fill="none"/>
  </g>
</svg>
