<svg xmlns="http://www.w3.org/2000/svg" width="17" height="26.11" viewBox="0 0 17 26.11">
  <path id="Series__Content_메뉴_아이콘_" data-name="Series_ Content 메뉴 아이콘 " d="M1453.54,322.6h-1.23a.348.348,0,0,0-.35-.31h-1.52v-.25a1.743,1.743,0,0,0-1.74-1.75h-4.91a1.756,1.756,0,0,0-1.76,1.76v.24h-1.88a.356.356,0,0,0-.35.31h-1.23a1.016,1.016,0,0,0-1.01,1.02v21.76a1.016,1.016,0,0,0,1.01,1.02h14.97a1.024,1.024,0,0,0,1.02-1.02V323.62A1.024,1.024,0,0,0,1453.54,322.6Zm-12.34,1.11h2.24v-1.66a.346.346,0,0,1,.35-.34h4.91a.333.333,0,0,1,.33.33v1.67h1.88v3.58h-9.71Zm.63,15.81a1.27,1.27,0,1,1,1.27-1.27A1.28,1.28,0,0,1,1441.83,339.52Zm0-6a1.27,1.27,0,1,1,1.27-1.27A1.28,1.28,0,0,1,1441.83,333.52Zm9.01,5.44h-6.03a.71.71,0,1,1,0-1.42h6.03a.71.71,0,1,1,0,1.42Zm0-6h-6.03a.71.71,0,1,1,0-1.42h6.03a.71.71,0,1,1,0,1.42Z" transform="translate(-1437.56 -320.29)" fill="#8797ff"/>
</svg>
