<svg xmlns="http://www.w3.org/2000/svg" width="19.778" height="26.401" viewBox="0 0 19.778 26.401">
  <g id="그룹_1315" data-name="그룹 1315" transform="translate(-30 -969.432)">
    <g id="그룹_1314" data-name="그룹 1314" transform="translate(-1259.14 670.799)">
      <path id="합치기_35" data-name="합치기 35" d="M-1542.053-3358.977l-3.807,2.046,2.417-9.264,1.625.766.721.34,2.115.425-.14.5,1.544.727-2.147,7.83Zm1.959,1.292-.455-1.329-.133.477Zm-4.366-.947,2.543-1.366-.19-.38-2.153,1.013Z" transform="translate(2836.502 3680.135)" fill="#8797ff" stroke="#8797ff" stroke-linejoin="round" stroke-width="1"/>
      <path id="합치기_34" data-name="합치기 34" d="M-1544.9-3364.068l.75-.436,1.531,5.854.34-.513-1.846-5.355-.026.015-.1-.373-.087-.252,3.8-1.515.011.032,1.262-.734,2.185,9.45-3.657-2.045-2.236,3.374Zm6.474,4.472-.058-.222-2.06-1.242-.118.213Zm-1.1-4.188-.624-2.385-.2.059Z" transform="translate(2844.327 3681.1)" fill="#8797ff" stroke="#8797ff" stroke-linejoin="round" stroke-width="1"/>
    </g>
    <g id="패스_1978" data-name="패스 1978" transform="translate(-1025.136 670.38)" fill="none">
      <path d="M1074.805,308.814c-.9-.895-1.788-1.792-2.69-2.68a.623.623,0,0,1-.2-.494c.007-1.121,0-2.242,0-3.363,0-.213,0-.215-.211-.216q-1.746,0-3.492,0a.383.383,0,0,1-.3-.125q-1.19-1.2-2.386-2.393c-.158-.159-.308-.324-.467-.491-.063.056-.1.085-.134.119q-1.371,1.371-2.738,2.746a.468.468,0,0,1-.367.15c-1.143,0-2.285,0-3.428,0-.223,0-.224,0-.224.218,0,1.153,0,2.307,0,3.46a.443.443,0,0,1-.1.285c-.639.651-1.286,1.293-1.932,1.937-.319.318-.64.632-1.006.994a1.286,1.286,0,0,1,.175.12q1.368,1.363,2.734,2.727a.381.381,0,0,1,.129.294c0,1.164,0,2.328,0,3.492,0,.216,0,.217.226.217,1.137,0,2.274,0,3.412,0a.5.5,0,0,1,.4.161c.788.8,1.583,1.587,2.375,2.381.15.151.294.308.484.508a2.633,2.633,0,0,1,.2-.258q1.334-1.339,2.676-2.671a.418.418,0,0,1,.262-.112q1.762-.012,3.524,0c.144,0,.195-.038.194-.19,0-1.169,0-2.339,0-3.508a.381.381,0,0,1,.122-.3q1.358-1.35,2.71-2.706c.055-.055.107-.114.164-.174C1074.87,308.885,1074.839,308.848,1074.805,308.814Z" stroke="none"/>
      <path d="M 1065.047607421875 301.8861694335938 C 1064.571166992188 302.3631591796875 1064.0908203125 302.84521484375 1063.617919921875 303.3234252929688 C 1063.137084960938 303.8094482421875 1062.51953125 304.0663146972656 1061.829345703125 304.0663146972656 L 1061.825439453125 304.0663146972656 L 1061.821533203125 304.0662841796875 C 1061.3408203125 304.0644226074219 1060.828491210938 304.0635070800781 1060.177368164063 304.0633850097656 C 1060.177001953125 304.6242065429688 1060.175903320313 305.190185546875 1060.172607421875 305.7496948242188 C 1060.170166015625 306.3828735351563 1059.926025390625 306.9939880371094 1059.50146484375 307.4277038574219 C 1059.003540039063 307.935302734375 1058.496337890625 308.4417114257813 1058.001098632813 308.9349365234375 C 1058.48583984375 309.4188537597656 1058.970581054688 309.9026489257813 1059.4541015625 310.3836975097656 C 1060.052978515625 310.9776611328125 1060.176635742188 311.6480712890625 1060.1748046875 312.1043701171875 C 1060.172973632813 312.6692810058594 1060.172729492188 313.2404479980469 1060.173095703125 313.8077697753906 C 1060.822387695313 313.8077087402344 1061.327026367188 313.8066711425781 1061.798950195313 313.8044128417969 L 1061.810180664063 313.8043518066406 L 1061.817260742188 313.8043518066406 C 1062.516235351563 313.8043518066406 1063.143188476563 314.0653076171875 1063.630615234375 314.5590515136719 C 1064.099487304688 315.0332641601563 1064.579833984375 315.5139465332031 1065.047607421875 315.9817504882813 C 1065.537719726563 315.4918518066406 1066.037719726563 314.9939270019531 1066.537475585938 314.4997253417969 C 1066.975463867188 314.0685729980469 1067.576049804688 313.8181762695313 1068.188720703125 313.812744140625 C 1068.748046875 313.8087768554688 1069.31787109375 313.8064270019531 1069.91943359375 313.8056640625 C 1069.91943359375 313.7658386230469 1069.91943359375 313.7261352539063 1069.91943359375 313.6864929199219 C 1069.919799804688 313.1627197265625 1069.920166015625 312.6389465332031 1069.918823242188 312.1142272949219 C 1069.91748046875 311.4535217285156 1070.163818359375 310.8589172363281 1070.630737304688 310.3952026367188 C 1071.117797851563 309.9110412597656 1071.609375 309.4203186035156 1072.09619140625 308.9336547851563 C 1071.6376953125 308.4755554199219 1071.172973632813 308.0131225585938 1070.711669921875 307.5595703125 C 1070.345458984375 307.1988220214844 1069.910278320313 306.570556640625 1069.917114257813 305.6280212402344 C 1069.920532226563 305.1084899902344 1069.921508789063 304.5821838378906 1069.921508789063 304.0598449707031 C 1069.797119140625 304.0597839355469 1069.672485351563 304.0597229003906 1069.548095703125 304.0597229003906 C 1069.106201171875 304.0597229003906 1068.664306640625 304.0601806640625 1068.222412109375 304.0613708496094 L 1068.21875 304.0613708496094 L 1068.216064453125 304.0613708496094 C 1067.560424804688 304.0613708496094 1066.968017578125 303.8139038085938 1066.502075195313 303.3450622558594 C 1066.035766601563 302.8753051757813 1065.56787109375 302.4070129394531 1065.10009765625 301.938720703125 C 1065.08251953125 301.9212036132813 1065.065063476563 301.9036865234375 1065.047607421875 301.8861694335938 M 1065.068481445313 299.052001953125 C 1065.226684570313 299.2190856933594 1065.377319335938 299.3849182128906 1065.53515625 299.5434265136719 C 1066.329956054688 300.3414306640625 1067.127807617188 301.1366271972656 1067.92138671875 301.9359741210938 C 1068.0068359375 302.02197265625 1068.093505859375 302.0613708496094 1068.216064453125 302.0613708496094 C 1068.216430664063 302.0613708496094 1068.216674804688 302.0613708496094 1068.217041015625 302.0613708496094 C 1068.660766601563 302.0601806640625 1069.104370117188 302.0597229003906 1069.548095703125 302.0597229003906 C 1070.268432617188 302.0597229003906 1070.988891601563 302.0608825683594 1071.709350585938 302.0618591308594 C 1071.918823242188 302.0621032714844 1071.920166015625 302.064208984375 1071.92041015625 302.2774658203125 C 1071.920654296875 303.3985290527344 1071.92431640625 304.5198059082031 1071.917114257813 305.640869140625 C 1071.915649414063 305.8413391113281 1071.967407226563 305.9891662597656 1072.115112304688 306.1346435546875 C 1073.017700195313 307.0220947265625 1073.909790039063 307.9199829101563 1074.805297851563 308.8144836425781 C 1074.838989257813 308.848388671875 1074.8701171875 308.8848876953125 1074.914306640625 308.9333801269531 C 1074.857788085938 308.9935607910156 1074.8056640625 309.05224609375 1074.750366210938 309.1075134277344 C 1073.847900390625 310.0103149414063 1072.946044921875 310.9136962890625 1072.040649414063 311.8136596679688 C 1071.953491210938 311.9002380371094 1071.918579101563 311.9883422851563 1071.918823242188 312.110107421875 C 1071.921752929688 313.2796020507813 1071.91650390625 314.4488830566406 1071.921264648438 315.6181640625 C 1071.921875 315.7693786621094 1071.871948242188 315.8077087402344 1071.728759765625 315.8077087402344 C 1071.728271484375 315.8077087402344 1071.727661132813 315.8077087402344 1071.727172851563 315.8077087402344 C 1071.27685546875 315.8062133789063 1070.826782226563 315.8053588867188 1070.37646484375 315.8053588867188 C 1069.651977539063 315.8053588867188 1068.927368164063 315.8075561523438 1068.202880859375 315.8126831054688 C 1068.114135742188 315.8134765625 1068.004638671875 315.8619384765625 1067.940551757813 315.9250183105469 C 1067.04443359375 316.8111877441406 1066.15380859375 317.7030639648438 1065.26416015625 318.5960083007813 C 1065.197021484375 318.6635131835938 1065.147094726563 318.7482604980469 1065.0673828125 318.8540954589844 C 1064.877563476563 318.6546325683594 1064.733642578125 318.4971618652344 1064.583251953125 318.3465270996094 C 1063.791870117188 317.5526428222656 1062.99658203125 316.7624206542969 1062.208374023438 315.9651794433594 C 1062.09423828125 315.8491821289063 1061.976928710938 315.8043518066406 1061.817260742188 315.8043518066406 C 1061.815795898438 315.8043518066406 1061.814453125 315.8043518066406 1061.81298828125 315.8043518066406 C 1061.247192382813 315.8070678710938 1060.681640625 315.8078002929688 1060.115966796875 315.8078002929688 C 1059.54443359375 315.8078002929688 1058.972778320313 315.8070678710938 1058.4013671875 315.8069152832031 C 1058.177490234375 315.8066711425781 1058.175659179688 315.8058776855469 1058.17529296875 315.5900573730469 C 1058.173828125 314.4262084960938 1058.171142578125 313.26220703125 1058.1748046875 312.0980834960938 C 1058.17529296875 311.9727172851563 1058.130981445313 311.8882446289063 1058.045776367188 311.8037414550781 C 1057.133178710938 310.8959655761719 1056.2236328125 309.9853515625 1055.3115234375 309.0769958496094 C 1055.270141601563 309.0357971191406 1055.213989257813 309.009521484375 1055.136108398438 308.9573669433594 C 1055.501953125 308.5960083007813 1055.8232421875 308.2813110351563 1056.141967773438 307.9637451171875 C 1056.787841796875 307.3203430175781 1057.43505859375 306.67822265625 1058.073608398438 306.0272216796875 C 1058.137939453125 305.9615173339844 1058.172241210938 305.8387451171875 1058.172607421875 305.7420349121094 C 1058.179443359375 304.5888977050781 1058.177001953125 303.4355163574219 1058.177368164063 302.2821655273438 C 1058.177368164063 302.0650024414063 1058.178344726563 302.064208984375 1058.401611328125 302.06396484375 C 1058.940673828125 302.0638427734375 1059.479614257813 302.0633544921875 1060.0185546875 302.0633544921875 C 1060.622192382813 302.0633544921875 1061.225708007813 302.06396484375 1061.829345703125 302.0663146972656 C 1061.830322265625 302.0663146972656 1061.831176757813 302.0663146972656 1061.832153320313 302.0663146972656 C 1061.980102539063 302.0663146972656 1062.088745117188 302.0254516601563 1062.196411132813 301.9166259765625 C 1063.105346679688 300.9974060058594 1064.020629882813 300.0848999023438 1064.934692382813 299.1706237792969 C 1064.967895507813 299.1372375488281 1065.00537109375 299.1077575683594 1065.068481445313 299.052001953125 Z" stroke="none" fill="#8797ff"/>
    </g>
  </g>
</svg>
