<svg xmlns="http://www.w3.org/2000/svg" width="19.133" height="19.133" viewBox="0 0 19.133 19.133">
  <g id="Series__Content_인스타_아이콘_" data-name="Series_ Content 인스타 아이콘 " transform="translate(-125.273 -4284.988)">
    <path id="패스_1729" data-name="패스 1729" d="M8.817,0A28.945,28.945,0,0,0,5.192.1,6.048,6.048,0,0,0,3.037.49a3.835,3.835,0,0,0-1.567.98A3.835,3.835,0,0,0,.49,3.037,4.464,4.464,0,0,0,.1,5.192,28.945,28.945,0,0,0,0,8.817a28.945,28.945,0,0,0,.1,3.625A6.048,6.048,0,0,0,.49,14.6a3.835,3.835,0,0,0,.98,1.567,3.835,3.835,0,0,0,1.567.98,6.048,6.048,0,0,0,2.155.392,28.945,28.945,0,0,0,3.625.1,28.945,28.945,0,0,0,3.625-.1,6.048,6.048,0,0,0,2.155-.392A4.11,4.11,0,0,0,17.144,14.6a6.048,6.048,0,0,0,.392-2.155c0-.98.1-1.274.1-3.625a28.945,28.945,0,0,0-.1-3.625,6.048,6.048,0,0,0-.392-2.155,3.835,3.835,0,0,0-.98-1.567A3.835,3.835,0,0,0,14.6.49,6.048,6.048,0,0,0,12.441.1,28.945,28.945,0,0,0,8.817,0" transform="translate(126.023 4285.738)" fill="none" stroke="#8797ff" stroke-width="1.5" fill-rule="evenodd"/>
    <g id="패스_1733" data-name="패스 1733" transform="translate(130.121 4289.921)" fill="none">
      <path d="M4.719,0A4.719,4.719,0,1,1,0,4.719,4.719,4.719,0,0,1,4.719,0Z" stroke="none"/>
      <path d="M 4.719482421875 1.500002384185791 C 2.944252490997314 1.500002384185791 1.500002384185791 2.944252490997314 1.500002384185791 4.719482421875 C 1.500002384185791 6.494712352752686 2.944252490997314 7.938962459564209 4.719482421875 7.938962459564209 C 6.494712352752686 7.938962459564209 7.938962459564209 6.494712352752686 7.938962459564209 4.719482421875 C 7.938962459564209 2.944252490997314 6.494712352752686 1.500002384185791 4.719482421875 1.500002384185791 M 4.719482421875 2.86102294921875e-06 C 7.325982093811035 2.86102294921875e-06 9.438961982727051 2.112982273101807 9.438961982727051 4.719482421875 C 9.438961982727051 7.325982093811035 7.325982093811035 9.438961982727051 4.719482421875 9.438961982727051 C 2.112982273101807 9.438961982727051 2.86102294921875e-06 7.325982093811035 2.86102294921875e-06 4.719482421875 C 2.86102294921875e-06 2.112982273101807 2.112982273101807 2.86102294921875e-06 4.719482421875 2.86102294921875e-06 Z" stroke="none" fill="#8797ff"/>
    </g>
    <path id="패스_1734" data-name="패스 1734" d="M1.18,0A1.18,1.18,0,1,1,0,1.18,1.18,1.18,0,0,1,1.18,0Z" transform="translate(138.591 4288.741)" fill="#8797ff"/>
  </g>
</svg>
